G04 #@! TF.GenerationSoftware,KiCad,Pcbnew,5.1.9+dfsg1-1*
G04 #@! TF.CreationDate,2021-11-24T09:04:39+00:00*
G04 #@! TF.ProjectId,gbc_retrozero_buttons_led,6762635f-7265-4747-926f-7a65726f5f62,rev?*
G04 #@! TF.SameCoordinates,Original*
G04 #@! TF.FileFunction,Copper,L2,Bot*
G04 #@! TF.FilePolarity,Positive*
%FSLAX46Y46*%
G04 Gerber Fmt 4.6, Leading zero omitted, Abs format (unit mm)*
G04 Created by KiCad (PCBNEW 5.1.9+dfsg1-1) date 2021-11-24 09:04:39*
%MOMM*%
%LPD*%
G01*
G04 APERTURE LIST*
G04 #@! TA.AperFunction,ComponentPad*
%ADD10C,2.800000*%
G04 #@! TD*
G04 #@! TA.AperFunction,ComponentPad*
%ADD11C,3.300000*%
G04 #@! TD*
G04 #@! TA.AperFunction,ComponentPad*
%ADD12C,1.900000*%
G04 #@! TD*
G04 #@! TA.AperFunction,ComponentPad*
%ADD13C,1.600000*%
G04 #@! TD*
G04 #@! TA.AperFunction,ComponentPad*
%ADD14C,3.500000*%
G04 #@! TD*
G04 #@! TA.AperFunction,SMDPad,CuDef*
%ADD15R,1.000000X2.000000*%
G04 #@! TD*
G04 #@! TA.AperFunction,SMDPad,CuDef*
%ADD16R,1.000000X3.000000*%
G04 #@! TD*
G04 #@! TA.AperFunction,SMDPad,CuDef*
%ADD17R,2.000000X3.000000*%
G04 #@! TD*
G04 #@! TA.AperFunction,ViaPad*
%ADD18C,0.800000*%
G04 #@! TD*
G04 #@! TA.AperFunction,Conductor*
%ADD19C,0.250000*%
G04 #@! TD*
G04 APERTURE END LIST*
D10*
X222917300Y-91088460D03*
X241840300Y-83341460D03*
X225584300Y-69371460D03*
X203613300Y-76356460D03*
X198215800Y-84230460D03*
X176435300Y-88040460D03*
D11*
X231185000Y-80550000D03*
D10*
X196260000Y-90202000D03*
D12*
X214578480Y-112132360D03*
X212038480Y-107052360D03*
X209498480Y-107052360D03*
X217118480Y-107052360D03*
X219658480Y-107052360D03*
D13*
X238709200Y-79959200D03*
X241249200Y-79959200D03*
X211582000Y-69215000D03*
X211582000Y-64643000D03*
X220091000Y-69215000D03*
X220091000Y-64643000D03*
D14*
X215773000Y-66929000D03*
D13*
X223774000Y-60833000D03*
X223774000Y-65405000D03*
D14*
X228092000Y-63119000D03*
D15*
X181034720Y-60370000D03*
X183036240Y-60370000D03*
X185037760Y-60370000D03*
X187044360Y-60370000D03*
X189045880Y-60370000D03*
X179033200Y-60370000D03*
X191047400Y-60370000D03*
X193048920Y-60370000D03*
X177026600Y-60370000D03*
X175020000Y-60370000D03*
D13*
X222656400Y-113322100D03*
X222656400Y-110782100D03*
D15*
X235402120Y-60375800D03*
X237403640Y-60375800D03*
X239405160Y-60375800D03*
X241406680Y-60375800D03*
X243408200Y-60375800D03*
X233400600Y-60375800D03*
X231394000Y-60375800D03*
G04 #@! TA.AperFunction,SMDPad,CuDef*
G36*
G01*
X210987400Y-102692039D02*
X210987400Y-103942041D01*
G75*
G02*
X210737401Y-104192040I-249999J0D01*
G01*
X209937399Y-104192040D01*
G75*
G02*
X209687400Y-103942041I0J249999D01*
G01*
X209687400Y-102692039D01*
G75*
G02*
X209937399Y-102442040I249999J0D01*
G01*
X210737401Y-102442040D01*
G75*
G02*
X210987400Y-102692039I0J-249999D01*
G01*
G37*
G04 #@! TD.AperFunction*
G04 #@! TA.AperFunction,SMDPad,CuDef*
G36*
G01*
X207887400Y-102692039D02*
X207887400Y-103942041D01*
G75*
G02*
X207637401Y-104192040I-249999J0D01*
G01*
X206837399Y-104192040D01*
G75*
G02*
X206587400Y-103942041I0J249999D01*
G01*
X206587400Y-102692039D01*
G75*
G02*
X206837399Y-102442040I249999J0D01*
G01*
X207637401Y-102442040D01*
G75*
G02*
X207887400Y-102692039I0J-249999D01*
G01*
G37*
G04 #@! TD.AperFunction*
D16*
X211571840Y-93169740D03*
X206860140Y-93169740D03*
X208561940Y-93169740D03*
D17*
X213705440Y-95549720D03*
X204739240Y-95519240D03*
D18*
X195465700Y-60566300D03*
X218122500Y-110464600D03*
X234467400Y-62445900D03*
X238899700Y-63182500D03*
X200761600Y-63563500D03*
X199199500Y-64109600D03*
X195008500Y-64363600D03*
X213677500Y-64427100D03*
X205651100Y-68326000D03*
X200418700Y-67208400D03*
X203174600Y-66116200D03*
X234505500Y-91274900D03*
X235458000Y-62992000D03*
X225348800Y-60502800D03*
X235064300Y-84137500D03*
X221856300Y-70269100D03*
X185267600Y-95745300D03*
X189433200Y-96329500D03*
X233997500Y-77381100D03*
X210629500Y-90436700D03*
X215773000Y-92760800D03*
X209359500Y-99160500D03*
X231368600Y-62458600D03*
X183896000Y-77393800D03*
X186359800Y-75095100D03*
X196151500Y-99148900D03*
X215290400Y-73825100D03*
X214515700Y-77939900D03*
X198653400Y-79070200D03*
X196748400Y-81229200D03*
X222821500Y-67462400D03*
X185915300Y-72783700D03*
X197408800Y-99301300D03*
X212813900Y-100888800D03*
X219887800Y-81267300D03*
X226490002Y-74993500D03*
X228968300Y-73482200D03*
X231013000Y-70078600D03*
X178308000Y-79857600D03*
X191350900Y-82346800D03*
X190003003Y-72886997D03*
D19*
X193048920Y-60370000D02*
X195269400Y-60370000D01*
X195269400Y-60370000D02*
X195465700Y-60566300D01*
X217118480Y-107052360D02*
X217118480Y-111149680D01*
X219290900Y-113322100D02*
X222656400Y-113322100D01*
X217118480Y-111149680D02*
X219290900Y-113322100D01*
X241408480Y-61746722D02*
X235642002Y-67513200D01*
X241408480Y-60370000D02*
X241408480Y-61746722D01*
X233160001Y-88087597D02*
X222554800Y-98692798D01*
X235642002Y-67513200D02*
X233160001Y-69995201D01*
X233160001Y-69995201D02*
X233160001Y-88087597D01*
X222554800Y-98692798D02*
X222554800Y-107708700D01*
X222554800Y-107708700D02*
X219798900Y-110464600D01*
X219798900Y-110464600D02*
X218122500Y-110464600D01*
X209498480Y-88010282D02*
X233286300Y-64222462D01*
X233286300Y-64222462D02*
X233286300Y-63627000D01*
X233286300Y-63627000D02*
X234467400Y-62445900D01*
X238899700Y-60877260D02*
X239406960Y-60370000D01*
X238899700Y-63182500D02*
X238899700Y-60877260D01*
X209498480Y-88010282D02*
X201727518Y-88010282D01*
X201727518Y-88010282D02*
X198297800Y-91440000D01*
X198297800Y-91440000D02*
X198297800Y-98183700D01*
X207166460Y-107052360D02*
X209498480Y-107052360D01*
X198297800Y-98183700D02*
X207166460Y-107052360D01*
X191047400Y-61620000D02*
X191771700Y-62344300D01*
X191047400Y-60370000D02*
X191047400Y-61620000D01*
X191771700Y-62344300D02*
X199542400Y-62344300D01*
X199542400Y-62344300D02*
X200761600Y-63563500D01*
X189045880Y-60870000D02*
X191396480Y-63220600D01*
X189045880Y-60370000D02*
X189045880Y-60870000D01*
X191396480Y-63220600D02*
X198310500Y-63220600D01*
X198310500Y-63220600D02*
X199199500Y-64109600D01*
X190954478Y-64363600D02*
X195008500Y-64363600D01*
X189787960Y-64363600D02*
X190954478Y-64363600D01*
X187044360Y-61620000D02*
X189787960Y-64363600D01*
X187044360Y-60370000D02*
X187044360Y-61620000D01*
X179033200Y-60370000D02*
X179033200Y-68213000D01*
X179033200Y-68213000D02*
X180314600Y-69494400D01*
X180314600Y-69494400D02*
X208559400Y-69494400D01*
X208559400Y-69494400D02*
X213626700Y-64427100D01*
X213626700Y-64427100D02*
X213677500Y-64427100D01*
X181034720Y-60370000D02*
X181034720Y-66912520D01*
X181034720Y-66912520D02*
X182448200Y-68326000D01*
X182448200Y-68326000D02*
X205651100Y-68326000D01*
X183036240Y-60370000D02*
X183036240Y-66475640D01*
X183036240Y-66475640D02*
X183769000Y-67208400D01*
X183769000Y-67208400D02*
X200418700Y-67208400D01*
X185037760Y-61620000D02*
X185293000Y-61875240D01*
X185037760Y-60370000D02*
X185037760Y-61620000D01*
X185293000Y-61875240D02*
X185293000Y-64389000D01*
X187020200Y-66116200D02*
X191719200Y-66116200D01*
X185293000Y-64389000D02*
X187020200Y-66116200D01*
X191719200Y-66116200D02*
X203174600Y-66116200D01*
X219658480Y-98997220D02*
X219658480Y-107052360D01*
X227418900Y-72104102D02*
X227418900Y-91236800D01*
X237405440Y-60370000D02*
X237405440Y-62117562D01*
X227418900Y-91236800D02*
X219658480Y-98997220D01*
X237405440Y-62117562D02*
X227418900Y-72104102D01*
X241249200Y-79959200D02*
X237693200Y-83515200D01*
X237693200Y-88087200D02*
X234505500Y-91274900D01*
X237693200Y-83515200D02*
X237693200Y-88087200D01*
X235458000Y-60424080D02*
X235403920Y-60370000D01*
X235458000Y-62992000D02*
X235458000Y-60424080D01*
X233400600Y-60375800D02*
X233400600Y-62382400D01*
X233400600Y-62382400D02*
X229565200Y-66217800D01*
X229565200Y-66217800D02*
X226872800Y-66217800D01*
X226872800Y-66217800D02*
X224917000Y-64262000D01*
X224917000Y-64262000D02*
X224917000Y-61887100D01*
X225348800Y-61455300D02*
X225348800Y-60502800D01*
X224917000Y-61887100D02*
X225348800Y-61455300D01*
X217639900Y-71666100D02*
X220091000Y-69215000D01*
X176872900Y-70116700D02*
X178422300Y-71666100D01*
X176872900Y-62722900D02*
X176872900Y-70116700D01*
X175020000Y-60870000D02*
X176872900Y-62722900D01*
X178422300Y-71666100D02*
X217639900Y-71666100D01*
X175020000Y-60370000D02*
X175020000Y-60870000D01*
X177026600Y-60370000D02*
X177026600Y-60870000D01*
X177026600Y-60870000D02*
X177888900Y-61732300D01*
X177888900Y-61732300D02*
X177888900Y-68935600D01*
X223774000Y-61964370D02*
X223774000Y-60833000D01*
X223774000Y-62625002D02*
X223774000Y-61964370D01*
X216059001Y-70340001D02*
X223774000Y-62625002D01*
X179293301Y-70340001D02*
X216059001Y-70340001D01*
X177888900Y-68935600D02*
X179293301Y-70340001D01*
X238709200Y-79959200D02*
X238709200Y-81254600D01*
X235826300Y-84137500D02*
X235064300Y-84137500D01*
X238709200Y-81254600D02*
X235826300Y-84137500D01*
X223774000Y-65405000D02*
X223774000Y-68351400D01*
X223774000Y-68351400D02*
X221856300Y-70269100D01*
X185267600Y-95745300D02*
X188849000Y-95745300D01*
X188849000Y-95745300D02*
X189433200Y-96329500D01*
X243408200Y-60375800D02*
X243408200Y-73304400D01*
X243408200Y-73304400D02*
X239331500Y-77381100D01*
X235610400Y-77381100D02*
X233997500Y-77381100D01*
X239331500Y-77381100D02*
X235610400Y-77381100D01*
X213448900Y-90436700D02*
X215773000Y-92760800D01*
X210629500Y-90436700D02*
X213448900Y-90436700D01*
X207161200Y-103240840D02*
X207237400Y-103317040D01*
X207161200Y-101358800D02*
X207161200Y-103240840D01*
X209359500Y-99160500D02*
X207161200Y-101358800D01*
X231394000Y-62433200D02*
X231368600Y-62458600D01*
X231394000Y-60375800D02*
X231394000Y-62433200D01*
X186194700Y-75095100D02*
X186359800Y-75095100D01*
X183896000Y-77393800D02*
X186194700Y-75095100D01*
X194534999Y-86681101D02*
X194881500Y-86334600D01*
X194534999Y-97532399D02*
X194534999Y-86681101D01*
X196151500Y-99148900D02*
X194534999Y-97532399D01*
X214591900Y-73825100D02*
X215290400Y-73825100D01*
X214515700Y-73901300D02*
X214591900Y-73825100D01*
X214515700Y-77939900D02*
X214515700Y-73901300D01*
X194881500Y-86334600D02*
X194881500Y-84505800D01*
X198653400Y-80733900D02*
X198653400Y-79070200D01*
X197650100Y-81737200D02*
X197662800Y-81737200D01*
X197662800Y-81737200D02*
X197688200Y-81711800D01*
X194881500Y-84505800D02*
X197650100Y-81737200D01*
X197650100Y-81737200D02*
X198653400Y-80733900D01*
X197243700Y-80733900D02*
X198653400Y-80733900D01*
X196748400Y-81229200D02*
X197243700Y-80733900D01*
X217971402Y-72999600D02*
X214020400Y-72999600D01*
X222821500Y-68149502D02*
X217971402Y-72999600D01*
X222821500Y-67462400D02*
X222821500Y-68149502D01*
X186131200Y-72999600D02*
X185915300Y-72783700D01*
X196836199Y-99873901D02*
X191504401Y-99873901D01*
X197408800Y-99301300D02*
X196836199Y-99873901D01*
X191504401Y-99873901D02*
X191122300Y-99491800D01*
X191122300Y-93599000D02*
X186169300Y-88646000D01*
X191122300Y-99491800D02*
X191122300Y-93599000D01*
X197408800Y-99301300D02*
X207403700Y-109296200D01*
X213313481Y-101388381D02*
X212813900Y-100888800D01*
X213313481Y-107664361D02*
X213313481Y-101388381D01*
X211681642Y-109296200D02*
X213313481Y-107664361D01*
X207403700Y-109296200D02*
X211681642Y-109296200D01*
X212813900Y-100888800D02*
X216674700Y-100888800D01*
X219887800Y-97675700D02*
X219887800Y-81267300D01*
X216674700Y-100888800D02*
X219887800Y-97675700D01*
X226161600Y-74993500D02*
X226490002Y-74993500D01*
X219887800Y-81267300D02*
X226161600Y-74993500D01*
X185915300Y-72783700D02*
X178803300Y-79895700D01*
X178346100Y-79895700D02*
X178308000Y-79857600D01*
X178803300Y-79895700D02*
X178346100Y-79895700D01*
X186169300Y-87528400D02*
X191350900Y-82346800D01*
X186169300Y-88646000D02*
X186169300Y-87528400D01*
X185978800Y-87528400D02*
X186169300Y-87528400D01*
X178308000Y-79857600D02*
X185978800Y-87528400D01*
X189992000Y-72898000D02*
X190003003Y-72886997D01*
X214020400Y-72999600D02*
X189992000Y-72999600D01*
X189992000Y-72999600D02*
X189992000Y-72898000D01*
X189992000Y-72999600D02*
X186131200Y-72999600D01*
X228968300Y-72123300D02*
X231013000Y-70078600D01*
X228968300Y-73482200D02*
X228968300Y-72123300D01*
X206867760Y-105283000D02*
X211424520Y-105283000D01*
X205473300Y-103888540D02*
X206867760Y-105283000D01*
X211424520Y-105283000D02*
X212813900Y-103893620D01*
X205473300Y-100965000D02*
X205473300Y-103888540D01*
X208559400Y-97878900D02*
X205473300Y-100965000D01*
X212813900Y-103893620D02*
X212813900Y-100888800D01*
X208559400Y-93167200D02*
X208559400Y-97878900D01*
X210261200Y-103240840D02*
X210337400Y-103317040D01*
X210261200Y-93662500D02*
X210261200Y-103240840D01*
X210756500Y-93167200D02*
X210261200Y-93662500D01*
X211569300Y-93167200D02*
X210756500Y-93167200D01*
M02*
