M48
METRIC,TZ
T1C0.400
T2C1.000
T3C1.300
T4C2.200
T5C3.000
T6C3.200
%
G90
G05
T1
X178308Y-79858
X183896Y-77394
X185268Y-95745
X185915Y-72784
X186360Y-75095
X189433Y-96329
X190003Y-72887
X191351Y-82347
X195009Y-64364
X195466Y-60566
X196151Y-99149
X196748Y-81229
X197409Y-99301
X198653Y-79070
X199199Y-64110
X200419Y-67208
X200762Y-63564
X203175Y-66116
X205651Y-68326
X209359Y-99161
X210629Y-90437
X212814Y-100889
X213677Y-64427
X214516Y-77940
X215290Y-73825
X215773Y-92761
X218123Y-110465
X219888Y-81267
X221856Y-70269
X222821Y-67462
X225349Y-60503
X226490Y-74994
X228968Y-73482
X231013Y-70079
X231369Y-62459
X233998Y-77381
X234467Y-62446
X234506Y-91275
X235064Y-84138
X235458Y-62992
X238900Y-63182
T2
X211582Y-64643
X211582Y-69215
X220091Y-64643
X220091Y-69215
X222656Y-110782
X222656Y-113322
X223774Y-60833
X223774Y-65405
X238709Y-79959
X241249Y-79959
T3
X209498Y-107052
X212038Y-107052
X214578Y-112132
X217118Y-107052
X219658Y-107052
T4
X176435Y-88040
X196260Y-90202
X198216Y-84230
X203613Y-76356
X222917Y-91088
X225584Y-69371
X241840Y-83341
T5
X215773Y-66929
X228092Y-63119
T6
X231185Y-80550
T0
M30
