G04 #@! TF.GenerationSoftware,KiCad,Pcbnew,5.1.9+dfsg1-1*
G04 #@! TF.CreationDate,2021-11-24T09:04:40+00:00*
G04 #@! TF.ProjectId,gbc_retrozero_buttons_led,6762635f-7265-4747-926f-7a65726f5f62,rev?*
G04 #@! TF.SameCoordinates,Original*
G04 #@! TF.FileFunction,Soldermask,Bot*
G04 #@! TF.FilePolarity,Negative*
%FSLAX46Y46*%
G04 Gerber Fmt 4.6, Leading zero omitted, Abs format (unit mm)*
G04 Created by KiCad (PCBNEW 5.1.9+dfsg1-1) date 2021-11-24 09:04:40*
%MOMM*%
%LPD*%
G01*
G04 APERTURE LIST*
%ADD10C,2.902000*%
%ADD11C,3.402000*%
%ADD12C,2.002000*%
%ADD13C,1.702000*%
%ADD14C,3.602000*%
G04 APERTURE END LIST*
D10*
X222917300Y-91088460D03*
X241840300Y-83341460D03*
X225584300Y-69371460D03*
X203613300Y-76356460D03*
X198215800Y-84230460D03*
X176435300Y-88040460D03*
D11*
X231185000Y-80550000D03*
D10*
X196260000Y-90202000D03*
D12*
X214578480Y-112132360D03*
X212038480Y-107052360D03*
X209498480Y-107052360D03*
X217118480Y-107052360D03*
X219658480Y-107052360D03*
D13*
X238709200Y-79959200D03*
X241249200Y-79959200D03*
X211582000Y-69215000D03*
X211582000Y-64643000D03*
X220091000Y-69215000D03*
X220091000Y-64643000D03*
D14*
X215773000Y-66929000D03*
D13*
X223774000Y-60833000D03*
X223774000Y-65405000D03*
D14*
X228092000Y-63119000D03*
G36*
G01*
X180483720Y-61370000D02*
X180483720Y-59370000D01*
G75*
G02*
X180534720Y-59319000I51000J0D01*
G01*
X181534720Y-59319000D01*
G75*
G02*
X181585720Y-59370000I0J-51000D01*
G01*
X181585720Y-61370000D01*
G75*
G02*
X181534720Y-61421000I-51000J0D01*
G01*
X180534720Y-61421000D01*
G75*
G02*
X180483720Y-61370000I0J51000D01*
G01*
G37*
G36*
G01*
X182485240Y-61370000D02*
X182485240Y-59370000D01*
G75*
G02*
X182536240Y-59319000I51000J0D01*
G01*
X183536240Y-59319000D01*
G75*
G02*
X183587240Y-59370000I0J-51000D01*
G01*
X183587240Y-61370000D01*
G75*
G02*
X183536240Y-61421000I-51000J0D01*
G01*
X182536240Y-61421000D01*
G75*
G02*
X182485240Y-61370000I0J51000D01*
G01*
G37*
G36*
G01*
X184486760Y-61370000D02*
X184486760Y-59370000D01*
G75*
G02*
X184537760Y-59319000I51000J0D01*
G01*
X185537760Y-59319000D01*
G75*
G02*
X185588760Y-59370000I0J-51000D01*
G01*
X185588760Y-61370000D01*
G75*
G02*
X185537760Y-61421000I-51000J0D01*
G01*
X184537760Y-61421000D01*
G75*
G02*
X184486760Y-61370000I0J51000D01*
G01*
G37*
G36*
G01*
X186493360Y-61370000D02*
X186493360Y-59370000D01*
G75*
G02*
X186544360Y-59319000I51000J0D01*
G01*
X187544360Y-59319000D01*
G75*
G02*
X187595360Y-59370000I0J-51000D01*
G01*
X187595360Y-61370000D01*
G75*
G02*
X187544360Y-61421000I-51000J0D01*
G01*
X186544360Y-61421000D01*
G75*
G02*
X186493360Y-61370000I0J51000D01*
G01*
G37*
G36*
G01*
X188494880Y-61370000D02*
X188494880Y-59370000D01*
G75*
G02*
X188545880Y-59319000I51000J0D01*
G01*
X189545880Y-59319000D01*
G75*
G02*
X189596880Y-59370000I0J-51000D01*
G01*
X189596880Y-61370000D01*
G75*
G02*
X189545880Y-61421000I-51000J0D01*
G01*
X188545880Y-61421000D01*
G75*
G02*
X188494880Y-61370000I0J51000D01*
G01*
G37*
G36*
G01*
X178482200Y-61370000D02*
X178482200Y-59370000D01*
G75*
G02*
X178533200Y-59319000I51000J0D01*
G01*
X179533200Y-59319000D01*
G75*
G02*
X179584200Y-59370000I0J-51000D01*
G01*
X179584200Y-61370000D01*
G75*
G02*
X179533200Y-61421000I-51000J0D01*
G01*
X178533200Y-61421000D01*
G75*
G02*
X178482200Y-61370000I0J51000D01*
G01*
G37*
G36*
G01*
X190496400Y-61370000D02*
X190496400Y-59370000D01*
G75*
G02*
X190547400Y-59319000I51000J0D01*
G01*
X191547400Y-59319000D01*
G75*
G02*
X191598400Y-59370000I0J-51000D01*
G01*
X191598400Y-61370000D01*
G75*
G02*
X191547400Y-61421000I-51000J0D01*
G01*
X190547400Y-61421000D01*
G75*
G02*
X190496400Y-61370000I0J51000D01*
G01*
G37*
G36*
G01*
X192497920Y-61370000D02*
X192497920Y-59370000D01*
G75*
G02*
X192548920Y-59319000I51000J0D01*
G01*
X193548920Y-59319000D01*
G75*
G02*
X193599920Y-59370000I0J-51000D01*
G01*
X193599920Y-61370000D01*
G75*
G02*
X193548920Y-61421000I-51000J0D01*
G01*
X192548920Y-61421000D01*
G75*
G02*
X192497920Y-61370000I0J51000D01*
G01*
G37*
G36*
G01*
X176475600Y-61370000D02*
X176475600Y-59370000D01*
G75*
G02*
X176526600Y-59319000I51000J0D01*
G01*
X177526600Y-59319000D01*
G75*
G02*
X177577600Y-59370000I0J-51000D01*
G01*
X177577600Y-61370000D01*
G75*
G02*
X177526600Y-61421000I-51000J0D01*
G01*
X176526600Y-61421000D01*
G75*
G02*
X176475600Y-61370000I0J51000D01*
G01*
G37*
G36*
G01*
X174469000Y-61370000D02*
X174469000Y-59370000D01*
G75*
G02*
X174520000Y-59319000I51000J0D01*
G01*
X175520000Y-59319000D01*
G75*
G02*
X175571000Y-59370000I0J-51000D01*
G01*
X175571000Y-61370000D01*
G75*
G02*
X175520000Y-61421000I-51000J0D01*
G01*
X174520000Y-61421000D01*
G75*
G02*
X174469000Y-61370000I0J51000D01*
G01*
G37*
D13*
X222656400Y-113322100D03*
X222656400Y-110782100D03*
G36*
G01*
X234851120Y-61375800D02*
X234851120Y-59375800D01*
G75*
G02*
X234902120Y-59324800I51000J0D01*
G01*
X235902120Y-59324800D01*
G75*
G02*
X235953120Y-59375800I0J-51000D01*
G01*
X235953120Y-61375800D01*
G75*
G02*
X235902120Y-61426800I-51000J0D01*
G01*
X234902120Y-61426800D01*
G75*
G02*
X234851120Y-61375800I0J51000D01*
G01*
G37*
G36*
G01*
X236852640Y-61375800D02*
X236852640Y-59375800D01*
G75*
G02*
X236903640Y-59324800I51000J0D01*
G01*
X237903640Y-59324800D01*
G75*
G02*
X237954640Y-59375800I0J-51000D01*
G01*
X237954640Y-61375800D01*
G75*
G02*
X237903640Y-61426800I-51000J0D01*
G01*
X236903640Y-61426800D01*
G75*
G02*
X236852640Y-61375800I0J51000D01*
G01*
G37*
G36*
G01*
X238854160Y-61375800D02*
X238854160Y-59375800D01*
G75*
G02*
X238905160Y-59324800I51000J0D01*
G01*
X239905160Y-59324800D01*
G75*
G02*
X239956160Y-59375800I0J-51000D01*
G01*
X239956160Y-61375800D01*
G75*
G02*
X239905160Y-61426800I-51000J0D01*
G01*
X238905160Y-61426800D01*
G75*
G02*
X238854160Y-61375800I0J51000D01*
G01*
G37*
G36*
G01*
X240855680Y-61375800D02*
X240855680Y-59375800D01*
G75*
G02*
X240906680Y-59324800I51000J0D01*
G01*
X241906680Y-59324800D01*
G75*
G02*
X241957680Y-59375800I0J-51000D01*
G01*
X241957680Y-61375800D01*
G75*
G02*
X241906680Y-61426800I-51000J0D01*
G01*
X240906680Y-61426800D01*
G75*
G02*
X240855680Y-61375800I0J51000D01*
G01*
G37*
G36*
G01*
X242857200Y-61375800D02*
X242857200Y-59375800D01*
G75*
G02*
X242908200Y-59324800I51000J0D01*
G01*
X243908200Y-59324800D01*
G75*
G02*
X243959200Y-59375800I0J-51000D01*
G01*
X243959200Y-61375800D01*
G75*
G02*
X243908200Y-61426800I-51000J0D01*
G01*
X242908200Y-61426800D01*
G75*
G02*
X242857200Y-61375800I0J51000D01*
G01*
G37*
G36*
G01*
X232849600Y-61375800D02*
X232849600Y-59375800D01*
G75*
G02*
X232900600Y-59324800I51000J0D01*
G01*
X233900600Y-59324800D01*
G75*
G02*
X233951600Y-59375800I0J-51000D01*
G01*
X233951600Y-61375800D01*
G75*
G02*
X233900600Y-61426800I-51000J0D01*
G01*
X232900600Y-61426800D01*
G75*
G02*
X232849600Y-61375800I0J51000D01*
G01*
G37*
G36*
G01*
X230843000Y-61375800D02*
X230843000Y-59375800D01*
G75*
G02*
X230894000Y-59324800I51000J0D01*
G01*
X231894000Y-59324800D01*
G75*
G02*
X231945000Y-59375800I0J-51000D01*
G01*
X231945000Y-61375800D01*
G75*
G02*
X231894000Y-61426800I-51000J0D01*
G01*
X230894000Y-61426800D01*
G75*
G02*
X230843000Y-61375800I0J51000D01*
G01*
G37*
G36*
G01*
X211038400Y-102660654D02*
X211038400Y-103973426D01*
G75*
G02*
X210768786Y-104243040I-269614J0D01*
G01*
X209906014Y-104243040D01*
G75*
G02*
X209636400Y-103973426I0J269614D01*
G01*
X209636400Y-102660654D01*
G75*
G02*
X209906014Y-102391040I269614J0D01*
G01*
X210768786Y-102391040D01*
G75*
G02*
X211038400Y-102660654I0J-269614D01*
G01*
G37*
G36*
G01*
X207938400Y-102660654D02*
X207938400Y-103973426D01*
G75*
G02*
X207668786Y-104243040I-269614J0D01*
G01*
X206806014Y-104243040D01*
G75*
G02*
X206536400Y-103973426I0J269614D01*
G01*
X206536400Y-102660654D01*
G75*
G02*
X206806014Y-102391040I269614J0D01*
G01*
X207668786Y-102391040D01*
G75*
G02*
X207938400Y-102660654I0J-269614D01*
G01*
G37*
G36*
G01*
X212122840Y-91669740D02*
X212122840Y-94669740D01*
G75*
G02*
X212071840Y-94720740I-51000J0D01*
G01*
X211071840Y-94720740D01*
G75*
G02*
X211020840Y-94669740I0J51000D01*
G01*
X211020840Y-91669740D01*
G75*
G02*
X211071840Y-91618740I51000J0D01*
G01*
X212071840Y-91618740D01*
G75*
G02*
X212122840Y-91669740I0J-51000D01*
G01*
G37*
G36*
G01*
X207411140Y-91669740D02*
X207411140Y-94669740D01*
G75*
G02*
X207360140Y-94720740I-51000J0D01*
G01*
X206360140Y-94720740D01*
G75*
G02*
X206309140Y-94669740I0J51000D01*
G01*
X206309140Y-91669740D01*
G75*
G02*
X206360140Y-91618740I51000J0D01*
G01*
X207360140Y-91618740D01*
G75*
G02*
X207411140Y-91669740I0J-51000D01*
G01*
G37*
G36*
G01*
X209112940Y-91669740D02*
X209112940Y-94669740D01*
G75*
G02*
X209061940Y-94720740I-51000J0D01*
G01*
X208061940Y-94720740D01*
G75*
G02*
X208010940Y-94669740I0J51000D01*
G01*
X208010940Y-91669740D01*
G75*
G02*
X208061940Y-91618740I51000J0D01*
G01*
X209061940Y-91618740D01*
G75*
G02*
X209112940Y-91669740I0J-51000D01*
G01*
G37*
G36*
G01*
X214705440Y-97100720D02*
X212705440Y-97100720D01*
G75*
G02*
X212654440Y-97049720I0J51000D01*
G01*
X212654440Y-94049720D01*
G75*
G02*
X212705440Y-93998720I51000J0D01*
G01*
X214705440Y-93998720D01*
G75*
G02*
X214756440Y-94049720I0J-51000D01*
G01*
X214756440Y-97049720D01*
G75*
G02*
X214705440Y-97100720I-51000J0D01*
G01*
G37*
G36*
G01*
X205739240Y-97070240D02*
X203739240Y-97070240D01*
G75*
G02*
X203688240Y-97019240I0J51000D01*
G01*
X203688240Y-94019240D01*
G75*
G02*
X203739240Y-93968240I51000J0D01*
G01*
X205739240Y-93968240D01*
G75*
G02*
X205790240Y-94019240I0J-51000D01*
G01*
X205790240Y-97019240D01*
G75*
G02*
X205739240Y-97070240I-51000J0D01*
G01*
G37*
M02*
