G04 #@! TF.GenerationSoftware,KiCad,Pcbnew,5.1.9+dfsg1-1*
G04 #@! TF.CreationDate,2021-11-24T09:04:39+00:00*
G04 #@! TF.ProjectId,gbc_retrozero_buttons_led,6762635f-7265-4747-926f-7a65726f5f62,rev?*
G04 #@! TF.SameCoordinates,Original*
G04 #@! TF.FileFunction,Copper,L1,Top*
G04 #@! TF.FilePolarity,Positive*
%FSLAX46Y46*%
G04 Gerber Fmt 4.6, Leading zero omitted, Abs format (unit mm)*
G04 Created by KiCad (PCBNEW 5.1.9+dfsg1-1) date 2021-11-24 09:04:39*
%MOMM*%
%LPD*%
G01*
G04 APERTURE LIST*
G04 #@! TA.AperFunction,SMDPad,CuDef*
%ADD10R,0.500000X5.000000*%
G04 #@! TD*
G04 #@! TA.AperFunction,SMDPad,CuDef*
%ADD11R,2.200000X6.000000*%
G04 #@! TD*
G04 #@! TA.AperFunction,ComponentPad*
%ADD12C,2.800000*%
G04 #@! TD*
G04 #@! TA.AperFunction,ComponentPad*
%ADD13C,3.300000*%
G04 #@! TD*
G04 #@! TA.AperFunction,ComponentPad*
%ADD14C,1.900000*%
G04 #@! TD*
G04 #@! TA.AperFunction,ComponentPad*
%ADD15C,1.600000*%
G04 #@! TD*
G04 #@! TA.AperFunction,ComponentPad*
%ADD16C,3.500000*%
G04 #@! TD*
G04 #@! TA.AperFunction,ViaPad*
%ADD17C,0.800000*%
G04 #@! TD*
G04 #@! TA.AperFunction,Conductor*
%ADD18C,0.250000*%
G04 #@! TD*
G04 APERTURE END LIST*
D10*
X237103920Y-71882000D03*
X236098080Y-71882000D03*
D11*
X234315000Y-71882000D03*
X238887000Y-71882000D03*
D10*
X179572920Y-74295000D03*
X178567080Y-74295000D03*
D11*
X176784000Y-74295000D03*
X181356000Y-74295000D03*
D10*
X187319920Y-81915000D03*
X186314080Y-81915000D03*
D11*
X184531000Y-81915000D03*
X189103000Y-81915000D03*
D12*
X222917300Y-91088460D03*
X241840300Y-83341460D03*
X225584300Y-69371460D03*
X203613300Y-76356460D03*
X198215800Y-84230460D03*
X176435300Y-88040460D03*
D13*
X231185000Y-80550000D03*
D12*
X196260000Y-90202000D03*
D14*
X214578480Y-112132360D03*
X212038480Y-107052360D03*
X209498480Y-107052360D03*
X217118480Y-107052360D03*
X219658480Y-107052360D03*
G04 #@! TA.AperFunction,SMDPad,CuDef*
G36*
G01*
X193205000Y-90340000D02*
X193205000Y-92540000D01*
G75*
G02*
X192805000Y-92940000I-400000J0D01*
G01*
X192005000Y-92940000D01*
G75*
G02*
X191605000Y-92540000I0J400000D01*
G01*
X191605000Y-90340000D01*
G75*
G02*
X192005000Y-89940000I400000J0D01*
G01*
X192805000Y-89940000D01*
G75*
G02*
X193205000Y-90340000I0J-400000D01*
G01*
G37*
G04 #@! TD.AperFunction*
G04 #@! TA.AperFunction,SMDPad,CuDef*
G36*
G01*
X190665000Y-90340000D02*
X190665000Y-92540000D01*
G75*
G02*
X190265000Y-92940000I-400000J0D01*
G01*
X189465000Y-92940000D01*
G75*
G02*
X189065000Y-92540000I0J400000D01*
G01*
X189065000Y-90340000D01*
G75*
G02*
X189465000Y-89940000I400000J0D01*
G01*
X190265000Y-89940000D01*
G75*
G02*
X190665000Y-90340000I0J-400000D01*
G01*
G37*
G04 #@! TD.AperFunction*
G04 #@! TA.AperFunction,SMDPad,CuDef*
G36*
G01*
X188125000Y-90340000D02*
X188125000Y-92540000D01*
G75*
G02*
X187725000Y-92940000I-400000J0D01*
G01*
X186925000Y-92940000D01*
G75*
G02*
X186525000Y-92540000I0J400000D01*
G01*
X186525000Y-90340000D01*
G75*
G02*
X186925000Y-89940000I400000J0D01*
G01*
X187725000Y-89940000D01*
G75*
G02*
X188125000Y-90340000I0J-400000D01*
G01*
G37*
G04 #@! TD.AperFunction*
G04 #@! TA.AperFunction,SMDPad,CuDef*
G36*
G01*
X185585000Y-90340000D02*
X185585000Y-92540000D01*
G75*
G02*
X185185000Y-92940000I-400000J0D01*
G01*
X184385000Y-92940000D01*
G75*
G02*
X183985000Y-92540000I0J400000D01*
G01*
X183985000Y-90340000D01*
G75*
G02*
X184385000Y-89940000I400000J0D01*
G01*
X185185000Y-89940000D01*
G75*
G02*
X185585000Y-90340000I0J-400000D01*
G01*
G37*
G04 #@! TD.AperFunction*
G04 #@! TA.AperFunction,SMDPad,CuDef*
G36*
G01*
X183045000Y-90340000D02*
X183045000Y-92540000D01*
G75*
G02*
X182645000Y-92940000I-400000J0D01*
G01*
X181845000Y-92940000D01*
G75*
G02*
X181445000Y-92540000I0J400000D01*
G01*
X181445000Y-90340000D01*
G75*
G02*
X181845000Y-89940000I400000J0D01*
G01*
X182645000Y-89940000D01*
G75*
G02*
X183045000Y-90340000I0J-400000D01*
G01*
G37*
G04 #@! TD.AperFunction*
G04 #@! TA.AperFunction,SMDPad,CuDef*
G36*
G01*
X180505000Y-90340000D02*
X180505000Y-92540000D01*
G75*
G02*
X180105000Y-92940000I-400000J0D01*
G01*
X179305000Y-92940000D01*
G75*
G02*
X178905000Y-92540000I0J400000D01*
G01*
X178905000Y-90340000D01*
G75*
G02*
X179305000Y-89940000I400000J0D01*
G01*
X180105000Y-89940000D01*
G75*
G02*
X180505000Y-90340000I0J-400000D01*
G01*
G37*
G04 #@! TD.AperFunction*
G04 #@! TA.AperFunction,SMDPad,CuDef*
G36*
G01*
X191681000Y-111487000D02*
X191681000Y-112287000D01*
G75*
G02*
X191281000Y-112687000I-400000J0D01*
G01*
X190481000Y-112687000D01*
G75*
G02*
X190081000Y-112287000I0J400000D01*
G01*
X190081000Y-111487000D01*
G75*
G02*
X190481000Y-111087000I400000J0D01*
G01*
X191281000Y-111087000D01*
G75*
G02*
X191681000Y-111487000I0J-400000D01*
G01*
G37*
G04 #@! TD.AperFunction*
D15*
X238709200Y-79959200D03*
X241249200Y-79959200D03*
G04 #@! TA.AperFunction,SMDPad,CuDef*
G36*
G01*
X199783000Y-96006000D02*
X199783000Y-95256000D01*
G75*
G02*
X200158000Y-94881000I375000J0D01*
G01*
X200908000Y-94881000D01*
G75*
G02*
X201283000Y-95256000I0J-375000D01*
G01*
X201283000Y-96006000D01*
G75*
G02*
X200908000Y-96381000I-375000J0D01*
G01*
X200158000Y-96381000D01*
G75*
G02*
X199783000Y-96006000I0J375000D01*
G01*
G37*
G04 #@! TD.AperFunction*
G04 #@! TA.AperFunction,SMDPad,CuDef*
G36*
G01*
X201815000Y-96006000D02*
X201815000Y-95256000D01*
G75*
G02*
X202190000Y-94881000I375000J0D01*
G01*
X202940000Y-94881000D01*
G75*
G02*
X203315000Y-95256000I0J-375000D01*
G01*
X203315000Y-96006000D01*
G75*
G02*
X202940000Y-96381000I-375000J0D01*
G01*
X202190000Y-96381000D01*
G75*
G02*
X201815000Y-96006000I0J375000D01*
G01*
G37*
G04 #@! TD.AperFunction*
G04 #@! TA.AperFunction,SMDPad,CuDef*
G36*
G01*
X199783000Y-98038000D02*
X199783000Y-97288000D01*
G75*
G02*
X200158000Y-96913000I375000J0D01*
G01*
X200908000Y-96913000D01*
G75*
G02*
X201283000Y-97288000I0J-375000D01*
G01*
X201283000Y-98038000D01*
G75*
G02*
X200908000Y-98413000I-375000J0D01*
G01*
X200158000Y-98413000D01*
G75*
G02*
X199783000Y-98038000I0J375000D01*
G01*
G37*
G04 #@! TD.AperFunction*
G04 #@! TA.AperFunction,SMDPad,CuDef*
G36*
G01*
X201815000Y-98038000D02*
X201815000Y-97288000D01*
G75*
G02*
X202190000Y-96913000I375000J0D01*
G01*
X202940000Y-96913000D01*
G75*
G02*
X203315000Y-97288000I0J-375000D01*
G01*
X203315000Y-98038000D01*
G75*
G02*
X202940000Y-98413000I-375000J0D01*
G01*
X202190000Y-98413000D01*
G75*
G02*
X201815000Y-98038000I0J375000D01*
G01*
G37*
G04 #@! TD.AperFunction*
G04 #@! TA.AperFunction,SMDPad,CuDef*
G36*
G01*
X204037500Y-96006000D02*
X204037500Y-95256000D01*
G75*
G02*
X204412500Y-94881000I375000J0D01*
G01*
X205162500Y-94881000D01*
G75*
G02*
X205537500Y-95256000I0J-375000D01*
G01*
X205537500Y-96006000D01*
G75*
G02*
X205162500Y-96381000I-375000J0D01*
G01*
X204412500Y-96381000D01*
G75*
G02*
X204037500Y-96006000I0J375000D01*
G01*
G37*
G04 #@! TD.AperFunction*
G04 #@! TA.AperFunction,SMDPad,CuDef*
G36*
G01*
X206069500Y-96006000D02*
X206069500Y-95256000D01*
G75*
G02*
X206444500Y-94881000I375000J0D01*
G01*
X207194500Y-94881000D01*
G75*
G02*
X207569500Y-95256000I0J-375000D01*
G01*
X207569500Y-96006000D01*
G75*
G02*
X207194500Y-96381000I-375000J0D01*
G01*
X206444500Y-96381000D01*
G75*
G02*
X206069500Y-96006000I0J375000D01*
G01*
G37*
G04 #@! TD.AperFunction*
G04 #@! TA.AperFunction,SMDPad,CuDef*
G36*
G01*
X206069500Y-98038000D02*
X206069500Y-97288000D01*
G75*
G02*
X206444500Y-96913000I375000J0D01*
G01*
X207194500Y-96913000D01*
G75*
G02*
X207569500Y-97288000I0J-375000D01*
G01*
X207569500Y-98038000D01*
G75*
G02*
X207194500Y-98413000I-375000J0D01*
G01*
X206444500Y-98413000D01*
G75*
G02*
X206069500Y-98038000I0J375000D01*
G01*
G37*
G04 #@! TD.AperFunction*
G04 #@! TA.AperFunction,SMDPad,CuDef*
G36*
G01*
X204037500Y-98038000D02*
X204037500Y-97288000D01*
G75*
G02*
X204412500Y-96913000I375000J0D01*
G01*
X205162500Y-96913000D01*
G75*
G02*
X205537500Y-97288000I0J-375000D01*
G01*
X205537500Y-98038000D01*
G75*
G02*
X205162500Y-98413000I-375000J0D01*
G01*
X204412500Y-98413000D01*
G75*
G02*
X204037500Y-98038000I0J375000D01*
G01*
G37*
G04 #@! TD.AperFunction*
G04 #@! TA.AperFunction,SMDPad,CuDef*
G36*
G01*
X215467500Y-98038000D02*
X215467500Y-97288000D01*
G75*
G02*
X215842500Y-96913000I375000J0D01*
G01*
X216592500Y-96913000D01*
G75*
G02*
X216967500Y-97288000I0J-375000D01*
G01*
X216967500Y-98038000D01*
G75*
G02*
X216592500Y-98413000I-375000J0D01*
G01*
X215842500Y-98413000D01*
G75*
G02*
X215467500Y-98038000I0J375000D01*
G01*
G37*
G04 #@! TD.AperFunction*
G04 #@! TA.AperFunction,SMDPad,CuDef*
G36*
G01*
X217499500Y-98038000D02*
X217499500Y-97288000D01*
G75*
G02*
X217874500Y-96913000I375000J0D01*
G01*
X218624500Y-96913000D01*
G75*
G02*
X218999500Y-97288000I0J-375000D01*
G01*
X218999500Y-98038000D01*
G75*
G02*
X218624500Y-98413000I-375000J0D01*
G01*
X217874500Y-98413000D01*
G75*
G02*
X217499500Y-98038000I0J375000D01*
G01*
G37*
G04 #@! TD.AperFunction*
G04 #@! TA.AperFunction,SMDPad,CuDef*
G36*
G01*
X217499500Y-96006000D02*
X217499500Y-95256000D01*
G75*
G02*
X217874500Y-94881000I375000J0D01*
G01*
X218624500Y-94881000D01*
G75*
G02*
X218999500Y-95256000I0J-375000D01*
G01*
X218999500Y-96006000D01*
G75*
G02*
X218624500Y-96381000I-375000J0D01*
G01*
X217874500Y-96381000D01*
G75*
G02*
X217499500Y-96006000I0J375000D01*
G01*
G37*
G04 #@! TD.AperFunction*
G04 #@! TA.AperFunction,SMDPad,CuDef*
G36*
G01*
X215467500Y-96006000D02*
X215467500Y-95256000D01*
G75*
G02*
X215842500Y-94881000I375000J0D01*
G01*
X216592500Y-94881000D01*
G75*
G02*
X216967500Y-95256000I0J-375000D01*
G01*
X216967500Y-96006000D01*
G75*
G02*
X216592500Y-96381000I-375000J0D01*
G01*
X215842500Y-96381000D01*
G75*
G02*
X215467500Y-96006000I0J375000D01*
G01*
G37*
G04 #@! TD.AperFunction*
G04 #@! TA.AperFunction,SMDPad,CuDef*
G36*
G01*
X213245000Y-98038000D02*
X213245000Y-97288000D01*
G75*
G02*
X213620000Y-96913000I375000J0D01*
G01*
X214370000Y-96913000D01*
G75*
G02*
X214745000Y-97288000I0J-375000D01*
G01*
X214745000Y-98038000D01*
G75*
G02*
X214370000Y-98413000I-375000J0D01*
G01*
X213620000Y-98413000D01*
G75*
G02*
X213245000Y-98038000I0J375000D01*
G01*
G37*
G04 #@! TD.AperFunction*
G04 #@! TA.AperFunction,SMDPad,CuDef*
G36*
G01*
X211213000Y-98038000D02*
X211213000Y-97288000D01*
G75*
G02*
X211588000Y-96913000I375000J0D01*
G01*
X212338000Y-96913000D01*
G75*
G02*
X212713000Y-97288000I0J-375000D01*
G01*
X212713000Y-98038000D01*
G75*
G02*
X212338000Y-98413000I-375000J0D01*
G01*
X211588000Y-98413000D01*
G75*
G02*
X211213000Y-98038000I0J375000D01*
G01*
G37*
G04 #@! TD.AperFunction*
G04 #@! TA.AperFunction,SMDPad,CuDef*
G36*
G01*
X213245000Y-96006000D02*
X213245000Y-95256000D01*
G75*
G02*
X213620000Y-94881000I375000J0D01*
G01*
X214370000Y-94881000D01*
G75*
G02*
X214745000Y-95256000I0J-375000D01*
G01*
X214745000Y-96006000D01*
G75*
G02*
X214370000Y-96381000I-375000J0D01*
G01*
X213620000Y-96381000D01*
G75*
G02*
X213245000Y-96006000I0J375000D01*
G01*
G37*
G04 #@! TD.AperFunction*
G04 #@! TA.AperFunction,SMDPad,CuDef*
G36*
G01*
X211213000Y-96006000D02*
X211213000Y-95256000D01*
G75*
G02*
X211588000Y-94881000I375000J0D01*
G01*
X212338000Y-94881000D01*
G75*
G02*
X212713000Y-95256000I0J-375000D01*
G01*
X212713000Y-96006000D01*
G75*
G02*
X212338000Y-96381000I-375000J0D01*
G01*
X211588000Y-96381000D01*
G75*
G02*
X211213000Y-96006000I0J375000D01*
G01*
G37*
G04 #@! TD.AperFunction*
D10*
X187319920Y-66548000D03*
X186314080Y-66548000D03*
D11*
X184531000Y-66548000D03*
X189103000Y-66548000D03*
D10*
X194812920Y-74422000D03*
X193807080Y-74422000D03*
D11*
X192024000Y-74422000D03*
X196596000Y-74422000D03*
D10*
X223006920Y-76581000D03*
X222001080Y-76581000D03*
D11*
X220218000Y-76581000D03*
X224790000Y-76581000D03*
D15*
X211582000Y-69215000D03*
X211582000Y-64643000D03*
X220091000Y-69215000D03*
X220091000Y-64643000D03*
D16*
X215773000Y-66929000D03*
D15*
X223774000Y-60833000D03*
X223774000Y-65405000D03*
D16*
X228092000Y-63119000D03*
D15*
X222656400Y-113322100D03*
X222656400Y-110782100D03*
G04 #@! TA.AperFunction,SMDPad,CuDef*
G36*
G01*
X194646000Y-66912500D02*
X194646000Y-66437500D01*
G75*
G02*
X194883500Y-66200000I237500J0D01*
G01*
X195458500Y-66200000D01*
G75*
G02*
X195696000Y-66437500I0J-237500D01*
G01*
X195696000Y-66912500D01*
G75*
G02*
X195458500Y-67150000I-237500J0D01*
G01*
X194883500Y-67150000D01*
G75*
G02*
X194646000Y-66912500I0J237500D01*
G01*
G37*
G04 #@! TD.AperFunction*
G04 #@! TA.AperFunction,SMDPad,CuDef*
G36*
G01*
X192896000Y-66912500D02*
X192896000Y-66437500D01*
G75*
G02*
X193133500Y-66200000I237500J0D01*
G01*
X193708500Y-66200000D01*
G75*
G02*
X193946000Y-66437500I0J-237500D01*
G01*
X193946000Y-66912500D01*
G75*
G02*
X193708500Y-67150000I-237500J0D01*
G01*
X193133500Y-67150000D01*
G75*
G02*
X192896000Y-66912500I0J237500D01*
G01*
G37*
G04 #@! TD.AperFunction*
G04 #@! TA.AperFunction,SMDPad,CuDef*
G36*
G01*
X177811000Y-82355700D02*
X177811000Y-81880700D01*
G75*
G02*
X178048500Y-81643200I237500J0D01*
G01*
X178623500Y-81643200D01*
G75*
G02*
X178861000Y-81880700I0J-237500D01*
G01*
X178861000Y-82355700D01*
G75*
G02*
X178623500Y-82593200I-237500J0D01*
G01*
X178048500Y-82593200D01*
G75*
G02*
X177811000Y-82355700I0J237500D01*
G01*
G37*
G04 #@! TD.AperFunction*
G04 #@! TA.AperFunction,SMDPad,CuDef*
G36*
G01*
X179561000Y-82355700D02*
X179561000Y-81880700D01*
G75*
G02*
X179798500Y-81643200I237500J0D01*
G01*
X180373500Y-81643200D01*
G75*
G02*
X180611000Y-81880700I0J-237500D01*
G01*
X180611000Y-82355700D01*
G75*
G02*
X180373500Y-82593200I-237500J0D01*
G01*
X179798500Y-82593200D01*
G75*
G02*
X179561000Y-82355700I0J237500D01*
G01*
G37*
G04 #@! TD.AperFunction*
G04 #@! TA.AperFunction,SMDPad,CuDef*
G36*
G01*
X177950700Y-66810900D02*
X177950700Y-66335900D01*
G75*
G02*
X178188200Y-66098400I237500J0D01*
G01*
X178763200Y-66098400D01*
G75*
G02*
X179000700Y-66335900I0J-237500D01*
G01*
X179000700Y-66810900D01*
G75*
G02*
X178763200Y-67048400I-237500J0D01*
G01*
X178188200Y-67048400D01*
G75*
G02*
X177950700Y-66810900I0J237500D01*
G01*
G37*
G04 #@! TD.AperFunction*
G04 #@! TA.AperFunction,SMDPad,CuDef*
G36*
G01*
X179700700Y-66810900D02*
X179700700Y-66335900D01*
G75*
G02*
X179938200Y-66098400I237500J0D01*
G01*
X180513200Y-66098400D01*
G75*
G02*
X180750700Y-66335900I0J-237500D01*
G01*
X180750700Y-66810900D01*
G75*
G02*
X180513200Y-67048400I-237500J0D01*
G01*
X179938200Y-67048400D01*
G75*
G02*
X179700700Y-66810900I0J237500D01*
G01*
G37*
G04 #@! TD.AperFunction*
G04 #@! TA.AperFunction,SMDPad,CuDef*
G36*
G01*
X194712100Y-82190600D02*
X194712100Y-81715600D01*
G75*
G02*
X194949600Y-81478100I237500J0D01*
G01*
X195524600Y-81478100D01*
G75*
G02*
X195762100Y-81715600I0J-237500D01*
G01*
X195762100Y-82190600D01*
G75*
G02*
X195524600Y-82428100I-237500J0D01*
G01*
X194949600Y-82428100D01*
G75*
G02*
X194712100Y-82190600I0J237500D01*
G01*
G37*
G04 #@! TD.AperFunction*
G04 #@! TA.AperFunction,SMDPad,CuDef*
G36*
G01*
X192962100Y-82190600D02*
X192962100Y-81715600D01*
G75*
G02*
X193199600Y-81478100I237500J0D01*
G01*
X193774600Y-81478100D01*
G75*
G02*
X194012100Y-81715600I0J-237500D01*
G01*
X194012100Y-82190600D01*
G75*
G02*
X193774600Y-82428100I-237500J0D01*
G01*
X193199600Y-82428100D01*
G75*
G02*
X192962100Y-82190600I0J237500D01*
G01*
G37*
G04 #@! TD.AperFunction*
G04 #@! TA.AperFunction,SMDPad,CuDef*
G36*
G01*
X202562000Y-100123000D02*
X202562000Y-99648000D01*
G75*
G02*
X202799500Y-99410500I237500J0D01*
G01*
X203374500Y-99410500D01*
G75*
G02*
X203612000Y-99648000I0J-237500D01*
G01*
X203612000Y-100123000D01*
G75*
G02*
X203374500Y-100360500I-237500J0D01*
G01*
X202799500Y-100360500D01*
G75*
G02*
X202562000Y-100123000I0J237500D01*
G01*
G37*
G04 #@! TD.AperFunction*
G04 #@! TA.AperFunction,SMDPad,CuDef*
G36*
G01*
X204312000Y-100123000D02*
X204312000Y-99648000D01*
G75*
G02*
X204549500Y-99410500I237500J0D01*
G01*
X205124500Y-99410500D01*
G75*
G02*
X205362000Y-99648000I0J-237500D01*
G01*
X205362000Y-100123000D01*
G75*
G02*
X205124500Y-100360500I-237500J0D01*
G01*
X204549500Y-100360500D01*
G75*
G02*
X204312000Y-100123000I0J237500D01*
G01*
G37*
G04 #@! TD.AperFunction*
G04 #@! TA.AperFunction,SMDPad,CuDef*
G36*
G01*
X215489300Y-100135700D02*
X215489300Y-99660700D01*
G75*
G02*
X215726800Y-99423200I237500J0D01*
G01*
X216301800Y-99423200D01*
G75*
G02*
X216539300Y-99660700I0J-237500D01*
G01*
X216539300Y-100135700D01*
G75*
G02*
X216301800Y-100373200I-237500J0D01*
G01*
X215726800Y-100373200D01*
G75*
G02*
X215489300Y-100135700I0J237500D01*
G01*
G37*
G04 #@! TD.AperFunction*
G04 #@! TA.AperFunction,SMDPad,CuDef*
G36*
G01*
X213739300Y-100135700D02*
X213739300Y-99660700D01*
G75*
G02*
X213976800Y-99423200I237500J0D01*
G01*
X214551800Y-99423200D01*
G75*
G02*
X214789300Y-99660700I0J-237500D01*
G01*
X214789300Y-100135700D01*
G75*
G02*
X214551800Y-100373200I-237500J0D01*
G01*
X213976800Y-100373200D01*
G75*
G02*
X213739300Y-100135700I0J237500D01*
G01*
G37*
G04 #@! TD.AperFunction*
G04 #@! TA.AperFunction,SMDPad,CuDef*
G36*
G01*
X221194200Y-82533500D02*
X221194200Y-82058500D01*
G75*
G02*
X221431700Y-81821000I237500J0D01*
G01*
X222006700Y-81821000D01*
G75*
G02*
X222244200Y-82058500I0J-237500D01*
G01*
X222244200Y-82533500D01*
G75*
G02*
X222006700Y-82771000I-237500J0D01*
G01*
X221431700Y-82771000D01*
G75*
G02*
X221194200Y-82533500I0J237500D01*
G01*
G37*
G04 #@! TD.AperFunction*
G04 #@! TA.AperFunction,SMDPad,CuDef*
G36*
G01*
X222944200Y-82533500D02*
X222944200Y-82058500D01*
G75*
G02*
X223181700Y-81821000I237500J0D01*
G01*
X223756700Y-81821000D01*
G75*
G02*
X223994200Y-82058500I0J-237500D01*
G01*
X223994200Y-82533500D01*
G75*
G02*
X223756700Y-82771000I-237500J0D01*
G01*
X223181700Y-82771000D01*
G75*
G02*
X222944200Y-82533500I0J237500D01*
G01*
G37*
G04 #@! TD.AperFunction*
G04 #@! TA.AperFunction,SMDPad,CuDef*
G36*
G01*
X237001800Y-66214000D02*
X237001800Y-65739000D01*
G75*
G02*
X237239300Y-65501500I237500J0D01*
G01*
X237814300Y-65501500D01*
G75*
G02*
X238051800Y-65739000I0J-237500D01*
G01*
X238051800Y-66214000D01*
G75*
G02*
X237814300Y-66451500I-237500J0D01*
G01*
X237239300Y-66451500D01*
G75*
G02*
X237001800Y-66214000I0J237500D01*
G01*
G37*
G04 #@! TD.AperFunction*
G04 #@! TA.AperFunction,SMDPad,CuDef*
G36*
G01*
X235251800Y-66214000D02*
X235251800Y-65739000D01*
G75*
G02*
X235489300Y-65501500I237500J0D01*
G01*
X236064300Y-65501500D01*
G75*
G02*
X236301800Y-65739000I0J-237500D01*
G01*
X236301800Y-66214000D01*
G75*
G02*
X236064300Y-66451500I-237500J0D01*
G01*
X235489300Y-66451500D01*
G75*
G02*
X235251800Y-66214000I0J237500D01*
G01*
G37*
G04 #@! TD.AperFunction*
D17*
X195465700Y-60566300D03*
X218122500Y-110464600D03*
X234467400Y-62445900D03*
X238899700Y-63182500D03*
X200761600Y-63563500D03*
X199199500Y-64109600D03*
X195008500Y-64363600D03*
X213677500Y-64427100D03*
X205651100Y-68326000D03*
X200418700Y-67208400D03*
X203174600Y-66116200D03*
X234505500Y-91274900D03*
X235458000Y-62992000D03*
X225348800Y-60502800D03*
X235064300Y-84137500D03*
X221856300Y-70269100D03*
X185267600Y-95745300D03*
X189433200Y-96329500D03*
X233997500Y-77381100D03*
X210629500Y-90436700D03*
X215773000Y-92760800D03*
X209359500Y-99160500D03*
X231368600Y-62458600D03*
X183896000Y-77393800D03*
X186359800Y-75095100D03*
X196151500Y-99148900D03*
X215290400Y-73825100D03*
X214515700Y-77939900D03*
X198653400Y-79070200D03*
X196748400Y-81229200D03*
X222821500Y-67462400D03*
X185915300Y-72783700D03*
X197408800Y-99301300D03*
X212813900Y-100888800D03*
X219887800Y-81267300D03*
X226490002Y-74993500D03*
X228968300Y-73482200D03*
X231013000Y-70078600D03*
X178308000Y-79857600D03*
X191350900Y-82346800D03*
X190003003Y-72886997D03*
D18*
X189484000Y-66548000D02*
X189103000Y-66548000D01*
X195465700Y-60566300D02*
X189484000Y-66548000D01*
X188403300Y-62598300D02*
X189103000Y-63298000D01*
X189103000Y-63298000D02*
X189103000Y-66548000D01*
X187513780Y-62598300D02*
X188403300Y-62598300D01*
X186314080Y-63798000D02*
X187513780Y-62598300D01*
X186314080Y-66548000D02*
X186314080Y-63798000D01*
X221306140Y-112132360D02*
X222656400Y-110782100D01*
X214578480Y-112132360D02*
X221306140Y-112132360D01*
X216246240Y-110464600D02*
X214578480Y-112132360D01*
X218122500Y-110464600D02*
X216246240Y-110464600D01*
X234867399Y-62045901D02*
X236074001Y-62045901D01*
X234467400Y-62445900D02*
X234867399Y-62045901D01*
X236074001Y-62045901D02*
X237210600Y-63182500D01*
X237210600Y-63182500D02*
X238899700Y-63182500D01*
X189103000Y-78665000D02*
X188635011Y-78197011D01*
X189103000Y-81915000D02*
X189103000Y-78665000D01*
X186314080Y-79665000D02*
X186314080Y-81915000D01*
X187782069Y-78197011D02*
X186314080Y-79665000D01*
X188635011Y-78197011D02*
X187782069Y-78197011D01*
X191135000Y-83947000D02*
X189103000Y-81915000D01*
X200736200Y-86169500D02*
X196953010Y-86169500D01*
X201434700Y-85471000D02*
X200736200Y-86169500D01*
X201434700Y-69710300D02*
X201434700Y-85471000D01*
X199865410Y-68141010D02*
X201434700Y-69710300D01*
X194730510Y-83947000D02*
X191135000Y-83947000D01*
X199649510Y-68141010D02*
X199865410Y-68141010D01*
X199649510Y-66904588D02*
X199649510Y-68141010D01*
X200361601Y-66192497D02*
X199649510Y-66904588D01*
X200361601Y-63963499D02*
X200361601Y-66192497D01*
X196953010Y-86169500D02*
X194730510Y-83947000D01*
X200761600Y-63563500D02*
X200361601Y-63963499D01*
X178567080Y-77045000D02*
X179322280Y-77800200D01*
X178567080Y-74295000D02*
X178567080Y-77045000D01*
X181356000Y-75766480D02*
X181356000Y-74295000D01*
X179322280Y-77800200D02*
X181356000Y-75766480D01*
X199199500Y-68846700D02*
X199199500Y-64109600D01*
X200456800Y-70104000D02*
X199199500Y-68846700D01*
X200456800Y-79273400D02*
X200456800Y-70104000D01*
X189620003Y-77747001D02*
X191668203Y-79795201D01*
X199934999Y-79795201D02*
X200456800Y-79273400D01*
X191668203Y-79795201D02*
X199934999Y-79795201D01*
X186158001Y-77747001D02*
X189620003Y-77747001D01*
X182706000Y-74295000D02*
X186158001Y-77747001D01*
X181356000Y-74295000D02*
X182706000Y-74295000D01*
X196596000Y-65951100D02*
X196596000Y-74422000D01*
X195008500Y-64363600D02*
X196596000Y-65951100D01*
X193807080Y-74422000D02*
X193807080Y-77284580D01*
X193807080Y-77284580D02*
X194437000Y-77914500D01*
X196596000Y-77672000D02*
X196596000Y-74422000D01*
X196353500Y-77914500D02*
X196596000Y-77672000D01*
X194437000Y-77914500D02*
X196353500Y-77914500D01*
X237537000Y-75132000D02*
X238887000Y-73782000D01*
X236098080Y-74132000D02*
X237098080Y-75132000D01*
X238887000Y-73782000D02*
X238887000Y-71882000D01*
X237098080Y-75132000D02*
X237537000Y-75132000D01*
X236098080Y-71882000D02*
X236098080Y-74132000D01*
X238887000Y-69982000D02*
X238887000Y-71882000D01*
X233635459Y-67646459D02*
X236551459Y-67646459D01*
X232689309Y-68592609D02*
X233635459Y-67646459D01*
X236551459Y-67646459D02*
X238887000Y-69982000D01*
X231482900Y-71183500D02*
X232689309Y-69977091D01*
X232689309Y-69977091D02*
X232689309Y-68592609D01*
X224243900Y-71183500D02*
X231482900Y-71183500D01*
X220706859Y-67646459D02*
X224243900Y-71183500D01*
X219561461Y-67646459D02*
X220706859Y-67646459D01*
X215897602Y-63982600D02*
X219561461Y-67646459D01*
X215853101Y-64027101D02*
X215897602Y-63982600D01*
X214077499Y-64027101D02*
X215853101Y-64027101D01*
X213677500Y-64427100D02*
X214077499Y-64027101D01*
X223440000Y-73331000D02*
X224790000Y-74681000D01*
X224790000Y-74681000D02*
X224790000Y-76581000D01*
X222001080Y-73831000D02*
X222501080Y-73331000D01*
X222501080Y-73331000D02*
X223440000Y-73331000D01*
X222001080Y-76581000D02*
X222001080Y-73831000D01*
X207275402Y-68326000D02*
X205651100Y-68326000D01*
X207276700Y-68324702D02*
X207275402Y-68326000D01*
X224339990Y-80281010D02*
X219233008Y-80281010D01*
X219233008Y-80281010D02*
X207276700Y-68324702D01*
X224790000Y-79831000D02*
X224339990Y-80281010D01*
X224790000Y-76581000D02*
X224790000Y-79831000D01*
X201608010Y-96706010D02*
X202565000Y-97663000D01*
X200533000Y-95631000D02*
X201608010Y-96706010D01*
X204597000Y-95631000D02*
X204787500Y-95631000D01*
X202565000Y-97663000D02*
X204597000Y-95631000D01*
X205498375Y-96341875D02*
X206819500Y-97663000D01*
X204787500Y-95631000D02*
X205498375Y-96341875D01*
X205498375Y-94920125D02*
X204787500Y-95631000D01*
X205744490Y-94674010D02*
X205498375Y-94920125D01*
X205744490Y-72546890D02*
X205744490Y-94674010D01*
X202082400Y-68884800D02*
X205744490Y-72546890D01*
X202082400Y-68306415D02*
X202082400Y-68529200D01*
X200418700Y-67208400D02*
X200984385Y-67208400D01*
X200984385Y-67208400D02*
X202082400Y-68306415D01*
X202082400Y-68529200D02*
X202082400Y-68884800D01*
X213868000Y-97536000D02*
X213995000Y-97663000D01*
X211963000Y-95631000D02*
X213868000Y-97536000D01*
X216027000Y-95631000D02*
X216217500Y-95631000D01*
X213995000Y-97663000D02*
X216027000Y-95631000D01*
X216217500Y-95631000D02*
X218249500Y-97663000D01*
X211963000Y-94781000D02*
X211963000Y-95631000D01*
X211963000Y-78128990D02*
X211963000Y-94781000D01*
X203174600Y-69340590D02*
X211963000Y-78128990D01*
X203174600Y-66116200D02*
X203174600Y-69340590D01*
X181051200Y-87706200D02*
X180454300Y-87706200D01*
X184785000Y-91440000D02*
X181051200Y-87706200D01*
X180454300Y-87706200D02*
X177825400Y-90335100D01*
X177825400Y-95885000D02*
X187299600Y-105359200D01*
X177825400Y-90335100D02*
X177825400Y-95885000D01*
X187299600Y-105359200D02*
X215747600Y-105359200D01*
X227488790Y-93624400D02*
X228650800Y-92462390D01*
X227482400Y-93624400D02*
X227488790Y-93624400D01*
X215747600Y-105359200D02*
X227482400Y-93624400D01*
X228650800Y-92462390D02*
X229901790Y-92462390D01*
X233318010Y-92462390D02*
X233064010Y-92462390D01*
X234505500Y-91274900D02*
X233318010Y-92462390D01*
X233064010Y-92462390D02*
X229901790Y-92462390D01*
X215885890Y-104584500D02*
X236461300Y-84009090D01*
X188137800Y-104584500D02*
X215885890Y-104584500D01*
X179705000Y-96151700D02*
X188137800Y-104584500D01*
X179705000Y-91440000D02*
X179705000Y-96151700D01*
X237796210Y-84009090D02*
X240525300Y-81280000D01*
X236461300Y-84009090D02*
X237796210Y-84009090D01*
X240525300Y-81280000D02*
X242557300Y-81280000D01*
X242557300Y-81280000D02*
X243598700Y-80238600D01*
X243598700Y-80238600D02*
X243598700Y-69380100D01*
X237998000Y-63779400D02*
X236245400Y-63779400D01*
X243598700Y-69380100D02*
X237998000Y-63779400D01*
X236245400Y-63779400D02*
X235458000Y-62992000D01*
X224454930Y-59608930D02*
X225348800Y-60502800D01*
X224120690Y-59610010D02*
X224121770Y-59608930D01*
X176964277Y-64221423D02*
X181575690Y-59610010D01*
X176964277Y-65902777D02*
X176964277Y-64221423D01*
X224121770Y-59608930D02*
X224454930Y-59608930D01*
X181575690Y-59610010D02*
X224120690Y-59610010D01*
X182854600Y-86944200D02*
X179514500Y-86944200D01*
X179514500Y-86944200D02*
X174917100Y-82346800D01*
X185525390Y-89614990D02*
X182854600Y-86944200D01*
X190579990Y-89614990D02*
X185525390Y-89614990D01*
X174917100Y-67949954D02*
X176964277Y-65902777D01*
X174917100Y-82346800D02*
X174917100Y-67949954D01*
X192405000Y-91440000D02*
X190579990Y-89614990D01*
X189001400Y-103416100D02*
X215811100Y-103416100D01*
X187325000Y-101739700D02*
X189001400Y-103416100D01*
X187325000Y-91440000D02*
X187325000Y-101739700D01*
X233934000Y-85267800D02*
X233934000Y-85293200D01*
X235064300Y-84137500D02*
X233934000Y-85267800D01*
X215811100Y-103416100D02*
X233934000Y-85293200D01*
X223012000Y-64643000D02*
X223774000Y-65405000D01*
X220091000Y-64643000D02*
X223012000Y-64643000D01*
X234315000Y-69982000D02*
X234315000Y-71882000D01*
X235665000Y-68632000D02*
X234315000Y-69982000D01*
X236603920Y-68632000D02*
X235665000Y-68632000D01*
X237103920Y-69132000D02*
X236603920Y-68632000D01*
X237103920Y-71882000D02*
X237103920Y-69132000D01*
X183181000Y-66548000D02*
X184531000Y-66548000D01*
X182631000Y-66548000D02*
X183181000Y-66548000D01*
X192024000Y-70153080D02*
X192024000Y-74422000D01*
X220218000Y-76581000D02*
X220218000Y-73331000D01*
X221705100Y-71843900D02*
X228561900Y-71843900D01*
X189865000Y-91440000D02*
X189865000Y-95186500D01*
X197662800Y-97663000D02*
X197662800Y-94373700D01*
X197662800Y-97663000D02*
X200533000Y-97663000D01*
X192341500Y-97663000D02*
X197662800Y-97663000D01*
X199390000Y-92646500D02*
X199390000Y-89242900D01*
X199390000Y-89242900D02*
X196291200Y-86144100D01*
X213995000Y-95631000D02*
X216027000Y-93599000D01*
X216027000Y-93599000D02*
X217868500Y-93599000D01*
X218249500Y-93980000D02*
X218249500Y-95631000D01*
X217868500Y-93599000D02*
X218249500Y-93980000D01*
X217868500Y-93599000D02*
X217868500Y-90004900D01*
X209092800Y-97904300D02*
X206819500Y-95631000D01*
X209092800Y-98183700D02*
X209092800Y-97904300D01*
X202565000Y-95631000D02*
X200723500Y-93789500D01*
X198247000Y-93789500D02*
X197980300Y-94056200D01*
X200723500Y-93789500D02*
X198247000Y-93789500D01*
X197662800Y-94373700D02*
X197980300Y-94056200D01*
X197980300Y-94056200D02*
X199390000Y-92646500D01*
X209334100Y-97663000D02*
X211963000Y-97663000D01*
X209092800Y-97904300D02*
X209334100Y-97663000D01*
X221386400Y-70739000D02*
X221386400Y-72162600D01*
X221856300Y-70269100D02*
X221386400Y-70739000D01*
X220218000Y-73331000D02*
X221386400Y-72162600D01*
X221386400Y-72162600D02*
X221705100Y-71843900D01*
X182245000Y-91440000D02*
X185267600Y-94462600D01*
X185267600Y-94462600D02*
X185267600Y-95745300D01*
X190214785Y-96545400D02*
X191223900Y-96545400D01*
X189998885Y-96329500D02*
X190214785Y-96545400D01*
X189865000Y-95186500D02*
X191223900Y-96545400D01*
X189433200Y-96329500D02*
X189998885Y-96329500D01*
X191223900Y-96545400D02*
X192341500Y-97663000D01*
X211963000Y-97663000D02*
X209905600Y-95605600D01*
X209905600Y-95605600D02*
X209905600Y-94653100D01*
X225640900Y-88823800D02*
X219049600Y-88823800D01*
X228269800Y-86194900D02*
X225640900Y-88823800D01*
X217868500Y-90004900D02*
X219049600Y-88823800D01*
X220218000Y-78481000D02*
X220218000Y-76581000D01*
X221568000Y-79831000D02*
X220218000Y-78481000D01*
X222086082Y-79831000D02*
X221568000Y-79831000D01*
X223006920Y-78910162D02*
X222086082Y-79831000D01*
X223006920Y-76581000D02*
X223006920Y-78910162D01*
X228600000Y-71882000D02*
X228561900Y-71843900D01*
X184531000Y-66548000D02*
X184531000Y-69798000D01*
X192105690Y-70071390D02*
X192024000Y-70153080D01*
X184531000Y-69798000D02*
X184804390Y-70071390D01*
X187319920Y-69792400D02*
X187598910Y-70071390D01*
X187319920Y-66548000D02*
X187319920Y-69792400D01*
X194812920Y-71672000D02*
X194812920Y-74422000D01*
X193212310Y-70071390D02*
X194812920Y-71672000D01*
X192105690Y-70071390D02*
X193212310Y-70071390D01*
X187319920Y-81915000D02*
X187319920Y-84816922D01*
X188024798Y-85521800D02*
X195605400Y-85521800D01*
X195605400Y-85521800D02*
X196227700Y-86144100D01*
X196291200Y-86144100D02*
X196227700Y-86144100D01*
X184531000Y-81915000D02*
X184531000Y-83705700D01*
X185984501Y-85159201D02*
X187662199Y-85159201D01*
X184531000Y-83705700D02*
X185984501Y-85159201D01*
X187662199Y-85159201D02*
X188024798Y-85521800D01*
X187319920Y-84816922D02*
X187662199Y-85159201D01*
X200533000Y-97663000D02*
X200533000Y-97866200D01*
X201625200Y-98958400D02*
X203492100Y-98958400D01*
X203638150Y-98812350D02*
X204787500Y-97663000D01*
X203492100Y-98958400D02*
X203638150Y-98812350D01*
X200533000Y-97866200D02*
X201625200Y-98958400D01*
X208318100Y-98958400D02*
X208622900Y-98653600D01*
X203492100Y-98958400D02*
X208318100Y-98958400D01*
X211963000Y-97663000D02*
X211963000Y-97993200D01*
X211963000Y-97993200D02*
X212902800Y-98933000D01*
X214947500Y-98933000D02*
X216217500Y-97663000D01*
X212902800Y-98933000D02*
X214947500Y-98933000D01*
X228269800Y-86194900D02*
X231190800Y-86194900D01*
X231190800Y-86194900D02*
X235750100Y-81635600D01*
X235750100Y-79133700D02*
X233997500Y-77381100D01*
X235750100Y-81635600D02*
X235750100Y-79133700D01*
X229704900Y-73088500D02*
X229704900Y-72123300D01*
X229463600Y-71882000D02*
X228600000Y-71882000D01*
X234315000Y-71882000D02*
X229463600Y-71882000D01*
X229704900Y-72123300D02*
X229463600Y-71882000D01*
X233997500Y-77381100D02*
X229704900Y-73088500D01*
X180606700Y-85839300D02*
X184531000Y-81915000D01*
X179908200Y-85839300D02*
X180606700Y-85839300D01*
X176784000Y-82715100D02*
X179908200Y-85839300D01*
X176784000Y-74295000D02*
X176784000Y-82715100D01*
X182631000Y-66548000D02*
X182631000Y-65346500D01*
X182631000Y-65346500D02*
X182003700Y-64719200D01*
X177414287Y-73664713D02*
X176784000Y-74295000D01*
X177673000Y-64719200D02*
X177414287Y-64977913D01*
X182003700Y-64719200D02*
X177673000Y-64719200D01*
X177414287Y-70010387D02*
X178214387Y-70010387D01*
X177414287Y-64977913D02*
X177414287Y-70010387D01*
X177414287Y-70010387D02*
X177414287Y-73664713D01*
X179572920Y-71368920D02*
X179572920Y-74295000D01*
X178214387Y-70010387D02*
X179572920Y-71368920D01*
X184804390Y-70071390D02*
X185209590Y-70071390D01*
X185209590Y-70071390D02*
X186162090Y-70071390D01*
X185209590Y-70071390D02*
X187598910Y-70071390D01*
X190512700Y-74422000D02*
X192024000Y-74422000D01*
X186162090Y-70071390D02*
X190512700Y-74422000D01*
X209905600Y-91160600D02*
X210629500Y-90436700D01*
X209905600Y-94653100D02*
X209905600Y-91160600D01*
X215773000Y-93345000D02*
X216027000Y-93599000D01*
X215773000Y-92760800D02*
X215773000Y-93345000D01*
X208915000Y-98716000D02*
X208915000Y-98361500D01*
X209359500Y-99160500D02*
X208915000Y-98716000D01*
X208915000Y-98361500D02*
X209092800Y-98183700D01*
X208622900Y-98653600D02*
X208915000Y-98361500D01*
X219264512Y-66713100D02*
X215416412Y-62865000D01*
X228765100Y-66713100D02*
X219264512Y-66713100D01*
X215416412Y-62865000D02*
X211556600Y-62865000D01*
X210456999Y-63964601D02*
X210456999Y-69753699D01*
X211556600Y-62865000D02*
X210456999Y-63964601D01*
X211043301Y-70340001D02*
X215551801Y-70340001D01*
X210456999Y-69753699D02*
X211043301Y-70340001D01*
X215551801Y-70340001D02*
X217131900Y-71920100D01*
X217131900Y-71894700D02*
X217182700Y-71843900D01*
X217131900Y-71920100D02*
X217131900Y-71894700D01*
X211530099Y-62838499D02*
X211556600Y-62865000D01*
X199397599Y-62838499D02*
X211530099Y-62838499D01*
X198474499Y-63761599D02*
X199397599Y-62838499D01*
X187058300Y-75095100D02*
X187639900Y-74513500D01*
X186359800Y-75095100D02*
X187058300Y-75095100D01*
X187639900Y-74513500D02*
X187639900Y-75130488D01*
X204837000Y-99885500D02*
X210527900Y-99885500D01*
X210527900Y-99885500D02*
X212483700Y-101841300D01*
X215584810Y-99898200D02*
X216014300Y-99898200D01*
X213641710Y-101841300D02*
X215584810Y-99898200D01*
X212483700Y-101841300D02*
X213641710Y-101841300D01*
X197688110Y-100685510D02*
X196151500Y-99148900D01*
X204036990Y-100685510D02*
X197688110Y-100685510D01*
X204837000Y-99885500D02*
X204036990Y-100685510D01*
X215290400Y-73825100D02*
X217182700Y-71932800D01*
X218655810Y-82080010D02*
X214515700Y-77939900D01*
X231368600Y-64109600D02*
X228765100Y-66713100D01*
X231368600Y-62458600D02*
X231368600Y-64109600D01*
X198474499Y-63761599D02*
X196298799Y-63761599D01*
X196298799Y-63761599D02*
X195694300Y-63157100D01*
X195694300Y-63157100D02*
X194805300Y-63157100D01*
X194283499Y-65787499D02*
X195171000Y-66675000D01*
X194283499Y-63678901D02*
X194283499Y-65787499D01*
X194805300Y-63157100D02*
X194283499Y-63678901D01*
X180086000Y-81203800D02*
X180086000Y-82118200D01*
X183896000Y-77393800D02*
X180086000Y-81203800D01*
X187639900Y-75130488D02*
X190862006Y-78352594D01*
X198653400Y-78018302D02*
X198474499Y-77839401D01*
X198653400Y-79070200D02*
X198653400Y-78018302D01*
X198474499Y-77839401D02*
X198474499Y-63761599D01*
X197949390Y-78364510D02*
X198474499Y-77839401D01*
X194250600Y-78364510D02*
X197949390Y-78364510D01*
X194238684Y-78352594D02*
X194250600Y-78364510D01*
X190862006Y-78352594D02*
X194238684Y-78352594D01*
X196024500Y-81953100D02*
X196748400Y-81229200D01*
X195237100Y-81953100D02*
X196024500Y-81953100D01*
X180225700Y-67048400D02*
X184386200Y-71208900D01*
X180225700Y-66573400D02*
X180225700Y-67048400D01*
X186143900Y-71208900D02*
X187639900Y-72704900D01*
X184386200Y-71208900D02*
X186143900Y-71208900D01*
X187639900Y-72704900D02*
X187639900Y-74513500D01*
X223469200Y-82296000D02*
X221754700Y-84010500D01*
X220586300Y-84010500D02*
X218655810Y-82080010D01*
X221754700Y-84010500D02*
X220586300Y-84010500D01*
X231368600Y-62458600D02*
X233324400Y-64414400D01*
X237526800Y-65111600D02*
X236829600Y-64414400D01*
X237526800Y-65976500D02*
X237526800Y-65111600D01*
X233324400Y-64414400D02*
X236829600Y-64414400D01*
X227764400Y-67462400D02*
X222821500Y-67462400D01*
X228348600Y-68046600D02*
X227764400Y-67462400D01*
X197993000Y-99885500D02*
X197408800Y-99301300D01*
X203087000Y-99885500D02*
X197993000Y-99885500D01*
X213273700Y-100888800D02*
X214264300Y-99898200D01*
X212813900Y-100888800D02*
X213273700Y-100888800D01*
X226490002Y-74993500D02*
X228001302Y-73482200D01*
X228001302Y-73482200D02*
X228968300Y-73482200D01*
X230380600Y-70078600D02*
X231013000Y-70078600D01*
X228348600Y-68046600D02*
X230380600Y-70078600D01*
X178308000Y-82090200D02*
X178336000Y-82118200D01*
X178308000Y-79857600D02*
X178308000Y-82090200D01*
X193093400Y-82346800D02*
X193487100Y-81953100D01*
X191350900Y-82346800D02*
X193093400Y-82346800D01*
X178475700Y-68481000D02*
X178475700Y-66573400D01*
X180964699Y-70969999D02*
X178475700Y-68481000D01*
X183034799Y-70969999D02*
X180964699Y-70969999D01*
X184848500Y-72783700D02*
X183034799Y-70969999D01*
X185915300Y-72783700D02*
X184848500Y-72783700D01*
X190528001Y-69567999D02*
X193421000Y-66675000D01*
X190528001Y-72361999D02*
X190528001Y-69567999D01*
X190003003Y-72886997D02*
X190528001Y-72361999D01*
X220690500Y-81267300D02*
X221719200Y-82296000D01*
X219887800Y-81267300D02*
X220690500Y-81267300D01*
X231013000Y-70078600D02*
X231013000Y-69088000D01*
X234124500Y-65976500D02*
X235776800Y-65976500D01*
X231013000Y-69088000D02*
X234124500Y-65976500D01*
M02*
