G04 #@! TF.GenerationSoftware,KiCad,Pcbnew,5.1.9+dfsg1-1*
G04 #@! TF.CreationDate,2021-11-24T09:04:39+00:00*
G04 #@! TF.ProjectId,gbc_retrozero_buttons_led,6762635f-7265-4747-926f-7a65726f5f62,rev?*
G04 #@! TF.SameCoordinates,Original*
G04 #@! TF.FileFunction,Legend,Bot*
G04 #@! TF.FilePolarity,Positive*
%FSLAX46Y46*%
G04 Gerber Fmt 4.6, Leading zero omitted, Abs format (unit mm)*
G04 Created by KiCad (PCBNEW 5.1.9+dfsg1-1) date 2021-11-24 09:04:39*
%MOMM*%
%LPD*%
G01*
G04 APERTURE LIST*
%ADD10C,0.300000*%
%ADD11C,0.150000*%
%ADD12C,0.120000*%
G04 APERTURE END LIST*
D10*
X210664685Y-108584300D02*
X210807542Y-108512871D01*
X211021828Y-108512871D01*
X211236114Y-108584300D01*
X211378971Y-108727157D01*
X211450400Y-108870014D01*
X211521828Y-109155728D01*
X211521828Y-109370014D01*
X211450400Y-109655728D01*
X211378971Y-109798585D01*
X211236114Y-109941442D01*
X211021828Y-110012871D01*
X210878971Y-110012871D01*
X210664685Y-109941442D01*
X210593257Y-109870014D01*
X210593257Y-109370014D01*
X210878971Y-109370014D01*
X209450400Y-109227157D02*
X209236114Y-109298585D01*
X209164685Y-109370014D01*
X209093257Y-109512871D01*
X209093257Y-109727157D01*
X209164685Y-109870014D01*
X209236114Y-109941442D01*
X209378971Y-110012871D01*
X209950400Y-110012871D01*
X209950400Y-108512871D01*
X209450400Y-108512871D01*
X209307542Y-108584300D01*
X209236114Y-108655728D01*
X209164685Y-108798585D01*
X209164685Y-108941442D01*
X209236114Y-109084300D01*
X209307542Y-109155728D01*
X209450400Y-109227157D01*
X209950400Y-109227157D01*
X207593257Y-109870014D02*
X207664685Y-109941442D01*
X207878971Y-110012871D01*
X208021828Y-110012871D01*
X208236114Y-109941442D01*
X208378971Y-109798585D01*
X208450400Y-109655728D01*
X208521828Y-109370014D01*
X208521828Y-109155728D01*
X208450400Y-108870014D01*
X208378971Y-108727157D01*
X208236114Y-108584300D01*
X208021828Y-108512871D01*
X207878971Y-108512871D01*
X207664685Y-108584300D01*
X207593257Y-108655728D01*
X207307542Y-110155728D02*
X206164685Y-110155728D01*
X205807542Y-110012871D02*
X205807542Y-109012871D01*
X205807542Y-109298585D02*
X205736114Y-109155728D01*
X205664685Y-109084300D01*
X205521828Y-109012871D01*
X205378971Y-109012871D01*
X204307542Y-109941442D02*
X204450400Y-110012871D01*
X204736114Y-110012871D01*
X204878971Y-109941442D01*
X204950400Y-109798585D01*
X204950400Y-109227157D01*
X204878971Y-109084300D01*
X204736114Y-109012871D01*
X204450400Y-109012871D01*
X204307542Y-109084300D01*
X204236114Y-109227157D01*
X204236114Y-109370014D01*
X204950400Y-109512871D01*
X203807542Y-109012871D02*
X203236114Y-109012871D01*
X203593257Y-108512871D02*
X203593257Y-109798585D01*
X203521828Y-109941442D01*
X203378971Y-110012871D01*
X203236114Y-110012871D01*
X202736114Y-110012871D02*
X202736114Y-109012871D01*
X202736114Y-109298585D02*
X202664685Y-109155728D01*
X202593257Y-109084300D01*
X202450400Y-109012871D01*
X202307542Y-109012871D01*
X201593257Y-110012871D02*
X201736114Y-109941442D01*
X201807542Y-109870014D01*
X201878971Y-109727157D01*
X201878971Y-109298585D01*
X201807542Y-109155728D01*
X201736114Y-109084300D01*
X201593257Y-109012871D01*
X201378971Y-109012871D01*
X201236114Y-109084300D01*
X201164685Y-109155728D01*
X201093257Y-109298585D01*
X201093257Y-109727157D01*
X201164685Y-109870014D01*
X201236114Y-109941442D01*
X201378971Y-110012871D01*
X201593257Y-110012871D01*
X200450400Y-109012871D02*
X200450400Y-110512871D01*
X200450400Y-109084300D02*
X200307542Y-109012871D01*
X200021828Y-109012871D01*
X199878971Y-109084300D01*
X199807542Y-109155728D01*
X199736114Y-109298585D01*
X199736114Y-109727157D01*
X199807542Y-109870014D01*
X199878971Y-109941442D01*
X200021828Y-110012871D01*
X200307542Y-110012871D01*
X200450400Y-109941442D01*
X199093257Y-110012871D02*
X199093257Y-109012871D01*
X199093257Y-108512871D02*
X199164685Y-108584300D01*
X199093257Y-108655728D01*
X199021828Y-108584300D01*
X199093257Y-108512871D01*
X199093257Y-108655728D01*
X197807542Y-109941442D02*
X197950400Y-110012871D01*
X198236114Y-110012871D01*
X198378971Y-109941442D01*
X198450400Y-109798585D01*
X198450400Y-109227157D01*
X198378971Y-109084300D01*
X198236114Y-109012871D01*
X197950400Y-109012871D01*
X197807542Y-109084300D01*
X197736114Y-109227157D01*
X197736114Y-109370014D01*
X198450400Y-109512871D01*
X197450400Y-110155728D02*
X196307542Y-110155728D01*
X195950400Y-110012871D02*
X195950400Y-108512871D01*
X195950400Y-109084300D02*
X195807542Y-109012871D01*
X195521828Y-109012871D01*
X195378971Y-109084300D01*
X195307542Y-109155728D01*
X195236114Y-109298585D01*
X195236114Y-109727157D01*
X195307542Y-109870014D01*
X195378971Y-109941442D01*
X195521828Y-110012871D01*
X195807542Y-110012871D01*
X195950400Y-109941442D01*
X193950400Y-109012871D02*
X193950400Y-110012871D01*
X194593257Y-109012871D02*
X194593257Y-109798585D01*
X194521828Y-109941442D01*
X194378971Y-110012871D01*
X194164685Y-110012871D01*
X194021828Y-109941442D01*
X193950400Y-109870014D01*
X193450400Y-109012871D02*
X192878971Y-109012871D01*
X193236114Y-108512871D02*
X193236114Y-109798585D01*
X193164685Y-109941442D01*
X193021828Y-110012871D01*
X192878971Y-110012871D01*
X192593257Y-109012871D02*
X192021828Y-109012871D01*
X192378971Y-108512871D02*
X192378971Y-109798585D01*
X192307542Y-109941442D01*
X192164685Y-110012871D01*
X192021828Y-110012871D01*
X191307542Y-110012871D02*
X191450400Y-109941442D01*
X191521828Y-109870014D01*
X191593257Y-109727157D01*
X191593257Y-109298585D01*
X191521828Y-109155728D01*
X191450400Y-109084300D01*
X191307542Y-109012871D01*
X191093257Y-109012871D01*
X190950400Y-109084300D01*
X190878971Y-109155728D01*
X190807542Y-109298585D01*
X190807542Y-109727157D01*
X190878971Y-109870014D01*
X190950400Y-109941442D01*
X191093257Y-110012871D01*
X191307542Y-110012871D01*
X190164685Y-109012871D02*
X190164685Y-110012871D01*
X190164685Y-109155728D02*
X190093257Y-109084300D01*
X189950400Y-109012871D01*
X189736114Y-109012871D01*
X189593257Y-109084300D01*
X189521828Y-109227157D01*
X189521828Y-110012871D01*
X188878971Y-109941442D02*
X188736114Y-110012871D01*
X188450400Y-110012871D01*
X188307542Y-109941442D01*
X188236114Y-109798585D01*
X188236114Y-109727157D01*
X188307542Y-109584300D01*
X188450400Y-109512871D01*
X188664685Y-109512871D01*
X188807542Y-109441442D01*
X188878971Y-109298585D01*
X188878971Y-109227157D01*
X188807542Y-109084300D01*
X188664685Y-109012871D01*
X188450400Y-109012871D01*
X188307542Y-109084300D01*
X187950400Y-110155728D02*
X186807542Y-110155728D01*
X185736114Y-110012871D02*
X186450400Y-110012871D01*
X186450400Y-108512871D01*
X185236114Y-109227157D02*
X184736114Y-109227157D01*
X184521828Y-110012871D02*
X185236114Y-110012871D01*
X185236114Y-108512871D01*
X184521828Y-108512871D01*
X183878971Y-110012871D02*
X183878971Y-108512871D01*
X183521828Y-108512871D01*
X183307542Y-108584300D01*
X183164685Y-108727157D01*
X183093257Y-108870014D01*
X183021828Y-109155728D01*
X183021828Y-109370014D01*
X183093257Y-109655728D01*
X183164685Y-109798585D01*
X183307542Y-109941442D01*
X183521828Y-110012871D01*
X183878971Y-110012871D01*
X182736114Y-110155728D02*
X181593257Y-110155728D01*
X181236114Y-110012871D02*
X181236114Y-109012871D01*
X181236114Y-109298585D02*
X181164685Y-109155728D01*
X181093257Y-109084300D01*
X180950400Y-109012871D01*
X180807542Y-109012871D01*
X179736114Y-109941442D02*
X179878971Y-110012871D01*
X180164685Y-110012871D01*
X180307542Y-109941442D01*
X180378971Y-109798585D01*
X180378971Y-109227157D01*
X180307542Y-109084300D01*
X180164685Y-109012871D01*
X179878971Y-109012871D01*
X179736114Y-109084300D01*
X179664685Y-109227157D01*
X179664685Y-109370014D01*
X180378971Y-109512871D01*
X179164685Y-109012871D02*
X178807542Y-110012871D01*
X178450400Y-109012871D01*
X178236114Y-110155728D02*
X177093257Y-110155728D01*
X175878971Y-109870014D02*
X175950400Y-109941442D01*
X176164685Y-110012871D01*
X176307542Y-110012871D01*
X176521828Y-109941442D01*
X176664685Y-109798585D01*
X176736114Y-109655728D01*
X176807542Y-109370014D01*
X176807542Y-109155728D01*
X176736114Y-108870014D01*
X176664685Y-108727157D01*
X176521828Y-108584300D01*
X176307542Y-108512871D01*
X176164685Y-108512871D01*
X175950400Y-108584300D01*
X175878971Y-108655728D01*
X201134228Y-104490057D02*
X201634228Y-104490057D01*
X201634228Y-105275771D02*
X201634228Y-103775771D01*
X200919942Y-103775771D01*
X199705657Y-105275771D02*
X199705657Y-104490057D01*
X199777085Y-104347200D01*
X199919942Y-104275771D01*
X200205657Y-104275771D01*
X200348514Y-104347200D01*
X199705657Y-105204342D02*
X199848514Y-105275771D01*
X200205657Y-105275771D01*
X200348514Y-105204342D01*
X200419942Y-105061485D01*
X200419942Y-104918628D01*
X200348514Y-104775771D01*
X200205657Y-104704342D01*
X199848514Y-104704342D01*
X199705657Y-104632914D01*
X198348514Y-105204342D02*
X198491371Y-105275771D01*
X198777085Y-105275771D01*
X198919942Y-105204342D01*
X198991371Y-105132914D01*
X199062800Y-104990057D01*
X199062800Y-104561485D01*
X198991371Y-104418628D01*
X198919942Y-104347200D01*
X198777085Y-104275771D01*
X198491371Y-104275771D01*
X198348514Y-104347200D01*
X197134228Y-105204342D02*
X197277085Y-105275771D01*
X197562800Y-105275771D01*
X197705657Y-105204342D01*
X197777085Y-105061485D01*
X197777085Y-104490057D01*
X197705657Y-104347200D01*
X197562800Y-104275771D01*
X197277085Y-104275771D01*
X197134228Y-104347200D01*
X197062800Y-104490057D01*
X197062800Y-104632914D01*
X197777085Y-104775771D01*
X196205657Y-105275771D02*
X196348514Y-105204342D01*
X196419942Y-105061485D01*
X196419942Y-103775771D01*
X195062800Y-105204342D02*
X195205657Y-105275771D01*
X195491371Y-105275771D01*
X195634228Y-105204342D01*
X195705657Y-105061485D01*
X195705657Y-104490057D01*
X195634228Y-104347200D01*
X195491371Y-104275771D01*
X195205657Y-104275771D01*
X195062800Y-104347200D01*
X194991371Y-104490057D01*
X194991371Y-104632914D01*
X195705657Y-104775771D01*
X194419942Y-105204342D02*
X194277085Y-105275771D01*
X193991371Y-105275771D01*
X193848514Y-105204342D01*
X193777085Y-105061485D01*
X193777085Y-104990057D01*
X193848514Y-104847200D01*
X193991371Y-104775771D01*
X194205657Y-104775771D01*
X194348514Y-104704342D01*
X194419942Y-104561485D01*
X194419942Y-104490057D01*
X194348514Y-104347200D01*
X194205657Y-104275771D01*
X193991371Y-104275771D01*
X193848514Y-104347200D01*
X193205657Y-105204342D02*
X193062800Y-105275771D01*
X192777085Y-105275771D01*
X192634228Y-105204342D01*
X192562800Y-105061485D01*
X192562800Y-104990057D01*
X192634228Y-104847200D01*
X192777085Y-104775771D01*
X192991371Y-104775771D01*
X193134228Y-104704342D01*
X193205657Y-104561485D01*
X193205657Y-104490057D01*
X193134228Y-104347200D01*
X192991371Y-104275771D01*
X192777085Y-104275771D01*
X192634228Y-104347200D01*
X192134228Y-104275771D02*
X191562800Y-104275771D01*
X191919942Y-103775771D02*
X191919942Y-105061485D01*
X191848514Y-105204342D01*
X191705657Y-105275771D01*
X191562800Y-105275771D01*
X190491371Y-105204342D02*
X190634228Y-105275771D01*
X190919942Y-105275771D01*
X191062800Y-105204342D01*
X191134228Y-105061485D01*
X191134228Y-104490057D01*
X191062800Y-104347200D01*
X190919942Y-104275771D01*
X190634228Y-104275771D01*
X190491371Y-104347200D01*
X190419942Y-104490057D01*
X190419942Y-104632914D01*
X191134228Y-104775771D01*
X189134228Y-105204342D02*
X189277085Y-105275771D01*
X189562800Y-105275771D01*
X189705657Y-105204342D01*
X189777085Y-105132914D01*
X189848514Y-104990057D01*
X189848514Y-104561485D01*
X189777085Y-104418628D01*
X189705657Y-104347200D01*
X189562800Y-104275771D01*
X189277085Y-104275771D01*
X189134228Y-104347200D01*
X188491371Y-105275771D02*
X188491371Y-103775771D01*
X187848514Y-105275771D02*
X187848514Y-104490057D01*
X187919942Y-104347200D01*
X188062800Y-104275771D01*
X188277085Y-104275771D01*
X188419942Y-104347200D01*
X188491371Y-104418628D01*
X186062800Y-103918628D02*
X185991371Y-103847200D01*
X185848514Y-103775771D01*
X185491371Y-103775771D01*
X185348514Y-103847200D01*
X185277085Y-103918628D01*
X185205657Y-104061485D01*
X185205657Y-104204342D01*
X185277085Y-104418628D01*
X186134228Y-105275771D01*
X185205657Y-105275771D01*
X184277085Y-103775771D02*
X184134228Y-103775771D01*
X183991371Y-103847200D01*
X183919942Y-103918628D01*
X183848514Y-104061485D01*
X183777085Y-104347200D01*
X183777085Y-104704342D01*
X183848514Y-104990057D01*
X183919942Y-105132914D01*
X183991371Y-105204342D01*
X184134228Y-105275771D01*
X184277085Y-105275771D01*
X184419942Y-105204342D01*
X184491371Y-105132914D01*
X184562800Y-104990057D01*
X184634228Y-104704342D01*
X184634228Y-104347200D01*
X184562800Y-104061485D01*
X184491371Y-103918628D01*
X184419942Y-103847200D01*
X184277085Y-103775771D01*
X183205657Y-103918628D02*
X183134228Y-103847200D01*
X182991371Y-103775771D01*
X182634228Y-103775771D01*
X182491371Y-103847200D01*
X182419942Y-103918628D01*
X182348514Y-104061485D01*
X182348514Y-104204342D01*
X182419942Y-104418628D01*
X183277085Y-105275771D01*
X182348514Y-105275771D01*
X180919942Y-105275771D02*
X181777085Y-105275771D01*
X181348514Y-105275771D02*
X181348514Y-103775771D01*
X181491371Y-103990057D01*
X181634228Y-104132914D01*
X181777085Y-104204342D01*
D11*
X208545980Y-103293160D02*
X220610980Y-103293160D01*
X220610980Y-103293160D02*
X220610980Y-114964460D01*
X220610980Y-114964460D02*
X208545980Y-114964460D01*
X208545980Y-114964460D02*
X208545980Y-103293160D01*
X211187580Y-114964460D02*
X211187580Y-118444260D01*
X211187580Y-118444260D02*
X217969380Y-118444260D01*
X217969380Y-118444260D02*
X217969380Y-114964460D01*
D12*
X209514464Y-102407040D02*
X208060336Y-102407040D01*
X209514464Y-104227040D02*
X208060336Y-104227040D01*
D11*
X210632040Y-98668840D02*
X210632040Y-96928940D01*
X209323940Y-98668840D02*
X210632040Y-98668840D01*
X209323940Y-96928940D02*
X209323940Y-98668840D01*
X207774540Y-98668840D02*
X207774540Y-96941640D01*
X209082640Y-98668840D02*
X207774540Y-98668840D01*
X209082640Y-96941640D02*
X209082640Y-98656140D01*
X212625940Y-96928940D02*
X205818740Y-96928940D01*
X212625940Y-94173040D02*
X212625940Y-96928940D01*
X205818740Y-94173040D02*
X205818740Y-96928940D01*
X212625940Y-94173040D02*
X205818740Y-94173040D01*
X184844624Y-62880540D02*
X184844624Y-63690064D01*
X184797005Y-63785302D01*
X184749386Y-63832921D01*
X184654148Y-63880540D01*
X184463672Y-63880540D01*
X184368434Y-63832921D01*
X184320815Y-63785302D01*
X184273196Y-63690064D01*
X184273196Y-62880540D01*
X183368434Y-63213874D02*
X183368434Y-63880540D01*
X183606529Y-62832921D02*
X183844624Y-63547207D01*
X183225577Y-63547207D01*
X208954066Y-101949420D02*
X209287400Y-101473230D01*
X209525495Y-101949420D02*
X209525495Y-100949420D01*
X209144542Y-100949420D01*
X209049304Y-100997040D01*
X209001685Y-101044659D01*
X208954066Y-101139897D01*
X208954066Y-101282754D01*
X209001685Y-101377992D01*
X209049304Y-101425611D01*
X209144542Y-101473230D01*
X209525495Y-101473230D01*
X208001685Y-101949420D02*
X208573114Y-101949420D01*
X208287400Y-101949420D02*
X208287400Y-100949420D01*
X208382638Y-101092278D01*
X208477876Y-101187516D01*
X208573114Y-101235135D01*
M02*
