M48
METRIC,TZ
T1C0.400
T2C0.900
T3C1.000
T4C1.200
T5C2.200
%
G90
G05
T1
X55290Y-90297
X56360Y-107130
X61150Y-79743
X64900Y-57290
X65024Y-106756
X65340Y-59120
X68123Y-92164
X69720Y-103600
X69850Y-86950
X69850Y-116245
X70380Y-105740
X71933Y-111303
X72263Y-57391
X72620Y-62380
X74720Y-79080
X74730Y-108710
X75781Y-56680
X75990Y-65010
X76220Y-103620
X76924Y-76924
X78550Y-60915
X79629Y-71755
X82560Y-91610
X82710Y-79330
X82790Y-89660
X82810Y-85880
X83140Y-108830
X83650Y-70320
X83700Y-105970
X83820Y-80920
X84201Y-73025
X84400Y-93900
X85880Y-65470
X86980Y-96370
X87020Y-69075
X88140Y-105340
X88210Y-84250
X88417Y-76683
X88590Y-80920
X91440Y-112350
X91458Y-113357
X91970Y-95260
X96815Y-89000
X97540Y-91060
X97600Y-60190
X100370Y-81510
X100670Y-95970
X107569Y-79832
X107780Y-96000
X110280Y-56460
X111140Y-115150
X113600Y-114100
X117600Y-114080
X119040Y-114930
T2
X63569Y-90070
X63569Y-92077
X63569Y-94083
X63569Y-96090
X63569Y-98097
T3
X62535Y-107899
X67615Y-107899
X109931Y-107899
T4
X52223Y-75592
X52223Y-84228
X52444Y-99252
X52457Y-88915
X56020Y-75592
X56020Y-84228
T5
X53514Y-62219
X53526Y-105402
X118919Y-61203
X118919Y-105399
T0
M30
