G04 #@! TF.GenerationSoftware,KiCad,Pcbnew,5.1.9+dfsg1-1*
G04 #@! TF.CreationDate,2022-02-14T22:33:47+00:00*
G04 #@! TF.ProjectId,gbc_retrozero_screen_rev_b,6762635f-7265-4747-926f-7a65726f5f73,rev?*
G04 #@! TF.SameCoordinates,Original*
G04 #@! TF.FileFunction,Soldermask,Bot*
G04 #@! TF.FilePolarity,Negative*
%FSLAX46Y46*%
G04 Gerber Fmt 4.6, Leading zero omitted, Abs format (unit mm)*
G04 Created by KiCad (PCBNEW 5.1.9+dfsg1-1) date 2022-02-14 22:33:47*
%MOMM*%
%LPD*%
G01*
G04 APERTURE LIST*
%ADD10C,2.902000*%
%ADD11C,1.602000*%
%ADD12C,1.902000*%
%ADD13C,1.702000*%
%ADD14C,0.100000*%
G04 APERTURE END LIST*
G36*
G01*
X57769000Y-56275500D02*
X57769000Y-55424500D01*
G75*
G02*
X58194500Y-54999000I425500J0D01*
G01*
X59045500Y-54999000D01*
G75*
G02*
X59471000Y-55424500I0J-425500D01*
G01*
X59471000Y-56275500D01*
G75*
G02*
X59045500Y-56701000I-425500J0D01*
G01*
X58194500Y-56701000D01*
G75*
G02*
X57769000Y-56275500I0J425500D01*
G01*
G37*
G36*
G01*
X60309000Y-56275500D02*
X60309000Y-55424500D01*
G75*
G02*
X60734500Y-54999000I425500J0D01*
G01*
X61585500Y-54999000D01*
G75*
G02*
X62011000Y-55424500I0J-425500D01*
G01*
X62011000Y-56275500D01*
G75*
G02*
X61585500Y-56701000I-425500J0D01*
G01*
X60734500Y-56701000D01*
G75*
G02*
X60309000Y-56275500I0J425500D01*
G01*
G37*
G36*
G01*
X62849000Y-56275500D02*
X62849000Y-55424500D01*
G75*
G02*
X63274500Y-54999000I425500J0D01*
G01*
X64125500Y-54999000D01*
G75*
G02*
X64551000Y-55424500I0J-425500D01*
G01*
X64551000Y-56275500D01*
G75*
G02*
X64125500Y-56701000I-425500J0D01*
G01*
X63274500Y-56701000D01*
G75*
G02*
X62849000Y-56275500I0J425500D01*
G01*
G37*
G36*
G01*
X70469000Y-56275500D02*
X70469000Y-55424500D01*
G75*
G02*
X70894500Y-54999000I425500J0D01*
G01*
X71745500Y-54999000D01*
G75*
G02*
X72171000Y-55424500I0J-425500D01*
G01*
X72171000Y-56275500D01*
G75*
G02*
X71745500Y-56701000I-425500J0D01*
G01*
X70894500Y-56701000D01*
G75*
G02*
X70469000Y-56275500I0J425500D01*
G01*
G37*
G36*
G01*
X73009000Y-56275500D02*
X73009000Y-55424500D01*
G75*
G02*
X73434500Y-54999000I425500J0D01*
G01*
X74285500Y-54999000D01*
G75*
G02*
X74711000Y-55424500I0J-425500D01*
G01*
X74711000Y-56275500D01*
G75*
G02*
X74285500Y-56701000I-425500J0D01*
G01*
X73434500Y-56701000D01*
G75*
G02*
X73009000Y-56275500I0J425500D01*
G01*
G37*
G36*
G01*
X57769000Y-75122300D02*
X57769000Y-74271300D01*
G75*
G02*
X58194500Y-73845800I425500J0D01*
G01*
X59045500Y-73845800D01*
G75*
G02*
X59471000Y-74271300I0J-425500D01*
G01*
X59471000Y-75122300D01*
G75*
G02*
X59045500Y-75547800I-425500J0D01*
G01*
X58194500Y-75547800D01*
G75*
G02*
X57769000Y-75122300I0J425500D01*
G01*
G37*
G36*
G01*
X60270900Y-75084200D02*
X60270900Y-74233200D01*
G75*
G02*
X60696400Y-73807700I425500J0D01*
G01*
X61547400Y-73807700D01*
G75*
G02*
X61972900Y-74233200I0J-425500D01*
G01*
X61972900Y-75084200D01*
G75*
G02*
X61547400Y-75509700I-425500J0D01*
G01*
X60696400Y-75509700D01*
G75*
G02*
X60270900Y-75084200I0J425500D01*
G01*
G37*
G36*
G01*
X70469000Y-75084200D02*
X70469000Y-74233200D01*
G75*
G02*
X70894500Y-73807700I425500J0D01*
G01*
X71745500Y-73807700D01*
G75*
G02*
X72171000Y-74233200I0J-425500D01*
G01*
X72171000Y-75084200D01*
G75*
G02*
X71745500Y-75509700I-425500J0D01*
G01*
X70894500Y-75509700D01*
G75*
G02*
X70469000Y-75084200I0J425500D01*
G01*
G37*
G36*
G01*
X73009000Y-75084200D02*
X73009000Y-74233200D01*
G75*
G02*
X73434500Y-73807700I425500J0D01*
G01*
X74285500Y-73807700D01*
G75*
G02*
X74711000Y-74233200I0J-425500D01*
G01*
X74711000Y-75084200D01*
G75*
G02*
X74285500Y-75509700I-425500J0D01*
G01*
X73434500Y-75509700D01*
G75*
G02*
X73009000Y-75084200I0J425500D01*
G01*
G37*
G36*
G01*
X80514500Y-62099000D02*
X81365500Y-62099000D01*
G75*
G02*
X81791000Y-62524500I0J-425500D01*
G01*
X81791000Y-63375500D01*
G75*
G02*
X81365500Y-63801000I-425500J0D01*
G01*
X80514500Y-63801000D01*
G75*
G02*
X80089000Y-63375500I0J425500D01*
G01*
X80089000Y-62524500D01*
G75*
G02*
X80514500Y-62099000I425500J0D01*
G01*
G37*
G36*
G01*
X77974500Y-62099000D02*
X78825500Y-62099000D01*
G75*
G02*
X79251000Y-62524500I0J-425500D01*
G01*
X79251000Y-63375500D01*
G75*
G02*
X78825500Y-63801000I-425500J0D01*
G01*
X77974500Y-63801000D01*
G75*
G02*
X77549000Y-63375500I0J425500D01*
G01*
X77549000Y-62524500D01*
G75*
G02*
X77974500Y-62099000I425500J0D01*
G01*
G37*
G36*
G01*
X80514500Y-64639000D02*
X81365500Y-64639000D01*
G75*
G02*
X81791000Y-65064500I0J-425500D01*
G01*
X81791000Y-65915500D01*
G75*
G02*
X81365500Y-66341000I-425500J0D01*
G01*
X80514500Y-66341000D01*
G75*
G02*
X80089000Y-65915500I0J425500D01*
G01*
X80089000Y-65064500D01*
G75*
G02*
X80514500Y-64639000I425500J0D01*
G01*
G37*
G36*
G01*
X77974500Y-64639000D02*
X78825500Y-64639000D01*
G75*
G02*
X79251000Y-65064500I0J-425500D01*
G01*
X79251000Y-65915500D01*
G75*
G02*
X78825500Y-66341000I-425500J0D01*
G01*
X77974500Y-66341000D01*
G75*
G02*
X77549000Y-65915500I0J425500D01*
G01*
X77549000Y-65064500D01*
G75*
G02*
X77974500Y-64639000I425500J0D01*
G01*
G37*
G36*
G01*
X80514500Y-67179000D02*
X81365500Y-67179000D01*
G75*
G02*
X81791000Y-67604500I0J-425500D01*
G01*
X81791000Y-68455500D01*
G75*
G02*
X81365500Y-68881000I-425500J0D01*
G01*
X80514500Y-68881000D01*
G75*
G02*
X80089000Y-68455500I0J425500D01*
G01*
X80089000Y-67604500D01*
G75*
G02*
X80514500Y-67179000I425500J0D01*
G01*
G37*
G36*
G01*
X77974500Y-67179000D02*
X78825500Y-67179000D01*
G75*
G02*
X79251000Y-67604500I0J-425500D01*
G01*
X79251000Y-68455500D01*
G75*
G02*
X78825500Y-68881000I-425500J0D01*
G01*
X77974500Y-68881000D01*
G75*
G02*
X77549000Y-68455500I0J425500D01*
G01*
X77549000Y-67604500D01*
G75*
G02*
X77974500Y-67179000I425500J0D01*
G01*
G37*
G36*
G01*
X80514500Y-69719000D02*
X81365500Y-69719000D01*
G75*
G02*
X81791000Y-70144500I0J-425500D01*
G01*
X81791000Y-70995500D01*
G75*
G02*
X81365500Y-71421000I-425500J0D01*
G01*
X80514500Y-71421000D01*
G75*
G02*
X80089000Y-70995500I0J425500D01*
G01*
X80089000Y-70144500D01*
G75*
G02*
X80514500Y-69719000I425500J0D01*
G01*
G37*
G36*
G01*
X77974500Y-69719000D02*
X78825500Y-69719000D01*
G75*
G02*
X79251000Y-70144500I0J-425500D01*
G01*
X79251000Y-70995500D01*
G75*
G02*
X78825500Y-71421000I-425500J0D01*
G01*
X77974500Y-71421000D01*
G75*
G02*
X77549000Y-70995500I0J425500D01*
G01*
X77549000Y-70144500D01*
G75*
G02*
X77974500Y-69719000I425500J0D01*
G01*
G37*
G36*
G01*
X80514500Y-72259000D02*
X81365500Y-72259000D01*
G75*
G02*
X81791000Y-72684500I0J-425500D01*
G01*
X81791000Y-73535500D01*
G75*
G02*
X81365500Y-73961000I-425500J0D01*
G01*
X80514500Y-73961000D01*
G75*
G02*
X80089000Y-73535500I0J425500D01*
G01*
X80089000Y-72684500D01*
G75*
G02*
X80514500Y-72259000I425500J0D01*
G01*
G37*
G36*
G01*
X77974500Y-72259000D02*
X78825500Y-72259000D01*
G75*
G02*
X79251000Y-72684500I0J-425500D01*
G01*
X79251000Y-73535500D01*
G75*
G02*
X78825500Y-73961000I-425500J0D01*
G01*
X77974500Y-73961000D01*
G75*
G02*
X77549000Y-73535500I0J425500D01*
G01*
X77549000Y-72684500D01*
G75*
G02*
X77974500Y-72259000I425500J0D01*
G01*
G37*
G36*
G01*
X80514500Y-74799000D02*
X81365500Y-74799000D01*
G75*
G02*
X81791000Y-75224500I0J-425500D01*
G01*
X81791000Y-76075500D01*
G75*
G02*
X81365500Y-76501000I-425500J0D01*
G01*
X80514500Y-76501000D01*
G75*
G02*
X80089000Y-76075500I0J425500D01*
G01*
X80089000Y-75224500D01*
G75*
G02*
X80514500Y-74799000I425500J0D01*
G01*
G37*
G36*
G01*
X77974500Y-74799000D02*
X78825500Y-74799000D01*
G75*
G02*
X79251000Y-75224500I0J-425500D01*
G01*
X79251000Y-76075500D01*
G75*
G02*
X78825500Y-76501000I-425500J0D01*
G01*
X77974500Y-76501000D01*
G75*
G02*
X77549000Y-76075500I0J425500D01*
G01*
X77549000Y-75224500D01*
G75*
G02*
X77974500Y-74799000I425500J0D01*
G01*
G37*
G36*
G01*
X80514500Y-77339000D02*
X81365500Y-77339000D01*
G75*
G02*
X81791000Y-77764500I0J-425500D01*
G01*
X81791000Y-78615500D01*
G75*
G02*
X81365500Y-79041000I-425500J0D01*
G01*
X80514500Y-79041000D01*
G75*
G02*
X80089000Y-78615500I0J425500D01*
G01*
X80089000Y-77764500D01*
G75*
G02*
X80514500Y-77339000I425500J0D01*
G01*
G37*
G36*
G01*
X77974500Y-77339000D02*
X78825500Y-77339000D01*
G75*
G02*
X79251000Y-77764500I0J-425500D01*
G01*
X79251000Y-78615500D01*
G75*
G02*
X78825500Y-79041000I-425500J0D01*
G01*
X77974500Y-79041000D01*
G75*
G02*
X77549000Y-78615500I0J425500D01*
G01*
X77549000Y-77764500D01*
G75*
G02*
X77974500Y-77339000I425500J0D01*
G01*
G37*
G36*
G01*
X80514500Y-79879000D02*
X81365500Y-79879000D01*
G75*
G02*
X81791000Y-80304500I0J-425500D01*
G01*
X81791000Y-81155500D01*
G75*
G02*
X81365500Y-81581000I-425500J0D01*
G01*
X80514500Y-81581000D01*
G75*
G02*
X80089000Y-81155500I0J425500D01*
G01*
X80089000Y-80304500D01*
G75*
G02*
X80514500Y-79879000I425500J0D01*
G01*
G37*
G36*
G01*
X77974500Y-79879000D02*
X78825500Y-79879000D01*
G75*
G02*
X79251000Y-80304500I0J-425500D01*
G01*
X79251000Y-81155500D01*
G75*
G02*
X78825500Y-81581000I-425500J0D01*
G01*
X77974500Y-81581000D01*
G75*
G02*
X77549000Y-81155500I0J425500D01*
G01*
X77549000Y-80304500D01*
G75*
G02*
X77974500Y-79879000I425500J0D01*
G01*
G37*
G36*
G01*
X80514500Y-82419000D02*
X81365500Y-82419000D01*
G75*
G02*
X81791000Y-82844500I0J-425500D01*
G01*
X81791000Y-83695500D01*
G75*
G02*
X81365500Y-84121000I-425500J0D01*
G01*
X80514500Y-84121000D01*
G75*
G02*
X80089000Y-83695500I0J425500D01*
G01*
X80089000Y-82844500D01*
G75*
G02*
X80514500Y-82419000I425500J0D01*
G01*
G37*
G36*
G01*
X77974500Y-82419000D02*
X78825500Y-82419000D01*
G75*
G02*
X79251000Y-82844500I0J-425500D01*
G01*
X79251000Y-83695500D01*
G75*
G02*
X78825500Y-84121000I-425500J0D01*
G01*
X77974500Y-84121000D01*
G75*
G02*
X77549000Y-83695500I0J425500D01*
G01*
X77549000Y-82844500D01*
G75*
G02*
X77974500Y-82419000I425500J0D01*
G01*
G37*
G36*
G01*
X80514500Y-84959000D02*
X81365500Y-84959000D01*
G75*
G02*
X81791000Y-85384500I0J-425500D01*
G01*
X81791000Y-86235500D01*
G75*
G02*
X81365500Y-86661000I-425500J0D01*
G01*
X80514500Y-86661000D01*
G75*
G02*
X80089000Y-86235500I0J425500D01*
G01*
X80089000Y-85384500D01*
G75*
G02*
X80514500Y-84959000I425500J0D01*
G01*
G37*
G36*
G01*
X77974500Y-84959000D02*
X78825500Y-84959000D01*
G75*
G02*
X79251000Y-85384500I0J-425500D01*
G01*
X79251000Y-86235500D01*
G75*
G02*
X78825500Y-86661000I-425500J0D01*
G01*
X77974500Y-86661000D01*
G75*
G02*
X77549000Y-86235500I0J425500D01*
G01*
X77549000Y-85384500D01*
G75*
G02*
X77974500Y-84959000I425500J0D01*
G01*
G37*
G36*
G01*
X80514500Y-87499000D02*
X81365500Y-87499000D01*
G75*
G02*
X81791000Y-87924500I0J-425500D01*
G01*
X81791000Y-88775500D01*
G75*
G02*
X81365500Y-89201000I-425500J0D01*
G01*
X80514500Y-89201000D01*
G75*
G02*
X80089000Y-88775500I0J425500D01*
G01*
X80089000Y-87924500D01*
G75*
G02*
X80514500Y-87499000I425500J0D01*
G01*
G37*
G36*
G01*
X77974500Y-87499000D02*
X78825500Y-87499000D01*
G75*
G02*
X79251000Y-87924500I0J-425500D01*
G01*
X79251000Y-88775500D01*
G75*
G02*
X78825500Y-89201000I-425500J0D01*
G01*
X77974500Y-89201000D01*
G75*
G02*
X77549000Y-88775500I0J425500D01*
G01*
X77549000Y-87924500D01*
G75*
G02*
X77974500Y-87499000I425500J0D01*
G01*
G37*
G36*
G01*
X80514500Y-90039000D02*
X81365500Y-90039000D01*
G75*
G02*
X81791000Y-90464500I0J-425500D01*
G01*
X81791000Y-91315500D01*
G75*
G02*
X81365500Y-91741000I-425500J0D01*
G01*
X80514500Y-91741000D01*
G75*
G02*
X80089000Y-91315500I0J425500D01*
G01*
X80089000Y-90464500D01*
G75*
G02*
X80514500Y-90039000I425500J0D01*
G01*
G37*
G36*
G01*
X77974500Y-90039000D02*
X78825500Y-90039000D01*
G75*
G02*
X79251000Y-90464500I0J-425500D01*
G01*
X79251000Y-91315500D01*
G75*
G02*
X78825500Y-91741000I-425500J0D01*
G01*
X77974500Y-91741000D01*
G75*
G02*
X77549000Y-91315500I0J425500D01*
G01*
X77549000Y-90464500D01*
G75*
G02*
X77974500Y-90039000I425500J0D01*
G01*
G37*
G36*
G01*
X80514500Y-92579000D02*
X81365500Y-92579000D01*
G75*
G02*
X81791000Y-93004500I0J-425500D01*
G01*
X81791000Y-93855500D01*
G75*
G02*
X81365500Y-94281000I-425500J0D01*
G01*
X80514500Y-94281000D01*
G75*
G02*
X80089000Y-93855500I0J425500D01*
G01*
X80089000Y-93004500D01*
G75*
G02*
X80514500Y-92579000I425500J0D01*
G01*
G37*
G36*
G01*
X77974500Y-92579000D02*
X78825500Y-92579000D01*
G75*
G02*
X79251000Y-93004500I0J-425500D01*
G01*
X79251000Y-93855500D01*
G75*
G02*
X78825500Y-94281000I-425500J0D01*
G01*
X77974500Y-94281000D01*
G75*
G02*
X77549000Y-93855500I0J425500D01*
G01*
X77549000Y-93004500D01*
G75*
G02*
X77974500Y-92579000I425500J0D01*
G01*
G37*
G36*
G01*
X80514500Y-95119000D02*
X81365500Y-95119000D01*
G75*
G02*
X81791000Y-95544500I0J-425500D01*
G01*
X81791000Y-96395500D01*
G75*
G02*
X81365500Y-96821000I-425500J0D01*
G01*
X80514500Y-96821000D01*
G75*
G02*
X80089000Y-96395500I0J425500D01*
G01*
X80089000Y-95544500D01*
G75*
G02*
X80514500Y-95119000I425500J0D01*
G01*
G37*
G36*
G01*
X77974500Y-95119000D02*
X78825500Y-95119000D01*
G75*
G02*
X79251000Y-95544500I0J-425500D01*
G01*
X79251000Y-96395500D01*
G75*
G02*
X78825500Y-96821000I-425500J0D01*
G01*
X77974500Y-96821000D01*
G75*
G02*
X77549000Y-96395500I0J425500D01*
G01*
X77549000Y-95544500D01*
G75*
G02*
X77974500Y-95119000I425500J0D01*
G01*
G37*
G36*
G01*
X80514500Y-97659000D02*
X81365500Y-97659000D01*
G75*
G02*
X81791000Y-98084500I0J-425500D01*
G01*
X81791000Y-98935500D01*
G75*
G02*
X81365500Y-99361000I-425500J0D01*
G01*
X80514500Y-99361000D01*
G75*
G02*
X80089000Y-98935500I0J425500D01*
G01*
X80089000Y-98084500D01*
G75*
G02*
X80514500Y-97659000I425500J0D01*
G01*
G37*
G36*
G01*
X77974500Y-97659000D02*
X78825500Y-97659000D01*
G75*
G02*
X79251000Y-98084500I0J-425500D01*
G01*
X79251000Y-98935500D01*
G75*
G02*
X78825500Y-99361000I-425500J0D01*
G01*
X77974500Y-99361000D01*
G75*
G02*
X77549000Y-98935500I0J425500D01*
G01*
X77549000Y-98084500D01*
G75*
G02*
X77974500Y-97659000I425500J0D01*
G01*
G37*
G36*
G01*
X80514500Y-100199000D02*
X81365500Y-100199000D01*
G75*
G02*
X81791000Y-100624500I0J-425500D01*
G01*
X81791000Y-101475500D01*
G75*
G02*
X81365500Y-101901000I-425500J0D01*
G01*
X80514500Y-101901000D01*
G75*
G02*
X80089000Y-101475500I0J425500D01*
G01*
X80089000Y-100624500D01*
G75*
G02*
X80514500Y-100199000I425500J0D01*
G01*
G37*
G36*
G01*
X77974500Y-100199000D02*
X78825500Y-100199000D01*
G75*
G02*
X79251000Y-100624500I0J-425500D01*
G01*
X79251000Y-101475500D01*
G75*
G02*
X78825500Y-101901000I-425500J0D01*
G01*
X77974500Y-101901000D01*
G75*
G02*
X77549000Y-101475500I0J425500D01*
G01*
X77549000Y-100624500D01*
G75*
G02*
X77974500Y-100199000I425500J0D01*
G01*
G37*
G36*
G01*
X80514500Y-102739000D02*
X81365500Y-102739000D01*
G75*
G02*
X81791000Y-103164500I0J-425500D01*
G01*
X81791000Y-104015500D01*
G75*
G02*
X81365500Y-104441000I-425500J0D01*
G01*
X80514500Y-104441000D01*
G75*
G02*
X80089000Y-104015500I0J425500D01*
G01*
X80089000Y-103164500D01*
G75*
G02*
X80514500Y-102739000I425500J0D01*
G01*
G37*
G36*
G01*
X77974500Y-102739000D02*
X78825500Y-102739000D01*
G75*
G02*
X79251000Y-103164500I0J-425500D01*
G01*
X79251000Y-104015500D01*
G75*
G02*
X78825500Y-104441000I-425500J0D01*
G01*
X77974500Y-104441000D01*
G75*
G02*
X77549000Y-104015500I0J425500D01*
G01*
X77549000Y-103164500D01*
G75*
G02*
X77974500Y-102739000I425500J0D01*
G01*
G37*
G36*
G01*
X80514500Y-105279000D02*
X81365500Y-105279000D01*
G75*
G02*
X81791000Y-105704500I0J-425500D01*
G01*
X81791000Y-106555500D01*
G75*
G02*
X81365500Y-106981000I-425500J0D01*
G01*
X80514500Y-106981000D01*
G75*
G02*
X80089000Y-106555500I0J425500D01*
G01*
X80089000Y-105704500D01*
G75*
G02*
X80514500Y-105279000I425500J0D01*
G01*
G37*
G36*
G01*
X77974500Y-105279000D02*
X78825500Y-105279000D01*
G75*
G02*
X79251000Y-105704500I0J-425500D01*
G01*
X79251000Y-106555500D01*
G75*
G02*
X78825500Y-106981000I-425500J0D01*
G01*
X77974500Y-106981000D01*
G75*
G02*
X77549000Y-106555500I0J425500D01*
G01*
X77549000Y-105704500D01*
G75*
G02*
X77974500Y-105279000I425500J0D01*
G01*
G37*
G36*
G01*
X80514500Y-107819000D02*
X81365500Y-107819000D01*
G75*
G02*
X81791000Y-108244500I0J-425500D01*
G01*
X81791000Y-109095500D01*
G75*
G02*
X81365500Y-109521000I-425500J0D01*
G01*
X80514500Y-109521000D01*
G75*
G02*
X80089000Y-109095500I0J425500D01*
G01*
X80089000Y-108244500D01*
G75*
G02*
X80514500Y-107819000I425500J0D01*
G01*
G37*
G36*
G01*
X77974500Y-107819000D02*
X78825500Y-107819000D01*
G75*
G02*
X79251000Y-108244500I0J-425500D01*
G01*
X79251000Y-109095500D01*
G75*
G02*
X78825500Y-109521000I-425500J0D01*
G01*
X77974500Y-109521000D01*
G75*
G02*
X77549000Y-109095500I0J425500D01*
G01*
X77549000Y-108244500D01*
G75*
G02*
X77974500Y-107819000I425500J0D01*
G01*
G37*
G36*
G01*
X80514500Y-110359000D02*
X81365500Y-110359000D01*
G75*
G02*
X81791000Y-110784500I0J-425500D01*
G01*
X81791000Y-111635500D01*
G75*
G02*
X81365500Y-112061000I-425500J0D01*
G01*
X80514500Y-112061000D01*
G75*
G02*
X80089000Y-111635500I0J425500D01*
G01*
X80089000Y-110784500D01*
G75*
G02*
X80514500Y-110359000I425500J0D01*
G01*
G37*
G36*
G01*
X77974500Y-110359000D02*
X78825500Y-110359000D01*
G75*
G02*
X79251000Y-110784500I0J-425500D01*
G01*
X79251000Y-111635500D01*
G75*
G02*
X78825500Y-112061000I-425500J0D01*
G01*
X77974500Y-112061000D01*
G75*
G02*
X77549000Y-111635500I0J425500D01*
G01*
X77549000Y-110784500D01*
G75*
G02*
X77974500Y-110359000I425500J0D01*
G01*
G37*
G36*
G01*
X51776500Y-72608106D02*
X51776500Y-71291894D01*
G75*
G02*
X52044394Y-71024000I267894J0D01*
G01*
X53035606Y-71024000D01*
G75*
G02*
X53303500Y-71291894I0J-267894D01*
G01*
X53303500Y-72608106D01*
G75*
G02*
X53035606Y-72876000I-267894J0D01*
G01*
X52044394Y-72876000D01*
G75*
G02*
X51776500Y-72608106I0J267894D01*
G01*
G37*
G36*
G01*
X54751500Y-72608106D02*
X54751500Y-71291894D01*
G75*
G02*
X55019394Y-71024000I267894J0D01*
G01*
X56010606Y-71024000D01*
G75*
G02*
X56278500Y-71291894I0J-267894D01*
G01*
X56278500Y-72608106D01*
G75*
G02*
X56010606Y-72876000I-267894J0D01*
G01*
X55019394Y-72876000D01*
G75*
G02*
X54751500Y-72608106I0J267894D01*
G01*
G37*
D10*
X53526280Y-105401680D03*
X118918580Y-61203140D03*
X53513580Y-62219140D03*
X118918580Y-105399140D03*
G36*
G01*
X113530800Y-82940280D02*
X109030800Y-82940280D01*
G75*
G02*
X108979800Y-82889280I0J51000D01*
G01*
X108979800Y-81889280D01*
G75*
G02*
X109030800Y-81838280I51000J0D01*
G01*
X113530800Y-81838280D01*
G75*
G02*
X113581800Y-81889280I0J-51000D01*
G01*
X113581800Y-82889280D01*
G75*
G02*
X113530800Y-82940280I-51000J0D01*
G01*
G37*
G36*
G01*
X113530800Y-80400280D02*
X109030800Y-80400280D01*
G75*
G02*
X108979800Y-80349280I0J51000D01*
G01*
X108979800Y-79349280D01*
G75*
G02*
X109030800Y-79298280I51000J0D01*
G01*
X113530800Y-79298280D01*
G75*
G02*
X113581800Y-79349280I0J-51000D01*
G01*
X113581800Y-80349280D01*
G75*
G02*
X113530800Y-80400280I-51000J0D01*
G01*
G37*
G36*
G01*
X113530800Y-85480280D02*
X109030800Y-85480280D01*
G75*
G02*
X108979800Y-85429280I0J51000D01*
G01*
X108979800Y-84429280D01*
G75*
G02*
X109030800Y-84378280I51000J0D01*
G01*
X113530800Y-84378280D01*
G75*
G02*
X113581800Y-84429280I0J-51000D01*
G01*
X113581800Y-85429280D01*
G75*
G02*
X113530800Y-85480280I-51000J0D01*
G01*
G37*
D11*
X63569440Y-90070240D03*
X63569440Y-92076840D03*
X63569440Y-94083440D03*
X63569440Y-96090040D03*
X63569440Y-98096640D03*
D12*
X52444240Y-99252340D03*
X52456940Y-88914540D03*
G36*
G01*
X59908106Y-81088500D02*
X58591894Y-81088500D01*
G75*
G02*
X58324000Y-80820606I0J267894D01*
G01*
X58324000Y-79829394D01*
G75*
G02*
X58591894Y-79561500I267894J0D01*
G01*
X59908106Y-79561500D01*
G75*
G02*
X60176000Y-79829394I0J-267894D01*
G01*
X60176000Y-80820606D01*
G75*
G02*
X59908106Y-81088500I-267894J0D01*
G01*
G37*
G36*
G01*
X59908106Y-84063500D02*
X58591894Y-84063500D01*
G75*
G02*
X58324000Y-83795606I0J267894D01*
G01*
X58324000Y-82804394D01*
G75*
G02*
X58591894Y-82536500I267894J0D01*
G01*
X59908106Y-82536500D01*
G75*
G02*
X60176000Y-82804394I0J-267894D01*
G01*
X60176000Y-83795606D01*
G75*
G02*
X59908106Y-84063500I-267894J0D01*
G01*
G37*
G36*
G01*
X115318500Y-68361894D02*
X115318500Y-69678106D01*
G75*
G02*
X115050606Y-69946000I-267894J0D01*
G01*
X114059394Y-69946000D01*
G75*
G02*
X113791500Y-69678106I0J267894D01*
G01*
X113791500Y-68361894D01*
G75*
G02*
X114059394Y-68094000I267894J0D01*
G01*
X115050606Y-68094000D01*
G75*
G02*
X115318500Y-68361894I0J-267894D01*
G01*
G37*
G36*
G01*
X118293500Y-68361894D02*
X118293500Y-69678106D01*
G75*
G02*
X118025606Y-69946000I-267894J0D01*
G01*
X117034394Y-69946000D01*
G75*
G02*
X116766500Y-69678106I0J267894D01*
G01*
X116766500Y-68361894D01*
G75*
G02*
X117034394Y-68094000I267894J0D01*
G01*
X118025606Y-68094000D01*
G75*
G02*
X118293500Y-68361894I0J-267894D01*
G01*
G37*
G36*
G01*
X112068500Y-68361894D02*
X112068500Y-69678106D01*
G75*
G02*
X111800606Y-69946000I-267894J0D01*
G01*
X110809394Y-69946000D01*
G75*
G02*
X110541500Y-69678106I0J267894D01*
G01*
X110541500Y-68361894D01*
G75*
G02*
X110809394Y-68094000I267894J0D01*
G01*
X111800606Y-68094000D01*
G75*
G02*
X112068500Y-68361894I0J-267894D01*
G01*
G37*
G36*
G01*
X109093500Y-68361894D02*
X109093500Y-69678106D01*
G75*
G02*
X108825606Y-69946000I-267894J0D01*
G01*
X107834394Y-69946000D01*
G75*
G02*
X107566500Y-69678106I0J267894D01*
G01*
X107566500Y-68361894D01*
G75*
G02*
X107834394Y-68094000I267894J0D01*
G01*
X108825606Y-68094000D01*
G75*
G02*
X109093500Y-68361894I0J-267894D01*
G01*
G37*
G36*
G01*
X113306500Y-56698106D02*
X113306500Y-55381894D01*
G75*
G02*
X113574394Y-55114000I267894J0D01*
G01*
X114565606Y-55114000D01*
G75*
G02*
X114833500Y-55381894I0J-267894D01*
G01*
X114833500Y-56698106D01*
G75*
G02*
X114565606Y-56966000I-267894J0D01*
G01*
X113574394Y-56966000D01*
G75*
G02*
X113306500Y-56698106I0J267894D01*
G01*
G37*
G36*
G01*
X116281500Y-56698106D02*
X116281500Y-55381894D01*
G75*
G02*
X116549394Y-55114000I267894J0D01*
G01*
X117540606Y-55114000D01*
G75*
G02*
X117808500Y-55381894I0J-267894D01*
G01*
X117808500Y-56698106D01*
G75*
G02*
X117540606Y-56966000I-267894J0D01*
G01*
X116549394Y-56966000D01*
G75*
G02*
X116281500Y-56698106I0J267894D01*
G01*
G37*
G36*
G01*
X109023500Y-59861894D02*
X109023500Y-61178106D01*
G75*
G02*
X108755606Y-61446000I-267894J0D01*
G01*
X107764394Y-61446000D01*
G75*
G02*
X107496500Y-61178106I0J267894D01*
G01*
X107496500Y-59861894D01*
G75*
G02*
X107764394Y-59594000I267894J0D01*
G01*
X108755606Y-59594000D01*
G75*
G02*
X109023500Y-59861894I0J-267894D01*
G01*
G37*
G36*
G01*
X111998500Y-59861894D02*
X111998500Y-61178106D01*
G75*
G02*
X111730606Y-61446000I-267894J0D01*
G01*
X110739394Y-61446000D01*
G75*
G02*
X110471500Y-61178106I0J267894D01*
G01*
X110471500Y-59861894D01*
G75*
G02*
X110739394Y-59594000I267894J0D01*
G01*
X111730606Y-59594000D01*
G75*
G02*
X111998500Y-59861894I0J-267894D01*
G01*
G37*
G36*
G01*
X118213500Y-72991894D02*
X118213500Y-74308106D01*
G75*
G02*
X117945606Y-74576000I-267894J0D01*
G01*
X116954394Y-74576000D01*
G75*
G02*
X116686500Y-74308106I0J267894D01*
G01*
X116686500Y-72991894D01*
G75*
G02*
X116954394Y-72724000I267894J0D01*
G01*
X117945606Y-72724000D01*
G75*
G02*
X118213500Y-72991894I0J-267894D01*
G01*
G37*
G36*
G01*
X115238500Y-72991894D02*
X115238500Y-74308106D01*
G75*
G02*
X114970606Y-74576000I-267894J0D01*
G01*
X113979394Y-74576000D01*
G75*
G02*
X113711500Y-74308106I0J267894D01*
G01*
X113711500Y-72991894D01*
G75*
G02*
X113979394Y-72724000I267894J0D01*
G01*
X114970606Y-72724000D01*
G75*
G02*
X115238500Y-72991894I0J-267894D01*
G01*
G37*
G36*
G01*
X110701500Y-74158106D02*
X110701500Y-72841894D01*
G75*
G02*
X110969394Y-72574000I267894J0D01*
G01*
X111960606Y-72574000D01*
G75*
G02*
X112228500Y-72841894I0J-267894D01*
G01*
X112228500Y-74158106D01*
G75*
G02*
X111960606Y-74426000I-267894J0D01*
G01*
X110969394Y-74426000D01*
G75*
G02*
X110701500Y-74158106I0J267894D01*
G01*
G37*
G36*
G01*
X107726500Y-74158106D02*
X107726500Y-72841894D01*
G75*
G02*
X107994394Y-72574000I267894J0D01*
G01*
X108985606Y-72574000D01*
G75*
G02*
X109253500Y-72841894I0J-267894D01*
G01*
X109253500Y-74158106D01*
G75*
G02*
X108985606Y-74426000I-267894J0D01*
G01*
X107994394Y-74426000D01*
G75*
G02*
X107726500Y-74158106I0J267894D01*
G01*
G37*
G36*
G01*
X115268500Y-65451894D02*
X115268500Y-66768106D01*
G75*
G02*
X115000606Y-67036000I-267894J0D01*
G01*
X114009394Y-67036000D01*
G75*
G02*
X113741500Y-66768106I0J267894D01*
G01*
X113741500Y-65451894D01*
G75*
G02*
X114009394Y-65184000I267894J0D01*
G01*
X115000606Y-65184000D01*
G75*
G02*
X115268500Y-65451894I0J-267894D01*
G01*
G37*
G36*
G01*
X118243500Y-65451894D02*
X118243500Y-66768106D01*
G75*
G02*
X117975606Y-67036000I-267894J0D01*
G01*
X116984394Y-67036000D01*
G75*
G02*
X116716500Y-66768106I0J267894D01*
G01*
X116716500Y-65451894D01*
G75*
G02*
X116984394Y-65184000I267894J0D01*
G01*
X117975606Y-65184000D01*
G75*
G02*
X118243500Y-65451894I0J-267894D01*
G01*
G37*
G36*
G01*
X111803500Y-64261894D02*
X111803500Y-65578106D01*
G75*
G02*
X111535606Y-65846000I-267894J0D01*
G01*
X110544394Y-65846000D01*
G75*
G02*
X110276500Y-65578106I0J267894D01*
G01*
X110276500Y-64261894D01*
G75*
G02*
X110544394Y-63994000I267894J0D01*
G01*
X111535606Y-63994000D01*
G75*
G02*
X111803500Y-64261894I0J-267894D01*
G01*
G37*
G36*
G01*
X108828500Y-64261894D02*
X108828500Y-65578106D01*
G75*
G02*
X108560606Y-65846000I-267894J0D01*
G01*
X107569394Y-65846000D01*
G75*
G02*
X107301500Y-65578106I0J267894D01*
G01*
X107301500Y-64261894D01*
G75*
G02*
X107569394Y-63994000I267894J0D01*
G01*
X108560606Y-63994000D01*
G75*
G02*
X108828500Y-64261894I0J-267894D01*
G01*
G37*
G36*
G01*
X55524000Y-79101000D02*
X57024000Y-79101000D01*
G75*
G02*
X57075000Y-79152000I0J-51000D01*
G01*
X57075000Y-79652000D01*
G75*
G02*
X57024000Y-79703000I-51000J0D01*
G01*
X55524000Y-79703000D01*
G75*
G02*
X55473000Y-79652000I0J51000D01*
G01*
X55473000Y-79152000D01*
G75*
G02*
X55524000Y-79101000I51000J0D01*
G01*
G37*
G36*
G01*
X55529080Y-80117000D02*
X57029080Y-80117000D01*
G75*
G02*
X57080080Y-80168000I0J-51000D01*
G01*
X57080080Y-80668000D01*
G75*
G02*
X57029080Y-80719000I-51000J0D01*
G01*
X55529080Y-80719000D01*
G75*
G02*
X55478080Y-80668000I0J51000D01*
G01*
X55478080Y-80168000D01*
G75*
G02*
X55529080Y-80117000I51000J0D01*
G01*
G37*
G36*
G01*
X55529080Y-81127920D02*
X57029080Y-81127920D01*
G75*
G02*
X57080080Y-81178920I0J-51000D01*
G01*
X57080080Y-81678920D01*
G75*
G02*
X57029080Y-81729920I-51000J0D01*
G01*
X55529080Y-81729920D01*
G75*
G02*
X55478080Y-81678920I0J51000D01*
G01*
X55478080Y-81178920D01*
G75*
G02*
X55529080Y-81127920I51000J0D01*
G01*
G37*
G36*
G01*
X55518920Y-78079920D02*
X57018920Y-78079920D01*
G75*
G02*
X57069920Y-78130920I0J-51000D01*
G01*
X57069920Y-78630920D01*
G75*
G02*
X57018920Y-78681920I-51000J0D01*
G01*
X55518920Y-78681920D01*
G75*
G02*
X55467920Y-78630920I0J51000D01*
G01*
X55467920Y-78130920D01*
G75*
G02*
X55518920Y-78079920I51000J0D01*
G01*
G37*
G36*
G01*
X55529080Y-82307280D02*
X57029080Y-82307280D01*
G75*
G02*
X57080080Y-82358280I0J-51000D01*
G01*
X57080080Y-82958280D01*
G75*
G02*
X57029080Y-83009280I-51000J0D01*
G01*
X55529080Y-83009280D01*
G75*
G02*
X55478080Y-82958280I0J51000D01*
G01*
X55478080Y-82358280D01*
G75*
G02*
X55529080Y-82307280I51000J0D01*
G01*
G37*
G36*
G01*
X55518920Y-76800560D02*
X57018920Y-76800560D01*
G75*
G02*
X57069920Y-76851560I0J-51000D01*
G01*
X57069920Y-77451560D01*
G75*
G02*
X57018920Y-77502560I-51000J0D01*
G01*
X55518920Y-77502560D01*
G75*
G02*
X55467920Y-77451560I0J51000D01*
G01*
X55467920Y-76851560D01*
G75*
G02*
X55518920Y-76800560I51000J0D01*
G01*
G37*
D11*
X56020000Y-84228000D03*
X56020000Y-75592000D03*
X52222700Y-75592000D03*
X52222700Y-84228000D03*
G36*
G01*
X57350840Y-119110000D02*
X57350840Y-117110000D01*
G75*
G02*
X57401840Y-117059000I51000J0D01*
G01*
X58401840Y-117059000D01*
G75*
G02*
X58452840Y-117110000I0J-51000D01*
G01*
X58452840Y-119110000D01*
G75*
G02*
X58401840Y-119161000I-51000J0D01*
G01*
X57401840Y-119161000D01*
G75*
G02*
X57350840Y-119110000I0J51000D01*
G01*
G37*
G36*
G01*
X59352360Y-119110000D02*
X59352360Y-117110000D01*
G75*
G02*
X59403360Y-117059000I51000J0D01*
G01*
X60403360Y-117059000D01*
G75*
G02*
X60454360Y-117110000I0J-51000D01*
G01*
X60454360Y-119110000D01*
G75*
G02*
X60403360Y-119161000I-51000J0D01*
G01*
X59403360Y-119161000D01*
G75*
G02*
X59352360Y-119110000I0J51000D01*
G01*
G37*
G36*
G01*
X61353880Y-119110000D02*
X61353880Y-117110000D01*
G75*
G02*
X61404880Y-117059000I51000J0D01*
G01*
X62404880Y-117059000D01*
G75*
G02*
X62455880Y-117110000I0J-51000D01*
G01*
X62455880Y-119110000D01*
G75*
G02*
X62404880Y-119161000I-51000J0D01*
G01*
X61404880Y-119161000D01*
G75*
G02*
X61353880Y-119110000I0J51000D01*
G01*
G37*
G36*
G01*
X63360480Y-119110000D02*
X63360480Y-117110000D01*
G75*
G02*
X63411480Y-117059000I51000J0D01*
G01*
X64411480Y-117059000D01*
G75*
G02*
X64462480Y-117110000I0J-51000D01*
G01*
X64462480Y-119110000D01*
G75*
G02*
X64411480Y-119161000I-51000J0D01*
G01*
X63411480Y-119161000D01*
G75*
G02*
X63360480Y-119110000I0J51000D01*
G01*
G37*
G36*
G01*
X65362000Y-119110000D02*
X65362000Y-117110000D01*
G75*
G02*
X65413000Y-117059000I51000J0D01*
G01*
X66413000Y-117059000D01*
G75*
G02*
X66464000Y-117110000I0J-51000D01*
G01*
X66464000Y-119110000D01*
G75*
G02*
X66413000Y-119161000I-51000J0D01*
G01*
X65413000Y-119161000D01*
G75*
G02*
X65362000Y-119110000I0J51000D01*
G01*
G37*
G36*
G01*
X55349320Y-119110000D02*
X55349320Y-117110000D01*
G75*
G02*
X55400320Y-117059000I51000J0D01*
G01*
X56400320Y-117059000D01*
G75*
G02*
X56451320Y-117110000I0J-51000D01*
G01*
X56451320Y-119110000D01*
G75*
G02*
X56400320Y-119161000I-51000J0D01*
G01*
X55400320Y-119161000D01*
G75*
G02*
X55349320Y-119110000I0J51000D01*
G01*
G37*
G36*
G01*
X67363520Y-119110000D02*
X67363520Y-117110000D01*
G75*
G02*
X67414520Y-117059000I51000J0D01*
G01*
X68414520Y-117059000D01*
G75*
G02*
X68465520Y-117110000I0J-51000D01*
G01*
X68465520Y-119110000D01*
G75*
G02*
X68414520Y-119161000I-51000J0D01*
G01*
X67414520Y-119161000D01*
G75*
G02*
X67363520Y-119110000I0J51000D01*
G01*
G37*
G36*
G01*
X69365040Y-119110000D02*
X69365040Y-117110000D01*
G75*
G02*
X69416040Y-117059000I51000J0D01*
G01*
X70416040Y-117059000D01*
G75*
G02*
X70467040Y-117110000I0J-51000D01*
G01*
X70467040Y-119110000D01*
G75*
G02*
X70416040Y-119161000I-51000J0D01*
G01*
X69416040Y-119161000D01*
G75*
G02*
X69365040Y-119110000I0J51000D01*
G01*
G37*
G36*
G01*
X53342720Y-119110000D02*
X53342720Y-117110000D01*
G75*
G02*
X53393720Y-117059000I51000J0D01*
G01*
X54393720Y-117059000D01*
G75*
G02*
X54444720Y-117110000I0J-51000D01*
G01*
X54444720Y-119110000D01*
G75*
G02*
X54393720Y-119161000I-51000J0D01*
G01*
X53393720Y-119161000D01*
G75*
G02*
X53342720Y-119110000I0J51000D01*
G01*
G37*
G36*
G01*
X51336120Y-119110000D02*
X51336120Y-117110000D01*
G75*
G02*
X51387120Y-117059000I51000J0D01*
G01*
X52387120Y-117059000D01*
G75*
G02*
X52438120Y-117110000I0J-51000D01*
G01*
X52438120Y-119110000D01*
G75*
G02*
X52387120Y-119161000I-51000J0D01*
G01*
X51387120Y-119161000D01*
G75*
G02*
X51336120Y-119110000I0J51000D01*
G01*
G37*
D13*
X109931200Y-107899200D03*
X62534800Y-107899200D03*
X67614800Y-107899200D03*
G36*
G01*
X111788120Y-119262400D02*
X111788120Y-117262400D01*
G75*
G02*
X111839120Y-117211400I51000J0D01*
G01*
X112839120Y-117211400D01*
G75*
G02*
X112890120Y-117262400I0J-51000D01*
G01*
X112890120Y-119262400D01*
G75*
G02*
X112839120Y-119313400I-51000J0D01*
G01*
X111839120Y-119313400D01*
G75*
G02*
X111788120Y-119262400I0J51000D01*
G01*
G37*
G36*
G01*
X113789640Y-119262400D02*
X113789640Y-117262400D01*
G75*
G02*
X113840640Y-117211400I51000J0D01*
G01*
X114840640Y-117211400D01*
G75*
G02*
X114891640Y-117262400I0J-51000D01*
G01*
X114891640Y-119262400D01*
G75*
G02*
X114840640Y-119313400I-51000J0D01*
G01*
X113840640Y-119313400D01*
G75*
G02*
X113789640Y-119262400I0J51000D01*
G01*
G37*
G36*
G01*
X115791160Y-119262400D02*
X115791160Y-117262400D01*
G75*
G02*
X115842160Y-117211400I51000J0D01*
G01*
X116842160Y-117211400D01*
G75*
G02*
X116893160Y-117262400I0J-51000D01*
G01*
X116893160Y-119262400D01*
G75*
G02*
X116842160Y-119313400I-51000J0D01*
G01*
X115842160Y-119313400D01*
G75*
G02*
X115791160Y-119262400I0J51000D01*
G01*
G37*
G36*
G01*
X117792680Y-119262400D02*
X117792680Y-117262400D01*
G75*
G02*
X117843680Y-117211400I51000J0D01*
G01*
X118843680Y-117211400D01*
G75*
G02*
X118894680Y-117262400I0J-51000D01*
G01*
X118894680Y-119262400D01*
G75*
G02*
X118843680Y-119313400I-51000J0D01*
G01*
X117843680Y-119313400D01*
G75*
G02*
X117792680Y-119262400I0J51000D01*
G01*
G37*
G36*
G01*
X119794200Y-119262400D02*
X119794200Y-117262400D01*
G75*
G02*
X119845200Y-117211400I51000J0D01*
G01*
X120845200Y-117211400D01*
G75*
G02*
X120896200Y-117262400I0J-51000D01*
G01*
X120896200Y-119262400D01*
G75*
G02*
X120845200Y-119313400I-51000J0D01*
G01*
X119845200Y-119313400D01*
G75*
G02*
X119794200Y-119262400I0J51000D01*
G01*
G37*
G36*
G01*
X109786600Y-119262400D02*
X109786600Y-117262400D01*
G75*
G02*
X109837600Y-117211400I51000J0D01*
G01*
X110837600Y-117211400D01*
G75*
G02*
X110888600Y-117262400I0J-51000D01*
G01*
X110888600Y-119262400D01*
G75*
G02*
X110837600Y-119313400I-51000J0D01*
G01*
X109837600Y-119313400D01*
G75*
G02*
X109786600Y-119262400I0J51000D01*
G01*
G37*
G36*
G01*
X107780000Y-119262400D02*
X107780000Y-117262400D01*
G75*
G02*
X107831000Y-117211400I51000J0D01*
G01*
X108831000Y-117211400D01*
G75*
G02*
X108882000Y-117262400I0J-51000D01*
G01*
X108882000Y-119262400D01*
G75*
G02*
X108831000Y-119313400I-51000J0D01*
G01*
X107831000Y-119313400D01*
G75*
G02*
X107780000Y-119262400I0J51000D01*
G01*
G37*
D14*
G36*
X80090990Y-111635304D02*
G01*
X80099146Y-111718116D01*
X80123246Y-111797563D01*
X80162381Y-111870779D01*
X80215047Y-111934953D01*
X80279221Y-111987619D01*
X80352437Y-112026754D01*
X80431884Y-112050854D01*
X80514696Y-112059010D01*
X80516322Y-112060175D01*
X80516126Y-112062165D01*
X80514500Y-112063000D01*
X80458140Y-112063000D01*
X80457944Y-112062990D01*
X80381106Y-112055422D01*
X80380721Y-112055346D01*
X80312734Y-112034722D01*
X80312372Y-112034572D01*
X80249722Y-112001085D01*
X80249396Y-112000867D01*
X80194479Y-111955798D01*
X80194202Y-111955521D01*
X80149133Y-111900604D01*
X80148915Y-111900278D01*
X80115428Y-111837628D01*
X80115278Y-111837266D01*
X80094654Y-111769279D01*
X80094578Y-111768894D01*
X80087010Y-111692056D01*
X80087000Y-111691860D01*
X80087000Y-111635500D01*
X80088000Y-111633768D01*
X80090000Y-111633768D01*
X80090990Y-111635304D01*
G37*
G36*
X79252165Y-111633874D02*
G01*
X79253000Y-111635500D01*
X79253000Y-111691860D01*
X79252990Y-111692056D01*
X79245422Y-111768894D01*
X79245346Y-111769279D01*
X79224722Y-111837266D01*
X79224572Y-111837628D01*
X79191085Y-111900278D01*
X79190867Y-111900604D01*
X79145798Y-111955521D01*
X79145521Y-111955798D01*
X79090604Y-112000867D01*
X79090278Y-112001085D01*
X79027628Y-112034572D01*
X79027266Y-112034722D01*
X78959279Y-112055346D01*
X78958894Y-112055422D01*
X78882056Y-112062990D01*
X78881860Y-112063000D01*
X78825500Y-112063000D01*
X78823768Y-112062000D01*
X78823768Y-112060000D01*
X78825304Y-112059010D01*
X78908116Y-112050854D01*
X78987563Y-112026754D01*
X79060779Y-111987619D01*
X79124953Y-111934953D01*
X79177619Y-111870779D01*
X79216754Y-111797563D01*
X79240854Y-111718116D01*
X79249010Y-111635304D01*
X79250175Y-111633678D01*
X79252165Y-111633874D01*
G37*
G36*
X77550990Y-111635304D02*
G01*
X77559146Y-111718116D01*
X77583246Y-111797563D01*
X77622381Y-111870779D01*
X77675047Y-111934953D01*
X77739221Y-111987619D01*
X77812437Y-112026754D01*
X77891884Y-112050854D01*
X77974696Y-112059010D01*
X77976322Y-112060175D01*
X77976126Y-112062165D01*
X77974500Y-112063000D01*
X77918140Y-112063000D01*
X77917944Y-112062990D01*
X77841106Y-112055422D01*
X77840721Y-112055346D01*
X77772734Y-112034722D01*
X77772372Y-112034572D01*
X77709722Y-112001085D01*
X77709396Y-112000867D01*
X77654479Y-111955798D01*
X77654202Y-111955521D01*
X77609133Y-111900604D01*
X77608915Y-111900278D01*
X77575428Y-111837628D01*
X77575278Y-111837266D01*
X77554654Y-111769279D01*
X77554578Y-111768894D01*
X77547010Y-111692056D01*
X77547000Y-111691860D01*
X77547000Y-111635500D01*
X77548000Y-111633768D01*
X77550000Y-111633768D01*
X77550990Y-111635304D01*
G37*
G36*
X81792165Y-111633874D02*
G01*
X81793000Y-111635500D01*
X81793000Y-111691860D01*
X81792990Y-111692056D01*
X81785422Y-111768894D01*
X81785346Y-111769279D01*
X81764722Y-111837266D01*
X81764572Y-111837628D01*
X81731085Y-111900278D01*
X81730867Y-111900604D01*
X81685798Y-111955521D01*
X81685521Y-111955798D01*
X81630604Y-112000867D01*
X81630278Y-112001085D01*
X81567628Y-112034572D01*
X81567266Y-112034722D01*
X81499279Y-112055346D01*
X81498894Y-112055422D01*
X81422056Y-112062990D01*
X81421860Y-112063000D01*
X81365500Y-112063000D01*
X81363768Y-112062000D01*
X81363768Y-112060000D01*
X81365304Y-112059010D01*
X81448116Y-112050854D01*
X81527563Y-112026754D01*
X81600779Y-111987619D01*
X81664953Y-111934953D01*
X81717619Y-111870779D01*
X81756754Y-111797563D01*
X81780854Y-111718116D01*
X81789010Y-111635304D01*
X81790175Y-111633678D01*
X81792165Y-111633874D01*
G37*
G36*
X77976232Y-110358000D02*
G01*
X77976232Y-110360000D01*
X77974696Y-110360990D01*
X77891884Y-110369146D01*
X77812437Y-110393246D01*
X77739221Y-110432381D01*
X77675047Y-110485047D01*
X77622381Y-110549221D01*
X77583246Y-110622437D01*
X77559146Y-110701884D01*
X77550990Y-110784696D01*
X77549825Y-110786322D01*
X77547835Y-110786126D01*
X77547000Y-110784500D01*
X77547000Y-110728140D01*
X77547010Y-110727944D01*
X77554578Y-110651106D01*
X77554654Y-110650721D01*
X77575278Y-110582734D01*
X77575428Y-110582372D01*
X77608915Y-110519722D01*
X77609133Y-110519396D01*
X77654202Y-110464479D01*
X77654479Y-110464202D01*
X77709396Y-110419133D01*
X77709722Y-110418915D01*
X77772372Y-110385428D01*
X77772734Y-110385278D01*
X77840721Y-110364654D01*
X77841106Y-110364578D01*
X77917944Y-110357010D01*
X77918140Y-110357000D01*
X77974500Y-110357000D01*
X77976232Y-110358000D01*
G37*
G36*
X80516232Y-110358000D02*
G01*
X80516232Y-110360000D01*
X80514696Y-110360990D01*
X80431884Y-110369146D01*
X80352437Y-110393246D01*
X80279221Y-110432381D01*
X80215047Y-110485047D01*
X80162381Y-110549221D01*
X80123246Y-110622437D01*
X80099146Y-110701884D01*
X80090990Y-110784696D01*
X80089825Y-110786322D01*
X80087835Y-110786126D01*
X80087000Y-110784500D01*
X80087000Y-110728140D01*
X80087010Y-110727944D01*
X80094578Y-110651106D01*
X80094654Y-110650721D01*
X80115278Y-110582734D01*
X80115428Y-110582372D01*
X80148915Y-110519722D01*
X80149133Y-110519396D01*
X80194202Y-110464479D01*
X80194479Y-110464202D01*
X80249396Y-110419133D01*
X80249722Y-110418915D01*
X80312372Y-110385428D01*
X80312734Y-110385278D01*
X80380721Y-110364654D01*
X80381106Y-110364578D01*
X80457944Y-110357010D01*
X80458140Y-110357000D01*
X80514500Y-110357000D01*
X80516232Y-110358000D01*
G37*
G36*
X78882056Y-110357010D02*
G01*
X78958894Y-110364578D01*
X78959279Y-110364654D01*
X79027266Y-110385278D01*
X79027628Y-110385428D01*
X79090278Y-110418915D01*
X79090604Y-110419133D01*
X79145521Y-110464202D01*
X79145798Y-110464479D01*
X79190867Y-110519396D01*
X79191085Y-110519722D01*
X79224572Y-110582372D01*
X79224722Y-110582734D01*
X79245346Y-110650721D01*
X79245422Y-110651106D01*
X79252990Y-110727944D01*
X79253000Y-110728140D01*
X79253000Y-110784500D01*
X79252000Y-110786232D01*
X79250000Y-110786232D01*
X79249010Y-110784696D01*
X79240854Y-110701884D01*
X79216754Y-110622437D01*
X79177619Y-110549221D01*
X79124953Y-110485047D01*
X79060779Y-110432381D01*
X78987563Y-110393246D01*
X78908116Y-110369146D01*
X78825304Y-110360990D01*
X78823678Y-110359825D01*
X78823874Y-110357835D01*
X78825500Y-110357000D01*
X78881860Y-110357000D01*
X78882056Y-110357010D01*
G37*
G36*
X81422056Y-110357010D02*
G01*
X81498894Y-110364578D01*
X81499279Y-110364654D01*
X81567266Y-110385278D01*
X81567628Y-110385428D01*
X81630278Y-110418915D01*
X81630604Y-110419133D01*
X81685521Y-110464202D01*
X81685798Y-110464479D01*
X81730867Y-110519396D01*
X81731085Y-110519722D01*
X81764572Y-110582372D01*
X81764722Y-110582734D01*
X81785346Y-110650721D01*
X81785422Y-110651106D01*
X81792990Y-110727944D01*
X81793000Y-110728140D01*
X81793000Y-110784500D01*
X81792000Y-110786232D01*
X81790000Y-110786232D01*
X81789010Y-110784696D01*
X81780854Y-110701884D01*
X81756754Y-110622437D01*
X81717619Y-110549221D01*
X81664953Y-110485047D01*
X81600779Y-110432381D01*
X81527563Y-110393246D01*
X81448116Y-110369146D01*
X81365304Y-110360990D01*
X81363678Y-110359825D01*
X81363874Y-110357835D01*
X81365500Y-110357000D01*
X81421860Y-110357000D01*
X81422056Y-110357010D01*
G37*
G36*
X80090990Y-109095304D02*
G01*
X80099146Y-109178116D01*
X80123246Y-109257563D01*
X80162381Y-109330779D01*
X80215047Y-109394953D01*
X80279221Y-109447619D01*
X80352437Y-109486754D01*
X80431884Y-109510854D01*
X80514696Y-109519010D01*
X80516322Y-109520175D01*
X80516126Y-109522165D01*
X80514500Y-109523000D01*
X80458140Y-109523000D01*
X80457944Y-109522990D01*
X80381106Y-109515422D01*
X80380721Y-109515346D01*
X80312734Y-109494722D01*
X80312372Y-109494572D01*
X80249722Y-109461085D01*
X80249396Y-109460867D01*
X80194479Y-109415798D01*
X80194202Y-109415521D01*
X80149133Y-109360604D01*
X80148915Y-109360278D01*
X80115428Y-109297628D01*
X80115278Y-109297266D01*
X80094654Y-109229279D01*
X80094578Y-109228894D01*
X80087010Y-109152056D01*
X80087000Y-109151860D01*
X80087000Y-109095500D01*
X80088000Y-109093768D01*
X80090000Y-109093768D01*
X80090990Y-109095304D01*
G37*
G36*
X81792165Y-109093874D02*
G01*
X81793000Y-109095500D01*
X81793000Y-109151860D01*
X81792990Y-109152056D01*
X81785422Y-109228894D01*
X81785346Y-109229279D01*
X81764722Y-109297266D01*
X81764572Y-109297628D01*
X81731085Y-109360278D01*
X81730867Y-109360604D01*
X81685798Y-109415521D01*
X81685521Y-109415798D01*
X81630604Y-109460867D01*
X81630278Y-109461085D01*
X81567628Y-109494572D01*
X81567266Y-109494722D01*
X81499279Y-109515346D01*
X81498894Y-109515422D01*
X81422056Y-109522990D01*
X81421860Y-109523000D01*
X81365500Y-109523000D01*
X81363768Y-109522000D01*
X81363768Y-109520000D01*
X81365304Y-109519010D01*
X81448116Y-109510854D01*
X81527563Y-109486754D01*
X81600779Y-109447619D01*
X81664953Y-109394953D01*
X81717619Y-109330779D01*
X81756754Y-109257563D01*
X81780854Y-109178116D01*
X81789010Y-109095304D01*
X81790175Y-109093678D01*
X81792165Y-109093874D01*
G37*
G36*
X79252165Y-109093874D02*
G01*
X79253000Y-109095500D01*
X79253000Y-109151860D01*
X79252990Y-109152056D01*
X79245422Y-109228894D01*
X79245346Y-109229279D01*
X79224722Y-109297266D01*
X79224572Y-109297628D01*
X79191085Y-109360278D01*
X79190867Y-109360604D01*
X79145798Y-109415521D01*
X79145521Y-109415798D01*
X79090604Y-109460867D01*
X79090278Y-109461085D01*
X79027628Y-109494572D01*
X79027266Y-109494722D01*
X78959279Y-109515346D01*
X78958894Y-109515422D01*
X78882056Y-109522990D01*
X78881860Y-109523000D01*
X78825500Y-109523000D01*
X78823768Y-109522000D01*
X78823768Y-109520000D01*
X78825304Y-109519010D01*
X78908116Y-109510854D01*
X78987563Y-109486754D01*
X79060779Y-109447619D01*
X79124953Y-109394953D01*
X79177619Y-109330779D01*
X79216754Y-109257563D01*
X79240854Y-109178116D01*
X79249010Y-109095304D01*
X79250175Y-109093678D01*
X79252165Y-109093874D01*
G37*
G36*
X77550990Y-109095304D02*
G01*
X77559146Y-109178116D01*
X77583246Y-109257563D01*
X77622381Y-109330779D01*
X77675047Y-109394953D01*
X77739221Y-109447619D01*
X77812437Y-109486754D01*
X77891884Y-109510854D01*
X77974696Y-109519010D01*
X77976322Y-109520175D01*
X77976126Y-109522165D01*
X77974500Y-109523000D01*
X77918140Y-109523000D01*
X77917944Y-109522990D01*
X77841106Y-109515422D01*
X77840721Y-109515346D01*
X77772734Y-109494722D01*
X77772372Y-109494572D01*
X77709722Y-109461085D01*
X77709396Y-109460867D01*
X77654479Y-109415798D01*
X77654202Y-109415521D01*
X77609133Y-109360604D01*
X77608915Y-109360278D01*
X77575428Y-109297628D01*
X77575278Y-109297266D01*
X77554654Y-109229279D01*
X77554578Y-109228894D01*
X77547010Y-109152056D01*
X77547000Y-109151860D01*
X77547000Y-109095500D01*
X77548000Y-109093768D01*
X77550000Y-109093768D01*
X77550990Y-109095304D01*
G37*
G36*
X77976232Y-107818000D02*
G01*
X77976232Y-107820000D01*
X77974696Y-107820990D01*
X77891884Y-107829146D01*
X77812437Y-107853246D01*
X77739221Y-107892381D01*
X77675047Y-107945047D01*
X77622381Y-108009221D01*
X77583246Y-108082437D01*
X77559146Y-108161884D01*
X77550990Y-108244696D01*
X77549825Y-108246322D01*
X77547835Y-108246126D01*
X77547000Y-108244500D01*
X77547000Y-108188140D01*
X77547010Y-108187944D01*
X77554578Y-108111106D01*
X77554654Y-108110721D01*
X77575278Y-108042734D01*
X77575428Y-108042372D01*
X77608915Y-107979722D01*
X77609133Y-107979396D01*
X77654202Y-107924479D01*
X77654479Y-107924202D01*
X77709396Y-107879133D01*
X77709722Y-107878915D01*
X77772372Y-107845428D01*
X77772734Y-107845278D01*
X77840721Y-107824654D01*
X77841106Y-107824578D01*
X77917944Y-107817010D01*
X77918140Y-107817000D01*
X77974500Y-107817000D01*
X77976232Y-107818000D01*
G37*
G36*
X80516232Y-107818000D02*
G01*
X80516232Y-107820000D01*
X80514696Y-107820990D01*
X80431884Y-107829146D01*
X80352437Y-107853246D01*
X80279221Y-107892381D01*
X80215047Y-107945047D01*
X80162381Y-108009221D01*
X80123246Y-108082437D01*
X80099146Y-108161884D01*
X80090990Y-108244696D01*
X80089825Y-108246322D01*
X80087835Y-108246126D01*
X80087000Y-108244500D01*
X80087000Y-108188140D01*
X80087010Y-108187944D01*
X80094578Y-108111106D01*
X80094654Y-108110721D01*
X80115278Y-108042734D01*
X80115428Y-108042372D01*
X80148915Y-107979722D01*
X80149133Y-107979396D01*
X80194202Y-107924479D01*
X80194479Y-107924202D01*
X80249396Y-107879133D01*
X80249722Y-107878915D01*
X80312372Y-107845428D01*
X80312734Y-107845278D01*
X80380721Y-107824654D01*
X80381106Y-107824578D01*
X80457944Y-107817010D01*
X80458140Y-107817000D01*
X80514500Y-107817000D01*
X80516232Y-107818000D01*
G37*
G36*
X78882056Y-107817010D02*
G01*
X78958894Y-107824578D01*
X78959279Y-107824654D01*
X79027266Y-107845278D01*
X79027628Y-107845428D01*
X79090278Y-107878915D01*
X79090604Y-107879133D01*
X79145521Y-107924202D01*
X79145798Y-107924479D01*
X79190867Y-107979396D01*
X79191085Y-107979722D01*
X79224572Y-108042372D01*
X79224722Y-108042734D01*
X79245346Y-108110721D01*
X79245422Y-108111106D01*
X79252990Y-108187944D01*
X79253000Y-108188140D01*
X79253000Y-108244500D01*
X79252000Y-108246232D01*
X79250000Y-108246232D01*
X79249010Y-108244696D01*
X79240854Y-108161884D01*
X79216754Y-108082437D01*
X79177619Y-108009221D01*
X79124953Y-107945047D01*
X79060779Y-107892381D01*
X78987563Y-107853246D01*
X78908116Y-107829146D01*
X78825304Y-107820990D01*
X78823678Y-107819825D01*
X78823874Y-107817835D01*
X78825500Y-107817000D01*
X78881860Y-107817000D01*
X78882056Y-107817010D01*
G37*
G36*
X81422056Y-107817010D02*
G01*
X81498894Y-107824578D01*
X81499279Y-107824654D01*
X81567266Y-107845278D01*
X81567628Y-107845428D01*
X81630278Y-107878915D01*
X81630604Y-107879133D01*
X81685521Y-107924202D01*
X81685798Y-107924479D01*
X81730867Y-107979396D01*
X81731085Y-107979722D01*
X81764572Y-108042372D01*
X81764722Y-108042734D01*
X81785346Y-108110721D01*
X81785422Y-108111106D01*
X81792990Y-108187944D01*
X81793000Y-108188140D01*
X81793000Y-108244500D01*
X81792000Y-108246232D01*
X81790000Y-108246232D01*
X81789010Y-108244696D01*
X81780854Y-108161884D01*
X81756754Y-108082437D01*
X81717619Y-108009221D01*
X81664953Y-107945047D01*
X81600779Y-107892381D01*
X81527563Y-107853246D01*
X81448116Y-107829146D01*
X81365304Y-107820990D01*
X81363678Y-107819825D01*
X81363874Y-107817835D01*
X81365500Y-107817000D01*
X81421860Y-107817000D01*
X81422056Y-107817010D01*
G37*
G36*
X81792165Y-106553874D02*
G01*
X81793000Y-106555500D01*
X81793000Y-106611860D01*
X81792990Y-106612056D01*
X81785422Y-106688894D01*
X81785346Y-106689279D01*
X81764722Y-106757266D01*
X81764572Y-106757628D01*
X81731085Y-106820278D01*
X81730867Y-106820604D01*
X81685798Y-106875521D01*
X81685521Y-106875798D01*
X81630604Y-106920867D01*
X81630278Y-106921085D01*
X81567628Y-106954572D01*
X81567266Y-106954722D01*
X81499279Y-106975346D01*
X81498894Y-106975422D01*
X81422056Y-106982990D01*
X81421860Y-106983000D01*
X81365500Y-106983000D01*
X81363768Y-106982000D01*
X81363768Y-106980000D01*
X81365304Y-106979010D01*
X81448116Y-106970854D01*
X81527563Y-106946754D01*
X81600779Y-106907619D01*
X81664953Y-106854953D01*
X81717619Y-106790779D01*
X81756754Y-106717563D01*
X81780854Y-106638116D01*
X81789010Y-106555304D01*
X81790175Y-106553678D01*
X81792165Y-106553874D01*
G37*
G36*
X77550990Y-106555304D02*
G01*
X77559146Y-106638116D01*
X77583246Y-106717563D01*
X77622381Y-106790779D01*
X77675047Y-106854953D01*
X77739221Y-106907619D01*
X77812437Y-106946754D01*
X77891884Y-106970854D01*
X77974696Y-106979010D01*
X77976322Y-106980175D01*
X77976126Y-106982165D01*
X77974500Y-106983000D01*
X77918140Y-106983000D01*
X77917944Y-106982990D01*
X77841106Y-106975422D01*
X77840721Y-106975346D01*
X77772734Y-106954722D01*
X77772372Y-106954572D01*
X77709722Y-106921085D01*
X77709396Y-106920867D01*
X77654479Y-106875798D01*
X77654202Y-106875521D01*
X77609133Y-106820604D01*
X77608915Y-106820278D01*
X77575428Y-106757628D01*
X77575278Y-106757266D01*
X77554654Y-106689279D01*
X77554578Y-106688894D01*
X77547010Y-106612056D01*
X77547000Y-106611860D01*
X77547000Y-106555500D01*
X77548000Y-106553768D01*
X77550000Y-106553768D01*
X77550990Y-106555304D01*
G37*
G36*
X79252165Y-106553874D02*
G01*
X79253000Y-106555500D01*
X79253000Y-106611860D01*
X79252990Y-106612056D01*
X79245422Y-106688894D01*
X79245346Y-106689279D01*
X79224722Y-106757266D01*
X79224572Y-106757628D01*
X79191085Y-106820278D01*
X79190867Y-106820604D01*
X79145798Y-106875521D01*
X79145521Y-106875798D01*
X79090604Y-106920867D01*
X79090278Y-106921085D01*
X79027628Y-106954572D01*
X79027266Y-106954722D01*
X78959279Y-106975346D01*
X78958894Y-106975422D01*
X78882056Y-106982990D01*
X78881860Y-106983000D01*
X78825500Y-106983000D01*
X78823768Y-106982000D01*
X78823768Y-106980000D01*
X78825304Y-106979010D01*
X78908116Y-106970854D01*
X78987563Y-106946754D01*
X79060779Y-106907619D01*
X79124953Y-106854953D01*
X79177619Y-106790779D01*
X79216754Y-106717563D01*
X79240854Y-106638116D01*
X79249010Y-106555304D01*
X79250175Y-106553678D01*
X79252165Y-106553874D01*
G37*
G36*
X80090990Y-106555304D02*
G01*
X80099146Y-106638116D01*
X80123246Y-106717563D01*
X80162381Y-106790779D01*
X80215047Y-106854953D01*
X80279221Y-106907619D01*
X80352437Y-106946754D01*
X80431884Y-106970854D01*
X80514696Y-106979010D01*
X80516322Y-106980175D01*
X80516126Y-106982165D01*
X80514500Y-106983000D01*
X80458140Y-106983000D01*
X80457944Y-106982990D01*
X80381106Y-106975422D01*
X80380721Y-106975346D01*
X80312734Y-106954722D01*
X80312372Y-106954572D01*
X80249722Y-106921085D01*
X80249396Y-106920867D01*
X80194479Y-106875798D01*
X80194202Y-106875521D01*
X80149133Y-106820604D01*
X80148915Y-106820278D01*
X80115428Y-106757628D01*
X80115278Y-106757266D01*
X80094654Y-106689279D01*
X80094578Y-106688894D01*
X80087010Y-106612056D01*
X80087000Y-106611860D01*
X80087000Y-106555500D01*
X80088000Y-106553768D01*
X80090000Y-106553768D01*
X80090990Y-106555304D01*
G37*
G36*
X80516232Y-105278000D02*
G01*
X80516232Y-105280000D01*
X80514696Y-105280990D01*
X80431884Y-105289146D01*
X80352437Y-105313246D01*
X80279221Y-105352381D01*
X80215047Y-105405047D01*
X80162381Y-105469221D01*
X80123246Y-105542437D01*
X80099146Y-105621884D01*
X80090990Y-105704696D01*
X80089825Y-105706322D01*
X80087835Y-105706126D01*
X80087000Y-105704500D01*
X80087000Y-105648140D01*
X80087010Y-105647944D01*
X80094578Y-105571106D01*
X80094654Y-105570721D01*
X80115278Y-105502734D01*
X80115428Y-105502372D01*
X80148915Y-105439722D01*
X80149133Y-105439396D01*
X80194202Y-105384479D01*
X80194479Y-105384202D01*
X80249396Y-105339133D01*
X80249722Y-105338915D01*
X80312372Y-105305428D01*
X80312734Y-105305278D01*
X80380721Y-105284654D01*
X80381106Y-105284578D01*
X80457944Y-105277010D01*
X80458140Y-105277000D01*
X80514500Y-105277000D01*
X80516232Y-105278000D01*
G37*
G36*
X77976232Y-105278000D02*
G01*
X77976232Y-105280000D01*
X77974696Y-105280990D01*
X77891884Y-105289146D01*
X77812437Y-105313246D01*
X77739221Y-105352381D01*
X77675047Y-105405047D01*
X77622381Y-105469221D01*
X77583246Y-105542437D01*
X77559146Y-105621884D01*
X77550990Y-105704696D01*
X77549825Y-105706322D01*
X77547835Y-105706126D01*
X77547000Y-105704500D01*
X77547000Y-105648140D01*
X77547010Y-105647944D01*
X77554578Y-105571106D01*
X77554654Y-105570721D01*
X77575278Y-105502734D01*
X77575428Y-105502372D01*
X77608915Y-105439722D01*
X77609133Y-105439396D01*
X77654202Y-105384479D01*
X77654479Y-105384202D01*
X77709396Y-105339133D01*
X77709722Y-105338915D01*
X77772372Y-105305428D01*
X77772734Y-105305278D01*
X77840721Y-105284654D01*
X77841106Y-105284578D01*
X77917944Y-105277010D01*
X77918140Y-105277000D01*
X77974500Y-105277000D01*
X77976232Y-105278000D01*
G37*
G36*
X78882056Y-105277010D02*
G01*
X78958894Y-105284578D01*
X78959279Y-105284654D01*
X79027266Y-105305278D01*
X79027628Y-105305428D01*
X79090278Y-105338915D01*
X79090604Y-105339133D01*
X79145521Y-105384202D01*
X79145798Y-105384479D01*
X79190867Y-105439396D01*
X79191085Y-105439722D01*
X79224572Y-105502372D01*
X79224722Y-105502734D01*
X79245346Y-105570721D01*
X79245422Y-105571106D01*
X79252990Y-105647944D01*
X79253000Y-105648140D01*
X79253000Y-105704500D01*
X79252000Y-105706232D01*
X79250000Y-105706232D01*
X79249010Y-105704696D01*
X79240854Y-105621884D01*
X79216754Y-105542437D01*
X79177619Y-105469221D01*
X79124953Y-105405047D01*
X79060779Y-105352381D01*
X78987563Y-105313246D01*
X78908116Y-105289146D01*
X78825304Y-105280990D01*
X78823678Y-105279825D01*
X78823874Y-105277835D01*
X78825500Y-105277000D01*
X78881860Y-105277000D01*
X78882056Y-105277010D01*
G37*
G36*
X81422056Y-105277010D02*
G01*
X81498894Y-105284578D01*
X81499279Y-105284654D01*
X81567266Y-105305278D01*
X81567628Y-105305428D01*
X81630278Y-105338915D01*
X81630604Y-105339133D01*
X81685521Y-105384202D01*
X81685798Y-105384479D01*
X81730867Y-105439396D01*
X81731085Y-105439722D01*
X81764572Y-105502372D01*
X81764722Y-105502734D01*
X81785346Y-105570721D01*
X81785422Y-105571106D01*
X81792990Y-105647944D01*
X81793000Y-105648140D01*
X81793000Y-105704500D01*
X81792000Y-105706232D01*
X81790000Y-105706232D01*
X81789010Y-105704696D01*
X81780854Y-105621884D01*
X81756754Y-105542437D01*
X81717619Y-105469221D01*
X81664953Y-105405047D01*
X81600779Y-105352381D01*
X81527563Y-105313246D01*
X81448116Y-105289146D01*
X81365304Y-105280990D01*
X81363678Y-105279825D01*
X81363874Y-105277835D01*
X81365500Y-105277000D01*
X81421860Y-105277000D01*
X81422056Y-105277010D01*
G37*
G36*
X81792165Y-104013874D02*
G01*
X81793000Y-104015500D01*
X81793000Y-104071860D01*
X81792990Y-104072056D01*
X81785422Y-104148894D01*
X81785346Y-104149279D01*
X81764722Y-104217266D01*
X81764572Y-104217628D01*
X81731085Y-104280278D01*
X81730867Y-104280604D01*
X81685798Y-104335521D01*
X81685521Y-104335798D01*
X81630604Y-104380867D01*
X81630278Y-104381085D01*
X81567628Y-104414572D01*
X81567266Y-104414722D01*
X81499279Y-104435346D01*
X81498894Y-104435422D01*
X81422056Y-104442990D01*
X81421860Y-104443000D01*
X81365500Y-104443000D01*
X81363768Y-104442000D01*
X81363768Y-104440000D01*
X81365304Y-104439010D01*
X81448116Y-104430854D01*
X81527563Y-104406754D01*
X81600779Y-104367619D01*
X81664953Y-104314953D01*
X81717619Y-104250779D01*
X81756754Y-104177563D01*
X81780854Y-104098116D01*
X81789010Y-104015304D01*
X81790175Y-104013678D01*
X81792165Y-104013874D01*
G37*
G36*
X79252165Y-104013874D02*
G01*
X79253000Y-104015500D01*
X79253000Y-104071860D01*
X79252990Y-104072056D01*
X79245422Y-104148894D01*
X79245346Y-104149279D01*
X79224722Y-104217266D01*
X79224572Y-104217628D01*
X79191085Y-104280278D01*
X79190867Y-104280604D01*
X79145798Y-104335521D01*
X79145521Y-104335798D01*
X79090604Y-104380867D01*
X79090278Y-104381085D01*
X79027628Y-104414572D01*
X79027266Y-104414722D01*
X78959279Y-104435346D01*
X78958894Y-104435422D01*
X78882056Y-104442990D01*
X78881860Y-104443000D01*
X78825500Y-104443000D01*
X78823768Y-104442000D01*
X78823768Y-104440000D01*
X78825304Y-104439010D01*
X78908116Y-104430854D01*
X78987563Y-104406754D01*
X79060779Y-104367619D01*
X79124953Y-104314953D01*
X79177619Y-104250779D01*
X79216754Y-104177563D01*
X79240854Y-104098116D01*
X79249010Y-104015304D01*
X79250175Y-104013678D01*
X79252165Y-104013874D01*
G37*
G36*
X80090990Y-104015304D02*
G01*
X80099146Y-104098116D01*
X80123246Y-104177563D01*
X80162381Y-104250779D01*
X80215047Y-104314953D01*
X80279221Y-104367619D01*
X80352437Y-104406754D01*
X80431884Y-104430854D01*
X80514696Y-104439010D01*
X80516322Y-104440175D01*
X80516126Y-104442165D01*
X80514500Y-104443000D01*
X80458140Y-104443000D01*
X80457944Y-104442990D01*
X80381106Y-104435422D01*
X80380721Y-104435346D01*
X80312734Y-104414722D01*
X80312372Y-104414572D01*
X80249722Y-104381085D01*
X80249396Y-104380867D01*
X80194479Y-104335798D01*
X80194202Y-104335521D01*
X80149133Y-104280604D01*
X80148915Y-104280278D01*
X80115428Y-104217628D01*
X80115278Y-104217266D01*
X80094654Y-104149279D01*
X80094578Y-104148894D01*
X80087010Y-104072056D01*
X80087000Y-104071860D01*
X80087000Y-104015500D01*
X80088000Y-104013768D01*
X80090000Y-104013768D01*
X80090990Y-104015304D01*
G37*
G36*
X77550990Y-104015304D02*
G01*
X77559146Y-104098116D01*
X77583246Y-104177563D01*
X77622381Y-104250779D01*
X77675047Y-104314953D01*
X77739221Y-104367619D01*
X77812437Y-104406754D01*
X77891884Y-104430854D01*
X77974696Y-104439010D01*
X77976322Y-104440175D01*
X77976126Y-104442165D01*
X77974500Y-104443000D01*
X77918140Y-104443000D01*
X77917944Y-104442990D01*
X77841106Y-104435422D01*
X77840721Y-104435346D01*
X77772734Y-104414722D01*
X77772372Y-104414572D01*
X77709722Y-104381085D01*
X77709396Y-104380867D01*
X77654479Y-104335798D01*
X77654202Y-104335521D01*
X77609133Y-104280604D01*
X77608915Y-104280278D01*
X77575428Y-104217628D01*
X77575278Y-104217266D01*
X77554654Y-104149279D01*
X77554578Y-104148894D01*
X77547010Y-104072056D01*
X77547000Y-104071860D01*
X77547000Y-104015500D01*
X77548000Y-104013768D01*
X77550000Y-104013768D01*
X77550990Y-104015304D01*
G37*
G36*
X80516232Y-102738000D02*
G01*
X80516232Y-102740000D01*
X80514696Y-102740990D01*
X80431884Y-102749146D01*
X80352437Y-102773246D01*
X80279221Y-102812381D01*
X80215047Y-102865047D01*
X80162381Y-102929221D01*
X80123246Y-103002437D01*
X80099146Y-103081884D01*
X80090990Y-103164696D01*
X80089825Y-103166322D01*
X80087835Y-103166126D01*
X80087000Y-103164500D01*
X80087000Y-103108140D01*
X80087010Y-103107944D01*
X80094578Y-103031106D01*
X80094654Y-103030721D01*
X80115278Y-102962734D01*
X80115428Y-102962372D01*
X80148915Y-102899722D01*
X80149133Y-102899396D01*
X80194202Y-102844479D01*
X80194479Y-102844202D01*
X80249396Y-102799133D01*
X80249722Y-102798915D01*
X80312372Y-102765428D01*
X80312734Y-102765278D01*
X80380721Y-102744654D01*
X80381106Y-102744578D01*
X80457944Y-102737010D01*
X80458140Y-102737000D01*
X80514500Y-102737000D01*
X80516232Y-102738000D01*
G37*
G36*
X77976232Y-102738000D02*
G01*
X77976232Y-102740000D01*
X77974696Y-102740990D01*
X77891884Y-102749146D01*
X77812437Y-102773246D01*
X77739221Y-102812381D01*
X77675047Y-102865047D01*
X77622381Y-102929221D01*
X77583246Y-103002437D01*
X77559146Y-103081884D01*
X77550990Y-103164696D01*
X77549825Y-103166322D01*
X77547835Y-103166126D01*
X77547000Y-103164500D01*
X77547000Y-103108140D01*
X77547010Y-103107944D01*
X77554578Y-103031106D01*
X77554654Y-103030721D01*
X77575278Y-102962734D01*
X77575428Y-102962372D01*
X77608915Y-102899722D01*
X77609133Y-102899396D01*
X77654202Y-102844479D01*
X77654479Y-102844202D01*
X77709396Y-102799133D01*
X77709722Y-102798915D01*
X77772372Y-102765428D01*
X77772734Y-102765278D01*
X77840721Y-102744654D01*
X77841106Y-102744578D01*
X77917944Y-102737010D01*
X77918140Y-102737000D01*
X77974500Y-102737000D01*
X77976232Y-102738000D01*
G37*
G36*
X78882056Y-102737010D02*
G01*
X78958894Y-102744578D01*
X78959279Y-102744654D01*
X79027266Y-102765278D01*
X79027628Y-102765428D01*
X79090278Y-102798915D01*
X79090604Y-102799133D01*
X79145521Y-102844202D01*
X79145798Y-102844479D01*
X79190867Y-102899396D01*
X79191085Y-102899722D01*
X79224572Y-102962372D01*
X79224722Y-102962734D01*
X79245346Y-103030721D01*
X79245422Y-103031106D01*
X79252990Y-103107944D01*
X79253000Y-103108140D01*
X79253000Y-103164500D01*
X79252000Y-103166232D01*
X79250000Y-103166232D01*
X79249010Y-103164696D01*
X79240854Y-103081884D01*
X79216754Y-103002437D01*
X79177619Y-102929221D01*
X79124953Y-102865047D01*
X79060779Y-102812381D01*
X78987563Y-102773246D01*
X78908116Y-102749146D01*
X78825304Y-102740990D01*
X78823678Y-102739825D01*
X78823874Y-102737835D01*
X78825500Y-102737000D01*
X78881860Y-102737000D01*
X78882056Y-102737010D01*
G37*
G36*
X81422056Y-102737010D02*
G01*
X81498894Y-102744578D01*
X81499279Y-102744654D01*
X81567266Y-102765278D01*
X81567628Y-102765428D01*
X81630278Y-102798915D01*
X81630604Y-102799133D01*
X81685521Y-102844202D01*
X81685798Y-102844479D01*
X81730867Y-102899396D01*
X81731085Y-102899722D01*
X81764572Y-102962372D01*
X81764722Y-102962734D01*
X81785346Y-103030721D01*
X81785422Y-103031106D01*
X81792990Y-103107944D01*
X81793000Y-103108140D01*
X81793000Y-103164500D01*
X81792000Y-103166232D01*
X81790000Y-103166232D01*
X81789010Y-103164696D01*
X81780854Y-103081884D01*
X81756754Y-103002437D01*
X81717619Y-102929221D01*
X81664953Y-102865047D01*
X81600779Y-102812381D01*
X81527563Y-102773246D01*
X81448116Y-102749146D01*
X81365304Y-102740990D01*
X81363678Y-102739825D01*
X81363874Y-102737835D01*
X81365500Y-102737000D01*
X81421860Y-102737000D01*
X81422056Y-102737010D01*
G37*
G36*
X79252165Y-101473874D02*
G01*
X79253000Y-101475500D01*
X79253000Y-101531860D01*
X79252990Y-101532056D01*
X79245422Y-101608894D01*
X79245346Y-101609279D01*
X79224722Y-101677266D01*
X79224572Y-101677628D01*
X79191085Y-101740278D01*
X79190867Y-101740604D01*
X79145798Y-101795521D01*
X79145521Y-101795798D01*
X79090604Y-101840867D01*
X79090278Y-101841085D01*
X79027628Y-101874572D01*
X79027266Y-101874722D01*
X78959279Y-101895346D01*
X78958894Y-101895422D01*
X78882056Y-101902990D01*
X78881860Y-101903000D01*
X78825500Y-101903000D01*
X78823768Y-101902000D01*
X78823768Y-101900000D01*
X78825304Y-101899010D01*
X78908116Y-101890854D01*
X78987563Y-101866754D01*
X79060779Y-101827619D01*
X79124953Y-101774953D01*
X79177619Y-101710779D01*
X79216754Y-101637563D01*
X79240854Y-101558116D01*
X79249010Y-101475304D01*
X79250175Y-101473678D01*
X79252165Y-101473874D01*
G37*
G36*
X80090990Y-101475304D02*
G01*
X80099146Y-101558116D01*
X80123246Y-101637563D01*
X80162381Y-101710779D01*
X80215047Y-101774953D01*
X80279221Y-101827619D01*
X80352437Y-101866754D01*
X80431884Y-101890854D01*
X80514696Y-101899010D01*
X80516322Y-101900175D01*
X80516126Y-101902165D01*
X80514500Y-101903000D01*
X80458140Y-101903000D01*
X80457944Y-101902990D01*
X80381106Y-101895422D01*
X80380721Y-101895346D01*
X80312734Y-101874722D01*
X80312372Y-101874572D01*
X80249722Y-101841085D01*
X80249396Y-101840867D01*
X80194479Y-101795798D01*
X80194202Y-101795521D01*
X80149133Y-101740604D01*
X80148915Y-101740278D01*
X80115428Y-101677628D01*
X80115278Y-101677266D01*
X80094654Y-101609279D01*
X80094578Y-101608894D01*
X80087010Y-101532056D01*
X80087000Y-101531860D01*
X80087000Y-101475500D01*
X80088000Y-101473768D01*
X80090000Y-101473768D01*
X80090990Y-101475304D01*
G37*
G36*
X77550990Y-101475304D02*
G01*
X77559146Y-101558116D01*
X77583246Y-101637563D01*
X77622381Y-101710779D01*
X77675047Y-101774953D01*
X77739221Y-101827619D01*
X77812437Y-101866754D01*
X77891884Y-101890854D01*
X77974696Y-101899010D01*
X77976322Y-101900175D01*
X77976126Y-101902165D01*
X77974500Y-101903000D01*
X77918140Y-101903000D01*
X77917944Y-101902990D01*
X77841106Y-101895422D01*
X77840721Y-101895346D01*
X77772734Y-101874722D01*
X77772372Y-101874572D01*
X77709722Y-101841085D01*
X77709396Y-101840867D01*
X77654479Y-101795798D01*
X77654202Y-101795521D01*
X77609133Y-101740604D01*
X77608915Y-101740278D01*
X77575428Y-101677628D01*
X77575278Y-101677266D01*
X77554654Y-101609279D01*
X77554578Y-101608894D01*
X77547010Y-101532056D01*
X77547000Y-101531860D01*
X77547000Y-101475500D01*
X77548000Y-101473768D01*
X77550000Y-101473768D01*
X77550990Y-101475304D01*
G37*
G36*
X81792165Y-101473874D02*
G01*
X81793000Y-101475500D01*
X81793000Y-101531860D01*
X81792990Y-101532056D01*
X81785422Y-101608894D01*
X81785346Y-101609279D01*
X81764722Y-101677266D01*
X81764572Y-101677628D01*
X81731085Y-101740278D01*
X81730867Y-101740604D01*
X81685798Y-101795521D01*
X81685521Y-101795798D01*
X81630604Y-101840867D01*
X81630278Y-101841085D01*
X81567628Y-101874572D01*
X81567266Y-101874722D01*
X81499279Y-101895346D01*
X81498894Y-101895422D01*
X81422056Y-101902990D01*
X81421860Y-101903000D01*
X81365500Y-101903000D01*
X81363768Y-101902000D01*
X81363768Y-101900000D01*
X81365304Y-101899010D01*
X81448116Y-101890854D01*
X81527563Y-101866754D01*
X81600779Y-101827619D01*
X81664953Y-101774953D01*
X81717619Y-101710779D01*
X81756754Y-101637563D01*
X81780854Y-101558116D01*
X81789010Y-101475304D01*
X81790175Y-101473678D01*
X81792165Y-101473874D01*
G37*
G36*
X77976232Y-100198000D02*
G01*
X77976232Y-100200000D01*
X77974696Y-100200990D01*
X77891884Y-100209146D01*
X77812437Y-100233246D01*
X77739221Y-100272381D01*
X77675047Y-100325047D01*
X77622381Y-100389221D01*
X77583246Y-100462437D01*
X77559146Y-100541884D01*
X77550990Y-100624696D01*
X77549825Y-100626322D01*
X77547835Y-100626126D01*
X77547000Y-100624500D01*
X77547000Y-100568140D01*
X77547010Y-100567944D01*
X77554578Y-100491106D01*
X77554654Y-100490721D01*
X77575278Y-100422734D01*
X77575428Y-100422372D01*
X77608915Y-100359722D01*
X77609133Y-100359396D01*
X77654202Y-100304479D01*
X77654479Y-100304202D01*
X77709396Y-100259133D01*
X77709722Y-100258915D01*
X77772372Y-100225428D01*
X77772734Y-100225278D01*
X77840721Y-100204654D01*
X77841106Y-100204578D01*
X77917944Y-100197010D01*
X77918140Y-100197000D01*
X77974500Y-100197000D01*
X77976232Y-100198000D01*
G37*
G36*
X80516232Y-100198000D02*
G01*
X80516232Y-100200000D01*
X80514696Y-100200990D01*
X80431884Y-100209146D01*
X80352437Y-100233246D01*
X80279221Y-100272381D01*
X80215047Y-100325047D01*
X80162381Y-100389221D01*
X80123246Y-100462437D01*
X80099146Y-100541884D01*
X80090990Y-100624696D01*
X80089825Y-100626322D01*
X80087835Y-100626126D01*
X80087000Y-100624500D01*
X80087000Y-100568140D01*
X80087010Y-100567944D01*
X80094578Y-100491106D01*
X80094654Y-100490721D01*
X80115278Y-100422734D01*
X80115428Y-100422372D01*
X80148915Y-100359722D01*
X80149133Y-100359396D01*
X80194202Y-100304479D01*
X80194479Y-100304202D01*
X80249396Y-100259133D01*
X80249722Y-100258915D01*
X80312372Y-100225428D01*
X80312734Y-100225278D01*
X80380721Y-100204654D01*
X80381106Y-100204578D01*
X80457944Y-100197010D01*
X80458140Y-100197000D01*
X80514500Y-100197000D01*
X80516232Y-100198000D01*
G37*
G36*
X81422056Y-100197010D02*
G01*
X81498894Y-100204578D01*
X81499279Y-100204654D01*
X81567266Y-100225278D01*
X81567628Y-100225428D01*
X81630278Y-100258915D01*
X81630604Y-100259133D01*
X81685521Y-100304202D01*
X81685798Y-100304479D01*
X81730867Y-100359396D01*
X81731085Y-100359722D01*
X81764572Y-100422372D01*
X81764722Y-100422734D01*
X81785346Y-100490721D01*
X81785422Y-100491106D01*
X81792990Y-100567944D01*
X81793000Y-100568140D01*
X81793000Y-100624500D01*
X81792000Y-100626232D01*
X81790000Y-100626232D01*
X81789010Y-100624696D01*
X81780854Y-100541884D01*
X81756754Y-100462437D01*
X81717619Y-100389221D01*
X81664953Y-100325047D01*
X81600779Y-100272381D01*
X81527563Y-100233246D01*
X81448116Y-100209146D01*
X81365304Y-100200990D01*
X81363678Y-100199825D01*
X81363874Y-100197835D01*
X81365500Y-100197000D01*
X81421860Y-100197000D01*
X81422056Y-100197010D01*
G37*
G36*
X78882056Y-100197010D02*
G01*
X78958894Y-100204578D01*
X78959279Y-100204654D01*
X79027266Y-100225278D01*
X79027628Y-100225428D01*
X79090278Y-100258915D01*
X79090604Y-100259133D01*
X79145521Y-100304202D01*
X79145798Y-100304479D01*
X79190867Y-100359396D01*
X79191085Y-100359722D01*
X79224572Y-100422372D01*
X79224722Y-100422734D01*
X79245346Y-100490721D01*
X79245422Y-100491106D01*
X79252990Y-100567944D01*
X79253000Y-100568140D01*
X79253000Y-100624500D01*
X79252000Y-100626232D01*
X79250000Y-100626232D01*
X79249010Y-100624696D01*
X79240854Y-100541884D01*
X79216754Y-100462437D01*
X79177619Y-100389221D01*
X79124953Y-100325047D01*
X79060779Y-100272381D01*
X78987563Y-100233246D01*
X78908116Y-100209146D01*
X78825304Y-100200990D01*
X78823678Y-100199825D01*
X78823874Y-100197835D01*
X78825500Y-100197000D01*
X78881860Y-100197000D01*
X78882056Y-100197010D01*
G37*
G36*
X81792165Y-98933874D02*
G01*
X81793000Y-98935500D01*
X81793000Y-98991860D01*
X81792990Y-98992056D01*
X81785422Y-99068894D01*
X81785346Y-99069279D01*
X81764722Y-99137266D01*
X81764572Y-99137628D01*
X81731085Y-99200278D01*
X81730867Y-99200604D01*
X81685798Y-99255521D01*
X81685521Y-99255798D01*
X81630604Y-99300867D01*
X81630278Y-99301085D01*
X81567628Y-99334572D01*
X81567266Y-99334722D01*
X81499279Y-99355346D01*
X81498894Y-99355422D01*
X81422056Y-99362990D01*
X81421860Y-99363000D01*
X81365500Y-99363000D01*
X81363768Y-99362000D01*
X81363768Y-99360000D01*
X81365304Y-99359010D01*
X81448116Y-99350854D01*
X81527563Y-99326754D01*
X81600779Y-99287619D01*
X81664953Y-99234953D01*
X81717619Y-99170779D01*
X81756754Y-99097563D01*
X81780854Y-99018116D01*
X81789010Y-98935304D01*
X81790175Y-98933678D01*
X81792165Y-98933874D01*
G37*
G36*
X79252165Y-98933874D02*
G01*
X79253000Y-98935500D01*
X79253000Y-98991860D01*
X79252990Y-98992056D01*
X79245422Y-99068894D01*
X79245346Y-99069279D01*
X79224722Y-99137266D01*
X79224572Y-99137628D01*
X79191085Y-99200278D01*
X79190867Y-99200604D01*
X79145798Y-99255521D01*
X79145521Y-99255798D01*
X79090604Y-99300867D01*
X79090278Y-99301085D01*
X79027628Y-99334572D01*
X79027266Y-99334722D01*
X78959279Y-99355346D01*
X78958894Y-99355422D01*
X78882056Y-99362990D01*
X78881860Y-99363000D01*
X78825500Y-99363000D01*
X78823768Y-99362000D01*
X78823768Y-99360000D01*
X78825304Y-99359010D01*
X78908116Y-99350854D01*
X78987563Y-99326754D01*
X79060779Y-99287619D01*
X79124953Y-99234953D01*
X79177619Y-99170779D01*
X79216754Y-99097563D01*
X79240854Y-99018116D01*
X79249010Y-98935304D01*
X79250175Y-98933678D01*
X79252165Y-98933874D01*
G37*
G36*
X80090990Y-98935304D02*
G01*
X80099146Y-99018116D01*
X80123246Y-99097563D01*
X80162381Y-99170779D01*
X80215047Y-99234953D01*
X80279221Y-99287619D01*
X80352437Y-99326754D01*
X80431884Y-99350854D01*
X80514696Y-99359010D01*
X80516322Y-99360175D01*
X80516126Y-99362165D01*
X80514500Y-99363000D01*
X80458140Y-99363000D01*
X80457944Y-99362990D01*
X80381106Y-99355422D01*
X80380721Y-99355346D01*
X80312734Y-99334722D01*
X80312372Y-99334572D01*
X80249722Y-99301085D01*
X80249396Y-99300867D01*
X80194479Y-99255798D01*
X80194202Y-99255521D01*
X80149133Y-99200604D01*
X80148915Y-99200278D01*
X80115428Y-99137628D01*
X80115278Y-99137266D01*
X80094654Y-99069279D01*
X80094578Y-99068894D01*
X80087010Y-98992056D01*
X80087000Y-98991860D01*
X80087000Y-98935500D01*
X80088000Y-98933768D01*
X80090000Y-98933768D01*
X80090990Y-98935304D01*
G37*
G36*
X77550990Y-98935304D02*
G01*
X77559146Y-99018116D01*
X77583246Y-99097563D01*
X77622381Y-99170779D01*
X77675047Y-99234953D01*
X77739221Y-99287619D01*
X77812437Y-99326754D01*
X77891884Y-99350854D01*
X77974696Y-99359010D01*
X77976322Y-99360175D01*
X77976126Y-99362165D01*
X77974500Y-99363000D01*
X77918140Y-99363000D01*
X77917944Y-99362990D01*
X77841106Y-99355422D01*
X77840721Y-99355346D01*
X77772734Y-99334722D01*
X77772372Y-99334572D01*
X77709722Y-99301085D01*
X77709396Y-99300867D01*
X77654479Y-99255798D01*
X77654202Y-99255521D01*
X77609133Y-99200604D01*
X77608915Y-99200278D01*
X77575428Y-99137628D01*
X77575278Y-99137266D01*
X77554654Y-99069279D01*
X77554578Y-99068894D01*
X77547010Y-98992056D01*
X77547000Y-98991860D01*
X77547000Y-98935500D01*
X77548000Y-98933768D01*
X77550000Y-98933768D01*
X77550990Y-98935304D01*
G37*
G36*
X80516232Y-97658000D02*
G01*
X80516232Y-97660000D01*
X80514696Y-97660990D01*
X80431884Y-97669146D01*
X80352437Y-97693246D01*
X80279221Y-97732381D01*
X80215047Y-97785047D01*
X80162381Y-97849221D01*
X80123246Y-97922437D01*
X80099146Y-98001884D01*
X80090990Y-98084696D01*
X80089825Y-98086322D01*
X80087835Y-98086126D01*
X80087000Y-98084500D01*
X80087000Y-98028140D01*
X80087010Y-98027944D01*
X80094578Y-97951106D01*
X80094654Y-97950721D01*
X80115278Y-97882734D01*
X80115428Y-97882372D01*
X80148915Y-97819722D01*
X80149133Y-97819396D01*
X80194202Y-97764479D01*
X80194479Y-97764202D01*
X80249396Y-97719133D01*
X80249722Y-97718915D01*
X80312372Y-97685428D01*
X80312734Y-97685278D01*
X80380721Y-97664654D01*
X80381106Y-97664578D01*
X80457944Y-97657010D01*
X80458140Y-97657000D01*
X80514500Y-97657000D01*
X80516232Y-97658000D01*
G37*
G36*
X77976232Y-97658000D02*
G01*
X77976232Y-97660000D01*
X77974696Y-97660990D01*
X77891884Y-97669146D01*
X77812437Y-97693246D01*
X77739221Y-97732381D01*
X77675047Y-97785047D01*
X77622381Y-97849221D01*
X77583246Y-97922437D01*
X77559146Y-98001884D01*
X77550990Y-98084696D01*
X77549825Y-98086322D01*
X77547835Y-98086126D01*
X77547000Y-98084500D01*
X77547000Y-98028140D01*
X77547010Y-98027944D01*
X77554578Y-97951106D01*
X77554654Y-97950721D01*
X77575278Y-97882734D01*
X77575428Y-97882372D01*
X77608915Y-97819722D01*
X77609133Y-97819396D01*
X77654202Y-97764479D01*
X77654479Y-97764202D01*
X77709396Y-97719133D01*
X77709722Y-97718915D01*
X77772372Y-97685428D01*
X77772734Y-97685278D01*
X77840721Y-97664654D01*
X77841106Y-97664578D01*
X77917944Y-97657010D01*
X77918140Y-97657000D01*
X77974500Y-97657000D01*
X77976232Y-97658000D01*
G37*
G36*
X78882056Y-97657010D02*
G01*
X78958894Y-97664578D01*
X78959279Y-97664654D01*
X79027266Y-97685278D01*
X79027628Y-97685428D01*
X79090278Y-97718915D01*
X79090604Y-97719133D01*
X79145521Y-97764202D01*
X79145798Y-97764479D01*
X79190867Y-97819396D01*
X79191085Y-97819722D01*
X79224572Y-97882372D01*
X79224722Y-97882734D01*
X79245346Y-97950721D01*
X79245422Y-97951106D01*
X79252990Y-98027944D01*
X79253000Y-98028140D01*
X79253000Y-98084500D01*
X79252000Y-98086232D01*
X79250000Y-98086232D01*
X79249010Y-98084696D01*
X79240854Y-98001884D01*
X79216754Y-97922437D01*
X79177619Y-97849221D01*
X79124953Y-97785047D01*
X79060779Y-97732381D01*
X78987563Y-97693246D01*
X78908116Y-97669146D01*
X78825304Y-97660990D01*
X78823678Y-97659825D01*
X78823874Y-97657835D01*
X78825500Y-97657000D01*
X78881860Y-97657000D01*
X78882056Y-97657010D01*
G37*
G36*
X81422056Y-97657010D02*
G01*
X81498894Y-97664578D01*
X81499279Y-97664654D01*
X81567266Y-97685278D01*
X81567628Y-97685428D01*
X81630278Y-97718915D01*
X81630604Y-97719133D01*
X81685521Y-97764202D01*
X81685798Y-97764479D01*
X81730867Y-97819396D01*
X81731085Y-97819722D01*
X81764572Y-97882372D01*
X81764722Y-97882734D01*
X81785346Y-97950721D01*
X81785422Y-97951106D01*
X81792990Y-98027944D01*
X81793000Y-98028140D01*
X81793000Y-98084500D01*
X81792000Y-98086232D01*
X81790000Y-98086232D01*
X81789010Y-98084696D01*
X81780854Y-98001884D01*
X81756754Y-97922437D01*
X81717619Y-97849221D01*
X81664953Y-97785047D01*
X81600779Y-97732381D01*
X81527563Y-97693246D01*
X81448116Y-97669146D01*
X81365304Y-97660990D01*
X81363678Y-97659825D01*
X81363874Y-97657835D01*
X81365500Y-97657000D01*
X81421860Y-97657000D01*
X81422056Y-97657010D01*
G37*
G36*
X81792165Y-96393874D02*
G01*
X81793000Y-96395500D01*
X81793000Y-96451860D01*
X81792990Y-96452056D01*
X81785422Y-96528894D01*
X81785346Y-96529279D01*
X81764722Y-96597266D01*
X81764572Y-96597628D01*
X81731085Y-96660278D01*
X81730867Y-96660604D01*
X81685798Y-96715521D01*
X81685521Y-96715798D01*
X81630604Y-96760867D01*
X81630278Y-96761085D01*
X81567628Y-96794572D01*
X81567266Y-96794722D01*
X81499279Y-96815346D01*
X81498894Y-96815422D01*
X81422056Y-96822990D01*
X81421860Y-96823000D01*
X81365500Y-96823000D01*
X81363768Y-96822000D01*
X81363768Y-96820000D01*
X81365304Y-96819010D01*
X81448116Y-96810854D01*
X81527563Y-96786754D01*
X81600779Y-96747619D01*
X81664953Y-96694953D01*
X81717619Y-96630779D01*
X81756754Y-96557563D01*
X81780854Y-96478116D01*
X81789010Y-96395304D01*
X81790175Y-96393678D01*
X81792165Y-96393874D01*
G37*
G36*
X80090990Y-96395304D02*
G01*
X80099146Y-96478116D01*
X80123246Y-96557563D01*
X80162381Y-96630779D01*
X80215047Y-96694953D01*
X80279221Y-96747619D01*
X80352437Y-96786754D01*
X80431884Y-96810854D01*
X80514696Y-96819010D01*
X80516322Y-96820175D01*
X80516126Y-96822165D01*
X80514500Y-96823000D01*
X80458140Y-96823000D01*
X80457944Y-96822990D01*
X80381106Y-96815422D01*
X80380721Y-96815346D01*
X80312734Y-96794722D01*
X80312372Y-96794572D01*
X80249722Y-96761085D01*
X80249396Y-96760867D01*
X80194479Y-96715798D01*
X80194202Y-96715521D01*
X80149133Y-96660604D01*
X80148915Y-96660278D01*
X80115428Y-96597628D01*
X80115278Y-96597266D01*
X80094654Y-96529279D01*
X80094578Y-96528894D01*
X80087010Y-96452056D01*
X80087000Y-96451860D01*
X80087000Y-96395500D01*
X80088000Y-96393768D01*
X80090000Y-96393768D01*
X80090990Y-96395304D01*
G37*
G36*
X79252165Y-96393874D02*
G01*
X79253000Y-96395500D01*
X79253000Y-96451860D01*
X79252990Y-96452056D01*
X79245422Y-96528894D01*
X79245346Y-96529279D01*
X79224722Y-96597266D01*
X79224572Y-96597628D01*
X79191085Y-96660278D01*
X79190867Y-96660604D01*
X79145798Y-96715521D01*
X79145521Y-96715798D01*
X79090604Y-96760867D01*
X79090278Y-96761085D01*
X79027628Y-96794572D01*
X79027266Y-96794722D01*
X78959279Y-96815346D01*
X78958894Y-96815422D01*
X78882056Y-96822990D01*
X78881860Y-96823000D01*
X78825500Y-96823000D01*
X78823768Y-96822000D01*
X78823768Y-96820000D01*
X78825304Y-96819010D01*
X78908116Y-96810854D01*
X78987563Y-96786754D01*
X79060779Y-96747619D01*
X79124953Y-96694953D01*
X79177619Y-96630779D01*
X79216754Y-96557563D01*
X79240854Y-96478116D01*
X79249010Y-96395304D01*
X79250175Y-96393678D01*
X79252165Y-96393874D01*
G37*
G36*
X77550990Y-96395304D02*
G01*
X77559146Y-96478116D01*
X77583246Y-96557563D01*
X77622381Y-96630779D01*
X77675047Y-96694953D01*
X77739221Y-96747619D01*
X77812437Y-96786754D01*
X77891884Y-96810854D01*
X77974696Y-96819010D01*
X77976322Y-96820175D01*
X77976126Y-96822165D01*
X77974500Y-96823000D01*
X77918140Y-96823000D01*
X77917944Y-96822990D01*
X77841106Y-96815422D01*
X77840721Y-96815346D01*
X77772734Y-96794722D01*
X77772372Y-96794572D01*
X77709722Y-96761085D01*
X77709396Y-96760867D01*
X77654479Y-96715798D01*
X77654202Y-96715521D01*
X77609133Y-96660604D01*
X77608915Y-96660278D01*
X77575428Y-96597628D01*
X77575278Y-96597266D01*
X77554654Y-96529279D01*
X77554578Y-96528894D01*
X77547010Y-96452056D01*
X77547000Y-96451860D01*
X77547000Y-96395500D01*
X77548000Y-96393768D01*
X77550000Y-96393768D01*
X77550990Y-96395304D01*
G37*
G36*
X80516232Y-95118000D02*
G01*
X80516232Y-95120000D01*
X80514696Y-95120990D01*
X80431884Y-95129146D01*
X80352437Y-95153246D01*
X80279221Y-95192381D01*
X80215047Y-95245047D01*
X80162381Y-95309221D01*
X80123246Y-95382437D01*
X80099146Y-95461884D01*
X80090990Y-95544696D01*
X80089825Y-95546322D01*
X80087835Y-95546126D01*
X80087000Y-95544500D01*
X80087000Y-95488140D01*
X80087010Y-95487944D01*
X80094578Y-95411106D01*
X80094654Y-95410721D01*
X80115278Y-95342734D01*
X80115428Y-95342372D01*
X80148915Y-95279722D01*
X80149133Y-95279396D01*
X80194202Y-95224479D01*
X80194479Y-95224202D01*
X80249396Y-95179133D01*
X80249722Y-95178915D01*
X80312372Y-95145428D01*
X80312734Y-95145278D01*
X80380721Y-95124654D01*
X80381106Y-95124578D01*
X80457944Y-95117010D01*
X80458140Y-95117000D01*
X80514500Y-95117000D01*
X80516232Y-95118000D01*
G37*
G36*
X77976232Y-95118000D02*
G01*
X77976232Y-95120000D01*
X77974696Y-95120990D01*
X77891884Y-95129146D01*
X77812437Y-95153246D01*
X77739221Y-95192381D01*
X77675047Y-95245047D01*
X77622381Y-95309221D01*
X77583246Y-95382437D01*
X77559146Y-95461884D01*
X77550990Y-95544696D01*
X77549825Y-95546322D01*
X77547835Y-95546126D01*
X77547000Y-95544500D01*
X77547000Y-95488140D01*
X77547010Y-95487944D01*
X77554578Y-95411106D01*
X77554654Y-95410721D01*
X77575278Y-95342734D01*
X77575428Y-95342372D01*
X77608915Y-95279722D01*
X77609133Y-95279396D01*
X77654202Y-95224479D01*
X77654479Y-95224202D01*
X77709396Y-95179133D01*
X77709722Y-95178915D01*
X77772372Y-95145428D01*
X77772734Y-95145278D01*
X77840721Y-95124654D01*
X77841106Y-95124578D01*
X77917944Y-95117010D01*
X77918140Y-95117000D01*
X77974500Y-95117000D01*
X77976232Y-95118000D01*
G37*
G36*
X81422056Y-95117010D02*
G01*
X81498894Y-95124578D01*
X81499279Y-95124654D01*
X81567266Y-95145278D01*
X81567628Y-95145428D01*
X81630278Y-95178915D01*
X81630604Y-95179133D01*
X81685521Y-95224202D01*
X81685798Y-95224479D01*
X81730867Y-95279396D01*
X81731085Y-95279722D01*
X81764572Y-95342372D01*
X81764722Y-95342734D01*
X81785346Y-95410721D01*
X81785422Y-95411106D01*
X81792990Y-95487944D01*
X81793000Y-95488140D01*
X81793000Y-95544500D01*
X81792000Y-95546232D01*
X81790000Y-95546232D01*
X81789010Y-95544696D01*
X81780854Y-95461884D01*
X81756754Y-95382437D01*
X81717619Y-95309221D01*
X81664953Y-95245047D01*
X81600779Y-95192381D01*
X81527563Y-95153246D01*
X81448116Y-95129146D01*
X81365304Y-95120990D01*
X81363678Y-95119825D01*
X81363874Y-95117835D01*
X81365500Y-95117000D01*
X81421860Y-95117000D01*
X81422056Y-95117010D01*
G37*
G36*
X78882056Y-95117010D02*
G01*
X78958894Y-95124578D01*
X78959279Y-95124654D01*
X79027266Y-95145278D01*
X79027628Y-95145428D01*
X79090278Y-95178915D01*
X79090604Y-95179133D01*
X79145521Y-95224202D01*
X79145798Y-95224479D01*
X79190867Y-95279396D01*
X79191085Y-95279722D01*
X79224572Y-95342372D01*
X79224722Y-95342734D01*
X79245346Y-95410721D01*
X79245422Y-95411106D01*
X79252990Y-95487944D01*
X79253000Y-95488140D01*
X79253000Y-95544500D01*
X79252000Y-95546232D01*
X79250000Y-95546232D01*
X79249010Y-95544696D01*
X79240854Y-95461884D01*
X79216754Y-95382437D01*
X79177619Y-95309221D01*
X79124953Y-95245047D01*
X79060779Y-95192381D01*
X78987563Y-95153246D01*
X78908116Y-95129146D01*
X78825304Y-95120990D01*
X78823678Y-95119825D01*
X78823874Y-95117835D01*
X78825500Y-95117000D01*
X78881860Y-95117000D01*
X78882056Y-95117010D01*
G37*
G36*
X77550990Y-93855304D02*
G01*
X77559146Y-93938116D01*
X77583246Y-94017563D01*
X77622381Y-94090779D01*
X77675047Y-94154953D01*
X77739221Y-94207619D01*
X77812437Y-94246754D01*
X77891884Y-94270854D01*
X77974696Y-94279010D01*
X77976322Y-94280175D01*
X77976126Y-94282165D01*
X77974500Y-94283000D01*
X77918140Y-94283000D01*
X77917944Y-94282990D01*
X77841106Y-94275422D01*
X77840721Y-94275346D01*
X77772734Y-94254722D01*
X77772372Y-94254572D01*
X77709722Y-94221085D01*
X77709396Y-94220867D01*
X77654479Y-94175798D01*
X77654202Y-94175521D01*
X77609133Y-94120604D01*
X77608915Y-94120278D01*
X77575428Y-94057628D01*
X77575278Y-94057266D01*
X77554654Y-93989279D01*
X77554578Y-93988894D01*
X77547010Y-93912056D01*
X77547000Y-93911860D01*
X77547000Y-93855500D01*
X77548000Y-93853768D01*
X77550000Y-93853768D01*
X77550990Y-93855304D01*
G37*
G36*
X80090990Y-93855304D02*
G01*
X80099146Y-93938116D01*
X80123246Y-94017563D01*
X80162381Y-94090779D01*
X80215047Y-94154953D01*
X80279221Y-94207619D01*
X80352437Y-94246754D01*
X80431884Y-94270854D01*
X80514696Y-94279010D01*
X80516322Y-94280175D01*
X80516126Y-94282165D01*
X80514500Y-94283000D01*
X80458140Y-94283000D01*
X80457944Y-94282990D01*
X80381106Y-94275422D01*
X80380721Y-94275346D01*
X80312734Y-94254722D01*
X80312372Y-94254572D01*
X80249722Y-94221085D01*
X80249396Y-94220867D01*
X80194479Y-94175798D01*
X80194202Y-94175521D01*
X80149133Y-94120604D01*
X80148915Y-94120278D01*
X80115428Y-94057628D01*
X80115278Y-94057266D01*
X80094654Y-93989279D01*
X80094578Y-93988894D01*
X80087010Y-93912056D01*
X80087000Y-93911860D01*
X80087000Y-93855500D01*
X80088000Y-93853768D01*
X80090000Y-93853768D01*
X80090990Y-93855304D01*
G37*
G36*
X79252165Y-93853874D02*
G01*
X79253000Y-93855500D01*
X79253000Y-93911860D01*
X79252990Y-93912056D01*
X79245422Y-93988894D01*
X79245346Y-93989279D01*
X79224722Y-94057266D01*
X79224572Y-94057628D01*
X79191085Y-94120278D01*
X79190867Y-94120604D01*
X79145798Y-94175521D01*
X79145521Y-94175798D01*
X79090604Y-94220867D01*
X79090278Y-94221085D01*
X79027628Y-94254572D01*
X79027266Y-94254722D01*
X78959279Y-94275346D01*
X78958894Y-94275422D01*
X78882056Y-94282990D01*
X78881860Y-94283000D01*
X78825500Y-94283000D01*
X78823768Y-94282000D01*
X78823768Y-94280000D01*
X78825304Y-94279010D01*
X78908116Y-94270854D01*
X78987563Y-94246754D01*
X79060779Y-94207619D01*
X79124953Y-94154953D01*
X79177619Y-94090779D01*
X79216754Y-94017563D01*
X79240854Y-93938116D01*
X79249010Y-93855304D01*
X79250175Y-93853678D01*
X79252165Y-93853874D01*
G37*
G36*
X81792165Y-93853874D02*
G01*
X81793000Y-93855500D01*
X81793000Y-93911860D01*
X81792990Y-93912056D01*
X81785422Y-93988894D01*
X81785346Y-93989279D01*
X81764722Y-94057266D01*
X81764572Y-94057628D01*
X81731085Y-94120278D01*
X81730867Y-94120604D01*
X81685798Y-94175521D01*
X81685521Y-94175798D01*
X81630604Y-94220867D01*
X81630278Y-94221085D01*
X81567628Y-94254572D01*
X81567266Y-94254722D01*
X81499279Y-94275346D01*
X81498894Y-94275422D01*
X81422056Y-94282990D01*
X81421860Y-94283000D01*
X81365500Y-94283000D01*
X81363768Y-94282000D01*
X81363768Y-94280000D01*
X81365304Y-94279010D01*
X81448116Y-94270854D01*
X81527563Y-94246754D01*
X81600779Y-94207619D01*
X81664953Y-94154953D01*
X81717619Y-94090779D01*
X81756754Y-94017563D01*
X81780854Y-93938116D01*
X81789010Y-93855304D01*
X81790175Y-93853678D01*
X81792165Y-93853874D01*
G37*
G36*
X77976232Y-92578000D02*
G01*
X77976232Y-92580000D01*
X77974696Y-92580990D01*
X77891884Y-92589146D01*
X77812437Y-92613246D01*
X77739221Y-92652381D01*
X77675047Y-92705047D01*
X77622381Y-92769221D01*
X77583246Y-92842437D01*
X77559146Y-92921884D01*
X77550990Y-93004696D01*
X77549825Y-93006322D01*
X77547835Y-93006126D01*
X77547000Y-93004500D01*
X77547000Y-92948140D01*
X77547010Y-92947944D01*
X77554578Y-92871106D01*
X77554654Y-92870721D01*
X77575278Y-92802734D01*
X77575428Y-92802372D01*
X77608915Y-92739722D01*
X77609133Y-92739396D01*
X77654202Y-92684479D01*
X77654479Y-92684202D01*
X77709396Y-92639133D01*
X77709722Y-92638915D01*
X77772372Y-92605428D01*
X77772734Y-92605278D01*
X77840721Y-92584654D01*
X77841106Y-92584578D01*
X77917944Y-92577010D01*
X77918140Y-92577000D01*
X77974500Y-92577000D01*
X77976232Y-92578000D01*
G37*
G36*
X80516232Y-92578000D02*
G01*
X80516232Y-92580000D01*
X80514696Y-92580990D01*
X80431884Y-92589146D01*
X80352437Y-92613246D01*
X80279221Y-92652381D01*
X80215047Y-92705047D01*
X80162381Y-92769221D01*
X80123246Y-92842437D01*
X80099146Y-92921884D01*
X80090990Y-93004696D01*
X80089825Y-93006322D01*
X80087835Y-93006126D01*
X80087000Y-93004500D01*
X80087000Y-92948140D01*
X80087010Y-92947944D01*
X80094578Y-92871106D01*
X80094654Y-92870721D01*
X80115278Y-92802734D01*
X80115428Y-92802372D01*
X80148915Y-92739722D01*
X80149133Y-92739396D01*
X80194202Y-92684479D01*
X80194479Y-92684202D01*
X80249396Y-92639133D01*
X80249722Y-92638915D01*
X80312372Y-92605428D01*
X80312734Y-92605278D01*
X80380721Y-92584654D01*
X80381106Y-92584578D01*
X80457944Y-92577010D01*
X80458140Y-92577000D01*
X80514500Y-92577000D01*
X80516232Y-92578000D01*
G37*
G36*
X78882056Y-92577010D02*
G01*
X78958894Y-92584578D01*
X78959279Y-92584654D01*
X79027266Y-92605278D01*
X79027628Y-92605428D01*
X79090278Y-92638915D01*
X79090604Y-92639133D01*
X79145521Y-92684202D01*
X79145798Y-92684479D01*
X79190867Y-92739396D01*
X79191085Y-92739722D01*
X79224572Y-92802372D01*
X79224722Y-92802734D01*
X79245346Y-92870721D01*
X79245422Y-92871106D01*
X79252990Y-92947944D01*
X79253000Y-92948140D01*
X79253000Y-93004500D01*
X79252000Y-93006232D01*
X79250000Y-93006232D01*
X79249010Y-93004696D01*
X79240854Y-92921884D01*
X79216754Y-92842437D01*
X79177619Y-92769221D01*
X79124953Y-92705047D01*
X79060779Y-92652381D01*
X78987563Y-92613246D01*
X78908116Y-92589146D01*
X78825304Y-92580990D01*
X78823678Y-92579825D01*
X78823874Y-92577835D01*
X78825500Y-92577000D01*
X78881860Y-92577000D01*
X78882056Y-92577010D01*
G37*
G36*
X81422056Y-92577010D02*
G01*
X81498894Y-92584578D01*
X81499279Y-92584654D01*
X81567266Y-92605278D01*
X81567628Y-92605428D01*
X81630278Y-92638915D01*
X81630604Y-92639133D01*
X81685521Y-92684202D01*
X81685798Y-92684479D01*
X81730867Y-92739396D01*
X81731085Y-92739722D01*
X81764572Y-92802372D01*
X81764722Y-92802734D01*
X81785346Y-92870721D01*
X81785422Y-92871106D01*
X81792990Y-92947944D01*
X81793000Y-92948140D01*
X81793000Y-93004500D01*
X81792000Y-93006232D01*
X81790000Y-93006232D01*
X81789010Y-93004696D01*
X81780854Y-92921884D01*
X81756754Y-92842437D01*
X81717619Y-92769221D01*
X81664953Y-92705047D01*
X81600779Y-92652381D01*
X81527563Y-92613246D01*
X81448116Y-92589146D01*
X81365304Y-92580990D01*
X81363678Y-92579825D01*
X81363874Y-92577835D01*
X81365500Y-92577000D01*
X81421860Y-92577000D01*
X81422056Y-92577010D01*
G37*
G36*
X81792165Y-91313874D02*
G01*
X81793000Y-91315500D01*
X81793000Y-91371860D01*
X81792990Y-91372056D01*
X81785422Y-91448894D01*
X81785346Y-91449279D01*
X81764722Y-91517266D01*
X81764572Y-91517628D01*
X81731085Y-91580278D01*
X81730867Y-91580604D01*
X81685798Y-91635521D01*
X81685521Y-91635798D01*
X81630604Y-91680867D01*
X81630278Y-91681085D01*
X81567628Y-91714572D01*
X81567266Y-91714722D01*
X81499279Y-91735346D01*
X81498894Y-91735422D01*
X81422056Y-91742990D01*
X81421860Y-91743000D01*
X81365500Y-91743000D01*
X81363768Y-91742000D01*
X81363768Y-91740000D01*
X81365304Y-91739010D01*
X81448116Y-91730854D01*
X81527563Y-91706754D01*
X81600779Y-91667619D01*
X81664953Y-91614953D01*
X81717619Y-91550779D01*
X81756754Y-91477563D01*
X81780854Y-91398116D01*
X81789010Y-91315304D01*
X81790175Y-91313678D01*
X81792165Y-91313874D01*
G37*
G36*
X77550990Y-91315304D02*
G01*
X77559146Y-91398116D01*
X77583246Y-91477563D01*
X77622381Y-91550779D01*
X77675047Y-91614953D01*
X77739221Y-91667619D01*
X77812437Y-91706754D01*
X77891884Y-91730854D01*
X77974696Y-91739010D01*
X77976322Y-91740175D01*
X77976126Y-91742165D01*
X77974500Y-91743000D01*
X77918140Y-91743000D01*
X77917944Y-91742990D01*
X77841106Y-91735422D01*
X77840721Y-91735346D01*
X77772734Y-91714722D01*
X77772372Y-91714572D01*
X77709722Y-91681085D01*
X77709396Y-91680867D01*
X77654479Y-91635798D01*
X77654202Y-91635521D01*
X77609133Y-91580604D01*
X77608915Y-91580278D01*
X77575428Y-91517628D01*
X77575278Y-91517266D01*
X77554654Y-91449279D01*
X77554578Y-91448894D01*
X77547010Y-91372056D01*
X77547000Y-91371860D01*
X77547000Y-91315500D01*
X77548000Y-91313768D01*
X77550000Y-91313768D01*
X77550990Y-91315304D01*
G37*
G36*
X79252165Y-91313874D02*
G01*
X79253000Y-91315500D01*
X79253000Y-91371860D01*
X79252990Y-91372056D01*
X79245422Y-91448894D01*
X79245346Y-91449279D01*
X79224722Y-91517266D01*
X79224572Y-91517628D01*
X79191085Y-91580278D01*
X79190867Y-91580604D01*
X79145798Y-91635521D01*
X79145521Y-91635798D01*
X79090604Y-91680867D01*
X79090278Y-91681085D01*
X79027628Y-91714572D01*
X79027266Y-91714722D01*
X78959279Y-91735346D01*
X78958894Y-91735422D01*
X78882056Y-91742990D01*
X78881860Y-91743000D01*
X78825500Y-91743000D01*
X78823768Y-91742000D01*
X78823768Y-91740000D01*
X78825304Y-91739010D01*
X78908116Y-91730854D01*
X78987563Y-91706754D01*
X79060779Y-91667619D01*
X79124953Y-91614953D01*
X79177619Y-91550779D01*
X79216754Y-91477563D01*
X79240854Y-91398116D01*
X79249010Y-91315304D01*
X79250175Y-91313678D01*
X79252165Y-91313874D01*
G37*
G36*
X80090990Y-91315304D02*
G01*
X80099146Y-91398116D01*
X80123246Y-91477563D01*
X80162381Y-91550779D01*
X80215047Y-91614953D01*
X80279221Y-91667619D01*
X80352437Y-91706754D01*
X80431884Y-91730854D01*
X80514696Y-91739010D01*
X80516322Y-91740175D01*
X80516126Y-91742165D01*
X80514500Y-91743000D01*
X80458140Y-91743000D01*
X80457944Y-91742990D01*
X80381106Y-91735422D01*
X80380721Y-91735346D01*
X80312734Y-91714722D01*
X80312372Y-91714572D01*
X80249722Y-91681085D01*
X80249396Y-91680867D01*
X80194479Y-91635798D01*
X80194202Y-91635521D01*
X80149133Y-91580604D01*
X80148915Y-91580278D01*
X80115428Y-91517628D01*
X80115278Y-91517266D01*
X80094654Y-91449279D01*
X80094578Y-91448894D01*
X80087010Y-91372056D01*
X80087000Y-91371860D01*
X80087000Y-91315500D01*
X80088000Y-91313768D01*
X80090000Y-91313768D01*
X80090990Y-91315304D01*
G37*
G36*
X77976232Y-90038000D02*
G01*
X77976232Y-90040000D01*
X77974696Y-90040990D01*
X77891884Y-90049146D01*
X77812437Y-90073246D01*
X77739221Y-90112381D01*
X77675047Y-90165047D01*
X77622381Y-90229221D01*
X77583246Y-90302437D01*
X77559146Y-90381884D01*
X77550990Y-90464696D01*
X77549825Y-90466322D01*
X77547835Y-90466126D01*
X77547000Y-90464500D01*
X77547000Y-90408140D01*
X77547010Y-90407944D01*
X77554578Y-90331106D01*
X77554654Y-90330721D01*
X77575278Y-90262734D01*
X77575428Y-90262372D01*
X77608915Y-90199722D01*
X77609133Y-90199396D01*
X77654202Y-90144479D01*
X77654479Y-90144202D01*
X77709396Y-90099133D01*
X77709722Y-90098915D01*
X77772372Y-90065428D01*
X77772734Y-90065278D01*
X77840721Y-90044654D01*
X77841106Y-90044578D01*
X77917944Y-90037010D01*
X77918140Y-90037000D01*
X77974500Y-90037000D01*
X77976232Y-90038000D01*
G37*
G36*
X80516232Y-90038000D02*
G01*
X80516232Y-90040000D01*
X80514696Y-90040990D01*
X80431884Y-90049146D01*
X80352437Y-90073246D01*
X80279221Y-90112381D01*
X80215047Y-90165047D01*
X80162381Y-90229221D01*
X80123246Y-90302437D01*
X80099146Y-90381884D01*
X80090990Y-90464696D01*
X80089825Y-90466322D01*
X80087835Y-90466126D01*
X80087000Y-90464500D01*
X80087000Y-90408140D01*
X80087010Y-90407944D01*
X80094578Y-90331106D01*
X80094654Y-90330721D01*
X80115278Y-90262734D01*
X80115428Y-90262372D01*
X80148915Y-90199722D01*
X80149133Y-90199396D01*
X80194202Y-90144479D01*
X80194479Y-90144202D01*
X80249396Y-90099133D01*
X80249722Y-90098915D01*
X80312372Y-90065428D01*
X80312734Y-90065278D01*
X80380721Y-90044654D01*
X80381106Y-90044578D01*
X80457944Y-90037010D01*
X80458140Y-90037000D01*
X80514500Y-90037000D01*
X80516232Y-90038000D01*
G37*
G36*
X78882056Y-90037010D02*
G01*
X78958894Y-90044578D01*
X78959279Y-90044654D01*
X79027266Y-90065278D01*
X79027628Y-90065428D01*
X79090278Y-90098915D01*
X79090604Y-90099133D01*
X79145521Y-90144202D01*
X79145798Y-90144479D01*
X79190867Y-90199396D01*
X79191085Y-90199722D01*
X79224572Y-90262372D01*
X79224722Y-90262734D01*
X79245346Y-90330721D01*
X79245422Y-90331106D01*
X79252990Y-90407944D01*
X79253000Y-90408140D01*
X79253000Y-90464500D01*
X79252000Y-90466232D01*
X79250000Y-90466232D01*
X79249010Y-90464696D01*
X79240854Y-90381884D01*
X79216754Y-90302437D01*
X79177619Y-90229221D01*
X79124953Y-90165047D01*
X79060779Y-90112381D01*
X78987563Y-90073246D01*
X78908116Y-90049146D01*
X78825304Y-90040990D01*
X78823678Y-90039825D01*
X78823874Y-90037835D01*
X78825500Y-90037000D01*
X78881860Y-90037000D01*
X78882056Y-90037010D01*
G37*
G36*
X81422056Y-90037010D02*
G01*
X81498894Y-90044578D01*
X81499279Y-90044654D01*
X81567266Y-90065278D01*
X81567628Y-90065428D01*
X81630278Y-90098915D01*
X81630604Y-90099133D01*
X81685521Y-90144202D01*
X81685798Y-90144479D01*
X81730867Y-90199396D01*
X81731085Y-90199722D01*
X81764572Y-90262372D01*
X81764722Y-90262734D01*
X81785346Y-90330721D01*
X81785422Y-90331106D01*
X81792990Y-90407944D01*
X81793000Y-90408140D01*
X81793000Y-90464500D01*
X81792000Y-90466232D01*
X81790000Y-90466232D01*
X81789010Y-90464696D01*
X81780854Y-90381884D01*
X81756754Y-90302437D01*
X81717619Y-90229221D01*
X81664953Y-90165047D01*
X81600779Y-90112381D01*
X81527563Y-90073246D01*
X81448116Y-90049146D01*
X81365304Y-90040990D01*
X81363678Y-90039825D01*
X81363874Y-90037835D01*
X81365500Y-90037000D01*
X81421860Y-90037000D01*
X81422056Y-90037010D01*
G37*
G36*
X81792165Y-88773874D02*
G01*
X81793000Y-88775500D01*
X81793000Y-88831860D01*
X81792990Y-88832056D01*
X81785422Y-88908894D01*
X81785346Y-88909279D01*
X81764722Y-88977266D01*
X81764572Y-88977628D01*
X81731085Y-89040278D01*
X81730867Y-89040604D01*
X81685798Y-89095521D01*
X81685521Y-89095798D01*
X81630604Y-89140867D01*
X81630278Y-89141085D01*
X81567628Y-89174572D01*
X81567266Y-89174722D01*
X81499279Y-89195346D01*
X81498894Y-89195422D01*
X81422056Y-89202990D01*
X81421860Y-89203000D01*
X81365500Y-89203000D01*
X81363768Y-89202000D01*
X81363768Y-89200000D01*
X81365304Y-89199010D01*
X81448116Y-89190854D01*
X81527563Y-89166754D01*
X81600779Y-89127619D01*
X81664953Y-89074953D01*
X81717619Y-89010779D01*
X81756754Y-88937563D01*
X81780854Y-88858116D01*
X81789010Y-88775304D01*
X81790175Y-88773678D01*
X81792165Y-88773874D01*
G37*
G36*
X77550990Y-88775304D02*
G01*
X77559146Y-88858116D01*
X77583246Y-88937563D01*
X77622381Y-89010779D01*
X77675047Y-89074953D01*
X77739221Y-89127619D01*
X77812437Y-89166754D01*
X77891884Y-89190854D01*
X77974696Y-89199010D01*
X77976322Y-89200175D01*
X77976126Y-89202165D01*
X77974500Y-89203000D01*
X77918140Y-89203000D01*
X77917944Y-89202990D01*
X77841106Y-89195422D01*
X77840721Y-89195346D01*
X77772734Y-89174722D01*
X77772372Y-89174572D01*
X77709722Y-89141085D01*
X77709396Y-89140867D01*
X77654479Y-89095798D01*
X77654202Y-89095521D01*
X77609133Y-89040604D01*
X77608915Y-89040278D01*
X77575428Y-88977628D01*
X77575278Y-88977266D01*
X77554654Y-88909279D01*
X77554578Y-88908894D01*
X77547010Y-88832056D01*
X77547000Y-88831860D01*
X77547000Y-88775500D01*
X77548000Y-88773768D01*
X77550000Y-88773768D01*
X77550990Y-88775304D01*
G37*
G36*
X79252165Y-88773874D02*
G01*
X79253000Y-88775500D01*
X79253000Y-88831860D01*
X79252990Y-88832056D01*
X79245422Y-88908894D01*
X79245346Y-88909279D01*
X79224722Y-88977266D01*
X79224572Y-88977628D01*
X79191085Y-89040278D01*
X79190867Y-89040604D01*
X79145798Y-89095521D01*
X79145521Y-89095798D01*
X79090604Y-89140867D01*
X79090278Y-89141085D01*
X79027628Y-89174572D01*
X79027266Y-89174722D01*
X78959279Y-89195346D01*
X78958894Y-89195422D01*
X78882056Y-89202990D01*
X78881860Y-89203000D01*
X78825500Y-89203000D01*
X78823768Y-89202000D01*
X78823768Y-89200000D01*
X78825304Y-89199010D01*
X78908116Y-89190854D01*
X78987563Y-89166754D01*
X79060779Y-89127619D01*
X79124953Y-89074953D01*
X79177619Y-89010779D01*
X79216754Y-88937563D01*
X79240854Y-88858116D01*
X79249010Y-88775304D01*
X79250175Y-88773678D01*
X79252165Y-88773874D01*
G37*
G36*
X80090990Y-88775304D02*
G01*
X80099146Y-88858116D01*
X80123246Y-88937563D01*
X80162381Y-89010779D01*
X80215047Y-89074953D01*
X80279221Y-89127619D01*
X80352437Y-89166754D01*
X80431884Y-89190854D01*
X80514696Y-89199010D01*
X80516322Y-89200175D01*
X80516126Y-89202165D01*
X80514500Y-89203000D01*
X80458140Y-89203000D01*
X80457944Y-89202990D01*
X80381106Y-89195422D01*
X80380721Y-89195346D01*
X80312734Y-89174722D01*
X80312372Y-89174572D01*
X80249722Y-89141085D01*
X80249396Y-89140867D01*
X80194479Y-89095798D01*
X80194202Y-89095521D01*
X80149133Y-89040604D01*
X80148915Y-89040278D01*
X80115428Y-88977628D01*
X80115278Y-88977266D01*
X80094654Y-88909279D01*
X80094578Y-88908894D01*
X80087010Y-88832056D01*
X80087000Y-88831860D01*
X80087000Y-88775500D01*
X80088000Y-88773768D01*
X80090000Y-88773768D01*
X80090990Y-88775304D01*
G37*
G36*
X80516232Y-87498000D02*
G01*
X80516232Y-87500000D01*
X80514696Y-87500990D01*
X80431884Y-87509146D01*
X80352437Y-87533246D01*
X80279221Y-87572381D01*
X80215047Y-87625047D01*
X80162381Y-87689221D01*
X80123246Y-87762437D01*
X80099146Y-87841884D01*
X80090990Y-87924696D01*
X80089825Y-87926322D01*
X80087835Y-87926126D01*
X80087000Y-87924500D01*
X80087000Y-87868140D01*
X80087010Y-87867944D01*
X80094578Y-87791106D01*
X80094654Y-87790721D01*
X80115278Y-87722734D01*
X80115428Y-87722372D01*
X80148915Y-87659722D01*
X80149133Y-87659396D01*
X80194202Y-87604479D01*
X80194479Y-87604202D01*
X80249396Y-87559133D01*
X80249722Y-87558915D01*
X80312372Y-87525428D01*
X80312734Y-87525278D01*
X80380721Y-87504654D01*
X80381106Y-87504578D01*
X80457944Y-87497010D01*
X80458140Y-87497000D01*
X80514500Y-87497000D01*
X80516232Y-87498000D01*
G37*
G36*
X77976232Y-87498000D02*
G01*
X77976232Y-87500000D01*
X77974696Y-87500990D01*
X77891884Y-87509146D01*
X77812437Y-87533246D01*
X77739221Y-87572381D01*
X77675047Y-87625047D01*
X77622381Y-87689221D01*
X77583246Y-87762437D01*
X77559146Y-87841884D01*
X77550990Y-87924696D01*
X77549825Y-87926322D01*
X77547835Y-87926126D01*
X77547000Y-87924500D01*
X77547000Y-87868140D01*
X77547010Y-87867944D01*
X77554578Y-87791106D01*
X77554654Y-87790721D01*
X77575278Y-87722734D01*
X77575428Y-87722372D01*
X77608915Y-87659722D01*
X77609133Y-87659396D01*
X77654202Y-87604479D01*
X77654479Y-87604202D01*
X77709396Y-87559133D01*
X77709722Y-87558915D01*
X77772372Y-87525428D01*
X77772734Y-87525278D01*
X77840721Y-87504654D01*
X77841106Y-87504578D01*
X77917944Y-87497010D01*
X77918140Y-87497000D01*
X77974500Y-87497000D01*
X77976232Y-87498000D01*
G37*
G36*
X81422056Y-87497010D02*
G01*
X81498894Y-87504578D01*
X81499279Y-87504654D01*
X81567266Y-87525278D01*
X81567628Y-87525428D01*
X81630278Y-87558915D01*
X81630604Y-87559133D01*
X81685521Y-87604202D01*
X81685798Y-87604479D01*
X81730867Y-87659396D01*
X81731085Y-87659722D01*
X81764572Y-87722372D01*
X81764722Y-87722734D01*
X81785346Y-87790721D01*
X81785422Y-87791106D01*
X81792990Y-87867944D01*
X81793000Y-87868140D01*
X81793000Y-87924500D01*
X81792000Y-87926232D01*
X81790000Y-87926232D01*
X81789010Y-87924696D01*
X81780854Y-87841884D01*
X81756754Y-87762437D01*
X81717619Y-87689221D01*
X81664953Y-87625047D01*
X81600779Y-87572381D01*
X81527563Y-87533246D01*
X81448116Y-87509146D01*
X81365304Y-87500990D01*
X81363678Y-87499825D01*
X81363874Y-87497835D01*
X81365500Y-87497000D01*
X81421860Y-87497000D01*
X81422056Y-87497010D01*
G37*
G36*
X78882056Y-87497010D02*
G01*
X78958894Y-87504578D01*
X78959279Y-87504654D01*
X79027266Y-87525278D01*
X79027628Y-87525428D01*
X79090278Y-87558915D01*
X79090604Y-87559133D01*
X79145521Y-87604202D01*
X79145798Y-87604479D01*
X79190867Y-87659396D01*
X79191085Y-87659722D01*
X79224572Y-87722372D01*
X79224722Y-87722734D01*
X79245346Y-87790721D01*
X79245422Y-87791106D01*
X79252990Y-87867944D01*
X79253000Y-87868140D01*
X79253000Y-87924500D01*
X79252000Y-87926232D01*
X79250000Y-87926232D01*
X79249010Y-87924696D01*
X79240854Y-87841884D01*
X79216754Y-87762437D01*
X79177619Y-87689221D01*
X79124953Y-87625047D01*
X79060779Y-87572381D01*
X78987563Y-87533246D01*
X78908116Y-87509146D01*
X78825304Y-87500990D01*
X78823678Y-87499825D01*
X78823874Y-87497835D01*
X78825500Y-87497000D01*
X78881860Y-87497000D01*
X78882056Y-87497010D01*
G37*
G36*
X79252165Y-86233874D02*
G01*
X79253000Y-86235500D01*
X79253000Y-86291860D01*
X79252990Y-86292056D01*
X79245422Y-86368894D01*
X79245346Y-86369279D01*
X79224722Y-86437266D01*
X79224572Y-86437628D01*
X79191085Y-86500278D01*
X79190867Y-86500604D01*
X79145798Y-86555521D01*
X79145521Y-86555798D01*
X79090604Y-86600867D01*
X79090278Y-86601085D01*
X79027628Y-86634572D01*
X79027266Y-86634722D01*
X78959279Y-86655346D01*
X78958894Y-86655422D01*
X78882056Y-86662990D01*
X78881860Y-86663000D01*
X78825500Y-86663000D01*
X78823768Y-86662000D01*
X78823768Y-86660000D01*
X78825304Y-86659010D01*
X78908116Y-86650854D01*
X78987563Y-86626754D01*
X79060779Y-86587619D01*
X79124953Y-86534953D01*
X79177619Y-86470779D01*
X79216754Y-86397563D01*
X79240854Y-86318116D01*
X79249010Y-86235304D01*
X79250175Y-86233678D01*
X79252165Y-86233874D01*
G37*
G36*
X77550990Y-86235304D02*
G01*
X77559146Y-86318116D01*
X77583246Y-86397563D01*
X77622381Y-86470779D01*
X77675047Y-86534953D01*
X77739221Y-86587619D01*
X77812437Y-86626754D01*
X77891884Y-86650854D01*
X77974696Y-86659010D01*
X77976322Y-86660175D01*
X77976126Y-86662165D01*
X77974500Y-86663000D01*
X77918140Y-86663000D01*
X77917944Y-86662990D01*
X77841106Y-86655422D01*
X77840721Y-86655346D01*
X77772734Y-86634722D01*
X77772372Y-86634572D01*
X77709722Y-86601085D01*
X77709396Y-86600867D01*
X77654479Y-86555798D01*
X77654202Y-86555521D01*
X77609133Y-86500604D01*
X77608915Y-86500278D01*
X77575428Y-86437628D01*
X77575278Y-86437266D01*
X77554654Y-86369279D01*
X77554578Y-86368894D01*
X77547010Y-86292056D01*
X77547000Y-86291860D01*
X77547000Y-86235500D01*
X77548000Y-86233768D01*
X77550000Y-86233768D01*
X77550990Y-86235304D01*
G37*
G36*
X81792165Y-86233874D02*
G01*
X81793000Y-86235500D01*
X81793000Y-86291860D01*
X81792990Y-86292056D01*
X81785422Y-86368894D01*
X81785346Y-86369279D01*
X81764722Y-86437266D01*
X81764572Y-86437628D01*
X81731085Y-86500278D01*
X81730867Y-86500604D01*
X81685798Y-86555521D01*
X81685521Y-86555798D01*
X81630604Y-86600867D01*
X81630278Y-86601085D01*
X81567628Y-86634572D01*
X81567266Y-86634722D01*
X81499279Y-86655346D01*
X81498894Y-86655422D01*
X81422056Y-86662990D01*
X81421860Y-86663000D01*
X81365500Y-86663000D01*
X81363768Y-86662000D01*
X81363768Y-86660000D01*
X81365304Y-86659010D01*
X81448116Y-86650854D01*
X81527563Y-86626754D01*
X81600779Y-86587619D01*
X81664953Y-86534953D01*
X81717619Y-86470779D01*
X81756754Y-86397563D01*
X81780854Y-86318116D01*
X81789010Y-86235304D01*
X81790175Y-86233678D01*
X81792165Y-86233874D01*
G37*
G36*
X80090990Y-86235304D02*
G01*
X80099146Y-86318116D01*
X80123246Y-86397563D01*
X80162381Y-86470779D01*
X80215047Y-86534953D01*
X80279221Y-86587619D01*
X80352437Y-86626754D01*
X80431884Y-86650854D01*
X80514696Y-86659010D01*
X80516322Y-86660175D01*
X80516126Y-86662165D01*
X80514500Y-86663000D01*
X80458140Y-86663000D01*
X80457944Y-86662990D01*
X80381106Y-86655422D01*
X80380721Y-86655346D01*
X80312734Y-86634722D01*
X80312372Y-86634572D01*
X80249722Y-86601085D01*
X80249396Y-86600867D01*
X80194479Y-86555798D01*
X80194202Y-86555521D01*
X80149133Y-86500604D01*
X80148915Y-86500278D01*
X80115428Y-86437628D01*
X80115278Y-86437266D01*
X80094654Y-86369279D01*
X80094578Y-86368894D01*
X80087010Y-86292056D01*
X80087000Y-86291860D01*
X80087000Y-86235500D01*
X80088000Y-86233768D01*
X80090000Y-86233768D01*
X80090990Y-86235304D01*
G37*
G36*
X77976232Y-84958000D02*
G01*
X77976232Y-84960000D01*
X77974696Y-84960990D01*
X77891884Y-84969146D01*
X77812437Y-84993246D01*
X77739221Y-85032381D01*
X77675047Y-85085047D01*
X77622381Y-85149221D01*
X77583246Y-85222437D01*
X77559146Y-85301884D01*
X77550990Y-85384696D01*
X77549825Y-85386322D01*
X77547835Y-85386126D01*
X77547000Y-85384500D01*
X77547000Y-85328140D01*
X77547010Y-85327944D01*
X77554578Y-85251106D01*
X77554654Y-85250721D01*
X77575278Y-85182734D01*
X77575428Y-85182372D01*
X77608915Y-85119722D01*
X77609133Y-85119396D01*
X77654202Y-85064479D01*
X77654479Y-85064202D01*
X77709396Y-85019133D01*
X77709722Y-85018915D01*
X77772372Y-84985428D01*
X77772734Y-84985278D01*
X77840721Y-84964654D01*
X77841106Y-84964578D01*
X77917944Y-84957010D01*
X77918140Y-84957000D01*
X77974500Y-84957000D01*
X77976232Y-84958000D01*
G37*
G36*
X80516232Y-84958000D02*
G01*
X80516232Y-84960000D01*
X80514696Y-84960990D01*
X80431884Y-84969146D01*
X80352437Y-84993246D01*
X80279221Y-85032381D01*
X80215047Y-85085047D01*
X80162381Y-85149221D01*
X80123246Y-85222437D01*
X80099146Y-85301884D01*
X80090990Y-85384696D01*
X80089825Y-85386322D01*
X80087835Y-85386126D01*
X80087000Y-85384500D01*
X80087000Y-85328140D01*
X80087010Y-85327944D01*
X80094578Y-85251106D01*
X80094654Y-85250721D01*
X80115278Y-85182734D01*
X80115428Y-85182372D01*
X80148915Y-85119722D01*
X80149133Y-85119396D01*
X80194202Y-85064479D01*
X80194479Y-85064202D01*
X80249396Y-85019133D01*
X80249722Y-85018915D01*
X80312372Y-84985428D01*
X80312734Y-84985278D01*
X80380721Y-84964654D01*
X80381106Y-84964578D01*
X80457944Y-84957010D01*
X80458140Y-84957000D01*
X80514500Y-84957000D01*
X80516232Y-84958000D01*
G37*
G36*
X81422056Y-84957010D02*
G01*
X81498894Y-84964578D01*
X81499279Y-84964654D01*
X81567266Y-84985278D01*
X81567628Y-84985428D01*
X81630278Y-85018915D01*
X81630604Y-85019133D01*
X81685521Y-85064202D01*
X81685798Y-85064479D01*
X81730867Y-85119396D01*
X81731085Y-85119722D01*
X81764572Y-85182372D01*
X81764722Y-85182734D01*
X81785346Y-85250721D01*
X81785422Y-85251106D01*
X81792990Y-85327944D01*
X81793000Y-85328140D01*
X81793000Y-85384500D01*
X81792000Y-85386232D01*
X81790000Y-85386232D01*
X81789010Y-85384696D01*
X81780854Y-85301884D01*
X81756754Y-85222437D01*
X81717619Y-85149221D01*
X81664953Y-85085047D01*
X81600779Y-85032381D01*
X81527563Y-84993246D01*
X81448116Y-84969146D01*
X81365304Y-84960990D01*
X81363678Y-84959825D01*
X81363874Y-84957835D01*
X81365500Y-84957000D01*
X81421860Y-84957000D01*
X81422056Y-84957010D01*
G37*
G36*
X78882056Y-84957010D02*
G01*
X78958894Y-84964578D01*
X78959279Y-84964654D01*
X79027266Y-84985278D01*
X79027628Y-84985428D01*
X79090278Y-85018915D01*
X79090604Y-85019133D01*
X79145521Y-85064202D01*
X79145798Y-85064479D01*
X79190867Y-85119396D01*
X79191085Y-85119722D01*
X79224572Y-85182372D01*
X79224722Y-85182734D01*
X79245346Y-85250721D01*
X79245422Y-85251106D01*
X79252990Y-85327944D01*
X79253000Y-85328140D01*
X79253000Y-85384500D01*
X79252000Y-85386232D01*
X79250000Y-85386232D01*
X79249010Y-85384696D01*
X79240854Y-85301884D01*
X79216754Y-85222437D01*
X79177619Y-85149221D01*
X79124953Y-85085047D01*
X79060779Y-85032381D01*
X78987563Y-84993246D01*
X78908116Y-84969146D01*
X78825304Y-84960990D01*
X78823678Y-84959825D01*
X78823874Y-84957835D01*
X78825500Y-84957000D01*
X78881860Y-84957000D01*
X78882056Y-84957010D01*
G37*
G36*
X80090990Y-83695304D02*
G01*
X80099146Y-83778116D01*
X80123246Y-83857563D01*
X80162381Y-83930779D01*
X80215047Y-83994953D01*
X80279221Y-84047619D01*
X80352437Y-84086754D01*
X80431884Y-84110854D01*
X80514696Y-84119010D01*
X80516322Y-84120175D01*
X80516126Y-84122165D01*
X80514500Y-84123000D01*
X80458140Y-84123000D01*
X80457944Y-84122990D01*
X80381106Y-84115422D01*
X80380721Y-84115346D01*
X80312734Y-84094722D01*
X80312372Y-84094572D01*
X80249722Y-84061085D01*
X80249396Y-84060867D01*
X80194479Y-84015798D01*
X80194202Y-84015521D01*
X80149133Y-83960604D01*
X80148915Y-83960278D01*
X80115428Y-83897628D01*
X80115278Y-83897266D01*
X80094654Y-83829279D01*
X80094578Y-83828894D01*
X80087010Y-83752056D01*
X80087000Y-83751860D01*
X80087000Y-83695500D01*
X80088000Y-83693768D01*
X80090000Y-83693768D01*
X80090990Y-83695304D01*
G37*
G36*
X77550990Y-83695304D02*
G01*
X77559146Y-83778116D01*
X77583246Y-83857563D01*
X77622381Y-83930779D01*
X77675047Y-83994953D01*
X77739221Y-84047619D01*
X77812437Y-84086754D01*
X77891884Y-84110854D01*
X77974696Y-84119010D01*
X77976322Y-84120175D01*
X77976126Y-84122165D01*
X77974500Y-84123000D01*
X77918140Y-84123000D01*
X77917944Y-84122990D01*
X77841106Y-84115422D01*
X77840721Y-84115346D01*
X77772734Y-84094722D01*
X77772372Y-84094572D01*
X77709722Y-84061085D01*
X77709396Y-84060867D01*
X77654479Y-84015798D01*
X77654202Y-84015521D01*
X77609133Y-83960604D01*
X77608915Y-83960278D01*
X77575428Y-83897628D01*
X77575278Y-83897266D01*
X77554654Y-83829279D01*
X77554578Y-83828894D01*
X77547010Y-83752056D01*
X77547000Y-83751860D01*
X77547000Y-83695500D01*
X77548000Y-83693768D01*
X77550000Y-83693768D01*
X77550990Y-83695304D01*
G37*
G36*
X79252165Y-83693874D02*
G01*
X79253000Y-83695500D01*
X79253000Y-83751860D01*
X79252990Y-83752056D01*
X79245422Y-83828894D01*
X79245346Y-83829279D01*
X79224722Y-83897266D01*
X79224572Y-83897628D01*
X79191085Y-83960278D01*
X79190867Y-83960604D01*
X79145798Y-84015521D01*
X79145521Y-84015798D01*
X79090604Y-84060867D01*
X79090278Y-84061085D01*
X79027628Y-84094572D01*
X79027266Y-84094722D01*
X78959279Y-84115346D01*
X78958894Y-84115422D01*
X78882056Y-84122990D01*
X78881860Y-84123000D01*
X78825500Y-84123000D01*
X78823768Y-84122000D01*
X78823768Y-84120000D01*
X78825304Y-84119010D01*
X78908116Y-84110854D01*
X78987563Y-84086754D01*
X79060779Y-84047619D01*
X79124953Y-83994953D01*
X79177619Y-83930779D01*
X79216754Y-83857563D01*
X79240854Y-83778116D01*
X79249010Y-83695304D01*
X79250175Y-83693678D01*
X79252165Y-83693874D01*
G37*
G36*
X81792165Y-83693874D02*
G01*
X81793000Y-83695500D01*
X81793000Y-83751860D01*
X81792990Y-83752056D01*
X81785422Y-83828894D01*
X81785346Y-83829279D01*
X81764722Y-83897266D01*
X81764572Y-83897628D01*
X81731085Y-83960278D01*
X81730867Y-83960604D01*
X81685798Y-84015521D01*
X81685521Y-84015798D01*
X81630604Y-84060867D01*
X81630278Y-84061085D01*
X81567628Y-84094572D01*
X81567266Y-84094722D01*
X81499279Y-84115346D01*
X81498894Y-84115422D01*
X81422056Y-84122990D01*
X81421860Y-84123000D01*
X81365500Y-84123000D01*
X81363768Y-84122000D01*
X81363768Y-84120000D01*
X81365304Y-84119010D01*
X81448116Y-84110854D01*
X81527563Y-84086754D01*
X81600779Y-84047619D01*
X81664953Y-83994953D01*
X81717619Y-83930779D01*
X81756754Y-83857563D01*
X81780854Y-83778116D01*
X81789010Y-83695304D01*
X81790175Y-83693678D01*
X81792165Y-83693874D01*
G37*
G36*
X80516232Y-82418000D02*
G01*
X80516232Y-82420000D01*
X80514696Y-82420990D01*
X80431884Y-82429146D01*
X80352437Y-82453246D01*
X80279221Y-82492381D01*
X80215047Y-82545047D01*
X80162381Y-82609221D01*
X80123246Y-82682437D01*
X80099146Y-82761884D01*
X80090990Y-82844696D01*
X80089825Y-82846322D01*
X80087835Y-82846126D01*
X80087000Y-82844500D01*
X80087000Y-82788140D01*
X80087010Y-82787944D01*
X80094578Y-82711106D01*
X80094654Y-82710721D01*
X80115278Y-82642734D01*
X80115428Y-82642372D01*
X80148915Y-82579722D01*
X80149133Y-82579396D01*
X80194202Y-82524479D01*
X80194479Y-82524202D01*
X80249396Y-82479133D01*
X80249722Y-82478915D01*
X80312372Y-82445428D01*
X80312734Y-82445278D01*
X80380721Y-82424654D01*
X80381106Y-82424578D01*
X80457944Y-82417010D01*
X80458140Y-82417000D01*
X80514500Y-82417000D01*
X80516232Y-82418000D01*
G37*
G36*
X77976232Y-82418000D02*
G01*
X77976232Y-82420000D01*
X77974696Y-82420990D01*
X77891884Y-82429146D01*
X77812437Y-82453246D01*
X77739221Y-82492381D01*
X77675047Y-82545047D01*
X77622381Y-82609221D01*
X77583246Y-82682437D01*
X77559146Y-82761884D01*
X77550990Y-82844696D01*
X77549825Y-82846322D01*
X77547835Y-82846126D01*
X77547000Y-82844500D01*
X77547000Y-82788140D01*
X77547010Y-82787944D01*
X77554578Y-82711106D01*
X77554654Y-82710721D01*
X77575278Y-82642734D01*
X77575428Y-82642372D01*
X77608915Y-82579722D01*
X77609133Y-82579396D01*
X77654202Y-82524479D01*
X77654479Y-82524202D01*
X77709396Y-82479133D01*
X77709722Y-82478915D01*
X77772372Y-82445428D01*
X77772734Y-82445278D01*
X77840721Y-82424654D01*
X77841106Y-82424578D01*
X77917944Y-82417010D01*
X77918140Y-82417000D01*
X77974500Y-82417000D01*
X77976232Y-82418000D01*
G37*
G36*
X78882056Y-82417010D02*
G01*
X78958894Y-82424578D01*
X78959279Y-82424654D01*
X79027266Y-82445278D01*
X79027628Y-82445428D01*
X79090278Y-82478915D01*
X79090604Y-82479133D01*
X79145521Y-82524202D01*
X79145798Y-82524479D01*
X79190867Y-82579396D01*
X79191085Y-82579722D01*
X79224572Y-82642372D01*
X79224722Y-82642734D01*
X79245346Y-82710721D01*
X79245422Y-82711106D01*
X79252990Y-82787944D01*
X79253000Y-82788140D01*
X79253000Y-82844500D01*
X79252000Y-82846232D01*
X79250000Y-82846232D01*
X79249010Y-82844696D01*
X79240854Y-82761884D01*
X79216754Y-82682437D01*
X79177619Y-82609221D01*
X79124953Y-82545047D01*
X79060779Y-82492381D01*
X78987563Y-82453246D01*
X78908116Y-82429146D01*
X78825304Y-82420990D01*
X78823678Y-82419825D01*
X78823874Y-82417835D01*
X78825500Y-82417000D01*
X78881860Y-82417000D01*
X78882056Y-82417010D01*
G37*
G36*
X81422056Y-82417010D02*
G01*
X81498894Y-82424578D01*
X81499279Y-82424654D01*
X81567266Y-82445278D01*
X81567628Y-82445428D01*
X81630278Y-82478915D01*
X81630604Y-82479133D01*
X81685521Y-82524202D01*
X81685798Y-82524479D01*
X81730867Y-82579396D01*
X81731085Y-82579722D01*
X81764572Y-82642372D01*
X81764722Y-82642734D01*
X81785346Y-82710721D01*
X81785422Y-82711106D01*
X81792990Y-82787944D01*
X81793000Y-82788140D01*
X81793000Y-82844500D01*
X81792000Y-82846232D01*
X81790000Y-82846232D01*
X81789010Y-82844696D01*
X81780854Y-82761884D01*
X81756754Y-82682437D01*
X81717619Y-82609221D01*
X81664953Y-82545047D01*
X81600779Y-82492381D01*
X81527563Y-82453246D01*
X81448116Y-82429146D01*
X81365304Y-82420990D01*
X81363678Y-82419825D01*
X81363874Y-82417835D01*
X81365500Y-82417000D01*
X81421860Y-82417000D01*
X81422056Y-82417010D01*
G37*
G36*
X77550990Y-81155304D02*
G01*
X77559146Y-81238116D01*
X77583246Y-81317563D01*
X77622381Y-81390779D01*
X77675047Y-81454953D01*
X77739221Y-81507619D01*
X77812437Y-81546754D01*
X77891884Y-81570854D01*
X77974696Y-81579010D01*
X77976322Y-81580175D01*
X77976126Y-81582165D01*
X77974500Y-81583000D01*
X77918140Y-81583000D01*
X77917944Y-81582990D01*
X77841106Y-81575422D01*
X77840721Y-81575346D01*
X77772734Y-81554722D01*
X77772372Y-81554572D01*
X77709722Y-81521085D01*
X77709396Y-81520867D01*
X77654479Y-81475798D01*
X77654202Y-81475521D01*
X77609133Y-81420604D01*
X77608915Y-81420278D01*
X77575428Y-81357628D01*
X77575278Y-81357266D01*
X77554654Y-81289279D01*
X77554578Y-81288894D01*
X77547010Y-81212056D01*
X77547000Y-81211860D01*
X77547000Y-81155500D01*
X77548000Y-81153768D01*
X77550000Y-81153768D01*
X77550990Y-81155304D01*
G37*
G36*
X80090990Y-81155304D02*
G01*
X80099146Y-81238116D01*
X80123246Y-81317563D01*
X80162381Y-81390779D01*
X80215047Y-81454953D01*
X80279221Y-81507619D01*
X80352437Y-81546754D01*
X80431884Y-81570854D01*
X80514696Y-81579010D01*
X80516322Y-81580175D01*
X80516126Y-81582165D01*
X80514500Y-81583000D01*
X80458140Y-81583000D01*
X80457944Y-81582990D01*
X80381106Y-81575422D01*
X80380721Y-81575346D01*
X80312734Y-81554722D01*
X80312372Y-81554572D01*
X80249722Y-81521085D01*
X80249396Y-81520867D01*
X80194479Y-81475798D01*
X80194202Y-81475521D01*
X80149133Y-81420604D01*
X80148915Y-81420278D01*
X80115428Y-81357628D01*
X80115278Y-81357266D01*
X80094654Y-81289279D01*
X80094578Y-81288894D01*
X80087010Y-81212056D01*
X80087000Y-81211860D01*
X80087000Y-81155500D01*
X80088000Y-81153768D01*
X80090000Y-81153768D01*
X80090990Y-81155304D01*
G37*
G36*
X79252165Y-81153874D02*
G01*
X79253000Y-81155500D01*
X79253000Y-81211860D01*
X79252990Y-81212056D01*
X79245422Y-81288894D01*
X79245346Y-81289279D01*
X79224722Y-81357266D01*
X79224572Y-81357628D01*
X79191085Y-81420278D01*
X79190867Y-81420604D01*
X79145798Y-81475521D01*
X79145521Y-81475798D01*
X79090604Y-81520867D01*
X79090278Y-81521085D01*
X79027628Y-81554572D01*
X79027266Y-81554722D01*
X78959279Y-81575346D01*
X78958894Y-81575422D01*
X78882056Y-81582990D01*
X78881860Y-81583000D01*
X78825500Y-81583000D01*
X78823768Y-81582000D01*
X78823768Y-81580000D01*
X78825304Y-81579010D01*
X78908116Y-81570854D01*
X78987563Y-81546754D01*
X79060779Y-81507619D01*
X79124953Y-81454953D01*
X79177619Y-81390779D01*
X79216754Y-81317563D01*
X79240854Y-81238116D01*
X79249010Y-81155304D01*
X79250175Y-81153678D01*
X79252165Y-81153874D01*
G37*
G36*
X81792165Y-81153874D02*
G01*
X81793000Y-81155500D01*
X81793000Y-81211860D01*
X81792990Y-81212056D01*
X81785422Y-81288894D01*
X81785346Y-81289279D01*
X81764722Y-81357266D01*
X81764572Y-81357628D01*
X81731085Y-81420278D01*
X81730867Y-81420604D01*
X81685798Y-81475521D01*
X81685521Y-81475798D01*
X81630604Y-81520867D01*
X81630278Y-81521085D01*
X81567628Y-81554572D01*
X81567266Y-81554722D01*
X81499279Y-81575346D01*
X81498894Y-81575422D01*
X81422056Y-81582990D01*
X81421860Y-81583000D01*
X81365500Y-81583000D01*
X81363768Y-81582000D01*
X81363768Y-81580000D01*
X81365304Y-81579010D01*
X81448116Y-81570854D01*
X81527563Y-81546754D01*
X81600779Y-81507619D01*
X81664953Y-81454953D01*
X81717619Y-81390779D01*
X81756754Y-81317563D01*
X81780854Y-81238116D01*
X81789010Y-81155304D01*
X81790175Y-81153678D01*
X81792165Y-81153874D01*
G37*
G36*
X77976232Y-79878000D02*
G01*
X77976232Y-79880000D01*
X77974696Y-79880990D01*
X77891884Y-79889146D01*
X77812437Y-79913246D01*
X77739221Y-79952381D01*
X77675047Y-80005047D01*
X77622381Y-80069221D01*
X77583246Y-80142437D01*
X77559146Y-80221884D01*
X77550990Y-80304696D01*
X77549825Y-80306322D01*
X77547835Y-80306126D01*
X77547000Y-80304500D01*
X77547000Y-80248140D01*
X77547010Y-80247944D01*
X77554578Y-80171106D01*
X77554654Y-80170721D01*
X77575278Y-80102734D01*
X77575428Y-80102372D01*
X77608915Y-80039722D01*
X77609133Y-80039396D01*
X77654202Y-79984479D01*
X77654479Y-79984202D01*
X77709396Y-79939133D01*
X77709722Y-79938915D01*
X77772372Y-79905428D01*
X77772734Y-79905278D01*
X77840721Y-79884654D01*
X77841106Y-79884578D01*
X77917944Y-79877010D01*
X77918140Y-79877000D01*
X77974500Y-79877000D01*
X77976232Y-79878000D01*
G37*
G36*
X80516232Y-79878000D02*
G01*
X80516232Y-79880000D01*
X80514696Y-79880990D01*
X80431884Y-79889146D01*
X80352437Y-79913246D01*
X80279221Y-79952381D01*
X80215047Y-80005047D01*
X80162381Y-80069221D01*
X80123246Y-80142437D01*
X80099146Y-80221884D01*
X80090990Y-80304696D01*
X80089825Y-80306322D01*
X80087835Y-80306126D01*
X80087000Y-80304500D01*
X80087000Y-80248140D01*
X80087010Y-80247944D01*
X80094578Y-80171106D01*
X80094654Y-80170721D01*
X80115278Y-80102734D01*
X80115428Y-80102372D01*
X80148915Y-80039722D01*
X80149133Y-80039396D01*
X80194202Y-79984479D01*
X80194479Y-79984202D01*
X80249396Y-79939133D01*
X80249722Y-79938915D01*
X80312372Y-79905428D01*
X80312734Y-79905278D01*
X80380721Y-79884654D01*
X80381106Y-79884578D01*
X80457944Y-79877010D01*
X80458140Y-79877000D01*
X80514500Y-79877000D01*
X80516232Y-79878000D01*
G37*
G36*
X81422056Y-79877010D02*
G01*
X81498894Y-79884578D01*
X81499279Y-79884654D01*
X81567266Y-79905278D01*
X81567628Y-79905428D01*
X81630278Y-79938915D01*
X81630604Y-79939133D01*
X81685521Y-79984202D01*
X81685798Y-79984479D01*
X81730867Y-80039396D01*
X81731085Y-80039722D01*
X81764572Y-80102372D01*
X81764722Y-80102734D01*
X81785346Y-80170721D01*
X81785422Y-80171106D01*
X81792990Y-80247944D01*
X81793000Y-80248140D01*
X81793000Y-80304500D01*
X81792000Y-80306232D01*
X81790000Y-80306232D01*
X81789010Y-80304696D01*
X81780854Y-80221884D01*
X81756754Y-80142437D01*
X81717619Y-80069221D01*
X81664953Y-80005047D01*
X81600779Y-79952381D01*
X81527563Y-79913246D01*
X81448116Y-79889146D01*
X81365304Y-79880990D01*
X81363678Y-79879825D01*
X81363874Y-79877835D01*
X81365500Y-79877000D01*
X81421860Y-79877000D01*
X81422056Y-79877010D01*
G37*
G36*
X78882056Y-79877010D02*
G01*
X78958894Y-79884578D01*
X78959279Y-79884654D01*
X79027266Y-79905278D01*
X79027628Y-79905428D01*
X79090278Y-79938915D01*
X79090604Y-79939133D01*
X79145521Y-79984202D01*
X79145798Y-79984479D01*
X79190867Y-80039396D01*
X79191085Y-80039722D01*
X79224572Y-80102372D01*
X79224722Y-80102734D01*
X79245346Y-80170721D01*
X79245422Y-80171106D01*
X79252990Y-80247944D01*
X79253000Y-80248140D01*
X79253000Y-80304500D01*
X79252000Y-80306232D01*
X79250000Y-80306232D01*
X79249010Y-80304696D01*
X79240854Y-80221884D01*
X79216754Y-80142437D01*
X79177619Y-80069221D01*
X79124953Y-80005047D01*
X79060779Y-79952381D01*
X78987563Y-79913246D01*
X78908116Y-79889146D01*
X78825304Y-79880990D01*
X78823678Y-79879825D01*
X78823874Y-79877835D01*
X78825500Y-79877000D01*
X78881860Y-79877000D01*
X78882056Y-79877010D01*
G37*
G36*
X81792165Y-78613874D02*
G01*
X81793000Y-78615500D01*
X81793000Y-78671860D01*
X81792990Y-78672056D01*
X81785422Y-78748894D01*
X81785346Y-78749279D01*
X81764722Y-78817266D01*
X81764572Y-78817628D01*
X81731085Y-78880278D01*
X81730867Y-78880604D01*
X81685798Y-78935521D01*
X81685521Y-78935798D01*
X81630604Y-78980867D01*
X81630278Y-78981085D01*
X81567628Y-79014572D01*
X81567266Y-79014722D01*
X81499279Y-79035346D01*
X81498894Y-79035422D01*
X81422056Y-79042990D01*
X81421860Y-79043000D01*
X81365500Y-79043000D01*
X81363768Y-79042000D01*
X81363768Y-79040000D01*
X81365304Y-79039010D01*
X81448116Y-79030854D01*
X81527563Y-79006754D01*
X81600779Y-78967619D01*
X81664953Y-78914953D01*
X81717619Y-78850779D01*
X81756754Y-78777563D01*
X81780854Y-78698116D01*
X81789010Y-78615304D01*
X81790175Y-78613678D01*
X81792165Y-78613874D01*
G37*
G36*
X80090990Y-78615304D02*
G01*
X80099146Y-78698116D01*
X80123246Y-78777563D01*
X80162381Y-78850779D01*
X80215047Y-78914953D01*
X80279221Y-78967619D01*
X80352437Y-79006754D01*
X80431884Y-79030854D01*
X80514696Y-79039010D01*
X80516322Y-79040175D01*
X80516126Y-79042165D01*
X80514500Y-79043000D01*
X80458140Y-79043000D01*
X80457944Y-79042990D01*
X80381106Y-79035422D01*
X80380721Y-79035346D01*
X80312734Y-79014722D01*
X80312372Y-79014572D01*
X80249722Y-78981085D01*
X80249396Y-78980867D01*
X80194479Y-78935798D01*
X80194202Y-78935521D01*
X80149133Y-78880604D01*
X80148915Y-78880278D01*
X80115428Y-78817628D01*
X80115278Y-78817266D01*
X80094654Y-78749279D01*
X80094578Y-78748894D01*
X80087010Y-78672056D01*
X80087000Y-78671860D01*
X80087000Y-78615500D01*
X80088000Y-78613768D01*
X80090000Y-78613768D01*
X80090990Y-78615304D01*
G37*
G36*
X79252165Y-78613874D02*
G01*
X79253000Y-78615500D01*
X79253000Y-78671860D01*
X79252990Y-78672056D01*
X79245422Y-78748894D01*
X79245346Y-78749279D01*
X79224722Y-78817266D01*
X79224572Y-78817628D01*
X79191085Y-78880278D01*
X79190867Y-78880604D01*
X79145798Y-78935521D01*
X79145521Y-78935798D01*
X79090604Y-78980867D01*
X79090278Y-78981085D01*
X79027628Y-79014572D01*
X79027266Y-79014722D01*
X78959279Y-79035346D01*
X78958894Y-79035422D01*
X78882056Y-79042990D01*
X78881860Y-79043000D01*
X78825500Y-79043000D01*
X78823768Y-79042000D01*
X78823768Y-79040000D01*
X78825304Y-79039010D01*
X78908116Y-79030854D01*
X78987563Y-79006754D01*
X79060779Y-78967619D01*
X79124953Y-78914953D01*
X79177619Y-78850779D01*
X79216754Y-78777563D01*
X79240854Y-78698116D01*
X79249010Y-78615304D01*
X79250175Y-78613678D01*
X79252165Y-78613874D01*
G37*
G36*
X77550990Y-78615304D02*
G01*
X77559146Y-78698116D01*
X77583246Y-78777563D01*
X77622381Y-78850779D01*
X77675047Y-78914953D01*
X77739221Y-78967619D01*
X77812437Y-79006754D01*
X77891884Y-79030854D01*
X77974696Y-79039010D01*
X77976322Y-79040175D01*
X77976126Y-79042165D01*
X77974500Y-79043000D01*
X77918140Y-79043000D01*
X77917944Y-79042990D01*
X77841106Y-79035422D01*
X77840721Y-79035346D01*
X77772734Y-79014722D01*
X77772372Y-79014572D01*
X77709722Y-78981085D01*
X77709396Y-78980867D01*
X77654479Y-78935798D01*
X77654202Y-78935521D01*
X77609133Y-78880604D01*
X77608915Y-78880278D01*
X77575428Y-78817628D01*
X77575278Y-78817266D01*
X77554654Y-78749279D01*
X77554578Y-78748894D01*
X77547010Y-78672056D01*
X77547000Y-78671860D01*
X77547000Y-78615500D01*
X77548000Y-78613768D01*
X77550000Y-78613768D01*
X77550990Y-78615304D01*
G37*
G36*
X80516232Y-77338000D02*
G01*
X80516232Y-77340000D01*
X80514696Y-77340990D01*
X80431884Y-77349146D01*
X80352437Y-77373246D01*
X80279221Y-77412381D01*
X80215047Y-77465047D01*
X80162381Y-77529221D01*
X80123246Y-77602437D01*
X80099146Y-77681884D01*
X80090990Y-77764696D01*
X80089825Y-77766322D01*
X80087835Y-77766126D01*
X80087000Y-77764500D01*
X80087000Y-77708140D01*
X80087010Y-77707944D01*
X80094578Y-77631106D01*
X80094654Y-77630721D01*
X80115278Y-77562734D01*
X80115428Y-77562372D01*
X80148915Y-77499722D01*
X80149133Y-77499396D01*
X80194202Y-77444479D01*
X80194479Y-77444202D01*
X80249396Y-77399133D01*
X80249722Y-77398915D01*
X80312372Y-77365428D01*
X80312734Y-77365278D01*
X80380721Y-77344654D01*
X80381106Y-77344578D01*
X80457944Y-77337010D01*
X80458140Y-77337000D01*
X80514500Y-77337000D01*
X80516232Y-77338000D01*
G37*
G36*
X77976232Y-77338000D02*
G01*
X77976232Y-77340000D01*
X77974696Y-77340990D01*
X77891884Y-77349146D01*
X77812437Y-77373246D01*
X77739221Y-77412381D01*
X77675047Y-77465047D01*
X77622381Y-77529221D01*
X77583246Y-77602437D01*
X77559146Y-77681884D01*
X77550990Y-77764696D01*
X77549825Y-77766322D01*
X77547835Y-77766126D01*
X77547000Y-77764500D01*
X77547000Y-77708140D01*
X77547010Y-77707944D01*
X77554578Y-77631106D01*
X77554654Y-77630721D01*
X77575278Y-77562734D01*
X77575428Y-77562372D01*
X77608915Y-77499722D01*
X77609133Y-77499396D01*
X77654202Y-77444479D01*
X77654479Y-77444202D01*
X77709396Y-77399133D01*
X77709722Y-77398915D01*
X77772372Y-77365428D01*
X77772734Y-77365278D01*
X77840721Y-77344654D01*
X77841106Y-77344578D01*
X77917944Y-77337010D01*
X77918140Y-77337000D01*
X77974500Y-77337000D01*
X77976232Y-77338000D01*
G37*
G36*
X81422056Y-77337010D02*
G01*
X81498894Y-77344578D01*
X81499279Y-77344654D01*
X81567266Y-77365278D01*
X81567628Y-77365428D01*
X81630278Y-77398915D01*
X81630604Y-77399133D01*
X81685521Y-77444202D01*
X81685798Y-77444479D01*
X81730867Y-77499396D01*
X81731085Y-77499722D01*
X81764572Y-77562372D01*
X81764722Y-77562734D01*
X81785346Y-77630721D01*
X81785422Y-77631106D01*
X81792990Y-77707944D01*
X81793000Y-77708140D01*
X81793000Y-77764500D01*
X81792000Y-77766232D01*
X81790000Y-77766232D01*
X81789010Y-77764696D01*
X81780854Y-77681884D01*
X81756754Y-77602437D01*
X81717619Y-77529221D01*
X81664953Y-77465047D01*
X81600779Y-77412381D01*
X81527563Y-77373246D01*
X81448116Y-77349146D01*
X81365304Y-77340990D01*
X81363678Y-77339825D01*
X81363874Y-77337835D01*
X81365500Y-77337000D01*
X81421860Y-77337000D01*
X81422056Y-77337010D01*
G37*
G36*
X78882056Y-77337010D02*
G01*
X78958894Y-77344578D01*
X78959279Y-77344654D01*
X79027266Y-77365278D01*
X79027628Y-77365428D01*
X79090278Y-77398915D01*
X79090604Y-77399133D01*
X79145521Y-77444202D01*
X79145798Y-77444479D01*
X79190867Y-77499396D01*
X79191085Y-77499722D01*
X79224572Y-77562372D01*
X79224722Y-77562734D01*
X79245346Y-77630721D01*
X79245422Y-77631106D01*
X79252990Y-77707944D01*
X79253000Y-77708140D01*
X79253000Y-77764500D01*
X79252000Y-77766232D01*
X79250000Y-77766232D01*
X79249010Y-77764696D01*
X79240854Y-77681884D01*
X79216754Y-77602437D01*
X79177619Y-77529221D01*
X79124953Y-77465047D01*
X79060779Y-77412381D01*
X78987563Y-77373246D01*
X78908116Y-77349146D01*
X78825304Y-77340990D01*
X78823678Y-77339825D01*
X78823874Y-77337835D01*
X78825500Y-77337000D01*
X78881860Y-77337000D01*
X78882056Y-77337010D01*
G37*
G36*
X79252165Y-76073874D02*
G01*
X79253000Y-76075500D01*
X79253000Y-76131860D01*
X79252990Y-76132056D01*
X79245422Y-76208894D01*
X79245346Y-76209279D01*
X79224722Y-76277266D01*
X79224572Y-76277628D01*
X79191085Y-76340278D01*
X79190867Y-76340604D01*
X79145798Y-76395521D01*
X79145521Y-76395798D01*
X79090604Y-76440867D01*
X79090278Y-76441085D01*
X79027628Y-76474572D01*
X79027266Y-76474722D01*
X78959279Y-76495346D01*
X78958894Y-76495422D01*
X78882056Y-76502990D01*
X78881860Y-76503000D01*
X78825500Y-76503000D01*
X78823768Y-76502000D01*
X78823768Y-76500000D01*
X78825304Y-76499010D01*
X78908116Y-76490854D01*
X78987563Y-76466754D01*
X79060779Y-76427619D01*
X79124953Y-76374953D01*
X79177619Y-76310779D01*
X79216754Y-76237563D01*
X79240854Y-76158116D01*
X79249010Y-76075304D01*
X79250175Y-76073678D01*
X79252165Y-76073874D01*
G37*
G36*
X81792165Y-76073874D02*
G01*
X81793000Y-76075500D01*
X81793000Y-76131860D01*
X81792990Y-76132056D01*
X81785422Y-76208894D01*
X81785346Y-76209279D01*
X81764722Y-76277266D01*
X81764572Y-76277628D01*
X81731085Y-76340278D01*
X81730867Y-76340604D01*
X81685798Y-76395521D01*
X81685521Y-76395798D01*
X81630604Y-76440867D01*
X81630278Y-76441085D01*
X81567628Y-76474572D01*
X81567266Y-76474722D01*
X81499279Y-76495346D01*
X81498894Y-76495422D01*
X81422056Y-76502990D01*
X81421860Y-76503000D01*
X81365500Y-76503000D01*
X81363768Y-76502000D01*
X81363768Y-76500000D01*
X81365304Y-76499010D01*
X81448116Y-76490854D01*
X81527563Y-76466754D01*
X81600779Y-76427619D01*
X81664953Y-76374953D01*
X81717619Y-76310779D01*
X81756754Y-76237563D01*
X81780854Y-76158116D01*
X81789010Y-76075304D01*
X81790175Y-76073678D01*
X81792165Y-76073874D01*
G37*
G36*
X80090990Y-76075304D02*
G01*
X80099146Y-76158116D01*
X80123246Y-76237563D01*
X80162381Y-76310779D01*
X80215047Y-76374953D01*
X80279221Y-76427619D01*
X80352437Y-76466754D01*
X80431884Y-76490854D01*
X80514696Y-76499010D01*
X80516322Y-76500175D01*
X80516126Y-76502165D01*
X80514500Y-76503000D01*
X80458140Y-76503000D01*
X80457944Y-76502990D01*
X80381106Y-76495422D01*
X80380721Y-76495346D01*
X80312734Y-76474722D01*
X80312372Y-76474572D01*
X80249722Y-76441085D01*
X80249396Y-76440867D01*
X80194479Y-76395798D01*
X80194202Y-76395521D01*
X80149133Y-76340604D01*
X80148915Y-76340278D01*
X80115428Y-76277628D01*
X80115278Y-76277266D01*
X80094654Y-76209279D01*
X80094578Y-76208894D01*
X80087010Y-76132056D01*
X80087000Y-76131860D01*
X80087000Y-76075500D01*
X80088000Y-76073768D01*
X80090000Y-76073768D01*
X80090990Y-76075304D01*
G37*
G36*
X77550990Y-76075304D02*
G01*
X77559146Y-76158116D01*
X77583246Y-76237563D01*
X77622381Y-76310779D01*
X77675047Y-76374953D01*
X77739221Y-76427619D01*
X77812437Y-76466754D01*
X77891884Y-76490854D01*
X77974696Y-76499010D01*
X77976322Y-76500175D01*
X77976126Y-76502165D01*
X77974500Y-76503000D01*
X77918140Y-76503000D01*
X77917944Y-76502990D01*
X77841106Y-76495422D01*
X77840721Y-76495346D01*
X77772734Y-76474722D01*
X77772372Y-76474572D01*
X77709722Y-76441085D01*
X77709396Y-76440867D01*
X77654479Y-76395798D01*
X77654202Y-76395521D01*
X77609133Y-76340604D01*
X77608915Y-76340278D01*
X77575428Y-76277628D01*
X77575278Y-76277266D01*
X77554654Y-76209279D01*
X77554578Y-76208894D01*
X77547010Y-76132056D01*
X77547000Y-76131860D01*
X77547000Y-76075500D01*
X77548000Y-76073768D01*
X77550000Y-76073768D01*
X77550990Y-76075304D01*
G37*
G36*
X59472165Y-75120674D02*
G01*
X59473000Y-75122300D01*
X59473000Y-75178660D01*
X59472990Y-75178856D01*
X59465422Y-75255694D01*
X59465346Y-75256079D01*
X59444722Y-75324066D01*
X59444572Y-75324428D01*
X59411085Y-75387078D01*
X59410867Y-75387404D01*
X59365798Y-75442321D01*
X59365521Y-75442598D01*
X59310604Y-75487667D01*
X59310278Y-75487885D01*
X59247628Y-75521372D01*
X59247266Y-75521522D01*
X59179279Y-75542146D01*
X59178894Y-75542222D01*
X59102056Y-75549790D01*
X59101860Y-75549800D01*
X59045500Y-75549800D01*
X59043768Y-75548800D01*
X59043768Y-75546800D01*
X59045304Y-75545810D01*
X59128116Y-75537654D01*
X59207563Y-75513554D01*
X59280779Y-75474419D01*
X59344953Y-75421753D01*
X59397619Y-75357579D01*
X59436754Y-75284363D01*
X59460854Y-75204916D01*
X59469010Y-75122104D01*
X59470175Y-75120478D01*
X59472165Y-75120674D01*
G37*
G36*
X57770990Y-75122104D02*
G01*
X57779146Y-75204916D01*
X57803246Y-75284363D01*
X57842381Y-75357579D01*
X57895047Y-75421753D01*
X57959221Y-75474419D01*
X58032437Y-75513554D01*
X58111884Y-75537654D01*
X58194696Y-75545810D01*
X58196322Y-75546975D01*
X58196126Y-75548965D01*
X58194500Y-75549800D01*
X58138140Y-75549800D01*
X58137944Y-75549790D01*
X58061106Y-75542222D01*
X58060721Y-75542146D01*
X57992734Y-75521522D01*
X57992372Y-75521372D01*
X57929722Y-75487885D01*
X57929396Y-75487667D01*
X57874479Y-75442598D01*
X57874202Y-75442321D01*
X57829133Y-75387404D01*
X57828915Y-75387078D01*
X57795428Y-75324428D01*
X57795278Y-75324066D01*
X57774654Y-75256079D01*
X57774578Y-75255694D01*
X57767010Y-75178856D01*
X57767000Y-75178660D01*
X57767000Y-75122300D01*
X57768000Y-75120568D01*
X57770000Y-75120568D01*
X57770990Y-75122104D01*
G37*
G36*
X60272890Y-75084004D02*
G01*
X60281046Y-75166816D01*
X60305146Y-75246263D01*
X60344281Y-75319479D01*
X60396947Y-75383653D01*
X60461121Y-75436319D01*
X60534337Y-75475454D01*
X60613784Y-75499554D01*
X60696596Y-75507710D01*
X60698222Y-75508875D01*
X60698026Y-75510865D01*
X60696400Y-75511700D01*
X60640040Y-75511700D01*
X60639844Y-75511690D01*
X60563006Y-75504122D01*
X60562621Y-75504046D01*
X60494634Y-75483422D01*
X60494272Y-75483272D01*
X60431622Y-75449785D01*
X60431296Y-75449567D01*
X60376379Y-75404498D01*
X60376102Y-75404221D01*
X60331033Y-75349304D01*
X60330815Y-75348978D01*
X60297328Y-75286328D01*
X60297178Y-75285966D01*
X60276554Y-75217979D01*
X60276478Y-75217594D01*
X60268910Y-75140756D01*
X60268900Y-75140560D01*
X60268900Y-75084200D01*
X60269900Y-75082468D01*
X60271900Y-75082468D01*
X60272890Y-75084004D01*
G37*
G36*
X61974065Y-75082574D02*
G01*
X61974900Y-75084200D01*
X61974900Y-75140560D01*
X61974890Y-75140756D01*
X61967322Y-75217594D01*
X61967246Y-75217979D01*
X61946622Y-75285966D01*
X61946472Y-75286328D01*
X61912985Y-75348978D01*
X61912767Y-75349304D01*
X61867698Y-75404221D01*
X61867421Y-75404498D01*
X61812504Y-75449567D01*
X61812178Y-75449785D01*
X61749528Y-75483272D01*
X61749166Y-75483422D01*
X61681179Y-75504046D01*
X61680794Y-75504122D01*
X61603956Y-75511690D01*
X61603760Y-75511700D01*
X61547400Y-75511700D01*
X61545668Y-75510700D01*
X61545668Y-75508700D01*
X61547204Y-75507710D01*
X61630016Y-75499554D01*
X61709463Y-75475454D01*
X61782679Y-75436319D01*
X61846853Y-75383653D01*
X61899519Y-75319479D01*
X61938654Y-75246263D01*
X61962754Y-75166816D01*
X61970910Y-75084004D01*
X61972075Y-75082378D01*
X61974065Y-75082574D01*
G37*
G36*
X72172165Y-75082574D02*
G01*
X72173000Y-75084200D01*
X72173000Y-75140560D01*
X72172990Y-75140756D01*
X72165422Y-75217594D01*
X72165346Y-75217979D01*
X72144722Y-75285966D01*
X72144572Y-75286328D01*
X72111085Y-75348978D01*
X72110867Y-75349304D01*
X72065798Y-75404221D01*
X72065521Y-75404498D01*
X72010604Y-75449567D01*
X72010278Y-75449785D01*
X71947628Y-75483272D01*
X71947266Y-75483422D01*
X71879279Y-75504046D01*
X71878894Y-75504122D01*
X71802056Y-75511690D01*
X71801860Y-75511700D01*
X71745500Y-75511700D01*
X71743768Y-75510700D01*
X71743768Y-75508700D01*
X71745304Y-75507710D01*
X71828116Y-75499554D01*
X71907563Y-75475454D01*
X71980779Y-75436319D01*
X72044953Y-75383653D01*
X72097619Y-75319479D01*
X72136754Y-75246263D01*
X72160854Y-75166816D01*
X72169010Y-75084004D01*
X72170175Y-75082378D01*
X72172165Y-75082574D01*
G37*
G36*
X70470990Y-75084004D02*
G01*
X70479146Y-75166816D01*
X70503246Y-75246263D01*
X70542381Y-75319479D01*
X70595047Y-75383653D01*
X70659221Y-75436319D01*
X70732437Y-75475454D01*
X70811884Y-75499554D01*
X70894696Y-75507710D01*
X70896322Y-75508875D01*
X70896126Y-75510865D01*
X70894500Y-75511700D01*
X70838140Y-75511700D01*
X70837944Y-75511690D01*
X70761106Y-75504122D01*
X70760721Y-75504046D01*
X70692734Y-75483422D01*
X70692372Y-75483272D01*
X70629722Y-75449785D01*
X70629396Y-75449567D01*
X70574479Y-75404498D01*
X70574202Y-75404221D01*
X70529133Y-75349304D01*
X70528915Y-75348978D01*
X70495428Y-75286328D01*
X70495278Y-75285966D01*
X70474654Y-75217979D01*
X70474578Y-75217594D01*
X70467010Y-75140756D01*
X70467000Y-75140560D01*
X70467000Y-75084200D01*
X70468000Y-75082468D01*
X70470000Y-75082468D01*
X70470990Y-75084004D01*
G37*
G36*
X74712165Y-75082574D02*
G01*
X74713000Y-75084200D01*
X74713000Y-75140560D01*
X74712990Y-75140756D01*
X74705422Y-75217594D01*
X74705346Y-75217979D01*
X74684722Y-75285966D01*
X74684572Y-75286328D01*
X74651085Y-75348978D01*
X74650867Y-75349304D01*
X74605798Y-75404221D01*
X74605521Y-75404498D01*
X74550604Y-75449567D01*
X74550278Y-75449785D01*
X74487628Y-75483272D01*
X74487266Y-75483422D01*
X74419279Y-75504046D01*
X74418894Y-75504122D01*
X74342056Y-75511690D01*
X74341860Y-75511700D01*
X74285500Y-75511700D01*
X74283768Y-75510700D01*
X74283768Y-75508700D01*
X74285304Y-75507710D01*
X74368116Y-75499554D01*
X74447563Y-75475454D01*
X74520779Y-75436319D01*
X74584953Y-75383653D01*
X74637619Y-75319479D01*
X74676754Y-75246263D01*
X74700854Y-75166816D01*
X74709010Y-75084004D01*
X74710175Y-75082378D01*
X74712165Y-75082574D01*
G37*
G36*
X73010990Y-75084004D02*
G01*
X73019146Y-75166816D01*
X73043246Y-75246263D01*
X73082381Y-75319479D01*
X73135047Y-75383653D01*
X73199221Y-75436319D01*
X73272437Y-75475454D01*
X73351884Y-75499554D01*
X73434696Y-75507710D01*
X73436322Y-75508875D01*
X73436126Y-75510865D01*
X73434500Y-75511700D01*
X73378140Y-75511700D01*
X73377944Y-75511690D01*
X73301106Y-75504122D01*
X73300721Y-75504046D01*
X73232734Y-75483422D01*
X73232372Y-75483272D01*
X73169722Y-75449785D01*
X73169396Y-75449567D01*
X73114479Y-75404498D01*
X73114202Y-75404221D01*
X73069133Y-75349304D01*
X73068915Y-75348978D01*
X73035428Y-75286328D01*
X73035278Y-75285966D01*
X73014654Y-75217979D01*
X73014578Y-75217594D01*
X73007010Y-75140756D01*
X73007000Y-75140560D01*
X73007000Y-75084200D01*
X73008000Y-75082468D01*
X73010000Y-75082468D01*
X73010990Y-75084004D01*
G37*
G36*
X77976232Y-74798000D02*
G01*
X77976232Y-74800000D01*
X77974696Y-74800990D01*
X77891884Y-74809146D01*
X77812437Y-74833246D01*
X77739221Y-74872381D01*
X77675047Y-74925047D01*
X77622381Y-74989221D01*
X77583246Y-75062437D01*
X77559146Y-75141884D01*
X77550990Y-75224696D01*
X77549825Y-75226322D01*
X77547835Y-75226126D01*
X77547000Y-75224500D01*
X77547000Y-75168140D01*
X77547010Y-75167944D01*
X77554578Y-75091106D01*
X77554654Y-75090721D01*
X77575278Y-75022734D01*
X77575428Y-75022372D01*
X77608915Y-74959722D01*
X77609133Y-74959396D01*
X77654202Y-74904479D01*
X77654479Y-74904202D01*
X77709396Y-74859133D01*
X77709722Y-74858915D01*
X77772372Y-74825428D01*
X77772734Y-74825278D01*
X77840721Y-74804654D01*
X77841106Y-74804578D01*
X77917944Y-74797010D01*
X77918140Y-74797000D01*
X77974500Y-74797000D01*
X77976232Y-74798000D01*
G37*
G36*
X80516232Y-74798000D02*
G01*
X80516232Y-74800000D01*
X80514696Y-74800990D01*
X80431884Y-74809146D01*
X80352437Y-74833246D01*
X80279221Y-74872381D01*
X80215047Y-74925047D01*
X80162381Y-74989221D01*
X80123246Y-75062437D01*
X80099146Y-75141884D01*
X80090990Y-75224696D01*
X80089825Y-75226322D01*
X80087835Y-75226126D01*
X80087000Y-75224500D01*
X80087000Y-75168140D01*
X80087010Y-75167944D01*
X80094578Y-75091106D01*
X80094654Y-75090721D01*
X80115278Y-75022734D01*
X80115428Y-75022372D01*
X80148915Y-74959722D01*
X80149133Y-74959396D01*
X80194202Y-74904479D01*
X80194479Y-74904202D01*
X80249396Y-74859133D01*
X80249722Y-74858915D01*
X80312372Y-74825428D01*
X80312734Y-74825278D01*
X80380721Y-74804654D01*
X80381106Y-74804578D01*
X80457944Y-74797010D01*
X80458140Y-74797000D01*
X80514500Y-74797000D01*
X80516232Y-74798000D01*
G37*
G36*
X81422056Y-74797010D02*
G01*
X81498894Y-74804578D01*
X81499279Y-74804654D01*
X81567266Y-74825278D01*
X81567628Y-74825428D01*
X81630278Y-74858915D01*
X81630604Y-74859133D01*
X81685521Y-74904202D01*
X81685798Y-74904479D01*
X81730867Y-74959396D01*
X81731085Y-74959722D01*
X81764572Y-75022372D01*
X81764722Y-75022734D01*
X81785346Y-75090721D01*
X81785422Y-75091106D01*
X81792990Y-75167944D01*
X81793000Y-75168140D01*
X81793000Y-75224500D01*
X81792000Y-75226232D01*
X81790000Y-75226232D01*
X81789010Y-75224696D01*
X81780854Y-75141884D01*
X81756754Y-75062437D01*
X81717619Y-74989221D01*
X81664953Y-74925047D01*
X81600779Y-74872381D01*
X81527563Y-74833246D01*
X81448116Y-74809146D01*
X81365304Y-74800990D01*
X81363678Y-74799825D01*
X81363874Y-74797835D01*
X81365500Y-74797000D01*
X81421860Y-74797000D01*
X81422056Y-74797010D01*
G37*
G36*
X78882056Y-74797010D02*
G01*
X78958894Y-74804578D01*
X78959279Y-74804654D01*
X79027266Y-74825278D01*
X79027628Y-74825428D01*
X79090278Y-74858915D01*
X79090604Y-74859133D01*
X79145521Y-74904202D01*
X79145798Y-74904479D01*
X79190867Y-74959396D01*
X79191085Y-74959722D01*
X79224572Y-75022372D01*
X79224722Y-75022734D01*
X79245346Y-75090721D01*
X79245422Y-75091106D01*
X79252990Y-75167944D01*
X79253000Y-75168140D01*
X79253000Y-75224500D01*
X79252000Y-75226232D01*
X79250000Y-75226232D01*
X79249010Y-75224696D01*
X79240854Y-75141884D01*
X79216754Y-75062437D01*
X79177619Y-74989221D01*
X79124953Y-74925047D01*
X79060779Y-74872381D01*
X78987563Y-74833246D01*
X78908116Y-74809146D01*
X78825304Y-74800990D01*
X78823678Y-74799825D01*
X78823874Y-74797835D01*
X78825500Y-74797000D01*
X78881860Y-74797000D01*
X78882056Y-74797010D01*
G37*
G36*
X58196232Y-73844800D02*
G01*
X58196232Y-73846800D01*
X58194696Y-73847790D01*
X58111884Y-73855946D01*
X58032437Y-73880046D01*
X57959221Y-73919181D01*
X57895047Y-73971847D01*
X57842381Y-74036021D01*
X57803246Y-74109237D01*
X57779146Y-74188684D01*
X57770990Y-74271496D01*
X57769825Y-74273122D01*
X57767835Y-74272926D01*
X57767000Y-74271300D01*
X57767000Y-74214940D01*
X57767010Y-74214744D01*
X57774578Y-74137906D01*
X57774654Y-74137521D01*
X57795278Y-74069534D01*
X57795428Y-74069172D01*
X57828915Y-74006522D01*
X57829133Y-74006196D01*
X57874202Y-73951279D01*
X57874479Y-73951002D01*
X57929396Y-73905933D01*
X57929722Y-73905715D01*
X57992372Y-73872228D01*
X57992734Y-73872078D01*
X58060721Y-73851454D01*
X58061106Y-73851378D01*
X58137944Y-73843810D01*
X58138140Y-73843800D01*
X58194500Y-73843800D01*
X58196232Y-73844800D01*
G37*
G36*
X59102056Y-73843810D02*
G01*
X59178894Y-73851378D01*
X59179279Y-73851454D01*
X59247266Y-73872078D01*
X59247628Y-73872228D01*
X59310278Y-73905715D01*
X59310604Y-73905933D01*
X59365521Y-73951002D01*
X59365798Y-73951279D01*
X59410867Y-74006196D01*
X59411085Y-74006522D01*
X59444572Y-74069172D01*
X59444722Y-74069534D01*
X59465346Y-74137521D01*
X59465422Y-74137906D01*
X59472990Y-74214744D01*
X59473000Y-74214940D01*
X59473000Y-74271300D01*
X59472000Y-74273032D01*
X59470000Y-74273032D01*
X59469010Y-74271496D01*
X59460854Y-74188684D01*
X59436754Y-74109237D01*
X59397619Y-74036021D01*
X59344953Y-73971847D01*
X59280779Y-73919181D01*
X59207563Y-73880046D01*
X59128116Y-73855946D01*
X59045304Y-73847790D01*
X59043678Y-73846625D01*
X59043874Y-73844635D01*
X59045500Y-73843800D01*
X59101860Y-73843800D01*
X59102056Y-73843810D01*
G37*
G36*
X73436232Y-73806700D02*
G01*
X73436232Y-73808700D01*
X73434696Y-73809690D01*
X73351884Y-73817846D01*
X73272437Y-73841946D01*
X73199221Y-73881081D01*
X73135047Y-73933747D01*
X73082381Y-73997921D01*
X73043246Y-74071137D01*
X73019146Y-74150584D01*
X73010990Y-74233396D01*
X73009825Y-74235022D01*
X73007835Y-74234826D01*
X73007000Y-74233200D01*
X73007000Y-74176840D01*
X73007010Y-74176644D01*
X73014578Y-74099806D01*
X73014654Y-74099421D01*
X73035278Y-74031434D01*
X73035428Y-74031072D01*
X73068915Y-73968422D01*
X73069133Y-73968096D01*
X73114202Y-73913179D01*
X73114479Y-73912902D01*
X73169396Y-73867833D01*
X73169722Y-73867615D01*
X73232372Y-73834128D01*
X73232734Y-73833978D01*
X73300721Y-73813354D01*
X73301106Y-73813278D01*
X73377944Y-73805710D01*
X73378140Y-73805700D01*
X73434500Y-73805700D01*
X73436232Y-73806700D01*
G37*
G36*
X60698132Y-73806700D02*
G01*
X60698132Y-73808700D01*
X60696596Y-73809690D01*
X60613784Y-73817846D01*
X60534337Y-73841946D01*
X60461121Y-73881081D01*
X60396947Y-73933747D01*
X60344281Y-73997921D01*
X60305146Y-74071137D01*
X60281046Y-74150584D01*
X60272890Y-74233396D01*
X60271725Y-74235022D01*
X60269735Y-74234826D01*
X60268900Y-74233200D01*
X60268900Y-74176840D01*
X60268910Y-74176644D01*
X60276478Y-74099806D01*
X60276554Y-74099421D01*
X60297178Y-74031434D01*
X60297328Y-74031072D01*
X60330815Y-73968422D01*
X60331033Y-73968096D01*
X60376102Y-73913179D01*
X60376379Y-73912902D01*
X60431296Y-73867833D01*
X60431622Y-73867615D01*
X60494272Y-73834128D01*
X60494634Y-73833978D01*
X60562621Y-73813354D01*
X60563006Y-73813278D01*
X60639844Y-73805710D01*
X60640040Y-73805700D01*
X60696400Y-73805700D01*
X60698132Y-73806700D01*
G37*
G36*
X70896232Y-73806700D02*
G01*
X70896232Y-73808700D01*
X70894696Y-73809690D01*
X70811884Y-73817846D01*
X70732437Y-73841946D01*
X70659221Y-73881081D01*
X70595047Y-73933747D01*
X70542381Y-73997921D01*
X70503246Y-74071137D01*
X70479146Y-74150584D01*
X70470990Y-74233396D01*
X70469825Y-74235022D01*
X70467835Y-74234826D01*
X70467000Y-74233200D01*
X70467000Y-74176840D01*
X70467010Y-74176644D01*
X70474578Y-74099806D01*
X70474654Y-74099421D01*
X70495278Y-74031434D01*
X70495428Y-74031072D01*
X70528915Y-73968422D01*
X70529133Y-73968096D01*
X70574202Y-73913179D01*
X70574479Y-73912902D01*
X70629396Y-73867833D01*
X70629722Y-73867615D01*
X70692372Y-73834128D01*
X70692734Y-73833978D01*
X70760721Y-73813354D01*
X70761106Y-73813278D01*
X70837944Y-73805710D01*
X70838140Y-73805700D01*
X70894500Y-73805700D01*
X70896232Y-73806700D01*
G37*
G36*
X61603956Y-73805710D02*
G01*
X61680794Y-73813278D01*
X61681179Y-73813354D01*
X61749166Y-73833978D01*
X61749528Y-73834128D01*
X61812178Y-73867615D01*
X61812504Y-73867833D01*
X61867421Y-73912902D01*
X61867698Y-73913179D01*
X61912767Y-73968096D01*
X61912985Y-73968422D01*
X61946472Y-74031072D01*
X61946622Y-74031434D01*
X61967246Y-74099421D01*
X61967322Y-74099806D01*
X61974890Y-74176644D01*
X61974900Y-74176840D01*
X61974900Y-74233200D01*
X61973900Y-74234932D01*
X61971900Y-74234932D01*
X61970910Y-74233396D01*
X61962754Y-74150584D01*
X61938654Y-74071137D01*
X61899519Y-73997921D01*
X61846853Y-73933747D01*
X61782679Y-73881081D01*
X61709463Y-73841946D01*
X61630016Y-73817846D01*
X61547204Y-73809690D01*
X61545578Y-73808525D01*
X61545774Y-73806535D01*
X61547400Y-73805700D01*
X61603760Y-73805700D01*
X61603956Y-73805710D01*
G37*
G36*
X74342056Y-73805710D02*
G01*
X74418894Y-73813278D01*
X74419279Y-73813354D01*
X74487266Y-73833978D01*
X74487628Y-73834128D01*
X74550278Y-73867615D01*
X74550604Y-73867833D01*
X74605521Y-73912902D01*
X74605798Y-73913179D01*
X74650867Y-73968096D01*
X74651085Y-73968422D01*
X74684572Y-74031072D01*
X74684722Y-74031434D01*
X74705346Y-74099421D01*
X74705422Y-74099806D01*
X74712990Y-74176644D01*
X74713000Y-74176840D01*
X74713000Y-74233200D01*
X74712000Y-74234932D01*
X74710000Y-74234932D01*
X74709010Y-74233396D01*
X74700854Y-74150584D01*
X74676754Y-74071137D01*
X74637619Y-73997921D01*
X74584953Y-73933747D01*
X74520779Y-73881081D01*
X74447563Y-73841946D01*
X74368116Y-73817846D01*
X74285304Y-73809690D01*
X74283678Y-73808525D01*
X74283874Y-73806535D01*
X74285500Y-73805700D01*
X74341860Y-73805700D01*
X74342056Y-73805710D01*
G37*
G36*
X71802056Y-73805710D02*
G01*
X71878894Y-73813278D01*
X71879279Y-73813354D01*
X71947266Y-73833978D01*
X71947628Y-73834128D01*
X72010278Y-73867615D01*
X72010604Y-73867833D01*
X72065521Y-73912902D01*
X72065798Y-73913179D01*
X72110867Y-73968096D01*
X72111085Y-73968422D01*
X72144572Y-74031072D01*
X72144722Y-74031434D01*
X72165346Y-74099421D01*
X72165422Y-74099806D01*
X72172990Y-74176644D01*
X72173000Y-74176840D01*
X72173000Y-74233200D01*
X72172000Y-74234932D01*
X72170000Y-74234932D01*
X72169010Y-74233396D01*
X72160854Y-74150584D01*
X72136754Y-74071137D01*
X72097619Y-73997921D01*
X72044953Y-73933747D01*
X71980779Y-73881081D01*
X71907563Y-73841946D01*
X71828116Y-73817846D01*
X71745304Y-73809690D01*
X71743678Y-73808525D01*
X71743874Y-73806535D01*
X71745500Y-73805700D01*
X71801860Y-73805700D01*
X71802056Y-73805710D01*
G37*
G36*
X77550990Y-73535304D02*
G01*
X77559146Y-73618116D01*
X77583246Y-73697563D01*
X77622381Y-73770779D01*
X77675047Y-73834953D01*
X77739221Y-73887619D01*
X77812437Y-73926754D01*
X77891884Y-73950854D01*
X77974696Y-73959010D01*
X77976322Y-73960175D01*
X77976126Y-73962165D01*
X77974500Y-73963000D01*
X77918140Y-73963000D01*
X77917944Y-73962990D01*
X77841106Y-73955422D01*
X77840721Y-73955346D01*
X77772734Y-73934722D01*
X77772372Y-73934572D01*
X77709722Y-73901085D01*
X77709396Y-73900867D01*
X77654479Y-73855798D01*
X77654202Y-73855521D01*
X77609133Y-73800604D01*
X77608915Y-73800278D01*
X77575428Y-73737628D01*
X77575278Y-73737266D01*
X77554654Y-73669279D01*
X77554578Y-73668894D01*
X77547010Y-73592056D01*
X77547000Y-73591860D01*
X77547000Y-73535500D01*
X77548000Y-73533768D01*
X77550000Y-73533768D01*
X77550990Y-73535304D01*
G37*
G36*
X79252165Y-73533874D02*
G01*
X79253000Y-73535500D01*
X79253000Y-73591860D01*
X79252990Y-73592056D01*
X79245422Y-73668894D01*
X79245346Y-73669279D01*
X79224722Y-73737266D01*
X79224572Y-73737628D01*
X79191085Y-73800278D01*
X79190867Y-73800604D01*
X79145798Y-73855521D01*
X79145521Y-73855798D01*
X79090604Y-73900867D01*
X79090278Y-73901085D01*
X79027628Y-73934572D01*
X79027266Y-73934722D01*
X78959279Y-73955346D01*
X78958894Y-73955422D01*
X78882056Y-73962990D01*
X78881860Y-73963000D01*
X78825500Y-73963000D01*
X78823768Y-73962000D01*
X78823768Y-73960000D01*
X78825304Y-73959010D01*
X78908116Y-73950854D01*
X78987563Y-73926754D01*
X79060779Y-73887619D01*
X79124953Y-73834953D01*
X79177619Y-73770779D01*
X79216754Y-73697563D01*
X79240854Y-73618116D01*
X79249010Y-73535304D01*
X79250175Y-73533678D01*
X79252165Y-73533874D01*
G37*
G36*
X80090990Y-73535304D02*
G01*
X80099146Y-73618116D01*
X80123246Y-73697563D01*
X80162381Y-73770779D01*
X80215047Y-73834953D01*
X80279221Y-73887619D01*
X80352437Y-73926754D01*
X80431884Y-73950854D01*
X80514696Y-73959010D01*
X80516322Y-73960175D01*
X80516126Y-73962165D01*
X80514500Y-73963000D01*
X80458140Y-73963000D01*
X80457944Y-73962990D01*
X80381106Y-73955422D01*
X80380721Y-73955346D01*
X80312734Y-73934722D01*
X80312372Y-73934572D01*
X80249722Y-73901085D01*
X80249396Y-73900867D01*
X80194479Y-73855798D01*
X80194202Y-73855521D01*
X80149133Y-73800604D01*
X80148915Y-73800278D01*
X80115428Y-73737628D01*
X80115278Y-73737266D01*
X80094654Y-73669279D01*
X80094578Y-73668894D01*
X80087010Y-73592056D01*
X80087000Y-73591860D01*
X80087000Y-73535500D01*
X80088000Y-73533768D01*
X80090000Y-73533768D01*
X80090990Y-73535304D01*
G37*
G36*
X81792165Y-73533874D02*
G01*
X81793000Y-73535500D01*
X81793000Y-73591860D01*
X81792990Y-73592056D01*
X81785422Y-73668894D01*
X81785346Y-73669279D01*
X81764722Y-73737266D01*
X81764572Y-73737628D01*
X81731085Y-73800278D01*
X81730867Y-73800604D01*
X81685798Y-73855521D01*
X81685521Y-73855798D01*
X81630604Y-73900867D01*
X81630278Y-73901085D01*
X81567628Y-73934572D01*
X81567266Y-73934722D01*
X81499279Y-73955346D01*
X81498894Y-73955422D01*
X81422056Y-73962990D01*
X81421860Y-73963000D01*
X81365500Y-73963000D01*
X81363768Y-73962000D01*
X81363768Y-73960000D01*
X81365304Y-73959010D01*
X81448116Y-73950854D01*
X81527563Y-73926754D01*
X81600779Y-73887619D01*
X81664953Y-73834953D01*
X81717619Y-73770779D01*
X81756754Y-73697563D01*
X81780854Y-73618116D01*
X81789010Y-73535304D01*
X81790175Y-73533678D01*
X81792165Y-73533874D01*
G37*
G36*
X77976232Y-72258000D02*
G01*
X77976232Y-72260000D01*
X77974696Y-72260990D01*
X77891884Y-72269146D01*
X77812437Y-72293246D01*
X77739221Y-72332381D01*
X77675047Y-72385047D01*
X77622381Y-72449221D01*
X77583246Y-72522437D01*
X77559146Y-72601884D01*
X77550990Y-72684696D01*
X77549825Y-72686322D01*
X77547835Y-72686126D01*
X77547000Y-72684500D01*
X77547000Y-72628140D01*
X77547010Y-72627944D01*
X77554578Y-72551106D01*
X77554654Y-72550721D01*
X77575278Y-72482734D01*
X77575428Y-72482372D01*
X77608915Y-72419722D01*
X77609133Y-72419396D01*
X77654202Y-72364479D01*
X77654479Y-72364202D01*
X77709396Y-72319133D01*
X77709722Y-72318915D01*
X77772372Y-72285428D01*
X77772734Y-72285278D01*
X77840721Y-72264654D01*
X77841106Y-72264578D01*
X77917944Y-72257010D01*
X77918140Y-72257000D01*
X77974500Y-72257000D01*
X77976232Y-72258000D01*
G37*
G36*
X80516232Y-72258000D02*
G01*
X80516232Y-72260000D01*
X80514696Y-72260990D01*
X80431884Y-72269146D01*
X80352437Y-72293246D01*
X80279221Y-72332381D01*
X80215047Y-72385047D01*
X80162381Y-72449221D01*
X80123246Y-72522437D01*
X80099146Y-72601884D01*
X80090990Y-72684696D01*
X80089825Y-72686322D01*
X80087835Y-72686126D01*
X80087000Y-72684500D01*
X80087000Y-72628140D01*
X80087010Y-72627944D01*
X80094578Y-72551106D01*
X80094654Y-72550721D01*
X80115278Y-72482734D01*
X80115428Y-72482372D01*
X80148915Y-72419722D01*
X80149133Y-72419396D01*
X80194202Y-72364479D01*
X80194479Y-72364202D01*
X80249396Y-72319133D01*
X80249722Y-72318915D01*
X80312372Y-72285428D01*
X80312734Y-72285278D01*
X80380721Y-72264654D01*
X80381106Y-72264578D01*
X80457944Y-72257010D01*
X80458140Y-72257000D01*
X80514500Y-72257000D01*
X80516232Y-72258000D01*
G37*
G36*
X81422056Y-72257010D02*
G01*
X81498894Y-72264578D01*
X81499279Y-72264654D01*
X81567266Y-72285278D01*
X81567628Y-72285428D01*
X81630278Y-72318915D01*
X81630604Y-72319133D01*
X81685521Y-72364202D01*
X81685798Y-72364479D01*
X81730867Y-72419396D01*
X81731085Y-72419722D01*
X81764572Y-72482372D01*
X81764722Y-72482734D01*
X81785346Y-72550721D01*
X81785422Y-72551106D01*
X81792990Y-72627944D01*
X81793000Y-72628140D01*
X81793000Y-72684500D01*
X81792000Y-72686232D01*
X81790000Y-72686232D01*
X81789010Y-72684696D01*
X81780854Y-72601884D01*
X81756754Y-72522437D01*
X81717619Y-72449221D01*
X81664953Y-72385047D01*
X81600779Y-72332381D01*
X81527563Y-72293246D01*
X81448116Y-72269146D01*
X81365304Y-72260990D01*
X81363678Y-72259825D01*
X81363874Y-72257835D01*
X81365500Y-72257000D01*
X81421860Y-72257000D01*
X81422056Y-72257010D01*
G37*
G36*
X78882056Y-72257010D02*
G01*
X78958894Y-72264578D01*
X78959279Y-72264654D01*
X79027266Y-72285278D01*
X79027628Y-72285428D01*
X79090278Y-72318915D01*
X79090604Y-72319133D01*
X79145521Y-72364202D01*
X79145798Y-72364479D01*
X79190867Y-72419396D01*
X79191085Y-72419722D01*
X79224572Y-72482372D01*
X79224722Y-72482734D01*
X79245346Y-72550721D01*
X79245422Y-72551106D01*
X79252990Y-72627944D01*
X79253000Y-72628140D01*
X79253000Y-72684500D01*
X79252000Y-72686232D01*
X79250000Y-72686232D01*
X79249010Y-72684696D01*
X79240854Y-72601884D01*
X79216754Y-72522437D01*
X79177619Y-72449221D01*
X79124953Y-72385047D01*
X79060779Y-72332381D01*
X78987563Y-72293246D01*
X78908116Y-72269146D01*
X78825304Y-72260990D01*
X78823678Y-72259825D01*
X78823874Y-72257835D01*
X78825500Y-72257000D01*
X78881860Y-72257000D01*
X78882056Y-72257010D01*
G37*
G36*
X79252165Y-70993874D02*
G01*
X79253000Y-70995500D01*
X79253000Y-71051860D01*
X79252990Y-71052056D01*
X79245422Y-71128894D01*
X79245346Y-71129279D01*
X79224722Y-71197266D01*
X79224572Y-71197628D01*
X79191085Y-71260278D01*
X79190867Y-71260604D01*
X79145798Y-71315521D01*
X79145521Y-71315798D01*
X79090604Y-71360867D01*
X79090278Y-71361085D01*
X79027628Y-71394572D01*
X79027266Y-71394722D01*
X78959279Y-71415346D01*
X78958894Y-71415422D01*
X78882056Y-71422990D01*
X78881860Y-71423000D01*
X78825500Y-71423000D01*
X78823768Y-71422000D01*
X78823768Y-71420000D01*
X78825304Y-71419010D01*
X78908116Y-71410854D01*
X78987563Y-71386754D01*
X79060779Y-71347619D01*
X79124953Y-71294953D01*
X79177619Y-71230779D01*
X79216754Y-71157563D01*
X79240854Y-71078116D01*
X79249010Y-70995304D01*
X79250175Y-70993678D01*
X79252165Y-70993874D01*
G37*
G36*
X77550990Y-70995304D02*
G01*
X77559146Y-71078116D01*
X77583246Y-71157563D01*
X77622381Y-71230779D01*
X77675047Y-71294953D01*
X77739221Y-71347619D01*
X77812437Y-71386754D01*
X77891884Y-71410854D01*
X77974696Y-71419010D01*
X77976322Y-71420175D01*
X77976126Y-71422165D01*
X77974500Y-71423000D01*
X77918140Y-71423000D01*
X77917944Y-71422990D01*
X77841106Y-71415422D01*
X77840721Y-71415346D01*
X77772734Y-71394722D01*
X77772372Y-71394572D01*
X77709722Y-71361085D01*
X77709396Y-71360867D01*
X77654479Y-71315798D01*
X77654202Y-71315521D01*
X77609133Y-71260604D01*
X77608915Y-71260278D01*
X77575428Y-71197628D01*
X77575278Y-71197266D01*
X77554654Y-71129279D01*
X77554578Y-71128894D01*
X77547010Y-71052056D01*
X77547000Y-71051860D01*
X77547000Y-70995500D01*
X77548000Y-70993768D01*
X77550000Y-70993768D01*
X77550990Y-70995304D01*
G37*
G36*
X81792165Y-70993874D02*
G01*
X81793000Y-70995500D01*
X81793000Y-71051860D01*
X81792990Y-71052056D01*
X81785422Y-71128894D01*
X81785346Y-71129279D01*
X81764722Y-71197266D01*
X81764572Y-71197628D01*
X81731085Y-71260278D01*
X81730867Y-71260604D01*
X81685798Y-71315521D01*
X81685521Y-71315798D01*
X81630604Y-71360867D01*
X81630278Y-71361085D01*
X81567628Y-71394572D01*
X81567266Y-71394722D01*
X81499279Y-71415346D01*
X81498894Y-71415422D01*
X81422056Y-71422990D01*
X81421860Y-71423000D01*
X81365500Y-71423000D01*
X81363768Y-71422000D01*
X81363768Y-71420000D01*
X81365304Y-71419010D01*
X81448116Y-71410854D01*
X81527563Y-71386754D01*
X81600779Y-71347619D01*
X81664953Y-71294953D01*
X81717619Y-71230779D01*
X81756754Y-71157563D01*
X81780854Y-71078116D01*
X81789010Y-70995304D01*
X81790175Y-70993678D01*
X81792165Y-70993874D01*
G37*
G36*
X80090990Y-70995304D02*
G01*
X80099146Y-71078116D01*
X80123246Y-71157563D01*
X80162381Y-71230779D01*
X80215047Y-71294953D01*
X80279221Y-71347619D01*
X80352437Y-71386754D01*
X80431884Y-71410854D01*
X80514696Y-71419010D01*
X80516322Y-71420175D01*
X80516126Y-71422165D01*
X80514500Y-71423000D01*
X80458140Y-71423000D01*
X80457944Y-71422990D01*
X80381106Y-71415422D01*
X80380721Y-71415346D01*
X80312734Y-71394722D01*
X80312372Y-71394572D01*
X80249722Y-71361085D01*
X80249396Y-71360867D01*
X80194479Y-71315798D01*
X80194202Y-71315521D01*
X80149133Y-71260604D01*
X80148915Y-71260278D01*
X80115428Y-71197628D01*
X80115278Y-71197266D01*
X80094654Y-71129279D01*
X80094578Y-71128894D01*
X80087010Y-71052056D01*
X80087000Y-71051860D01*
X80087000Y-70995500D01*
X80088000Y-70993768D01*
X80090000Y-70993768D01*
X80090990Y-70995304D01*
G37*
G36*
X77976232Y-69718000D02*
G01*
X77976232Y-69720000D01*
X77974696Y-69720990D01*
X77891884Y-69729146D01*
X77812437Y-69753246D01*
X77739221Y-69792381D01*
X77675047Y-69845047D01*
X77622381Y-69909221D01*
X77583246Y-69982437D01*
X77559146Y-70061884D01*
X77550990Y-70144696D01*
X77549825Y-70146322D01*
X77547835Y-70146126D01*
X77547000Y-70144500D01*
X77547000Y-70088140D01*
X77547010Y-70087944D01*
X77554578Y-70011106D01*
X77554654Y-70010721D01*
X77575278Y-69942734D01*
X77575428Y-69942372D01*
X77608915Y-69879722D01*
X77609133Y-69879396D01*
X77654202Y-69824479D01*
X77654479Y-69824202D01*
X77709396Y-69779133D01*
X77709722Y-69778915D01*
X77772372Y-69745428D01*
X77772734Y-69745278D01*
X77840721Y-69724654D01*
X77841106Y-69724578D01*
X77917944Y-69717010D01*
X77918140Y-69717000D01*
X77974500Y-69717000D01*
X77976232Y-69718000D01*
G37*
G36*
X80516232Y-69718000D02*
G01*
X80516232Y-69720000D01*
X80514696Y-69720990D01*
X80431884Y-69729146D01*
X80352437Y-69753246D01*
X80279221Y-69792381D01*
X80215047Y-69845047D01*
X80162381Y-69909221D01*
X80123246Y-69982437D01*
X80099146Y-70061884D01*
X80090990Y-70144696D01*
X80089825Y-70146322D01*
X80087835Y-70146126D01*
X80087000Y-70144500D01*
X80087000Y-70088140D01*
X80087010Y-70087944D01*
X80094578Y-70011106D01*
X80094654Y-70010721D01*
X80115278Y-69942734D01*
X80115428Y-69942372D01*
X80148915Y-69879722D01*
X80149133Y-69879396D01*
X80194202Y-69824479D01*
X80194479Y-69824202D01*
X80249396Y-69779133D01*
X80249722Y-69778915D01*
X80312372Y-69745428D01*
X80312734Y-69745278D01*
X80380721Y-69724654D01*
X80381106Y-69724578D01*
X80457944Y-69717010D01*
X80458140Y-69717000D01*
X80514500Y-69717000D01*
X80516232Y-69718000D01*
G37*
G36*
X78882056Y-69717010D02*
G01*
X78958894Y-69724578D01*
X78959279Y-69724654D01*
X79027266Y-69745278D01*
X79027628Y-69745428D01*
X79090278Y-69778915D01*
X79090604Y-69779133D01*
X79145521Y-69824202D01*
X79145798Y-69824479D01*
X79190867Y-69879396D01*
X79191085Y-69879722D01*
X79224572Y-69942372D01*
X79224722Y-69942734D01*
X79245346Y-70010721D01*
X79245422Y-70011106D01*
X79252990Y-70087944D01*
X79253000Y-70088140D01*
X79253000Y-70144500D01*
X79252000Y-70146232D01*
X79250000Y-70146232D01*
X79249010Y-70144696D01*
X79240854Y-70061884D01*
X79216754Y-69982437D01*
X79177619Y-69909221D01*
X79124953Y-69845047D01*
X79060779Y-69792381D01*
X78987563Y-69753246D01*
X78908116Y-69729146D01*
X78825304Y-69720990D01*
X78823678Y-69719825D01*
X78823874Y-69717835D01*
X78825500Y-69717000D01*
X78881860Y-69717000D01*
X78882056Y-69717010D01*
G37*
G36*
X81422056Y-69717010D02*
G01*
X81498894Y-69724578D01*
X81499279Y-69724654D01*
X81567266Y-69745278D01*
X81567628Y-69745428D01*
X81630278Y-69778915D01*
X81630604Y-69779133D01*
X81685521Y-69824202D01*
X81685798Y-69824479D01*
X81730867Y-69879396D01*
X81731085Y-69879722D01*
X81764572Y-69942372D01*
X81764722Y-69942734D01*
X81785346Y-70010721D01*
X81785422Y-70011106D01*
X81792990Y-70087944D01*
X81793000Y-70088140D01*
X81793000Y-70144500D01*
X81792000Y-70146232D01*
X81790000Y-70146232D01*
X81789010Y-70144696D01*
X81780854Y-70061884D01*
X81756754Y-69982437D01*
X81717619Y-69909221D01*
X81664953Y-69845047D01*
X81600779Y-69792381D01*
X81527563Y-69753246D01*
X81448116Y-69729146D01*
X81365304Y-69720990D01*
X81363678Y-69719825D01*
X81363874Y-69717835D01*
X81365500Y-69717000D01*
X81421860Y-69717000D01*
X81422056Y-69717010D01*
G37*
G36*
X79252165Y-68453874D02*
G01*
X79253000Y-68455500D01*
X79253000Y-68511860D01*
X79252990Y-68512056D01*
X79245422Y-68588894D01*
X79245346Y-68589279D01*
X79224722Y-68657266D01*
X79224572Y-68657628D01*
X79191085Y-68720278D01*
X79190867Y-68720604D01*
X79145798Y-68775521D01*
X79145521Y-68775798D01*
X79090604Y-68820867D01*
X79090278Y-68821085D01*
X79027628Y-68854572D01*
X79027266Y-68854722D01*
X78959279Y-68875346D01*
X78958894Y-68875422D01*
X78882056Y-68882990D01*
X78881860Y-68883000D01*
X78825500Y-68883000D01*
X78823768Y-68882000D01*
X78823768Y-68880000D01*
X78825304Y-68879010D01*
X78908116Y-68870854D01*
X78987563Y-68846754D01*
X79060779Y-68807619D01*
X79124953Y-68754953D01*
X79177619Y-68690779D01*
X79216754Y-68617563D01*
X79240854Y-68538116D01*
X79249010Y-68455304D01*
X79250175Y-68453678D01*
X79252165Y-68453874D01*
G37*
G36*
X77550990Y-68455304D02*
G01*
X77559146Y-68538116D01*
X77583246Y-68617563D01*
X77622381Y-68690779D01*
X77675047Y-68754953D01*
X77739221Y-68807619D01*
X77812437Y-68846754D01*
X77891884Y-68870854D01*
X77974696Y-68879010D01*
X77976322Y-68880175D01*
X77976126Y-68882165D01*
X77974500Y-68883000D01*
X77918140Y-68883000D01*
X77917944Y-68882990D01*
X77841106Y-68875422D01*
X77840721Y-68875346D01*
X77772734Y-68854722D01*
X77772372Y-68854572D01*
X77709722Y-68821085D01*
X77709396Y-68820867D01*
X77654479Y-68775798D01*
X77654202Y-68775521D01*
X77609133Y-68720604D01*
X77608915Y-68720278D01*
X77575428Y-68657628D01*
X77575278Y-68657266D01*
X77554654Y-68589279D01*
X77554578Y-68588894D01*
X77547010Y-68512056D01*
X77547000Y-68511860D01*
X77547000Y-68455500D01*
X77548000Y-68453768D01*
X77550000Y-68453768D01*
X77550990Y-68455304D01*
G37*
G36*
X81792165Y-68453874D02*
G01*
X81793000Y-68455500D01*
X81793000Y-68511860D01*
X81792990Y-68512056D01*
X81785422Y-68588894D01*
X81785346Y-68589279D01*
X81764722Y-68657266D01*
X81764572Y-68657628D01*
X81731085Y-68720278D01*
X81730867Y-68720604D01*
X81685798Y-68775521D01*
X81685521Y-68775798D01*
X81630604Y-68820867D01*
X81630278Y-68821085D01*
X81567628Y-68854572D01*
X81567266Y-68854722D01*
X81499279Y-68875346D01*
X81498894Y-68875422D01*
X81422056Y-68882990D01*
X81421860Y-68883000D01*
X81365500Y-68883000D01*
X81363768Y-68882000D01*
X81363768Y-68880000D01*
X81365304Y-68879010D01*
X81448116Y-68870854D01*
X81527563Y-68846754D01*
X81600779Y-68807619D01*
X81664953Y-68754953D01*
X81717619Y-68690779D01*
X81756754Y-68617563D01*
X81780854Y-68538116D01*
X81789010Y-68455304D01*
X81790175Y-68453678D01*
X81792165Y-68453874D01*
G37*
G36*
X80090990Y-68455304D02*
G01*
X80099146Y-68538116D01*
X80123246Y-68617563D01*
X80162381Y-68690779D01*
X80215047Y-68754953D01*
X80279221Y-68807619D01*
X80352437Y-68846754D01*
X80431884Y-68870854D01*
X80514696Y-68879010D01*
X80516322Y-68880175D01*
X80516126Y-68882165D01*
X80514500Y-68883000D01*
X80458140Y-68883000D01*
X80457944Y-68882990D01*
X80381106Y-68875422D01*
X80380721Y-68875346D01*
X80312734Y-68854722D01*
X80312372Y-68854572D01*
X80249722Y-68821085D01*
X80249396Y-68820867D01*
X80194479Y-68775798D01*
X80194202Y-68775521D01*
X80149133Y-68720604D01*
X80148915Y-68720278D01*
X80115428Y-68657628D01*
X80115278Y-68657266D01*
X80094654Y-68589279D01*
X80094578Y-68588894D01*
X80087010Y-68512056D01*
X80087000Y-68511860D01*
X80087000Y-68455500D01*
X80088000Y-68453768D01*
X80090000Y-68453768D01*
X80090990Y-68455304D01*
G37*
G36*
X80516232Y-67178000D02*
G01*
X80516232Y-67180000D01*
X80514696Y-67180990D01*
X80431884Y-67189146D01*
X80352437Y-67213246D01*
X80279221Y-67252381D01*
X80215047Y-67305047D01*
X80162381Y-67369221D01*
X80123246Y-67442437D01*
X80099146Y-67521884D01*
X80090990Y-67604696D01*
X80089825Y-67606322D01*
X80087835Y-67606126D01*
X80087000Y-67604500D01*
X80087000Y-67548140D01*
X80087010Y-67547944D01*
X80094578Y-67471106D01*
X80094654Y-67470721D01*
X80115278Y-67402734D01*
X80115428Y-67402372D01*
X80148915Y-67339722D01*
X80149133Y-67339396D01*
X80194202Y-67284479D01*
X80194479Y-67284202D01*
X80249396Y-67239133D01*
X80249722Y-67238915D01*
X80312372Y-67205428D01*
X80312734Y-67205278D01*
X80380721Y-67184654D01*
X80381106Y-67184578D01*
X80457944Y-67177010D01*
X80458140Y-67177000D01*
X80514500Y-67177000D01*
X80516232Y-67178000D01*
G37*
G36*
X77976232Y-67178000D02*
G01*
X77976232Y-67180000D01*
X77974696Y-67180990D01*
X77891884Y-67189146D01*
X77812437Y-67213246D01*
X77739221Y-67252381D01*
X77675047Y-67305047D01*
X77622381Y-67369221D01*
X77583246Y-67442437D01*
X77559146Y-67521884D01*
X77550990Y-67604696D01*
X77549825Y-67606322D01*
X77547835Y-67606126D01*
X77547000Y-67604500D01*
X77547000Y-67548140D01*
X77547010Y-67547944D01*
X77554578Y-67471106D01*
X77554654Y-67470721D01*
X77575278Y-67402734D01*
X77575428Y-67402372D01*
X77608915Y-67339722D01*
X77609133Y-67339396D01*
X77654202Y-67284479D01*
X77654479Y-67284202D01*
X77709396Y-67239133D01*
X77709722Y-67238915D01*
X77772372Y-67205428D01*
X77772734Y-67205278D01*
X77840721Y-67184654D01*
X77841106Y-67184578D01*
X77917944Y-67177010D01*
X77918140Y-67177000D01*
X77974500Y-67177000D01*
X77976232Y-67178000D01*
G37*
G36*
X81422056Y-67177010D02*
G01*
X81498894Y-67184578D01*
X81499279Y-67184654D01*
X81567266Y-67205278D01*
X81567628Y-67205428D01*
X81630278Y-67238915D01*
X81630604Y-67239133D01*
X81685521Y-67284202D01*
X81685798Y-67284479D01*
X81730867Y-67339396D01*
X81731085Y-67339722D01*
X81764572Y-67402372D01*
X81764722Y-67402734D01*
X81785346Y-67470721D01*
X81785422Y-67471106D01*
X81792990Y-67547944D01*
X81793000Y-67548140D01*
X81793000Y-67604500D01*
X81792000Y-67606232D01*
X81790000Y-67606232D01*
X81789010Y-67604696D01*
X81780854Y-67521884D01*
X81756754Y-67442437D01*
X81717619Y-67369221D01*
X81664953Y-67305047D01*
X81600779Y-67252381D01*
X81527563Y-67213246D01*
X81448116Y-67189146D01*
X81365304Y-67180990D01*
X81363678Y-67179825D01*
X81363874Y-67177835D01*
X81365500Y-67177000D01*
X81421860Y-67177000D01*
X81422056Y-67177010D01*
G37*
G36*
X78882056Y-67177010D02*
G01*
X78958894Y-67184578D01*
X78959279Y-67184654D01*
X79027266Y-67205278D01*
X79027628Y-67205428D01*
X79090278Y-67238915D01*
X79090604Y-67239133D01*
X79145521Y-67284202D01*
X79145798Y-67284479D01*
X79190867Y-67339396D01*
X79191085Y-67339722D01*
X79224572Y-67402372D01*
X79224722Y-67402734D01*
X79245346Y-67470721D01*
X79245422Y-67471106D01*
X79252990Y-67547944D01*
X79253000Y-67548140D01*
X79253000Y-67604500D01*
X79252000Y-67606232D01*
X79250000Y-67606232D01*
X79249010Y-67604696D01*
X79240854Y-67521884D01*
X79216754Y-67442437D01*
X79177619Y-67369221D01*
X79124953Y-67305047D01*
X79060779Y-67252381D01*
X78987563Y-67213246D01*
X78908116Y-67189146D01*
X78825304Y-67180990D01*
X78823678Y-67179825D01*
X78823874Y-67177835D01*
X78825500Y-67177000D01*
X78881860Y-67177000D01*
X78882056Y-67177010D01*
G37*
G36*
X81792165Y-65913874D02*
G01*
X81793000Y-65915500D01*
X81793000Y-65971860D01*
X81792990Y-65972056D01*
X81785422Y-66048894D01*
X81785346Y-66049279D01*
X81764722Y-66117266D01*
X81764572Y-66117628D01*
X81731085Y-66180278D01*
X81730867Y-66180604D01*
X81685798Y-66235521D01*
X81685521Y-66235798D01*
X81630604Y-66280867D01*
X81630278Y-66281085D01*
X81567628Y-66314572D01*
X81567266Y-66314722D01*
X81499279Y-66335346D01*
X81498894Y-66335422D01*
X81422056Y-66342990D01*
X81421860Y-66343000D01*
X81365500Y-66343000D01*
X81363768Y-66342000D01*
X81363768Y-66340000D01*
X81365304Y-66339010D01*
X81448116Y-66330854D01*
X81527563Y-66306754D01*
X81600779Y-66267619D01*
X81664953Y-66214953D01*
X81717619Y-66150779D01*
X81756754Y-66077563D01*
X81780854Y-65998116D01*
X81789010Y-65915304D01*
X81790175Y-65913678D01*
X81792165Y-65913874D01*
G37*
G36*
X80090990Y-65915304D02*
G01*
X80099146Y-65998116D01*
X80123246Y-66077563D01*
X80162381Y-66150779D01*
X80215047Y-66214953D01*
X80279221Y-66267619D01*
X80352437Y-66306754D01*
X80431884Y-66330854D01*
X80514696Y-66339010D01*
X80516322Y-66340175D01*
X80516126Y-66342165D01*
X80514500Y-66343000D01*
X80458140Y-66343000D01*
X80457944Y-66342990D01*
X80381106Y-66335422D01*
X80380721Y-66335346D01*
X80312734Y-66314722D01*
X80312372Y-66314572D01*
X80249722Y-66281085D01*
X80249396Y-66280867D01*
X80194479Y-66235798D01*
X80194202Y-66235521D01*
X80149133Y-66180604D01*
X80148915Y-66180278D01*
X80115428Y-66117628D01*
X80115278Y-66117266D01*
X80094654Y-66049279D01*
X80094578Y-66048894D01*
X80087010Y-65972056D01*
X80087000Y-65971860D01*
X80087000Y-65915500D01*
X80088000Y-65913768D01*
X80090000Y-65913768D01*
X80090990Y-65915304D01*
G37*
G36*
X77550990Y-65915304D02*
G01*
X77559146Y-65998116D01*
X77583246Y-66077563D01*
X77622381Y-66150779D01*
X77675047Y-66214953D01*
X77739221Y-66267619D01*
X77812437Y-66306754D01*
X77891884Y-66330854D01*
X77974696Y-66339010D01*
X77976322Y-66340175D01*
X77976126Y-66342165D01*
X77974500Y-66343000D01*
X77918140Y-66343000D01*
X77917944Y-66342990D01*
X77841106Y-66335422D01*
X77840721Y-66335346D01*
X77772734Y-66314722D01*
X77772372Y-66314572D01*
X77709722Y-66281085D01*
X77709396Y-66280867D01*
X77654479Y-66235798D01*
X77654202Y-66235521D01*
X77609133Y-66180604D01*
X77608915Y-66180278D01*
X77575428Y-66117628D01*
X77575278Y-66117266D01*
X77554654Y-66049279D01*
X77554578Y-66048894D01*
X77547010Y-65972056D01*
X77547000Y-65971860D01*
X77547000Y-65915500D01*
X77548000Y-65913768D01*
X77550000Y-65913768D01*
X77550990Y-65915304D01*
G37*
G36*
X79252165Y-65913874D02*
G01*
X79253000Y-65915500D01*
X79253000Y-65971860D01*
X79252990Y-65972056D01*
X79245422Y-66048894D01*
X79245346Y-66049279D01*
X79224722Y-66117266D01*
X79224572Y-66117628D01*
X79191085Y-66180278D01*
X79190867Y-66180604D01*
X79145798Y-66235521D01*
X79145521Y-66235798D01*
X79090604Y-66280867D01*
X79090278Y-66281085D01*
X79027628Y-66314572D01*
X79027266Y-66314722D01*
X78959279Y-66335346D01*
X78958894Y-66335422D01*
X78882056Y-66342990D01*
X78881860Y-66343000D01*
X78825500Y-66343000D01*
X78823768Y-66342000D01*
X78823768Y-66340000D01*
X78825304Y-66339010D01*
X78908116Y-66330854D01*
X78987563Y-66306754D01*
X79060779Y-66267619D01*
X79124953Y-66214953D01*
X79177619Y-66150779D01*
X79216754Y-66077563D01*
X79240854Y-65998116D01*
X79249010Y-65915304D01*
X79250175Y-65913678D01*
X79252165Y-65913874D01*
G37*
G36*
X80516232Y-64638000D02*
G01*
X80516232Y-64640000D01*
X80514696Y-64640990D01*
X80431884Y-64649146D01*
X80352437Y-64673246D01*
X80279221Y-64712381D01*
X80215047Y-64765047D01*
X80162381Y-64829221D01*
X80123246Y-64902437D01*
X80099146Y-64981884D01*
X80090990Y-65064696D01*
X80089825Y-65066322D01*
X80087835Y-65066126D01*
X80087000Y-65064500D01*
X80087000Y-65008140D01*
X80087010Y-65007944D01*
X80094578Y-64931106D01*
X80094654Y-64930721D01*
X80115278Y-64862734D01*
X80115428Y-64862372D01*
X80148915Y-64799722D01*
X80149133Y-64799396D01*
X80194202Y-64744479D01*
X80194479Y-64744202D01*
X80249396Y-64699133D01*
X80249722Y-64698915D01*
X80312372Y-64665428D01*
X80312734Y-64665278D01*
X80380721Y-64644654D01*
X80381106Y-64644578D01*
X80457944Y-64637010D01*
X80458140Y-64637000D01*
X80514500Y-64637000D01*
X80516232Y-64638000D01*
G37*
G36*
X77976232Y-64638000D02*
G01*
X77976232Y-64640000D01*
X77974696Y-64640990D01*
X77891884Y-64649146D01*
X77812437Y-64673246D01*
X77739221Y-64712381D01*
X77675047Y-64765047D01*
X77622381Y-64829221D01*
X77583246Y-64902437D01*
X77559146Y-64981884D01*
X77550990Y-65064696D01*
X77549825Y-65066322D01*
X77547835Y-65066126D01*
X77547000Y-65064500D01*
X77547000Y-65008140D01*
X77547010Y-65007944D01*
X77554578Y-64931106D01*
X77554654Y-64930721D01*
X77575278Y-64862734D01*
X77575428Y-64862372D01*
X77608915Y-64799722D01*
X77609133Y-64799396D01*
X77654202Y-64744479D01*
X77654479Y-64744202D01*
X77709396Y-64699133D01*
X77709722Y-64698915D01*
X77772372Y-64665428D01*
X77772734Y-64665278D01*
X77840721Y-64644654D01*
X77841106Y-64644578D01*
X77917944Y-64637010D01*
X77918140Y-64637000D01*
X77974500Y-64637000D01*
X77976232Y-64638000D01*
G37*
G36*
X78882056Y-64637010D02*
G01*
X78958894Y-64644578D01*
X78959279Y-64644654D01*
X79027266Y-64665278D01*
X79027628Y-64665428D01*
X79090278Y-64698915D01*
X79090604Y-64699133D01*
X79145521Y-64744202D01*
X79145798Y-64744479D01*
X79190867Y-64799396D01*
X79191085Y-64799722D01*
X79224572Y-64862372D01*
X79224722Y-64862734D01*
X79245346Y-64930721D01*
X79245422Y-64931106D01*
X79252990Y-65007944D01*
X79253000Y-65008140D01*
X79253000Y-65064500D01*
X79252000Y-65066232D01*
X79250000Y-65066232D01*
X79249010Y-65064696D01*
X79240854Y-64981884D01*
X79216754Y-64902437D01*
X79177619Y-64829221D01*
X79124953Y-64765047D01*
X79060779Y-64712381D01*
X78987563Y-64673246D01*
X78908116Y-64649146D01*
X78825304Y-64640990D01*
X78823678Y-64639825D01*
X78823874Y-64637835D01*
X78825500Y-64637000D01*
X78881860Y-64637000D01*
X78882056Y-64637010D01*
G37*
G36*
X81422056Y-64637010D02*
G01*
X81498894Y-64644578D01*
X81499279Y-64644654D01*
X81567266Y-64665278D01*
X81567628Y-64665428D01*
X81630278Y-64698915D01*
X81630604Y-64699133D01*
X81685521Y-64744202D01*
X81685798Y-64744479D01*
X81730867Y-64799396D01*
X81731085Y-64799722D01*
X81764572Y-64862372D01*
X81764722Y-64862734D01*
X81785346Y-64930721D01*
X81785422Y-64931106D01*
X81792990Y-65007944D01*
X81793000Y-65008140D01*
X81793000Y-65064500D01*
X81792000Y-65066232D01*
X81790000Y-65066232D01*
X81789010Y-65064696D01*
X81780854Y-64981884D01*
X81756754Y-64902437D01*
X81717619Y-64829221D01*
X81664953Y-64765047D01*
X81600779Y-64712381D01*
X81527563Y-64673246D01*
X81448116Y-64649146D01*
X81365304Y-64640990D01*
X81363678Y-64639825D01*
X81363874Y-64637835D01*
X81365500Y-64637000D01*
X81421860Y-64637000D01*
X81422056Y-64637010D01*
G37*
G36*
X80090990Y-63375304D02*
G01*
X80099146Y-63458116D01*
X80123246Y-63537563D01*
X80162381Y-63610779D01*
X80215047Y-63674953D01*
X80279221Y-63727619D01*
X80352437Y-63766754D01*
X80431884Y-63790854D01*
X80514696Y-63799010D01*
X80516322Y-63800175D01*
X80516126Y-63802165D01*
X80514500Y-63803000D01*
X80458140Y-63803000D01*
X80457944Y-63802990D01*
X80381106Y-63795422D01*
X80380721Y-63795346D01*
X80312734Y-63774722D01*
X80312372Y-63774572D01*
X80249722Y-63741085D01*
X80249396Y-63740867D01*
X80194479Y-63695798D01*
X80194202Y-63695521D01*
X80149133Y-63640604D01*
X80148915Y-63640278D01*
X80115428Y-63577628D01*
X80115278Y-63577266D01*
X80094654Y-63509279D01*
X80094578Y-63508894D01*
X80087010Y-63432056D01*
X80087000Y-63431860D01*
X80087000Y-63375500D01*
X80088000Y-63373768D01*
X80090000Y-63373768D01*
X80090990Y-63375304D01*
G37*
G36*
X81792165Y-63373874D02*
G01*
X81793000Y-63375500D01*
X81793000Y-63431860D01*
X81792990Y-63432056D01*
X81785422Y-63508894D01*
X81785346Y-63509279D01*
X81764722Y-63577266D01*
X81764572Y-63577628D01*
X81731085Y-63640278D01*
X81730867Y-63640604D01*
X81685798Y-63695521D01*
X81685521Y-63695798D01*
X81630604Y-63740867D01*
X81630278Y-63741085D01*
X81567628Y-63774572D01*
X81567266Y-63774722D01*
X81499279Y-63795346D01*
X81498894Y-63795422D01*
X81422056Y-63802990D01*
X81421860Y-63803000D01*
X81365500Y-63803000D01*
X81363768Y-63802000D01*
X81363768Y-63800000D01*
X81365304Y-63799010D01*
X81448116Y-63790854D01*
X81527563Y-63766754D01*
X81600779Y-63727619D01*
X81664953Y-63674953D01*
X81717619Y-63610779D01*
X81756754Y-63537563D01*
X81780854Y-63458116D01*
X81789010Y-63375304D01*
X81790175Y-63373678D01*
X81792165Y-63373874D01*
G37*
G36*
X79252165Y-63373874D02*
G01*
X79253000Y-63375500D01*
X79253000Y-63431860D01*
X79252990Y-63432056D01*
X79245422Y-63508894D01*
X79245346Y-63509279D01*
X79224722Y-63577266D01*
X79224572Y-63577628D01*
X79191085Y-63640278D01*
X79190867Y-63640604D01*
X79145798Y-63695521D01*
X79145521Y-63695798D01*
X79090604Y-63740867D01*
X79090278Y-63741085D01*
X79027628Y-63774572D01*
X79027266Y-63774722D01*
X78959279Y-63795346D01*
X78958894Y-63795422D01*
X78882056Y-63802990D01*
X78881860Y-63803000D01*
X78825500Y-63803000D01*
X78823768Y-63802000D01*
X78823768Y-63800000D01*
X78825304Y-63799010D01*
X78908116Y-63790854D01*
X78987563Y-63766754D01*
X79060779Y-63727619D01*
X79124953Y-63674953D01*
X79177619Y-63610779D01*
X79216754Y-63537563D01*
X79240854Y-63458116D01*
X79249010Y-63375304D01*
X79250175Y-63373678D01*
X79252165Y-63373874D01*
G37*
G36*
X77550990Y-63375304D02*
G01*
X77559146Y-63458116D01*
X77583246Y-63537563D01*
X77622381Y-63610779D01*
X77675047Y-63674953D01*
X77739221Y-63727619D01*
X77812437Y-63766754D01*
X77891884Y-63790854D01*
X77974696Y-63799010D01*
X77976322Y-63800175D01*
X77976126Y-63802165D01*
X77974500Y-63803000D01*
X77918140Y-63803000D01*
X77917944Y-63802990D01*
X77841106Y-63795422D01*
X77840721Y-63795346D01*
X77772734Y-63774722D01*
X77772372Y-63774572D01*
X77709722Y-63741085D01*
X77709396Y-63740867D01*
X77654479Y-63695798D01*
X77654202Y-63695521D01*
X77609133Y-63640604D01*
X77608915Y-63640278D01*
X77575428Y-63577628D01*
X77575278Y-63577266D01*
X77554654Y-63509279D01*
X77554578Y-63508894D01*
X77547010Y-63432056D01*
X77547000Y-63431860D01*
X77547000Y-63375500D01*
X77548000Y-63373768D01*
X77550000Y-63373768D01*
X77550990Y-63375304D01*
G37*
G36*
X80516232Y-62098000D02*
G01*
X80516232Y-62100000D01*
X80514696Y-62100990D01*
X80431884Y-62109146D01*
X80352437Y-62133246D01*
X80279221Y-62172381D01*
X80215047Y-62225047D01*
X80162381Y-62289221D01*
X80123246Y-62362437D01*
X80099146Y-62441884D01*
X80090990Y-62524696D01*
X80089825Y-62526322D01*
X80087835Y-62526126D01*
X80087000Y-62524500D01*
X80087000Y-62468140D01*
X80087010Y-62467944D01*
X80094578Y-62391106D01*
X80094654Y-62390721D01*
X80115278Y-62322734D01*
X80115428Y-62322372D01*
X80148915Y-62259722D01*
X80149133Y-62259396D01*
X80194202Y-62204479D01*
X80194479Y-62204202D01*
X80249396Y-62159133D01*
X80249722Y-62158915D01*
X80312372Y-62125428D01*
X80312734Y-62125278D01*
X80380721Y-62104654D01*
X80381106Y-62104578D01*
X80457944Y-62097010D01*
X80458140Y-62097000D01*
X80514500Y-62097000D01*
X80516232Y-62098000D01*
G37*
G36*
X77976232Y-62098000D02*
G01*
X77976232Y-62100000D01*
X77974696Y-62100990D01*
X77891884Y-62109146D01*
X77812437Y-62133246D01*
X77739221Y-62172381D01*
X77675047Y-62225047D01*
X77622381Y-62289221D01*
X77583246Y-62362437D01*
X77559146Y-62441884D01*
X77550990Y-62524696D01*
X77549825Y-62526322D01*
X77547835Y-62526126D01*
X77547000Y-62524500D01*
X77547000Y-62468140D01*
X77547010Y-62467944D01*
X77554578Y-62391106D01*
X77554654Y-62390721D01*
X77575278Y-62322734D01*
X77575428Y-62322372D01*
X77608915Y-62259722D01*
X77609133Y-62259396D01*
X77654202Y-62204479D01*
X77654479Y-62204202D01*
X77709396Y-62159133D01*
X77709722Y-62158915D01*
X77772372Y-62125428D01*
X77772734Y-62125278D01*
X77840721Y-62104654D01*
X77841106Y-62104578D01*
X77917944Y-62097010D01*
X77918140Y-62097000D01*
X77974500Y-62097000D01*
X77976232Y-62098000D01*
G37*
G36*
X78882056Y-62097010D02*
G01*
X78958894Y-62104578D01*
X78959279Y-62104654D01*
X79027266Y-62125278D01*
X79027628Y-62125428D01*
X79090278Y-62158915D01*
X79090604Y-62159133D01*
X79145521Y-62204202D01*
X79145798Y-62204479D01*
X79190867Y-62259396D01*
X79191085Y-62259722D01*
X79224572Y-62322372D01*
X79224722Y-62322734D01*
X79245346Y-62390721D01*
X79245422Y-62391106D01*
X79252990Y-62467944D01*
X79253000Y-62468140D01*
X79253000Y-62524500D01*
X79252000Y-62526232D01*
X79250000Y-62526232D01*
X79249010Y-62524696D01*
X79240854Y-62441884D01*
X79216754Y-62362437D01*
X79177619Y-62289221D01*
X79124953Y-62225047D01*
X79060779Y-62172381D01*
X78987563Y-62133246D01*
X78908116Y-62109146D01*
X78825304Y-62100990D01*
X78823678Y-62099825D01*
X78823874Y-62097835D01*
X78825500Y-62097000D01*
X78881860Y-62097000D01*
X78882056Y-62097010D01*
G37*
G36*
X81422056Y-62097010D02*
G01*
X81498894Y-62104578D01*
X81499279Y-62104654D01*
X81567266Y-62125278D01*
X81567628Y-62125428D01*
X81630278Y-62158915D01*
X81630604Y-62159133D01*
X81685521Y-62204202D01*
X81685798Y-62204479D01*
X81730867Y-62259396D01*
X81731085Y-62259722D01*
X81764572Y-62322372D01*
X81764722Y-62322734D01*
X81785346Y-62390721D01*
X81785422Y-62391106D01*
X81792990Y-62467944D01*
X81793000Y-62468140D01*
X81793000Y-62524500D01*
X81792000Y-62526232D01*
X81790000Y-62526232D01*
X81789010Y-62524696D01*
X81780854Y-62441884D01*
X81756754Y-62362437D01*
X81717619Y-62289221D01*
X81664953Y-62225047D01*
X81600779Y-62172381D01*
X81527563Y-62133246D01*
X81448116Y-62109146D01*
X81365304Y-62100990D01*
X81363678Y-62099825D01*
X81363874Y-62097835D01*
X81365500Y-62097000D01*
X81421860Y-62097000D01*
X81422056Y-62097010D01*
G37*
G36*
X57770990Y-56275304D02*
G01*
X57779146Y-56358116D01*
X57803246Y-56437563D01*
X57842381Y-56510779D01*
X57895047Y-56574953D01*
X57959221Y-56627619D01*
X58032437Y-56666754D01*
X58111884Y-56690854D01*
X58194696Y-56699010D01*
X58196322Y-56700175D01*
X58196126Y-56702165D01*
X58194500Y-56703000D01*
X58138140Y-56703000D01*
X58137944Y-56702990D01*
X58061106Y-56695422D01*
X58060721Y-56695346D01*
X57992734Y-56674722D01*
X57992372Y-56674572D01*
X57929722Y-56641085D01*
X57929396Y-56640867D01*
X57874479Y-56595798D01*
X57874202Y-56595521D01*
X57829133Y-56540604D01*
X57828915Y-56540278D01*
X57795428Y-56477628D01*
X57795278Y-56477266D01*
X57774654Y-56409279D01*
X57774578Y-56408894D01*
X57767010Y-56332056D01*
X57767000Y-56331860D01*
X57767000Y-56275500D01*
X57768000Y-56273768D01*
X57770000Y-56273768D01*
X57770990Y-56275304D01*
G37*
G36*
X62012165Y-56273874D02*
G01*
X62013000Y-56275500D01*
X62013000Y-56331860D01*
X62012990Y-56332056D01*
X62005422Y-56408894D01*
X62005346Y-56409279D01*
X61984722Y-56477266D01*
X61984572Y-56477628D01*
X61951085Y-56540278D01*
X61950867Y-56540604D01*
X61905798Y-56595521D01*
X61905521Y-56595798D01*
X61850604Y-56640867D01*
X61850278Y-56641085D01*
X61787628Y-56674572D01*
X61787266Y-56674722D01*
X61719279Y-56695346D01*
X61718894Y-56695422D01*
X61642056Y-56702990D01*
X61641860Y-56703000D01*
X61585500Y-56703000D01*
X61583768Y-56702000D01*
X61583768Y-56700000D01*
X61585304Y-56699010D01*
X61668116Y-56690854D01*
X61747563Y-56666754D01*
X61820779Y-56627619D01*
X61884953Y-56574953D01*
X61937619Y-56510779D01*
X61976754Y-56437563D01*
X62000854Y-56358116D01*
X62009010Y-56275304D01*
X62010175Y-56273678D01*
X62012165Y-56273874D01*
G37*
G36*
X60310990Y-56275304D02*
G01*
X60319146Y-56358116D01*
X60343246Y-56437563D01*
X60382381Y-56510779D01*
X60435047Y-56574953D01*
X60499221Y-56627619D01*
X60572437Y-56666754D01*
X60651884Y-56690854D01*
X60734696Y-56699010D01*
X60736322Y-56700175D01*
X60736126Y-56702165D01*
X60734500Y-56703000D01*
X60678140Y-56703000D01*
X60677944Y-56702990D01*
X60601106Y-56695422D01*
X60600721Y-56695346D01*
X60532734Y-56674722D01*
X60532372Y-56674572D01*
X60469722Y-56641085D01*
X60469396Y-56640867D01*
X60414479Y-56595798D01*
X60414202Y-56595521D01*
X60369133Y-56540604D01*
X60368915Y-56540278D01*
X60335428Y-56477628D01*
X60335278Y-56477266D01*
X60314654Y-56409279D01*
X60314578Y-56408894D01*
X60307010Y-56332056D01*
X60307000Y-56331860D01*
X60307000Y-56275500D01*
X60308000Y-56273768D01*
X60310000Y-56273768D01*
X60310990Y-56275304D01*
G37*
G36*
X70470990Y-56275304D02*
G01*
X70479146Y-56358116D01*
X70503246Y-56437563D01*
X70542381Y-56510779D01*
X70595047Y-56574953D01*
X70659221Y-56627619D01*
X70732437Y-56666754D01*
X70811884Y-56690854D01*
X70894696Y-56699010D01*
X70896322Y-56700175D01*
X70896126Y-56702165D01*
X70894500Y-56703000D01*
X70838140Y-56703000D01*
X70837944Y-56702990D01*
X70761106Y-56695422D01*
X70760721Y-56695346D01*
X70692734Y-56674722D01*
X70692372Y-56674572D01*
X70629722Y-56641085D01*
X70629396Y-56640867D01*
X70574479Y-56595798D01*
X70574202Y-56595521D01*
X70529133Y-56540604D01*
X70528915Y-56540278D01*
X70495428Y-56477628D01*
X70495278Y-56477266D01*
X70474654Y-56409279D01*
X70474578Y-56408894D01*
X70467010Y-56332056D01*
X70467000Y-56331860D01*
X70467000Y-56275500D01*
X70468000Y-56273768D01*
X70470000Y-56273768D01*
X70470990Y-56275304D01*
G37*
G36*
X73010990Y-56275304D02*
G01*
X73019146Y-56358116D01*
X73043246Y-56437563D01*
X73082381Y-56510779D01*
X73135047Y-56574953D01*
X73199221Y-56627619D01*
X73272437Y-56666754D01*
X73351884Y-56690854D01*
X73434696Y-56699010D01*
X73436322Y-56700175D01*
X73436126Y-56702165D01*
X73434500Y-56703000D01*
X73378140Y-56703000D01*
X73377944Y-56702990D01*
X73301106Y-56695422D01*
X73300721Y-56695346D01*
X73232734Y-56674722D01*
X73232372Y-56674572D01*
X73169722Y-56641085D01*
X73169396Y-56640867D01*
X73114479Y-56595798D01*
X73114202Y-56595521D01*
X73069133Y-56540604D01*
X73068915Y-56540278D01*
X73035428Y-56477628D01*
X73035278Y-56477266D01*
X73014654Y-56409279D01*
X73014578Y-56408894D01*
X73007010Y-56332056D01*
X73007000Y-56331860D01*
X73007000Y-56275500D01*
X73008000Y-56273768D01*
X73010000Y-56273768D01*
X73010990Y-56275304D01*
G37*
G36*
X59472165Y-56273874D02*
G01*
X59473000Y-56275500D01*
X59473000Y-56331860D01*
X59472990Y-56332056D01*
X59465422Y-56408894D01*
X59465346Y-56409279D01*
X59444722Y-56477266D01*
X59444572Y-56477628D01*
X59411085Y-56540278D01*
X59410867Y-56540604D01*
X59365798Y-56595521D01*
X59365521Y-56595798D01*
X59310604Y-56640867D01*
X59310278Y-56641085D01*
X59247628Y-56674572D01*
X59247266Y-56674722D01*
X59179279Y-56695346D01*
X59178894Y-56695422D01*
X59102056Y-56702990D01*
X59101860Y-56703000D01*
X59045500Y-56703000D01*
X59043768Y-56702000D01*
X59043768Y-56700000D01*
X59045304Y-56699010D01*
X59128116Y-56690854D01*
X59207563Y-56666754D01*
X59280779Y-56627619D01*
X59344953Y-56574953D01*
X59397619Y-56510779D01*
X59436754Y-56437563D01*
X59460854Y-56358116D01*
X59469010Y-56275304D01*
X59470175Y-56273678D01*
X59472165Y-56273874D01*
G37*
G36*
X62850990Y-56275304D02*
G01*
X62859146Y-56358116D01*
X62883246Y-56437563D01*
X62922381Y-56510779D01*
X62975047Y-56574953D01*
X63039221Y-56627619D01*
X63112437Y-56666754D01*
X63191884Y-56690854D01*
X63274696Y-56699010D01*
X63276322Y-56700175D01*
X63276126Y-56702165D01*
X63274500Y-56703000D01*
X63218140Y-56703000D01*
X63217944Y-56702990D01*
X63141106Y-56695422D01*
X63140721Y-56695346D01*
X63072734Y-56674722D01*
X63072372Y-56674572D01*
X63009722Y-56641085D01*
X63009396Y-56640867D01*
X62954479Y-56595798D01*
X62954202Y-56595521D01*
X62909133Y-56540604D01*
X62908915Y-56540278D01*
X62875428Y-56477628D01*
X62875278Y-56477266D01*
X62854654Y-56409279D01*
X62854578Y-56408894D01*
X62847010Y-56332056D01*
X62847000Y-56331860D01*
X62847000Y-56275500D01*
X62848000Y-56273768D01*
X62850000Y-56273768D01*
X62850990Y-56275304D01*
G37*
G36*
X74712165Y-56273874D02*
G01*
X74713000Y-56275500D01*
X74713000Y-56331860D01*
X74712990Y-56332056D01*
X74705422Y-56408894D01*
X74705346Y-56409279D01*
X74684722Y-56477266D01*
X74684572Y-56477628D01*
X74651085Y-56540278D01*
X74650867Y-56540604D01*
X74605798Y-56595521D01*
X74605521Y-56595798D01*
X74550604Y-56640867D01*
X74550278Y-56641085D01*
X74487628Y-56674572D01*
X74487266Y-56674722D01*
X74419279Y-56695346D01*
X74418894Y-56695422D01*
X74342056Y-56702990D01*
X74341860Y-56703000D01*
X74285500Y-56703000D01*
X74283768Y-56702000D01*
X74283768Y-56700000D01*
X74285304Y-56699010D01*
X74368116Y-56690854D01*
X74447563Y-56666754D01*
X74520779Y-56627619D01*
X74584953Y-56574953D01*
X74637619Y-56510779D01*
X74676754Y-56437563D01*
X74700854Y-56358116D01*
X74709010Y-56275304D01*
X74710175Y-56273678D01*
X74712165Y-56273874D01*
G37*
G36*
X72172165Y-56273874D02*
G01*
X72173000Y-56275500D01*
X72173000Y-56331860D01*
X72172990Y-56332056D01*
X72165422Y-56408894D01*
X72165346Y-56409279D01*
X72144722Y-56477266D01*
X72144572Y-56477628D01*
X72111085Y-56540278D01*
X72110867Y-56540604D01*
X72065798Y-56595521D01*
X72065521Y-56595798D01*
X72010604Y-56640867D01*
X72010278Y-56641085D01*
X71947628Y-56674572D01*
X71947266Y-56674722D01*
X71879279Y-56695346D01*
X71878894Y-56695422D01*
X71802056Y-56702990D01*
X71801860Y-56703000D01*
X71745500Y-56703000D01*
X71743768Y-56702000D01*
X71743768Y-56700000D01*
X71745304Y-56699010D01*
X71828116Y-56690854D01*
X71907563Y-56666754D01*
X71980779Y-56627619D01*
X72044953Y-56574953D01*
X72097619Y-56510779D01*
X72136754Y-56437563D01*
X72160854Y-56358116D01*
X72169010Y-56275304D01*
X72170175Y-56273678D01*
X72172165Y-56273874D01*
G37*
G36*
X64552165Y-56273874D02*
G01*
X64553000Y-56275500D01*
X64553000Y-56331860D01*
X64552990Y-56332056D01*
X64545422Y-56408894D01*
X64545346Y-56409279D01*
X64524722Y-56477266D01*
X64524572Y-56477628D01*
X64491085Y-56540278D01*
X64490867Y-56540604D01*
X64445798Y-56595521D01*
X64445521Y-56595798D01*
X64390604Y-56640867D01*
X64390278Y-56641085D01*
X64327628Y-56674572D01*
X64327266Y-56674722D01*
X64259279Y-56695346D01*
X64258894Y-56695422D01*
X64182056Y-56702990D01*
X64181860Y-56703000D01*
X64125500Y-56703000D01*
X64123768Y-56702000D01*
X64123768Y-56700000D01*
X64125304Y-56699010D01*
X64208116Y-56690854D01*
X64287563Y-56666754D01*
X64360779Y-56627619D01*
X64424953Y-56574953D01*
X64477619Y-56510779D01*
X64516754Y-56437563D01*
X64540854Y-56358116D01*
X64549010Y-56275304D01*
X64550175Y-56273678D01*
X64552165Y-56273874D01*
G37*
G36*
X73436232Y-54998000D02*
G01*
X73436232Y-55000000D01*
X73434696Y-55000990D01*
X73351884Y-55009146D01*
X73272437Y-55033246D01*
X73199221Y-55072381D01*
X73135047Y-55125047D01*
X73082381Y-55189221D01*
X73043246Y-55262437D01*
X73019146Y-55341884D01*
X73010990Y-55424696D01*
X73009825Y-55426322D01*
X73007835Y-55426126D01*
X73007000Y-55424500D01*
X73007000Y-55368140D01*
X73007010Y-55367944D01*
X73014578Y-55291106D01*
X73014654Y-55290721D01*
X73035278Y-55222734D01*
X73035428Y-55222372D01*
X73068915Y-55159722D01*
X73069133Y-55159396D01*
X73114202Y-55104479D01*
X73114479Y-55104202D01*
X73169396Y-55059133D01*
X73169722Y-55058915D01*
X73232372Y-55025428D01*
X73232734Y-55025278D01*
X73300721Y-55004654D01*
X73301106Y-55004578D01*
X73377944Y-54997010D01*
X73378140Y-54997000D01*
X73434500Y-54997000D01*
X73436232Y-54998000D01*
G37*
G36*
X70896232Y-54998000D02*
G01*
X70896232Y-55000000D01*
X70894696Y-55000990D01*
X70811884Y-55009146D01*
X70732437Y-55033246D01*
X70659221Y-55072381D01*
X70595047Y-55125047D01*
X70542381Y-55189221D01*
X70503246Y-55262437D01*
X70479146Y-55341884D01*
X70470990Y-55424696D01*
X70469825Y-55426322D01*
X70467835Y-55426126D01*
X70467000Y-55424500D01*
X70467000Y-55368140D01*
X70467010Y-55367944D01*
X70474578Y-55291106D01*
X70474654Y-55290721D01*
X70495278Y-55222734D01*
X70495428Y-55222372D01*
X70528915Y-55159722D01*
X70529133Y-55159396D01*
X70574202Y-55104479D01*
X70574479Y-55104202D01*
X70629396Y-55059133D01*
X70629722Y-55058915D01*
X70692372Y-55025428D01*
X70692734Y-55025278D01*
X70760721Y-55004654D01*
X70761106Y-55004578D01*
X70837944Y-54997010D01*
X70838140Y-54997000D01*
X70894500Y-54997000D01*
X70896232Y-54998000D01*
G37*
G36*
X58196232Y-54998000D02*
G01*
X58196232Y-55000000D01*
X58194696Y-55000990D01*
X58111884Y-55009146D01*
X58032437Y-55033246D01*
X57959221Y-55072381D01*
X57895047Y-55125047D01*
X57842381Y-55189221D01*
X57803246Y-55262437D01*
X57779146Y-55341884D01*
X57770990Y-55424696D01*
X57769825Y-55426322D01*
X57767835Y-55426126D01*
X57767000Y-55424500D01*
X57767000Y-55368140D01*
X57767010Y-55367944D01*
X57774578Y-55291106D01*
X57774654Y-55290721D01*
X57795278Y-55222734D01*
X57795428Y-55222372D01*
X57828915Y-55159722D01*
X57829133Y-55159396D01*
X57874202Y-55104479D01*
X57874479Y-55104202D01*
X57929396Y-55059133D01*
X57929722Y-55058915D01*
X57992372Y-55025428D01*
X57992734Y-55025278D01*
X58060721Y-55004654D01*
X58061106Y-55004578D01*
X58137944Y-54997010D01*
X58138140Y-54997000D01*
X58194500Y-54997000D01*
X58196232Y-54998000D01*
G37*
G36*
X63276232Y-54998000D02*
G01*
X63276232Y-55000000D01*
X63274696Y-55000990D01*
X63191884Y-55009146D01*
X63112437Y-55033246D01*
X63039221Y-55072381D01*
X62975047Y-55125047D01*
X62922381Y-55189221D01*
X62883246Y-55262437D01*
X62859146Y-55341884D01*
X62850990Y-55424696D01*
X62849825Y-55426322D01*
X62847835Y-55426126D01*
X62847000Y-55424500D01*
X62847000Y-55368140D01*
X62847010Y-55367944D01*
X62854578Y-55291106D01*
X62854654Y-55290721D01*
X62875278Y-55222734D01*
X62875428Y-55222372D01*
X62908915Y-55159722D01*
X62909133Y-55159396D01*
X62954202Y-55104479D01*
X62954479Y-55104202D01*
X63009396Y-55059133D01*
X63009722Y-55058915D01*
X63072372Y-55025428D01*
X63072734Y-55025278D01*
X63140721Y-55004654D01*
X63141106Y-55004578D01*
X63217944Y-54997010D01*
X63218140Y-54997000D01*
X63274500Y-54997000D01*
X63276232Y-54998000D01*
G37*
G36*
X60736232Y-54998000D02*
G01*
X60736232Y-55000000D01*
X60734696Y-55000990D01*
X60651884Y-55009146D01*
X60572437Y-55033246D01*
X60499221Y-55072381D01*
X60435047Y-55125047D01*
X60382381Y-55189221D01*
X60343246Y-55262437D01*
X60319146Y-55341884D01*
X60310990Y-55424696D01*
X60309825Y-55426322D01*
X60307835Y-55426126D01*
X60307000Y-55424500D01*
X60307000Y-55368140D01*
X60307010Y-55367944D01*
X60314578Y-55291106D01*
X60314654Y-55290721D01*
X60335278Y-55222734D01*
X60335428Y-55222372D01*
X60368915Y-55159722D01*
X60369133Y-55159396D01*
X60414202Y-55104479D01*
X60414479Y-55104202D01*
X60469396Y-55059133D01*
X60469722Y-55058915D01*
X60532372Y-55025428D01*
X60532734Y-55025278D01*
X60600721Y-55004654D01*
X60601106Y-55004578D01*
X60677944Y-54997010D01*
X60678140Y-54997000D01*
X60734500Y-54997000D01*
X60736232Y-54998000D01*
G37*
G36*
X59102056Y-54997010D02*
G01*
X59178894Y-55004578D01*
X59179279Y-55004654D01*
X59247266Y-55025278D01*
X59247628Y-55025428D01*
X59310278Y-55058915D01*
X59310604Y-55059133D01*
X59365521Y-55104202D01*
X59365798Y-55104479D01*
X59410867Y-55159396D01*
X59411085Y-55159722D01*
X59444572Y-55222372D01*
X59444722Y-55222734D01*
X59465346Y-55290721D01*
X59465422Y-55291106D01*
X59472990Y-55367944D01*
X59473000Y-55368140D01*
X59473000Y-55424500D01*
X59472000Y-55426232D01*
X59470000Y-55426232D01*
X59469010Y-55424696D01*
X59460854Y-55341884D01*
X59436754Y-55262437D01*
X59397619Y-55189221D01*
X59344953Y-55125047D01*
X59280779Y-55072381D01*
X59207563Y-55033246D01*
X59128116Y-55009146D01*
X59045304Y-55000990D01*
X59043678Y-54999825D01*
X59043874Y-54997835D01*
X59045500Y-54997000D01*
X59101860Y-54997000D01*
X59102056Y-54997010D01*
G37*
G36*
X71802056Y-54997010D02*
G01*
X71878894Y-55004578D01*
X71879279Y-55004654D01*
X71947266Y-55025278D01*
X71947628Y-55025428D01*
X72010278Y-55058915D01*
X72010604Y-55059133D01*
X72065521Y-55104202D01*
X72065798Y-55104479D01*
X72110867Y-55159396D01*
X72111085Y-55159722D01*
X72144572Y-55222372D01*
X72144722Y-55222734D01*
X72165346Y-55290721D01*
X72165422Y-55291106D01*
X72172990Y-55367944D01*
X72173000Y-55368140D01*
X72173000Y-55424500D01*
X72172000Y-55426232D01*
X72170000Y-55426232D01*
X72169010Y-55424696D01*
X72160854Y-55341884D01*
X72136754Y-55262437D01*
X72097619Y-55189221D01*
X72044953Y-55125047D01*
X71980779Y-55072381D01*
X71907563Y-55033246D01*
X71828116Y-55009146D01*
X71745304Y-55000990D01*
X71743678Y-54999825D01*
X71743874Y-54997835D01*
X71745500Y-54997000D01*
X71801860Y-54997000D01*
X71802056Y-54997010D01*
G37*
G36*
X74342056Y-54997010D02*
G01*
X74418894Y-55004578D01*
X74419279Y-55004654D01*
X74487266Y-55025278D01*
X74487628Y-55025428D01*
X74550278Y-55058915D01*
X74550604Y-55059133D01*
X74605521Y-55104202D01*
X74605798Y-55104479D01*
X74650867Y-55159396D01*
X74651085Y-55159722D01*
X74684572Y-55222372D01*
X74684722Y-55222734D01*
X74705346Y-55290721D01*
X74705422Y-55291106D01*
X74712990Y-55367944D01*
X74713000Y-55368140D01*
X74713000Y-55424500D01*
X74712000Y-55426232D01*
X74710000Y-55426232D01*
X74709010Y-55424696D01*
X74700854Y-55341884D01*
X74676754Y-55262437D01*
X74637619Y-55189221D01*
X74584953Y-55125047D01*
X74520779Y-55072381D01*
X74447563Y-55033246D01*
X74368116Y-55009146D01*
X74285304Y-55000990D01*
X74283678Y-54999825D01*
X74283874Y-54997835D01*
X74285500Y-54997000D01*
X74341860Y-54997000D01*
X74342056Y-54997010D01*
G37*
G36*
X64182056Y-54997010D02*
G01*
X64258894Y-55004578D01*
X64259279Y-55004654D01*
X64327266Y-55025278D01*
X64327628Y-55025428D01*
X64390278Y-55058915D01*
X64390604Y-55059133D01*
X64445521Y-55104202D01*
X64445798Y-55104479D01*
X64490867Y-55159396D01*
X64491085Y-55159722D01*
X64524572Y-55222372D01*
X64524722Y-55222734D01*
X64545346Y-55290721D01*
X64545422Y-55291106D01*
X64552990Y-55367944D01*
X64553000Y-55368140D01*
X64553000Y-55424500D01*
X64552000Y-55426232D01*
X64550000Y-55426232D01*
X64549010Y-55424696D01*
X64540854Y-55341884D01*
X64516754Y-55262437D01*
X64477619Y-55189221D01*
X64424953Y-55125047D01*
X64360779Y-55072381D01*
X64287563Y-55033246D01*
X64208116Y-55009146D01*
X64125304Y-55000990D01*
X64123678Y-54999825D01*
X64123874Y-54997835D01*
X64125500Y-54997000D01*
X64181860Y-54997000D01*
X64182056Y-54997010D01*
G37*
G36*
X61642056Y-54997010D02*
G01*
X61718894Y-55004578D01*
X61719279Y-55004654D01*
X61787266Y-55025278D01*
X61787628Y-55025428D01*
X61850278Y-55058915D01*
X61850604Y-55059133D01*
X61905521Y-55104202D01*
X61905798Y-55104479D01*
X61950867Y-55159396D01*
X61951085Y-55159722D01*
X61984572Y-55222372D01*
X61984722Y-55222734D01*
X62005346Y-55290721D01*
X62005422Y-55291106D01*
X62012990Y-55367944D01*
X62013000Y-55368140D01*
X62013000Y-55424500D01*
X62012000Y-55426232D01*
X62010000Y-55426232D01*
X62009010Y-55424696D01*
X62000854Y-55341884D01*
X61976754Y-55262437D01*
X61937619Y-55189221D01*
X61884953Y-55125047D01*
X61820779Y-55072381D01*
X61747563Y-55033246D01*
X61668116Y-55009146D01*
X61585304Y-55000990D01*
X61583678Y-54999825D01*
X61583874Y-54997835D01*
X61585500Y-54997000D01*
X61641860Y-54997000D01*
X61642056Y-54997010D01*
G37*
M02*
