G04 #@! TF.GenerationSoftware,KiCad,Pcbnew,5.1.9+dfsg1-1*
G04 #@! TF.CreationDate,2022-02-14T22:33:46+00:00*
G04 #@! TF.ProjectId,gbc_retrozero_screen_rev_b,6762635f-7265-4747-926f-7a65726f5f73,rev?*
G04 #@! TF.SameCoordinates,Original*
G04 #@! TF.FileFunction,Copper,L2,Bot*
G04 #@! TF.FilePolarity,Positive*
%FSLAX46Y46*%
G04 Gerber Fmt 4.6, Leading zero omitted, Abs format (unit mm)*
G04 Created by KiCad (PCBNEW 5.1.9+dfsg1-1) date 2022-02-14 22:33:46*
%MOMM*%
%LPD*%
G01*
G04 APERTURE LIST*
G04 #@! TA.AperFunction,ComponentPad*
%ADD10C,2.800000*%
G04 #@! TD*
G04 #@! TA.AperFunction,SMDPad,CuDef*
%ADD11R,4.500000X1.000000*%
G04 #@! TD*
G04 #@! TA.AperFunction,ComponentPad*
%ADD12C,1.500000*%
G04 #@! TD*
G04 #@! TA.AperFunction,ComponentPad*
%ADD13C,1.800000*%
G04 #@! TD*
G04 #@! TA.AperFunction,SMDPad,CuDef*
%ADD14R,1.500000X0.500000*%
G04 #@! TD*
G04 #@! TA.AperFunction,SMDPad,CuDef*
%ADD15R,1.500000X0.600000*%
G04 #@! TD*
G04 #@! TA.AperFunction,SMDPad,CuDef*
%ADD16R,1.000000X2.000000*%
G04 #@! TD*
G04 #@! TA.AperFunction,ComponentPad*
%ADD17C,1.600000*%
G04 #@! TD*
G04 #@! TA.AperFunction,ViaPad*
%ADD18C,0.800000*%
G04 #@! TD*
G04 #@! TA.AperFunction,Conductor*
%ADD19C,0.250000*%
G04 #@! TD*
G04 APERTURE END LIST*
G04 #@! TA.AperFunction,SMDPad,CuDef*
G36*
G01*
X57820000Y-56250000D02*
X57820000Y-55450000D01*
G75*
G02*
X58220000Y-55050000I400000J0D01*
G01*
X59020000Y-55050000D01*
G75*
G02*
X59420000Y-55450000I0J-400000D01*
G01*
X59420000Y-56250000D01*
G75*
G02*
X59020000Y-56650000I-400000J0D01*
G01*
X58220000Y-56650000D01*
G75*
G02*
X57820000Y-56250000I0J400000D01*
G01*
G37*
G04 #@! TD.AperFunction*
G04 #@! TA.AperFunction,SMDPad,CuDef*
G36*
G01*
X60360000Y-56250000D02*
X60360000Y-55450000D01*
G75*
G02*
X60760000Y-55050000I400000J0D01*
G01*
X61560000Y-55050000D01*
G75*
G02*
X61960000Y-55450000I0J-400000D01*
G01*
X61960000Y-56250000D01*
G75*
G02*
X61560000Y-56650000I-400000J0D01*
G01*
X60760000Y-56650000D01*
G75*
G02*
X60360000Y-56250000I0J400000D01*
G01*
G37*
G04 #@! TD.AperFunction*
G04 #@! TA.AperFunction,SMDPad,CuDef*
G36*
G01*
X62900000Y-56250000D02*
X62900000Y-55450000D01*
G75*
G02*
X63300000Y-55050000I400000J0D01*
G01*
X64100000Y-55050000D01*
G75*
G02*
X64500000Y-55450000I0J-400000D01*
G01*
X64500000Y-56250000D01*
G75*
G02*
X64100000Y-56650000I-400000J0D01*
G01*
X63300000Y-56650000D01*
G75*
G02*
X62900000Y-56250000I0J400000D01*
G01*
G37*
G04 #@! TD.AperFunction*
G04 #@! TA.AperFunction,SMDPad,CuDef*
G36*
G01*
X70520000Y-56250000D02*
X70520000Y-55450000D01*
G75*
G02*
X70920000Y-55050000I400000J0D01*
G01*
X71720000Y-55050000D01*
G75*
G02*
X72120000Y-55450000I0J-400000D01*
G01*
X72120000Y-56250000D01*
G75*
G02*
X71720000Y-56650000I-400000J0D01*
G01*
X70920000Y-56650000D01*
G75*
G02*
X70520000Y-56250000I0J400000D01*
G01*
G37*
G04 #@! TD.AperFunction*
G04 #@! TA.AperFunction,SMDPad,CuDef*
G36*
G01*
X73060000Y-56250000D02*
X73060000Y-55450000D01*
G75*
G02*
X73460000Y-55050000I400000J0D01*
G01*
X74260000Y-55050000D01*
G75*
G02*
X74660000Y-55450000I0J-400000D01*
G01*
X74660000Y-56250000D01*
G75*
G02*
X74260000Y-56650000I-400000J0D01*
G01*
X73460000Y-56650000D01*
G75*
G02*
X73060000Y-56250000I0J400000D01*
G01*
G37*
G04 #@! TD.AperFunction*
G04 #@! TA.AperFunction,SMDPad,CuDef*
G36*
G01*
X57820000Y-75096800D02*
X57820000Y-74296800D01*
G75*
G02*
X58220000Y-73896800I400000J0D01*
G01*
X59020000Y-73896800D01*
G75*
G02*
X59420000Y-74296800I0J-400000D01*
G01*
X59420000Y-75096800D01*
G75*
G02*
X59020000Y-75496800I-400000J0D01*
G01*
X58220000Y-75496800D01*
G75*
G02*
X57820000Y-75096800I0J400000D01*
G01*
G37*
G04 #@! TD.AperFunction*
G04 #@! TA.AperFunction,SMDPad,CuDef*
G36*
G01*
X60321900Y-75058700D02*
X60321900Y-74258700D01*
G75*
G02*
X60721900Y-73858700I400000J0D01*
G01*
X61521900Y-73858700D01*
G75*
G02*
X61921900Y-74258700I0J-400000D01*
G01*
X61921900Y-75058700D01*
G75*
G02*
X61521900Y-75458700I-400000J0D01*
G01*
X60721900Y-75458700D01*
G75*
G02*
X60321900Y-75058700I0J400000D01*
G01*
G37*
G04 #@! TD.AperFunction*
G04 #@! TA.AperFunction,SMDPad,CuDef*
G36*
G01*
X70520000Y-75058700D02*
X70520000Y-74258700D01*
G75*
G02*
X70920000Y-73858700I400000J0D01*
G01*
X71720000Y-73858700D01*
G75*
G02*
X72120000Y-74258700I0J-400000D01*
G01*
X72120000Y-75058700D01*
G75*
G02*
X71720000Y-75458700I-400000J0D01*
G01*
X70920000Y-75458700D01*
G75*
G02*
X70520000Y-75058700I0J400000D01*
G01*
G37*
G04 #@! TD.AperFunction*
G04 #@! TA.AperFunction,SMDPad,CuDef*
G36*
G01*
X73060000Y-75058700D02*
X73060000Y-74258700D01*
G75*
G02*
X73460000Y-73858700I400000J0D01*
G01*
X74260000Y-73858700D01*
G75*
G02*
X74660000Y-74258700I0J-400000D01*
G01*
X74660000Y-75058700D01*
G75*
G02*
X74260000Y-75458700I-400000J0D01*
G01*
X73460000Y-75458700D01*
G75*
G02*
X73060000Y-75058700I0J400000D01*
G01*
G37*
G04 #@! TD.AperFunction*
G04 #@! TA.AperFunction,SMDPad,CuDef*
G36*
G01*
X80540000Y-62150000D02*
X81340000Y-62150000D01*
G75*
G02*
X81740000Y-62550000I0J-400000D01*
G01*
X81740000Y-63350000D01*
G75*
G02*
X81340000Y-63750000I-400000J0D01*
G01*
X80540000Y-63750000D01*
G75*
G02*
X80140000Y-63350000I0J400000D01*
G01*
X80140000Y-62550000D01*
G75*
G02*
X80540000Y-62150000I400000J0D01*
G01*
G37*
G04 #@! TD.AperFunction*
G04 #@! TA.AperFunction,SMDPad,CuDef*
G36*
G01*
X78000000Y-62150000D02*
X78800000Y-62150000D01*
G75*
G02*
X79200000Y-62550000I0J-400000D01*
G01*
X79200000Y-63350000D01*
G75*
G02*
X78800000Y-63750000I-400000J0D01*
G01*
X78000000Y-63750000D01*
G75*
G02*
X77600000Y-63350000I0J400000D01*
G01*
X77600000Y-62550000D01*
G75*
G02*
X78000000Y-62150000I400000J0D01*
G01*
G37*
G04 #@! TD.AperFunction*
G04 #@! TA.AperFunction,SMDPad,CuDef*
G36*
G01*
X80540000Y-64690000D02*
X81340000Y-64690000D01*
G75*
G02*
X81740000Y-65090000I0J-400000D01*
G01*
X81740000Y-65890000D01*
G75*
G02*
X81340000Y-66290000I-400000J0D01*
G01*
X80540000Y-66290000D01*
G75*
G02*
X80140000Y-65890000I0J400000D01*
G01*
X80140000Y-65090000D01*
G75*
G02*
X80540000Y-64690000I400000J0D01*
G01*
G37*
G04 #@! TD.AperFunction*
G04 #@! TA.AperFunction,SMDPad,CuDef*
G36*
G01*
X78000000Y-64690000D02*
X78800000Y-64690000D01*
G75*
G02*
X79200000Y-65090000I0J-400000D01*
G01*
X79200000Y-65890000D01*
G75*
G02*
X78800000Y-66290000I-400000J0D01*
G01*
X78000000Y-66290000D01*
G75*
G02*
X77600000Y-65890000I0J400000D01*
G01*
X77600000Y-65090000D01*
G75*
G02*
X78000000Y-64690000I400000J0D01*
G01*
G37*
G04 #@! TD.AperFunction*
G04 #@! TA.AperFunction,SMDPad,CuDef*
G36*
G01*
X80540000Y-67230000D02*
X81340000Y-67230000D01*
G75*
G02*
X81740000Y-67630000I0J-400000D01*
G01*
X81740000Y-68430000D01*
G75*
G02*
X81340000Y-68830000I-400000J0D01*
G01*
X80540000Y-68830000D01*
G75*
G02*
X80140000Y-68430000I0J400000D01*
G01*
X80140000Y-67630000D01*
G75*
G02*
X80540000Y-67230000I400000J0D01*
G01*
G37*
G04 #@! TD.AperFunction*
G04 #@! TA.AperFunction,SMDPad,CuDef*
G36*
G01*
X78000000Y-67230000D02*
X78800000Y-67230000D01*
G75*
G02*
X79200000Y-67630000I0J-400000D01*
G01*
X79200000Y-68430000D01*
G75*
G02*
X78800000Y-68830000I-400000J0D01*
G01*
X78000000Y-68830000D01*
G75*
G02*
X77600000Y-68430000I0J400000D01*
G01*
X77600000Y-67630000D01*
G75*
G02*
X78000000Y-67230000I400000J0D01*
G01*
G37*
G04 #@! TD.AperFunction*
G04 #@! TA.AperFunction,SMDPad,CuDef*
G36*
G01*
X80540000Y-69770000D02*
X81340000Y-69770000D01*
G75*
G02*
X81740000Y-70170000I0J-400000D01*
G01*
X81740000Y-70970000D01*
G75*
G02*
X81340000Y-71370000I-400000J0D01*
G01*
X80540000Y-71370000D01*
G75*
G02*
X80140000Y-70970000I0J400000D01*
G01*
X80140000Y-70170000D01*
G75*
G02*
X80540000Y-69770000I400000J0D01*
G01*
G37*
G04 #@! TD.AperFunction*
G04 #@! TA.AperFunction,SMDPad,CuDef*
G36*
G01*
X78000000Y-69770000D02*
X78800000Y-69770000D01*
G75*
G02*
X79200000Y-70170000I0J-400000D01*
G01*
X79200000Y-70970000D01*
G75*
G02*
X78800000Y-71370000I-400000J0D01*
G01*
X78000000Y-71370000D01*
G75*
G02*
X77600000Y-70970000I0J400000D01*
G01*
X77600000Y-70170000D01*
G75*
G02*
X78000000Y-69770000I400000J0D01*
G01*
G37*
G04 #@! TD.AperFunction*
G04 #@! TA.AperFunction,SMDPad,CuDef*
G36*
G01*
X80540000Y-72310000D02*
X81340000Y-72310000D01*
G75*
G02*
X81740000Y-72710000I0J-400000D01*
G01*
X81740000Y-73510000D01*
G75*
G02*
X81340000Y-73910000I-400000J0D01*
G01*
X80540000Y-73910000D01*
G75*
G02*
X80140000Y-73510000I0J400000D01*
G01*
X80140000Y-72710000D01*
G75*
G02*
X80540000Y-72310000I400000J0D01*
G01*
G37*
G04 #@! TD.AperFunction*
G04 #@! TA.AperFunction,SMDPad,CuDef*
G36*
G01*
X78000000Y-72310000D02*
X78800000Y-72310000D01*
G75*
G02*
X79200000Y-72710000I0J-400000D01*
G01*
X79200000Y-73510000D01*
G75*
G02*
X78800000Y-73910000I-400000J0D01*
G01*
X78000000Y-73910000D01*
G75*
G02*
X77600000Y-73510000I0J400000D01*
G01*
X77600000Y-72710000D01*
G75*
G02*
X78000000Y-72310000I400000J0D01*
G01*
G37*
G04 #@! TD.AperFunction*
G04 #@! TA.AperFunction,SMDPad,CuDef*
G36*
G01*
X80540000Y-74850000D02*
X81340000Y-74850000D01*
G75*
G02*
X81740000Y-75250000I0J-400000D01*
G01*
X81740000Y-76050000D01*
G75*
G02*
X81340000Y-76450000I-400000J0D01*
G01*
X80540000Y-76450000D01*
G75*
G02*
X80140000Y-76050000I0J400000D01*
G01*
X80140000Y-75250000D01*
G75*
G02*
X80540000Y-74850000I400000J0D01*
G01*
G37*
G04 #@! TD.AperFunction*
G04 #@! TA.AperFunction,SMDPad,CuDef*
G36*
G01*
X78000000Y-74850000D02*
X78800000Y-74850000D01*
G75*
G02*
X79200000Y-75250000I0J-400000D01*
G01*
X79200000Y-76050000D01*
G75*
G02*
X78800000Y-76450000I-400000J0D01*
G01*
X78000000Y-76450000D01*
G75*
G02*
X77600000Y-76050000I0J400000D01*
G01*
X77600000Y-75250000D01*
G75*
G02*
X78000000Y-74850000I400000J0D01*
G01*
G37*
G04 #@! TD.AperFunction*
G04 #@! TA.AperFunction,SMDPad,CuDef*
G36*
G01*
X80540000Y-77390000D02*
X81340000Y-77390000D01*
G75*
G02*
X81740000Y-77790000I0J-400000D01*
G01*
X81740000Y-78590000D01*
G75*
G02*
X81340000Y-78990000I-400000J0D01*
G01*
X80540000Y-78990000D01*
G75*
G02*
X80140000Y-78590000I0J400000D01*
G01*
X80140000Y-77790000D01*
G75*
G02*
X80540000Y-77390000I400000J0D01*
G01*
G37*
G04 #@! TD.AperFunction*
G04 #@! TA.AperFunction,SMDPad,CuDef*
G36*
G01*
X78000000Y-77390000D02*
X78800000Y-77390000D01*
G75*
G02*
X79200000Y-77790000I0J-400000D01*
G01*
X79200000Y-78590000D01*
G75*
G02*
X78800000Y-78990000I-400000J0D01*
G01*
X78000000Y-78990000D01*
G75*
G02*
X77600000Y-78590000I0J400000D01*
G01*
X77600000Y-77790000D01*
G75*
G02*
X78000000Y-77390000I400000J0D01*
G01*
G37*
G04 #@! TD.AperFunction*
G04 #@! TA.AperFunction,SMDPad,CuDef*
G36*
G01*
X80540000Y-79930000D02*
X81340000Y-79930000D01*
G75*
G02*
X81740000Y-80330000I0J-400000D01*
G01*
X81740000Y-81130000D01*
G75*
G02*
X81340000Y-81530000I-400000J0D01*
G01*
X80540000Y-81530000D01*
G75*
G02*
X80140000Y-81130000I0J400000D01*
G01*
X80140000Y-80330000D01*
G75*
G02*
X80540000Y-79930000I400000J0D01*
G01*
G37*
G04 #@! TD.AperFunction*
G04 #@! TA.AperFunction,SMDPad,CuDef*
G36*
G01*
X78000000Y-79930000D02*
X78800000Y-79930000D01*
G75*
G02*
X79200000Y-80330000I0J-400000D01*
G01*
X79200000Y-81130000D01*
G75*
G02*
X78800000Y-81530000I-400000J0D01*
G01*
X78000000Y-81530000D01*
G75*
G02*
X77600000Y-81130000I0J400000D01*
G01*
X77600000Y-80330000D01*
G75*
G02*
X78000000Y-79930000I400000J0D01*
G01*
G37*
G04 #@! TD.AperFunction*
G04 #@! TA.AperFunction,SMDPad,CuDef*
G36*
G01*
X80540000Y-82470000D02*
X81340000Y-82470000D01*
G75*
G02*
X81740000Y-82870000I0J-400000D01*
G01*
X81740000Y-83670000D01*
G75*
G02*
X81340000Y-84070000I-400000J0D01*
G01*
X80540000Y-84070000D01*
G75*
G02*
X80140000Y-83670000I0J400000D01*
G01*
X80140000Y-82870000D01*
G75*
G02*
X80540000Y-82470000I400000J0D01*
G01*
G37*
G04 #@! TD.AperFunction*
G04 #@! TA.AperFunction,SMDPad,CuDef*
G36*
G01*
X78000000Y-82470000D02*
X78800000Y-82470000D01*
G75*
G02*
X79200000Y-82870000I0J-400000D01*
G01*
X79200000Y-83670000D01*
G75*
G02*
X78800000Y-84070000I-400000J0D01*
G01*
X78000000Y-84070000D01*
G75*
G02*
X77600000Y-83670000I0J400000D01*
G01*
X77600000Y-82870000D01*
G75*
G02*
X78000000Y-82470000I400000J0D01*
G01*
G37*
G04 #@! TD.AperFunction*
G04 #@! TA.AperFunction,SMDPad,CuDef*
G36*
G01*
X80540000Y-85010000D02*
X81340000Y-85010000D01*
G75*
G02*
X81740000Y-85410000I0J-400000D01*
G01*
X81740000Y-86210000D01*
G75*
G02*
X81340000Y-86610000I-400000J0D01*
G01*
X80540000Y-86610000D01*
G75*
G02*
X80140000Y-86210000I0J400000D01*
G01*
X80140000Y-85410000D01*
G75*
G02*
X80540000Y-85010000I400000J0D01*
G01*
G37*
G04 #@! TD.AperFunction*
G04 #@! TA.AperFunction,SMDPad,CuDef*
G36*
G01*
X78000000Y-85010000D02*
X78800000Y-85010000D01*
G75*
G02*
X79200000Y-85410000I0J-400000D01*
G01*
X79200000Y-86210000D01*
G75*
G02*
X78800000Y-86610000I-400000J0D01*
G01*
X78000000Y-86610000D01*
G75*
G02*
X77600000Y-86210000I0J400000D01*
G01*
X77600000Y-85410000D01*
G75*
G02*
X78000000Y-85010000I400000J0D01*
G01*
G37*
G04 #@! TD.AperFunction*
G04 #@! TA.AperFunction,SMDPad,CuDef*
G36*
G01*
X80540000Y-87550000D02*
X81340000Y-87550000D01*
G75*
G02*
X81740000Y-87950000I0J-400000D01*
G01*
X81740000Y-88750000D01*
G75*
G02*
X81340000Y-89150000I-400000J0D01*
G01*
X80540000Y-89150000D01*
G75*
G02*
X80140000Y-88750000I0J400000D01*
G01*
X80140000Y-87950000D01*
G75*
G02*
X80540000Y-87550000I400000J0D01*
G01*
G37*
G04 #@! TD.AperFunction*
G04 #@! TA.AperFunction,SMDPad,CuDef*
G36*
G01*
X78000000Y-87550000D02*
X78800000Y-87550000D01*
G75*
G02*
X79200000Y-87950000I0J-400000D01*
G01*
X79200000Y-88750000D01*
G75*
G02*
X78800000Y-89150000I-400000J0D01*
G01*
X78000000Y-89150000D01*
G75*
G02*
X77600000Y-88750000I0J400000D01*
G01*
X77600000Y-87950000D01*
G75*
G02*
X78000000Y-87550000I400000J0D01*
G01*
G37*
G04 #@! TD.AperFunction*
G04 #@! TA.AperFunction,SMDPad,CuDef*
G36*
G01*
X80540000Y-90090000D02*
X81340000Y-90090000D01*
G75*
G02*
X81740000Y-90490000I0J-400000D01*
G01*
X81740000Y-91290000D01*
G75*
G02*
X81340000Y-91690000I-400000J0D01*
G01*
X80540000Y-91690000D01*
G75*
G02*
X80140000Y-91290000I0J400000D01*
G01*
X80140000Y-90490000D01*
G75*
G02*
X80540000Y-90090000I400000J0D01*
G01*
G37*
G04 #@! TD.AperFunction*
G04 #@! TA.AperFunction,SMDPad,CuDef*
G36*
G01*
X78000000Y-90090000D02*
X78800000Y-90090000D01*
G75*
G02*
X79200000Y-90490000I0J-400000D01*
G01*
X79200000Y-91290000D01*
G75*
G02*
X78800000Y-91690000I-400000J0D01*
G01*
X78000000Y-91690000D01*
G75*
G02*
X77600000Y-91290000I0J400000D01*
G01*
X77600000Y-90490000D01*
G75*
G02*
X78000000Y-90090000I400000J0D01*
G01*
G37*
G04 #@! TD.AperFunction*
G04 #@! TA.AperFunction,SMDPad,CuDef*
G36*
G01*
X80540000Y-92630000D02*
X81340000Y-92630000D01*
G75*
G02*
X81740000Y-93030000I0J-400000D01*
G01*
X81740000Y-93830000D01*
G75*
G02*
X81340000Y-94230000I-400000J0D01*
G01*
X80540000Y-94230000D01*
G75*
G02*
X80140000Y-93830000I0J400000D01*
G01*
X80140000Y-93030000D01*
G75*
G02*
X80540000Y-92630000I400000J0D01*
G01*
G37*
G04 #@! TD.AperFunction*
G04 #@! TA.AperFunction,SMDPad,CuDef*
G36*
G01*
X78000000Y-92630000D02*
X78800000Y-92630000D01*
G75*
G02*
X79200000Y-93030000I0J-400000D01*
G01*
X79200000Y-93830000D01*
G75*
G02*
X78800000Y-94230000I-400000J0D01*
G01*
X78000000Y-94230000D01*
G75*
G02*
X77600000Y-93830000I0J400000D01*
G01*
X77600000Y-93030000D01*
G75*
G02*
X78000000Y-92630000I400000J0D01*
G01*
G37*
G04 #@! TD.AperFunction*
G04 #@! TA.AperFunction,SMDPad,CuDef*
G36*
G01*
X80540000Y-95170000D02*
X81340000Y-95170000D01*
G75*
G02*
X81740000Y-95570000I0J-400000D01*
G01*
X81740000Y-96370000D01*
G75*
G02*
X81340000Y-96770000I-400000J0D01*
G01*
X80540000Y-96770000D01*
G75*
G02*
X80140000Y-96370000I0J400000D01*
G01*
X80140000Y-95570000D01*
G75*
G02*
X80540000Y-95170000I400000J0D01*
G01*
G37*
G04 #@! TD.AperFunction*
G04 #@! TA.AperFunction,SMDPad,CuDef*
G36*
G01*
X78000000Y-95170000D02*
X78800000Y-95170000D01*
G75*
G02*
X79200000Y-95570000I0J-400000D01*
G01*
X79200000Y-96370000D01*
G75*
G02*
X78800000Y-96770000I-400000J0D01*
G01*
X78000000Y-96770000D01*
G75*
G02*
X77600000Y-96370000I0J400000D01*
G01*
X77600000Y-95570000D01*
G75*
G02*
X78000000Y-95170000I400000J0D01*
G01*
G37*
G04 #@! TD.AperFunction*
G04 #@! TA.AperFunction,SMDPad,CuDef*
G36*
G01*
X80540000Y-97710000D02*
X81340000Y-97710000D01*
G75*
G02*
X81740000Y-98110000I0J-400000D01*
G01*
X81740000Y-98910000D01*
G75*
G02*
X81340000Y-99310000I-400000J0D01*
G01*
X80540000Y-99310000D01*
G75*
G02*
X80140000Y-98910000I0J400000D01*
G01*
X80140000Y-98110000D01*
G75*
G02*
X80540000Y-97710000I400000J0D01*
G01*
G37*
G04 #@! TD.AperFunction*
G04 #@! TA.AperFunction,SMDPad,CuDef*
G36*
G01*
X78000000Y-97710000D02*
X78800000Y-97710000D01*
G75*
G02*
X79200000Y-98110000I0J-400000D01*
G01*
X79200000Y-98910000D01*
G75*
G02*
X78800000Y-99310000I-400000J0D01*
G01*
X78000000Y-99310000D01*
G75*
G02*
X77600000Y-98910000I0J400000D01*
G01*
X77600000Y-98110000D01*
G75*
G02*
X78000000Y-97710000I400000J0D01*
G01*
G37*
G04 #@! TD.AperFunction*
G04 #@! TA.AperFunction,SMDPad,CuDef*
G36*
G01*
X80540000Y-100250000D02*
X81340000Y-100250000D01*
G75*
G02*
X81740000Y-100650000I0J-400000D01*
G01*
X81740000Y-101450000D01*
G75*
G02*
X81340000Y-101850000I-400000J0D01*
G01*
X80540000Y-101850000D01*
G75*
G02*
X80140000Y-101450000I0J400000D01*
G01*
X80140000Y-100650000D01*
G75*
G02*
X80540000Y-100250000I400000J0D01*
G01*
G37*
G04 #@! TD.AperFunction*
G04 #@! TA.AperFunction,SMDPad,CuDef*
G36*
G01*
X78000000Y-100250000D02*
X78800000Y-100250000D01*
G75*
G02*
X79200000Y-100650000I0J-400000D01*
G01*
X79200000Y-101450000D01*
G75*
G02*
X78800000Y-101850000I-400000J0D01*
G01*
X78000000Y-101850000D01*
G75*
G02*
X77600000Y-101450000I0J400000D01*
G01*
X77600000Y-100650000D01*
G75*
G02*
X78000000Y-100250000I400000J0D01*
G01*
G37*
G04 #@! TD.AperFunction*
G04 #@! TA.AperFunction,SMDPad,CuDef*
G36*
G01*
X80540000Y-102790000D02*
X81340000Y-102790000D01*
G75*
G02*
X81740000Y-103190000I0J-400000D01*
G01*
X81740000Y-103990000D01*
G75*
G02*
X81340000Y-104390000I-400000J0D01*
G01*
X80540000Y-104390000D01*
G75*
G02*
X80140000Y-103990000I0J400000D01*
G01*
X80140000Y-103190000D01*
G75*
G02*
X80540000Y-102790000I400000J0D01*
G01*
G37*
G04 #@! TD.AperFunction*
G04 #@! TA.AperFunction,SMDPad,CuDef*
G36*
G01*
X78000000Y-102790000D02*
X78800000Y-102790000D01*
G75*
G02*
X79200000Y-103190000I0J-400000D01*
G01*
X79200000Y-103990000D01*
G75*
G02*
X78800000Y-104390000I-400000J0D01*
G01*
X78000000Y-104390000D01*
G75*
G02*
X77600000Y-103990000I0J400000D01*
G01*
X77600000Y-103190000D01*
G75*
G02*
X78000000Y-102790000I400000J0D01*
G01*
G37*
G04 #@! TD.AperFunction*
G04 #@! TA.AperFunction,SMDPad,CuDef*
G36*
G01*
X80540000Y-105330000D02*
X81340000Y-105330000D01*
G75*
G02*
X81740000Y-105730000I0J-400000D01*
G01*
X81740000Y-106530000D01*
G75*
G02*
X81340000Y-106930000I-400000J0D01*
G01*
X80540000Y-106930000D01*
G75*
G02*
X80140000Y-106530000I0J400000D01*
G01*
X80140000Y-105730000D01*
G75*
G02*
X80540000Y-105330000I400000J0D01*
G01*
G37*
G04 #@! TD.AperFunction*
G04 #@! TA.AperFunction,SMDPad,CuDef*
G36*
G01*
X78000000Y-105330000D02*
X78800000Y-105330000D01*
G75*
G02*
X79200000Y-105730000I0J-400000D01*
G01*
X79200000Y-106530000D01*
G75*
G02*
X78800000Y-106930000I-400000J0D01*
G01*
X78000000Y-106930000D01*
G75*
G02*
X77600000Y-106530000I0J400000D01*
G01*
X77600000Y-105730000D01*
G75*
G02*
X78000000Y-105330000I400000J0D01*
G01*
G37*
G04 #@! TD.AperFunction*
G04 #@! TA.AperFunction,SMDPad,CuDef*
G36*
G01*
X80540000Y-107870000D02*
X81340000Y-107870000D01*
G75*
G02*
X81740000Y-108270000I0J-400000D01*
G01*
X81740000Y-109070000D01*
G75*
G02*
X81340000Y-109470000I-400000J0D01*
G01*
X80540000Y-109470000D01*
G75*
G02*
X80140000Y-109070000I0J400000D01*
G01*
X80140000Y-108270000D01*
G75*
G02*
X80540000Y-107870000I400000J0D01*
G01*
G37*
G04 #@! TD.AperFunction*
G04 #@! TA.AperFunction,SMDPad,CuDef*
G36*
G01*
X78000000Y-107870000D02*
X78800000Y-107870000D01*
G75*
G02*
X79200000Y-108270000I0J-400000D01*
G01*
X79200000Y-109070000D01*
G75*
G02*
X78800000Y-109470000I-400000J0D01*
G01*
X78000000Y-109470000D01*
G75*
G02*
X77600000Y-109070000I0J400000D01*
G01*
X77600000Y-108270000D01*
G75*
G02*
X78000000Y-107870000I400000J0D01*
G01*
G37*
G04 #@! TD.AperFunction*
G04 #@! TA.AperFunction,SMDPad,CuDef*
G36*
G01*
X80540000Y-110410000D02*
X81340000Y-110410000D01*
G75*
G02*
X81740000Y-110810000I0J-400000D01*
G01*
X81740000Y-111610000D01*
G75*
G02*
X81340000Y-112010000I-400000J0D01*
G01*
X80540000Y-112010000D01*
G75*
G02*
X80140000Y-111610000I0J400000D01*
G01*
X80140000Y-110810000D01*
G75*
G02*
X80540000Y-110410000I400000J0D01*
G01*
G37*
G04 #@! TD.AperFunction*
G04 #@! TA.AperFunction,SMDPad,CuDef*
G36*
G01*
X78000000Y-110410000D02*
X78800000Y-110410000D01*
G75*
G02*
X79200000Y-110810000I0J-400000D01*
G01*
X79200000Y-111610000D01*
G75*
G02*
X78800000Y-112010000I-400000J0D01*
G01*
X78000000Y-112010000D01*
G75*
G02*
X77600000Y-111610000I0J400000D01*
G01*
X77600000Y-110810000D01*
G75*
G02*
X78000000Y-110410000I400000J0D01*
G01*
G37*
G04 #@! TD.AperFunction*
G04 #@! TA.AperFunction,SMDPad,CuDef*
G36*
G01*
X51827500Y-72575000D02*
X51827500Y-71325000D01*
G75*
G02*
X52077500Y-71075000I250000J0D01*
G01*
X53002500Y-71075000D01*
G75*
G02*
X53252500Y-71325000I0J-250000D01*
G01*
X53252500Y-72575000D01*
G75*
G02*
X53002500Y-72825000I-250000J0D01*
G01*
X52077500Y-72825000D01*
G75*
G02*
X51827500Y-72575000I0J250000D01*
G01*
G37*
G04 #@! TD.AperFunction*
G04 #@! TA.AperFunction,SMDPad,CuDef*
G36*
G01*
X54802500Y-72575000D02*
X54802500Y-71325000D01*
G75*
G02*
X55052500Y-71075000I250000J0D01*
G01*
X55977500Y-71075000D01*
G75*
G02*
X56227500Y-71325000I0J-250000D01*
G01*
X56227500Y-72575000D01*
G75*
G02*
X55977500Y-72825000I-250000J0D01*
G01*
X55052500Y-72825000D01*
G75*
G02*
X54802500Y-72575000I0J250000D01*
G01*
G37*
G04 #@! TD.AperFunction*
D10*
X53526280Y-105401680D03*
X118918580Y-61203140D03*
X53513580Y-62219140D03*
X118918580Y-105399140D03*
D11*
X111280800Y-82389280D03*
X111280800Y-79849280D03*
X111280800Y-84929280D03*
D12*
X63569440Y-90070240D03*
X63569440Y-92076840D03*
X63569440Y-94083440D03*
X63569440Y-96090040D03*
X63569440Y-98096640D03*
D13*
X52444240Y-99252340D03*
X52456940Y-88914540D03*
G04 #@! TA.AperFunction,SMDPad,CuDef*
G36*
G01*
X59875000Y-81037500D02*
X58625000Y-81037500D01*
G75*
G02*
X58375000Y-80787500I0J250000D01*
G01*
X58375000Y-79862500D01*
G75*
G02*
X58625000Y-79612500I250000J0D01*
G01*
X59875000Y-79612500D01*
G75*
G02*
X60125000Y-79862500I0J-250000D01*
G01*
X60125000Y-80787500D01*
G75*
G02*
X59875000Y-81037500I-250000J0D01*
G01*
G37*
G04 #@! TD.AperFunction*
G04 #@! TA.AperFunction,SMDPad,CuDef*
G36*
G01*
X59875000Y-84012500D02*
X58625000Y-84012500D01*
G75*
G02*
X58375000Y-83762500I0J250000D01*
G01*
X58375000Y-82837500D01*
G75*
G02*
X58625000Y-82587500I250000J0D01*
G01*
X59875000Y-82587500D01*
G75*
G02*
X60125000Y-82837500I0J-250000D01*
G01*
X60125000Y-83762500D01*
G75*
G02*
X59875000Y-84012500I-250000J0D01*
G01*
G37*
G04 #@! TD.AperFunction*
G04 #@! TA.AperFunction,SMDPad,CuDef*
G36*
G01*
X115267500Y-68395000D02*
X115267500Y-69645000D01*
G75*
G02*
X115017500Y-69895000I-250000J0D01*
G01*
X114092500Y-69895000D01*
G75*
G02*
X113842500Y-69645000I0J250000D01*
G01*
X113842500Y-68395000D01*
G75*
G02*
X114092500Y-68145000I250000J0D01*
G01*
X115017500Y-68145000D01*
G75*
G02*
X115267500Y-68395000I0J-250000D01*
G01*
G37*
G04 #@! TD.AperFunction*
G04 #@! TA.AperFunction,SMDPad,CuDef*
G36*
G01*
X118242500Y-68395000D02*
X118242500Y-69645000D01*
G75*
G02*
X117992500Y-69895000I-250000J0D01*
G01*
X117067500Y-69895000D01*
G75*
G02*
X116817500Y-69645000I0J250000D01*
G01*
X116817500Y-68395000D01*
G75*
G02*
X117067500Y-68145000I250000J0D01*
G01*
X117992500Y-68145000D01*
G75*
G02*
X118242500Y-68395000I0J-250000D01*
G01*
G37*
G04 #@! TD.AperFunction*
G04 #@! TA.AperFunction,SMDPad,CuDef*
G36*
G01*
X112017500Y-68395000D02*
X112017500Y-69645000D01*
G75*
G02*
X111767500Y-69895000I-250000J0D01*
G01*
X110842500Y-69895000D01*
G75*
G02*
X110592500Y-69645000I0J250000D01*
G01*
X110592500Y-68395000D01*
G75*
G02*
X110842500Y-68145000I250000J0D01*
G01*
X111767500Y-68145000D01*
G75*
G02*
X112017500Y-68395000I0J-250000D01*
G01*
G37*
G04 #@! TD.AperFunction*
G04 #@! TA.AperFunction,SMDPad,CuDef*
G36*
G01*
X109042500Y-68395000D02*
X109042500Y-69645000D01*
G75*
G02*
X108792500Y-69895000I-250000J0D01*
G01*
X107867500Y-69895000D01*
G75*
G02*
X107617500Y-69645000I0J250000D01*
G01*
X107617500Y-68395000D01*
G75*
G02*
X107867500Y-68145000I250000J0D01*
G01*
X108792500Y-68145000D01*
G75*
G02*
X109042500Y-68395000I0J-250000D01*
G01*
G37*
G04 #@! TD.AperFunction*
G04 #@! TA.AperFunction,SMDPad,CuDef*
G36*
G01*
X113357500Y-56665000D02*
X113357500Y-55415000D01*
G75*
G02*
X113607500Y-55165000I250000J0D01*
G01*
X114532500Y-55165000D01*
G75*
G02*
X114782500Y-55415000I0J-250000D01*
G01*
X114782500Y-56665000D01*
G75*
G02*
X114532500Y-56915000I-250000J0D01*
G01*
X113607500Y-56915000D01*
G75*
G02*
X113357500Y-56665000I0J250000D01*
G01*
G37*
G04 #@! TD.AperFunction*
G04 #@! TA.AperFunction,SMDPad,CuDef*
G36*
G01*
X116332500Y-56665000D02*
X116332500Y-55415000D01*
G75*
G02*
X116582500Y-55165000I250000J0D01*
G01*
X117507500Y-55165000D01*
G75*
G02*
X117757500Y-55415000I0J-250000D01*
G01*
X117757500Y-56665000D01*
G75*
G02*
X117507500Y-56915000I-250000J0D01*
G01*
X116582500Y-56915000D01*
G75*
G02*
X116332500Y-56665000I0J250000D01*
G01*
G37*
G04 #@! TD.AperFunction*
G04 #@! TA.AperFunction,SMDPad,CuDef*
G36*
G01*
X108972500Y-59895000D02*
X108972500Y-61145000D01*
G75*
G02*
X108722500Y-61395000I-250000J0D01*
G01*
X107797500Y-61395000D01*
G75*
G02*
X107547500Y-61145000I0J250000D01*
G01*
X107547500Y-59895000D01*
G75*
G02*
X107797500Y-59645000I250000J0D01*
G01*
X108722500Y-59645000D01*
G75*
G02*
X108972500Y-59895000I0J-250000D01*
G01*
G37*
G04 #@! TD.AperFunction*
G04 #@! TA.AperFunction,SMDPad,CuDef*
G36*
G01*
X111947500Y-59895000D02*
X111947500Y-61145000D01*
G75*
G02*
X111697500Y-61395000I-250000J0D01*
G01*
X110772500Y-61395000D01*
G75*
G02*
X110522500Y-61145000I0J250000D01*
G01*
X110522500Y-59895000D01*
G75*
G02*
X110772500Y-59645000I250000J0D01*
G01*
X111697500Y-59645000D01*
G75*
G02*
X111947500Y-59895000I0J-250000D01*
G01*
G37*
G04 #@! TD.AperFunction*
G04 #@! TA.AperFunction,SMDPad,CuDef*
G36*
G01*
X118162500Y-73025000D02*
X118162500Y-74275000D01*
G75*
G02*
X117912500Y-74525000I-250000J0D01*
G01*
X116987500Y-74525000D01*
G75*
G02*
X116737500Y-74275000I0J250000D01*
G01*
X116737500Y-73025000D01*
G75*
G02*
X116987500Y-72775000I250000J0D01*
G01*
X117912500Y-72775000D01*
G75*
G02*
X118162500Y-73025000I0J-250000D01*
G01*
G37*
G04 #@! TD.AperFunction*
G04 #@! TA.AperFunction,SMDPad,CuDef*
G36*
G01*
X115187500Y-73025000D02*
X115187500Y-74275000D01*
G75*
G02*
X114937500Y-74525000I-250000J0D01*
G01*
X114012500Y-74525000D01*
G75*
G02*
X113762500Y-74275000I0J250000D01*
G01*
X113762500Y-73025000D01*
G75*
G02*
X114012500Y-72775000I250000J0D01*
G01*
X114937500Y-72775000D01*
G75*
G02*
X115187500Y-73025000I0J-250000D01*
G01*
G37*
G04 #@! TD.AperFunction*
G04 #@! TA.AperFunction,SMDPad,CuDef*
G36*
G01*
X110752500Y-74125000D02*
X110752500Y-72875000D01*
G75*
G02*
X111002500Y-72625000I250000J0D01*
G01*
X111927500Y-72625000D01*
G75*
G02*
X112177500Y-72875000I0J-250000D01*
G01*
X112177500Y-74125000D01*
G75*
G02*
X111927500Y-74375000I-250000J0D01*
G01*
X111002500Y-74375000D01*
G75*
G02*
X110752500Y-74125000I0J250000D01*
G01*
G37*
G04 #@! TD.AperFunction*
G04 #@! TA.AperFunction,SMDPad,CuDef*
G36*
G01*
X107777500Y-74125000D02*
X107777500Y-72875000D01*
G75*
G02*
X108027500Y-72625000I250000J0D01*
G01*
X108952500Y-72625000D01*
G75*
G02*
X109202500Y-72875000I0J-250000D01*
G01*
X109202500Y-74125000D01*
G75*
G02*
X108952500Y-74375000I-250000J0D01*
G01*
X108027500Y-74375000D01*
G75*
G02*
X107777500Y-74125000I0J250000D01*
G01*
G37*
G04 #@! TD.AperFunction*
G04 #@! TA.AperFunction,SMDPad,CuDef*
G36*
G01*
X115217500Y-65485000D02*
X115217500Y-66735000D01*
G75*
G02*
X114967500Y-66985000I-250000J0D01*
G01*
X114042500Y-66985000D01*
G75*
G02*
X113792500Y-66735000I0J250000D01*
G01*
X113792500Y-65485000D01*
G75*
G02*
X114042500Y-65235000I250000J0D01*
G01*
X114967500Y-65235000D01*
G75*
G02*
X115217500Y-65485000I0J-250000D01*
G01*
G37*
G04 #@! TD.AperFunction*
G04 #@! TA.AperFunction,SMDPad,CuDef*
G36*
G01*
X118192500Y-65485000D02*
X118192500Y-66735000D01*
G75*
G02*
X117942500Y-66985000I-250000J0D01*
G01*
X117017500Y-66985000D01*
G75*
G02*
X116767500Y-66735000I0J250000D01*
G01*
X116767500Y-65485000D01*
G75*
G02*
X117017500Y-65235000I250000J0D01*
G01*
X117942500Y-65235000D01*
G75*
G02*
X118192500Y-65485000I0J-250000D01*
G01*
G37*
G04 #@! TD.AperFunction*
G04 #@! TA.AperFunction,SMDPad,CuDef*
G36*
G01*
X111752500Y-64295000D02*
X111752500Y-65545000D01*
G75*
G02*
X111502500Y-65795000I-250000J0D01*
G01*
X110577500Y-65795000D01*
G75*
G02*
X110327500Y-65545000I0J250000D01*
G01*
X110327500Y-64295000D01*
G75*
G02*
X110577500Y-64045000I250000J0D01*
G01*
X111502500Y-64045000D01*
G75*
G02*
X111752500Y-64295000I0J-250000D01*
G01*
G37*
G04 #@! TD.AperFunction*
G04 #@! TA.AperFunction,SMDPad,CuDef*
G36*
G01*
X108777500Y-64295000D02*
X108777500Y-65545000D01*
G75*
G02*
X108527500Y-65795000I-250000J0D01*
G01*
X107602500Y-65795000D01*
G75*
G02*
X107352500Y-65545000I0J250000D01*
G01*
X107352500Y-64295000D01*
G75*
G02*
X107602500Y-64045000I250000J0D01*
G01*
X108527500Y-64045000D01*
G75*
G02*
X108777500Y-64295000I0J-250000D01*
G01*
G37*
G04 #@! TD.AperFunction*
D14*
X56274000Y-79402000D03*
X56279080Y-80418000D03*
X56279080Y-81428920D03*
X56268920Y-78380920D03*
D15*
X56279080Y-82658280D03*
X56268920Y-77151560D03*
D12*
X56020000Y-84228000D03*
X56020000Y-75592000D03*
X52222700Y-75592000D03*
X52222700Y-84228000D03*
D16*
X57901840Y-118110000D03*
X59903360Y-118110000D03*
X61904880Y-118110000D03*
X63911480Y-118110000D03*
X65913000Y-118110000D03*
X55900320Y-118110000D03*
X67914520Y-118110000D03*
X69916040Y-118110000D03*
X53893720Y-118110000D03*
X51887120Y-118110000D03*
D17*
X109931200Y-107899200D03*
X62534800Y-107899200D03*
X67614800Y-107899200D03*
D16*
X112339120Y-118262400D03*
X114340640Y-118262400D03*
X116342160Y-118262400D03*
X118343680Y-118262400D03*
X120345200Y-118262400D03*
X110337600Y-118262400D03*
X108331000Y-118262400D03*
D18*
X85880000Y-65470000D03*
X72620000Y-62380000D03*
X78550000Y-60915000D03*
X72263000Y-57391300D03*
X107569000Y-79832200D03*
X97540000Y-91060000D03*
X83650000Y-70320000D03*
X76923900Y-76923900D03*
X65024000Y-106756200D03*
X82710000Y-79330000D03*
X55290480Y-90297000D03*
X79629000Y-71755000D03*
X84201000Y-73025000D03*
X83820000Y-80919999D03*
X96815000Y-89000000D03*
X88590000Y-80920000D03*
X91970000Y-95260000D03*
X88210000Y-84250000D03*
X82810000Y-85880000D03*
X82790000Y-89660000D03*
X82560000Y-91610000D03*
X84400000Y-93900000D03*
X100670000Y-95970000D03*
X86980000Y-96370000D03*
X91440000Y-112350000D03*
X83700000Y-105970000D03*
X71932800Y-111302800D03*
X91458115Y-113357190D03*
X83140000Y-108830000D03*
X56360000Y-107130000D03*
X70380000Y-105740000D03*
X74730000Y-108710000D03*
X69850000Y-116245010D03*
X88140000Y-105340000D03*
X113600000Y-114100000D03*
X74720000Y-79080000D03*
X117600000Y-114080000D03*
X68122800Y-92163900D03*
X76220000Y-103620000D03*
X69720000Y-103600000D03*
X75990000Y-65010000D03*
X119040000Y-114930000D03*
X88417400Y-76682600D03*
X87020400Y-69075300D03*
X75780900Y-56680100D03*
X97600000Y-60190000D03*
X110280000Y-56460000D03*
X61150500Y-79743300D03*
X69850000Y-86950000D03*
X111140000Y-115150000D03*
X100370000Y-81510000D03*
X107780000Y-96000000D03*
X65340000Y-59120000D03*
X64900000Y-57290000D03*
D19*
X83510000Y-62950000D02*
X80940000Y-62950000D01*
X83510000Y-63100000D02*
X85880000Y-65470000D01*
X83510000Y-62950000D02*
X83510000Y-63100000D01*
X73190000Y-62950000D02*
X72620000Y-62380000D01*
X78400000Y-62950000D02*
X73190000Y-62950000D01*
X78550000Y-62800000D02*
X78400000Y-62950000D01*
X78550000Y-60915000D02*
X78550000Y-62800000D01*
X72263000Y-56793000D02*
X71320000Y-55850000D01*
X72263000Y-57391300D02*
X72263000Y-56793000D01*
X107586080Y-79849280D02*
X107569000Y-79832200D01*
X111280800Y-79849280D02*
X107586080Y-79849280D01*
X108780800Y-79849280D02*
X111280800Y-79849280D01*
X105692121Y-82937959D02*
X108780800Y-79849280D01*
X105692121Y-115623521D02*
X105692121Y-82937959D01*
X108331000Y-118262400D02*
X105692121Y-115623521D01*
X81190000Y-70320000D02*
X80940000Y-70570000D01*
X83650000Y-70320000D02*
X81190000Y-70320000D01*
X97540000Y-100770000D02*
X97540000Y-91060000D01*
X59903360Y-118110000D02*
X59903360Y-117610000D01*
X59903360Y-117610000D02*
X63969360Y-113544000D01*
X84772000Y-113538000D02*
X97540000Y-100770000D01*
X63969360Y-113544000D02*
X82822410Y-113544000D01*
X82822410Y-113544000D02*
X82828410Y-113538000D01*
X82828410Y-113538000D02*
X84772000Y-113538000D01*
X80940000Y-75650000D02*
X79666100Y-76923900D01*
X79666100Y-76923900D02*
X76923900Y-76923900D01*
X57111900Y-112179100D02*
X53893720Y-115397280D01*
X53893720Y-115397280D02*
X53893720Y-118110000D01*
X60694810Y-112179100D02*
X57111900Y-112179100D01*
X65024000Y-107849910D02*
X60694810Y-112179100D01*
X65024000Y-106756200D02*
X65024000Y-107849910D01*
X79525010Y-74524990D02*
X105954990Y-74524990D01*
X78400000Y-75650000D02*
X79525010Y-74524990D01*
X105954990Y-74524990D02*
X107090000Y-75660000D01*
X109305000Y-75660000D02*
X111465000Y-73500000D01*
X107090000Y-75660000D02*
X109305000Y-75660000D01*
X82080000Y-79330000D02*
X80940000Y-78190000D01*
X82710000Y-79330000D02*
X82080000Y-79330000D01*
X55290480Y-101084478D02*
X55290480Y-90297000D01*
X51801279Y-104573679D02*
X55290480Y-101084478D01*
X51801279Y-116774159D02*
X51801279Y-104573679D01*
X51887120Y-118110000D02*
X51887120Y-116860000D01*
X51887120Y-116860000D02*
X51801279Y-116774159D01*
X79629000Y-71755000D02*
X82931000Y-71755000D01*
X82931000Y-71755000D02*
X84201000Y-73025000D01*
X81129999Y-80919999D02*
X80940000Y-80730000D01*
X83820000Y-80919999D02*
X81129999Y-80919999D01*
X88590000Y-80920000D02*
X87590000Y-81920000D01*
X79590000Y-81920000D02*
X78400000Y-80730000D01*
X87590000Y-81920000D02*
X79590000Y-81920000D01*
X98265001Y-90450001D02*
X96815000Y-89000000D01*
X98265001Y-102594999D02*
X98265001Y-90450001D01*
X86450000Y-114410000D02*
X98265001Y-102594999D01*
X75413590Y-114410000D02*
X86450000Y-114410000D01*
X75049590Y-114046000D02*
X75413590Y-114410000D01*
X65468880Y-114046000D02*
X75049590Y-114046000D01*
X61904880Y-117610000D02*
X65468880Y-114046000D01*
X61904880Y-118110000D02*
X61904880Y-117610000D01*
X87810001Y-83850001D02*
X82989999Y-83850001D01*
X88210000Y-84250000D02*
X87810001Y-83850001D01*
X82989999Y-83850001D02*
X82340000Y-84500000D01*
X79630000Y-84500000D02*
X78400000Y-83270000D01*
X82340000Y-84500000D02*
X79630000Y-84500000D01*
X62481840Y-113030000D02*
X82700000Y-113030000D01*
X91970000Y-103760000D02*
X91970000Y-95260000D01*
X82700000Y-113030000D02*
X91970000Y-103760000D01*
X57901840Y-117610000D02*
X62481840Y-113030000D01*
X57901840Y-118110000D02*
X57901840Y-117610000D01*
X81010000Y-85880000D02*
X80940000Y-85810000D01*
X82810000Y-85880000D02*
X81010000Y-85880000D01*
X82605010Y-89475010D02*
X79525010Y-89475010D01*
X79153553Y-89103553D02*
X78400000Y-88350000D01*
X79525010Y-89475010D02*
X79153553Y-89103553D01*
X82790000Y-89660000D02*
X82605010Y-89475010D01*
X81660000Y-91610000D02*
X80940000Y-90890000D01*
X82560000Y-91610000D02*
X81660000Y-91610000D01*
X84400000Y-93900000D02*
X83680000Y-93900000D01*
X83680000Y-93900000D02*
X81870000Y-92090000D01*
X79600000Y-92090000D02*
X78400000Y-90890000D01*
X81870000Y-92090000D02*
X79600000Y-92090000D01*
X83080000Y-96370000D02*
X80940000Y-98510000D01*
X86980000Y-96370000D02*
X83080000Y-96370000D01*
X100670000Y-105218307D02*
X100670000Y-95970000D01*
X74760000Y-116570000D02*
X89318307Y-116570000D01*
X89318307Y-116570000D02*
X100670000Y-105218307D01*
X73710010Y-115520010D02*
X74760000Y-116570000D01*
X69254510Y-115520010D02*
X69342000Y-115520010D01*
X67914520Y-116860000D02*
X69254510Y-115520010D01*
X67914520Y-118110000D02*
X67914520Y-116860000D01*
X69342000Y-115520010D02*
X73710010Y-115520010D01*
X77500000Y-101050000D02*
X78400000Y-101050000D01*
X77125002Y-101050000D02*
X77500000Y-101050000D01*
X55900320Y-118110000D02*
X55900320Y-117610000D01*
X55900320Y-117610000D02*
X61115320Y-112395000D01*
X75692000Y-102483002D02*
X77125002Y-101050000D01*
X61115320Y-112395000D02*
X66371998Y-112395000D01*
X66371998Y-112395000D02*
X75692000Y-103074998D01*
X75692000Y-103074998D02*
X75692000Y-102483002D01*
X112445800Y-77317600D02*
X114475000Y-75288400D01*
X110007400Y-77317600D02*
X112445800Y-77317600D01*
X108300721Y-79024279D02*
X110007400Y-77317600D01*
X80940000Y-103590000D02*
X105505721Y-79024279D01*
X114475000Y-75288400D02*
X114475000Y-73650000D01*
X105505721Y-79024279D02*
X108300721Y-79024279D01*
X81334678Y-106130000D02*
X80940000Y-106130000D01*
X81494678Y-105970000D02*
X81334678Y-106130000D01*
X83700000Y-105970000D02*
X81494678Y-105970000D01*
X88400000Y-115390000D02*
X91440000Y-112350000D01*
X75230000Y-115390000D02*
X88400000Y-115390000D01*
X74422000Y-114582000D02*
X75230000Y-115390000D01*
X63911480Y-117610000D02*
X66939480Y-114582000D01*
X66939480Y-114582000D02*
X74422000Y-114582000D01*
X63911480Y-118110000D02*
X63911480Y-117610000D01*
X78320000Y-106210000D02*
X78400000Y-106130000D01*
X74720000Y-106210000D02*
X78320000Y-106210000D01*
X71932800Y-108997200D02*
X74720000Y-106210000D01*
X71932800Y-111302800D02*
X71932800Y-108997200D01*
X74273590Y-115070000D02*
X75153590Y-115950000D01*
X73590000Y-115070000D02*
X74273590Y-115070000D01*
X88865305Y-115950000D02*
X91458115Y-113357190D01*
X75153590Y-115950000D02*
X88865305Y-115950000D01*
X81100000Y-108830000D02*
X80940000Y-108670000D01*
X83140000Y-108830000D02*
X81100000Y-108830000D01*
X66010000Y-118064680D02*
X66075320Y-118130000D01*
X68453000Y-115070000D02*
X68580000Y-115070000D01*
X65913000Y-118110000D02*
X65913000Y-117610000D01*
X65913000Y-117610000D02*
X68453000Y-115070000D01*
X68580000Y-115070000D02*
X73590000Y-115070000D01*
X57750000Y-105740000D02*
X70380000Y-105740000D01*
X56360000Y-107130000D02*
X57750000Y-105740000D01*
X78360000Y-108710000D02*
X78400000Y-108670000D01*
X74730000Y-108710000D02*
X78360000Y-108710000D01*
X69850000Y-118043960D02*
X69916040Y-118110000D01*
X69850000Y-116245010D02*
X69850000Y-118043960D01*
X88140000Y-105905685D02*
X84155685Y-109890000D01*
X88140000Y-105340000D02*
X88140000Y-105905685D01*
X79720000Y-109890000D02*
X78400000Y-111210000D01*
X84155685Y-109890000D02*
X79720000Y-109890000D01*
X55515000Y-71950000D02*
X57380000Y-73815000D01*
X56255480Y-79404780D02*
X56015480Y-79404780D01*
X57380000Y-73815000D02*
X57380000Y-78280260D01*
X57380000Y-79296000D02*
X57380000Y-78280260D01*
X57274000Y-79402000D02*
X57380000Y-79296000D01*
X56274000Y-79402000D02*
X57274000Y-79402000D01*
X59154220Y-80420780D02*
X59250000Y-80325000D01*
X56015480Y-80420780D02*
X59154220Y-80420780D01*
X113999999Y-114499999D02*
X114469999Y-114499999D01*
X113600000Y-114100000D02*
X113999999Y-114499999D01*
X116346960Y-116376960D02*
X116346960Y-118260000D01*
X114469999Y-114499999D02*
X116346960Y-116376960D01*
X117600000Y-114080000D02*
X117600000Y-115440000D01*
X118348480Y-116188480D02*
X118348480Y-118260000D01*
X117600000Y-115440000D02*
X118348480Y-116188480D01*
X75641200Y-78158800D02*
X74720000Y-79080000D01*
X75641200Y-73901300D02*
X75641200Y-78158800D01*
X74663300Y-72923400D02*
X75641200Y-73901300D01*
X58620000Y-74696800D02*
X60393400Y-72923400D01*
X60393400Y-72923400D02*
X74663300Y-72923400D01*
X63569440Y-90070240D02*
X66029140Y-90070240D01*
X66029140Y-90070240D02*
X68122800Y-92163900D01*
X52968179Y-83480781D02*
X52218180Y-84230780D01*
X55265481Y-83480781D02*
X52968179Y-83480781D01*
X56015480Y-84230780D02*
X55265481Y-83480781D01*
X56015480Y-75594780D02*
X56015480Y-77156880D01*
X56015480Y-82668680D02*
X56015480Y-84230780D01*
X55265480Y-82668680D02*
X54574600Y-81977800D01*
X56015480Y-82668680D02*
X55265480Y-82668680D01*
X54574600Y-81977800D02*
X54184140Y-81977800D01*
X52218180Y-80011840D02*
X52218180Y-75594780D01*
X54184140Y-81977800D02*
X52218180Y-80011840D01*
X52540000Y-75272960D02*
X52218180Y-75594780D01*
X52540000Y-71950000D02*
X52540000Y-75272960D01*
X59250000Y-83300000D02*
X58010000Y-83300000D01*
X57378680Y-82668680D02*
X56015480Y-82668680D01*
X58010000Y-83300000D02*
X57378680Y-82668680D01*
X53278840Y-75594780D02*
X56015480Y-75594780D01*
X52218180Y-75594780D02*
X53278840Y-75594780D01*
X78370000Y-103620000D02*
X78400000Y-103590000D01*
X76220000Y-103620000D02*
X78370000Y-103620000D01*
X111305000Y-69020000D02*
X112117500Y-69020000D01*
X56015480Y-84230780D02*
X56015480Y-94725480D01*
X64890000Y-103600000D02*
X69720000Y-103600000D01*
X53311347Y-71178653D02*
X52540000Y-71950000D01*
X57213553Y-67276447D02*
X53311347Y-71178653D01*
X77646447Y-67276447D02*
X57213553Y-67276447D01*
X78400000Y-68030000D02*
X77646447Y-67276447D01*
X75990000Y-65620000D02*
X78400000Y-68030000D01*
X75990000Y-65010000D02*
X75990000Y-65620000D01*
X112990000Y-69020000D02*
X114555000Y-69020000D01*
X112117500Y-69020000D02*
X112990000Y-69020000D01*
X111305000Y-65185000D02*
X111040000Y-64920000D01*
X111305000Y-69020000D02*
X111305000Y-65185000D01*
X61160000Y-55850000D02*
X63470000Y-58160000D01*
X63470000Y-58160000D02*
X112070000Y-58160000D01*
X112070000Y-58160000D02*
X112990000Y-59080000D01*
X112990000Y-60510000D02*
X112990000Y-69020000D01*
X112990000Y-59080000D02*
X112990000Y-60510000D01*
X119040000Y-114930000D02*
X119950000Y-115840000D01*
X120000000Y-115840000D02*
X120090000Y-115930000D01*
X119950000Y-115840000D02*
X120000000Y-115840000D01*
X64370000Y-103080000D02*
X64890000Y-103600000D01*
X56015480Y-94725480D02*
X64370000Y-103080000D01*
X114555000Y-66160000D02*
X114505000Y-66110000D01*
X114555000Y-69020000D02*
X114555000Y-66160000D01*
X120350000Y-116190000D02*
X120350000Y-118260000D01*
X120090000Y-115930000D02*
X120350000Y-116190000D01*
X113017300Y-71707300D02*
X113017300Y-75311000D01*
X113017300Y-75311000D02*
X111645700Y-76682600D01*
X111645700Y-76682600D02*
X88417400Y-76682600D01*
X86375005Y-69155010D02*
X79525010Y-69155010D01*
X86454715Y-69075300D02*
X86375005Y-69155010D01*
X79153553Y-68783553D02*
X78400000Y-68030000D01*
X79525010Y-69155010D02*
X79153553Y-68783553D01*
X87020400Y-69075300D02*
X86454715Y-69075300D01*
X112990000Y-71680000D02*
X113017300Y-71707300D01*
X112990000Y-69020000D02*
X112990000Y-71680000D01*
X73860000Y-55850000D02*
X74950800Y-55850000D01*
X74950800Y-55850000D02*
X75780900Y-56680100D01*
X71105001Y-104985001D02*
X71105001Y-106415599D01*
X69720000Y-103600000D02*
X71105001Y-104985001D01*
X67768270Y-107924600D02*
X69596000Y-107924600D01*
X67742870Y-107899200D02*
X67768270Y-107924600D01*
X71105001Y-106415599D02*
X69596000Y-107924600D01*
X71105001Y-106415599D02*
X71105001Y-106390199D01*
X109101347Y-69791347D02*
X108330000Y-69020000D01*
X109261347Y-72728653D02*
X109261347Y-69951347D01*
X109261347Y-69951347D02*
X109101347Y-69791347D01*
X108490000Y-73500000D02*
X109261347Y-72728653D01*
X108330000Y-65185000D02*
X108065000Y-64920000D01*
X108330000Y-69020000D02*
X108330000Y-65185000D01*
X108065000Y-60715000D02*
X108260000Y-60520000D01*
X108065000Y-64920000D02*
X108065000Y-60715000D01*
X117450000Y-69100000D02*
X117530000Y-69020000D01*
X117450000Y-73650000D02*
X117450000Y-69100000D01*
X118251347Y-66881347D02*
X117480000Y-66110000D01*
X118301347Y-68248653D02*
X118301347Y-66931347D01*
X118301347Y-66931347D02*
X118251347Y-66881347D01*
X117530000Y-69020000D02*
X118301347Y-68248653D01*
X117480000Y-65135000D02*
X116270000Y-63925000D01*
X117480000Y-66110000D02*
X117480000Y-65135000D01*
X116270000Y-56815000D02*
X117045000Y-56040000D01*
X116270000Y-63925000D02*
X116270000Y-56815000D01*
X63674678Y-60190000D02*
X97600000Y-60190000D01*
X62960000Y-60190000D02*
X63674678Y-60190000D01*
X58620000Y-55850000D02*
X62960000Y-60190000D01*
X113400000Y-56460000D02*
X113900000Y-56960000D01*
X110280000Y-56460000D02*
X113400000Y-56460000D01*
X61121900Y-74658700D02*
X61121900Y-79714700D01*
X61121900Y-79714700D02*
X61150500Y-79743300D01*
X71320000Y-85480000D02*
X69850000Y-86950000D01*
X71320000Y-74658700D02*
X71320000Y-85480000D01*
X111539999Y-115549999D02*
X113989999Y-115549999D01*
X111140000Y-115150000D02*
X111539999Y-115549999D01*
X114345440Y-115905440D02*
X114345440Y-118260000D01*
X113989999Y-115549999D02*
X114345440Y-115905440D01*
X56015480Y-81436780D02*
X54768340Y-81436780D01*
X54768340Y-81436780D02*
X54118100Y-80786540D01*
X54118100Y-80786540D02*
X54118100Y-79529240D01*
X55258560Y-78388780D02*
X56015480Y-78388780D01*
X54118100Y-79529240D02*
X55258560Y-78388780D01*
X62235918Y-81428920D02*
X70490000Y-89683002D01*
X56279080Y-81428920D02*
X62235918Y-81428920D01*
X99054999Y-80194999D02*
X100370000Y-81510000D01*
X74426998Y-82877680D02*
X77699688Y-79604990D01*
X82230321Y-80194999D02*
X99054999Y-80194999D01*
X77699688Y-79604990D02*
X81640312Y-79604990D01*
X81640312Y-79604990D02*
X82230321Y-80194999D01*
X108515001Y-105819999D02*
X108515001Y-114799919D01*
X107380001Y-104684999D02*
X108515001Y-105819999D01*
X107380001Y-96399999D02*
X107380001Y-104684999D01*
X107780000Y-96000000D02*
X107380001Y-96399999D01*
X71613996Y-89683002D02*
X74426998Y-86870000D01*
X70490000Y-89683002D02*
X71613996Y-89683002D01*
X74426998Y-86870000D02*
X74426998Y-82877680D01*
X110342400Y-116627318D02*
X110342400Y-118260000D01*
X108515001Y-114799919D02*
X110342400Y-116627318D01*
X73360000Y-75340000D02*
X74550000Y-75340000D01*
X111056201Y-106242901D02*
X111056201Y-113835399D01*
X108505001Y-103691701D02*
X111056201Y-106242901D01*
X110414999Y-114476601D02*
X110414999Y-115685499D01*
X111056201Y-113835399D02*
X110414999Y-114476601D01*
X112339120Y-117609620D02*
X112339120Y-118262400D01*
X110414999Y-115685499D02*
X112339120Y-117609620D01*
X111280800Y-82389280D02*
X107666220Y-82389280D01*
X107666220Y-82389280D02*
X106692700Y-83362800D01*
X106692700Y-92519500D02*
X108505001Y-94331801D01*
X106692700Y-83362800D02*
X106692700Y-92519500D01*
X108505001Y-94331801D02*
X108505001Y-103691701D01*
X111235000Y-59545000D02*
X110560000Y-58870000D01*
X111235000Y-60520000D02*
X111235000Y-59545000D01*
X65590000Y-58870000D02*
X65340000Y-59120000D01*
X110560000Y-58870000D02*
X65590000Y-58870000D01*
X64900000Y-57050000D02*
X63700000Y-55850000D01*
X64900000Y-57290000D02*
X64900000Y-57050000D01*
M02*
