G04 #@! TF.GenerationSoftware,KiCad,Pcbnew,5.1.9+dfsg1-1*
G04 #@! TF.CreationDate,2021-10-13T15:34:27+01:00*
G04 #@! TF.ProjectId,gbc_retrozero_screen_rev_b,6762635f-7265-4747-926f-7a65726f5f73,rev?*
G04 #@! TF.SameCoordinates,Original*
G04 #@! TF.FileFunction,Soldermask,Top*
G04 #@! TF.FilePolarity,Negative*
%FSLAX46Y46*%
G04 Gerber Fmt 4.6, Leading zero omitted, Abs format (unit mm)*
G04 Created by KiCad (PCBNEW 5.1.9+dfsg1-1) date 2021-10-13 15:34:27*
%MOMM*%
%LPD*%
G01*
G04 APERTURE LIST*
%ADD10C,2.902000*%
%ADD11C,1.602000*%
%ADD12C,1.902000*%
%ADD13C,1.702000*%
G04 APERTURE END LIST*
G36*
G01*
X80305100Y-103455600D02*
X80305100Y-100455600D01*
G75*
G02*
X80356100Y-100404600I51000J0D01*
G01*
X80756100Y-100404600D01*
G75*
G02*
X80807100Y-100455600I0J-51000D01*
G01*
X80807100Y-103455600D01*
G75*
G02*
X80756100Y-103506600I-51000J0D01*
G01*
X80356100Y-103506600D01*
G75*
G02*
X80305100Y-103455600I0J51000D01*
G01*
G37*
G36*
G01*
X81105200Y-103455600D02*
X81105200Y-100455600D01*
G75*
G02*
X81156200Y-100404600I51000J0D01*
G01*
X81556200Y-100404600D01*
G75*
G02*
X81607200Y-100455600I0J-51000D01*
G01*
X81607200Y-103455600D01*
G75*
G02*
X81556200Y-103506600I-51000J0D01*
G01*
X81156200Y-103506600D01*
G75*
G02*
X81105200Y-103455600I0J51000D01*
G01*
G37*
G36*
G01*
X81905300Y-103455600D02*
X81905300Y-100455600D01*
G75*
G02*
X81956300Y-100404600I51000J0D01*
G01*
X82356300Y-100404600D01*
G75*
G02*
X82407300Y-100455600I0J-51000D01*
G01*
X82407300Y-103455600D01*
G75*
G02*
X82356300Y-103506600I-51000J0D01*
G01*
X81956300Y-103506600D01*
G75*
G02*
X81905300Y-103455600I0J51000D01*
G01*
G37*
G36*
G01*
X82705400Y-103455600D02*
X82705400Y-100455600D01*
G75*
G02*
X82756400Y-100404600I51000J0D01*
G01*
X83156400Y-100404600D01*
G75*
G02*
X83207400Y-100455600I0J-51000D01*
G01*
X83207400Y-103455600D01*
G75*
G02*
X83156400Y-103506600I-51000J0D01*
G01*
X82756400Y-103506600D01*
G75*
G02*
X82705400Y-103455600I0J51000D01*
G01*
G37*
G36*
G01*
X83505500Y-103455600D02*
X83505500Y-100455600D01*
G75*
G02*
X83556500Y-100404600I51000J0D01*
G01*
X83956500Y-100404600D01*
G75*
G02*
X84007500Y-100455600I0J-51000D01*
G01*
X84007500Y-103455600D01*
G75*
G02*
X83956500Y-103506600I-51000J0D01*
G01*
X83556500Y-103506600D01*
G75*
G02*
X83505500Y-103455600I0J51000D01*
G01*
G37*
G36*
G01*
X84305600Y-103455600D02*
X84305600Y-100455600D01*
G75*
G02*
X84356600Y-100404600I51000J0D01*
G01*
X84756600Y-100404600D01*
G75*
G02*
X84807600Y-100455600I0J-51000D01*
G01*
X84807600Y-103455600D01*
G75*
G02*
X84756600Y-103506600I-51000J0D01*
G01*
X84356600Y-103506600D01*
G75*
G02*
X84305600Y-103455600I0J51000D01*
G01*
G37*
G36*
G01*
X85105700Y-103455600D02*
X85105700Y-100455600D01*
G75*
G02*
X85156700Y-100404600I51000J0D01*
G01*
X85556700Y-100404600D01*
G75*
G02*
X85607700Y-100455600I0J-51000D01*
G01*
X85607700Y-103455600D01*
G75*
G02*
X85556700Y-103506600I-51000J0D01*
G01*
X85156700Y-103506600D01*
G75*
G02*
X85105700Y-103455600I0J51000D01*
G01*
G37*
G36*
G01*
X85905800Y-103455600D02*
X85905800Y-100455600D01*
G75*
G02*
X85956800Y-100404600I51000J0D01*
G01*
X86356800Y-100404600D01*
G75*
G02*
X86407800Y-100455600I0J-51000D01*
G01*
X86407800Y-103455600D01*
G75*
G02*
X86356800Y-103506600I-51000J0D01*
G01*
X85956800Y-103506600D01*
G75*
G02*
X85905800Y-103455600I0J51000D01*
G01*
G37*
G36*
G01*
X86705900Y-103455600D02*
X86705900Y-100455600D01*
G75*
G02*
X86756900Y-100404600I51000J0D01*
G01*
X87156900Y-100404600D01*
G75*
G02*
X87207900Y-100455600I0J-51000D01*
G01*
X87207900Y-103455600D01*
G75*
G02*
X87156900Y-103506600I-51000J0D01*
G01*
X86756900Y-103506600D01*
G75*
G02*
X86705900Y-103455600I0J51000D01*
G01*
G37*
G36*
G01*
X87506000Y-103455600D02*
X87506000Y-100455600D01*
G75*
G02*
X87557000Y-100404600I51000J0D01*
G01*
X87957000Y-100404600D01*
G75*
G02*
X88008000Y-100455600I0J-51000D01*
G01*
X88008000Y-103455600D01*
G75*
G02*
X87957000Y-103506600I-51000J0D01*
G01*
X87557000Y-103506600D01*
G75*
G02*
X87506000Y-103455600I0J51000D01*
G01*
G37*
G36*
G01*
X88306100Y-103455600D02*
X88306100Y-100455600D01*
G75*
G02*
X88357100Y-100404600I51000J0D01*
G01*
X88757100Y-100404600D01*
G75*
G02*
X88808100Y-100455600I0J-51000D01*
G01*
X88808100Y-103455600D01*
G75*
G02*
X88757100Y-103506600I-51000J0D01*
G01*
X88357100Y-103506600D01*
G75*
G02*
X88306100Y-103455600I0J51000D01*
G01*
G37*
G36*
G01*
X89106200Y-103455600D02*
X89106200Y-100455600D01*
G75*
G02*
X89157200Y-100404600I51000J0D01*
G01*
X89557200Y-100404600D01*
G75*
G02*
X89608200Y-100455600I0J-51000D01*
G01*
X89608200Y-103455600D01*
G75*
G02*
X89557200Y-103506600I-51000J0D01*
G01*
X89157200Y-103506600D01*
G75*
G02*
X89106200Y-103455600I0J51000D01*
G01*
G37*
G36*
G01*
X89906300Y-103455600D02*
X89906300Y-100455600D01*
G75*
G02*
X89957300Y-100404600I51000J0D01*
G01*
X90357300Y-100404600D01*
G75*
G02*
X90408300Y-100455600I0J-51000D01*
G01*
X90408300Y-103455600D01*
G75*
G02*
X90357300Y-103506600I-51000J0D01*
G01*
X89957300Y-103506600D01*
G75*
G02*
X89906300Y-103455600I0J51000D01*
G01*
G37*
G36*
G01*
X90706400Y-103455600D02*
X90706400Y-100455600D01*
G75*
G02*
X90757400Y-100404600I51000J0D01*
G01*
X91157400Y-100404600D01*
G75*
G02*
X91208400Y-100455600I0J-51000D01*
G01*
X91208400Y-103455600D01*
G75*
G02*
X91157400Y-103506600I-51000J0D01*
G01*
X90757400Y-103506600D01*
G75*
G02*
X90706400Y-103455600I0J51000D01*
G01*
G37*
G36*
G01*
X91506500Y-103455600D02*
X91506500Y-100455600D01*
G75*
G02*
X91557500Y-100404600I51000J0D01*
G01*
X91957500Y-100404600D01*
G75*
G02*
X92008500Y-100455600I0J-51000D01*
G01*
X92008500Y-103455600D01*
G75*
G02*
X91957500Y-103506600I-51000J0D01*
G01*
X91557500Y-103506600D01*
G75*
G02*
X91506500Y-103455600I0J51000D01*
G01*
G37*
G36*
G01*
X92306600Y-103455600D02*
X92306600Y-100455600D01*
G75*
G02*
X92357600Y-100404600I51000J0D01*
G01*
X92757600Y-100404600D01*
G75*
G02*
X92808600Y-100455600I0J-51000D01*
G01*
X92808600Y-103455600D01*
G75*
G02*
X92757600Y-103506600I-51000J0D01*
G01*
X92357600Y-103506600D01*
G75*
G02*
X92306600Y-103455600I0J51000D01*
G01*
G37*
G36*
G01*
X93106700Y-103455600D02*
X93106700Y-100455600D01*
G75*
G02*
X93157700Y-100404600I51000J0D01*
G01*
X93557700Y-100404600D01*
G75*
G02*
X93608700Y-100455600I0J-51000D01*
G01*
X93608700Y-103455600D01*
G75*
G02*
X93557700Y-103506600I-51000J0D01*
G01*
X93157700Y-103506600D01*
G75*
G02*
X93106700Y-103455600I0J51000D01*
G01*
G37*
G36*
G01*
X93906800Y-103455600D02*
X93906800Y-100455600D01*
G75*
G02*
X93957800Y-100404600I51000J0D01*
G01*
X94357800Y-100404600D01*
G75*
G02*
X94408800Y-100455600I0J-51000D01*
G01*
X94408800Y-103455600D01*
G75*
G02*
X94357800Y-103506600I-51000J0D01*
G01*
X93957800Y-103506600D01*
G75*
G02*
X93906800Y-103455600I0J51000D01*
G01*
G37*
D10*
X53526280Y-105401680D03*
X118918580Y-61203140D03*
X53513580Y-62219140D03*
X118918580Y-105399140D03*
G36*
G01*
X113281500Y-101588106D02*
X113281500Y-100271894D01*
G75*
G02*
X113549394Y-100004000I267894J0D01*
G01*
X114540606Y-100004000D01*
G75*
G02*
X114808500Y-100271894I0J-267894D01*
G01*
X114808500Y-101588106D01*
G75*
G02*
X114540606Y-101856000I-267894J0D01*
G01*
X113549394Y-101856000D01*
G75*
G02*
X113281500Y-101588106I0J267894D01*
G01*
G37*
G36*
G01*
X116256500Y-101588106D02*
X116256500Y-100271894D01*
G75*
G02*
X116524394Y-100004000I267894J0D01*
G01*
X117515606Y-100004000D01*
G75*
G02*
X117783500Y-100271894I0J-267894D01*
G01*
X117783500Y-101588106D01*
G75*
G02*
X117515606Y-101856000I-267894J0D01*
G01*
X116524394Y-101856000D01*
G75*
G02*
X116256500Y-101588106I0J267894D01*
G01*
G37*
D11*
X63569440Y-90070240D03*
X63569440Y-92076840D03*
X63569440Y-94083440D03*
X63569440Y-96090040D03*
X63569440Y-98096640D03*
D12*
X52444240Y-99252340D03*
X52456940Y-88914540D03*
D11*
X56020000Y-84228000D03*
X56020000Y-75592000D03*
X52222700Y-75592000D03*
X52222700Y-84228000D03*
D13*
X109931200Y-107899200D03*
X62534800Y-107899200D03*
X67614800Y-107899200D03*
M02*
