G04 #@! TF.GenerationSoftware,KiCad,Pcbnew,5.1.9+dfsg1-1*
G04 #@! TF.CreationDate,2022-02-14T22:33:46+00:00*
G04 #@! TF.ProjectId,gbc_retrozero_screen_rev_b,6762635f-7265-4747-926f-7a65726f5f73,rev?*
G04 #@! TF.SameCoordinates,Original*
G04 #@! TF.FileFunction,Copper,L1,Top*
G04 #@! TF.FilePolarity,Positive*
%FSLAX46Y46*%
G04 Gerber Fmt 4.6, Leading zero omitted, Abs format (unit mm)*
G04 Created by KiCad (PCBNEW 5.1.9+dfsg1-1) date 2022-02-14 22:33:46*
%MOMM*%
%LPD*%
G01*
G04 APERTURE LIST*
G04 #@! TA.AperFunction,SMDPad,CuDef*
%ADD10R,0.400000X3.000000*%
G04 #@! TD*
G04 #@! TA.AperFunction,ComponentPad*
%ADD11C,2.800000*%
G04 #@! TD*
G04 #@! TA.AperFunction,ComponentPad*
%ADD12C,1.500000*%
G04 #@! TD*
G04 #@! TA.AperFunction,ComponentPad*
%ADD13C,1.800000*%
G04 #@! TD*
G04 #@! TA.AperFunction,ComponentPad*
%ADD14C,1.600000*%
G04 #@! TD*
G04 #@! TA.AperFunction,ViaPad*
%ADD15C,0.800000*%
G04 #@! TD*
G04 #@! TA.AperFunction,Conductor*
%ADD16C,0.250000*%
G04 #@! TD*
G04 APERTURE END LIST*
D10*
X80556100Y-101955600D03*
X81356200Y-101955600D03*
X82156300Y-101955600D03*
X82956400Y-101955600D03*
X83756500Y-101955600D03*
X84556600Y-101955600D03*
X85356700Y-101955600D03*
X86156800Y-101955600D03*
X86956900Y-101955600D03*
X87757000Y-101955600D03*
X88557100Y-101955600D03*
X89357200Y-101955600D03*
X90157300Y-101955600D03*
X90957400Y-101955600D03*
X91757500Y-101955600D03*
X92557600Y-101955600D03*
X93357700Y-101955600D03*
X94157800Y-101955600D03*
D11*
X53526280Y-105401680D03*
X118918580Y-61203140D03*
X53513580Y-62219140D03*
X118918580Y-105399140D03*
G04 #@! TA.AperFunction,SMDPad,CuDef*
G36*
G01*
X113332500Y-101555000D02*
X113332500Y-100305000D01*
G75*
G02*
X113582500Y-100055000I250000J0D01*
G01*
X114507500Y-100055000D01*
G75*
G02*
X114757500Y-100305000I0J-250000D01*
G01*
X114757500Y-101555000D01*
G75*
G02*
X114507500Y-101805000I-250000J0D01*
G01*
X113582500Y-101805000D01*
G75*
G02*
X113332500Y-101555000I0J250000D01*
G01*
G37*
G04 #@! TD.AperFunction*
G04 #@! TA.AperFunction,SMDPad,CuDef*
G36*
G01*
X116307500Y-101555000D02*
X116307500Y-100305000D01*
G75*
G02*
X116557500Y-100055000I250000J0D01*
G01*
X117482500Y-100055000D01*
G75*
G02*
X117732500Y-100305000I0J-250000D01*
G01*
X117732500Y-101555000D01*
G75*
G02*
X117482500Y-101805000I-250000J0D01*
G01*
X116557500Y-101805000D01*
G75*
G02*
X116307500Y-101555000I0J250000D01*
G01*
G37*
G04 #@! TD.AperFunction*
D12*
X63569440Y-90070240D03*
X63569440Y-92076840D03*
X63569440Y-94083440D03*
X63569440Y-96090040D03*
X63569440Y-98096640D03*
D13*
X52444240Y-99252340D03*
X52456940Y-88914540D03*
D12*
X56020000Y-84228000D03*
X56020000Y-75592000D03*
X52222700Y-75592000D03*
X52222700Y-84228000D03*
D14*
X109931200Y-107899200D03*
X62534800Y-107899200D03*
X67614800Y-107899200D03*
D15*
X85880000Y-65470000D03*
X72620000Y-62380000D03*
X78550000Y-60915000D03*
X72263000Y-57391300D03*
X107569000Y-79832200D03*
X97540000Y-91060000D03*
X83650000Y-70320000D03*
X76923900Y-76923900D03*
X65024000Y-106756200D03*
X82710000Y-79330000D03*
X55290480Y-90297000D03*
X79629000Y-71755000D03*
X84201000Y-73025000D03*
X83820000Y-80919999D03*
X96815000Y-89000000D03*
X88590000Y-80920000D03*
X91970000Y-95260000D03*
X88210000Y-84250000D03*
X82810000Y-85880000D03*
X82790000Y-89660000D03*
X82560000Y-91610000D03*
X84400000Y-93900000D03*
X100670000Y-95970000D03*
X86980000Y-96370000D03*
X91440000Y-112350000D03*
X83700000Y-105970000D03*
X71932800Y-111302800D03*
X91458115Y-113357190D03*
X83140000Y-108830000D03*
X56360000Y-107130000D03*
X70380000Y-105740000D03*
X74730000Y-108710000D03*
X69850000Y-116245010D03*
X88140000Y-105340000D03*
X113600000Y-114100000D03*
X74720000Y-79080000D03*
X117600000Y-114080000D03*
X68122800Y-92163900D03*
X76220000Y-103620000D03*
X69720000Y-103600000D03*
X75990000Y-65010000D03*
X119040000Y-114930000D03*
X88417400Y-76682600D03*
X87020400Y-69075300D03*
X75780900Y-56680100D03*
X97600000Y-60190000D03*
X110280000Y-56460000D03*
X61150500Y-79743300D03*
X69850000Y-86950000D03*
X111140000Y-115150000D03*
X100370000Y-81510000D03*
X107780000Y-96000000D03*
X65340000Y-59120000D03*
X64900000Y-57290000D03*
D16*
X85956300Y-65546300D02*
X85880000Y-65470000D01*
X85956300Y-96840000D02*
X85956300Y-65546300D01*
X86750000Y-97633700D02*
X85956300Y-96840000D01*
X86750000Y-97633700D02*
X86750000Y-97659300D01*
X87757000Y-98666300D02*
X87757000Y-101955600D01*
X87007700Y-101904800D02*
X86956900Y-101955600D01*
X87007700Y-97917000D02*
X87007700Y-101904800D01*
X86750000Y-97659300D02*
X87007700Y-97917000D01*
X87007700Y-97917000D02*
X87757000Y-98666300D01*
X72620000Y-62380000D02*
X72620000Y-57748300D01*
X72620000Y-57748300D02*
X72263000Y-57391300D01*
X92795000Y-60915000D02*
X78550000Y-60915000D01*
X103250600Y-71370600D02*
X92795000Y-60915000D01*
X103250600Y-77190600D02*
X103250600Y-71370600D01*
X105892200Y-79832200D02*
X105790800Y-79730800D01*
X105790800Y-79730800D02*
X103250600Y-77190600D01*
X107569000Y-79832200D02*
X105892200Y-79832200D01*
X97540000Y-76056998D02*
X88310000Y-66826998D01*
X97540000Y-91060000D02*
X97540000Y-76056998D01*
X88310000Y-66826998D02*
X88310000Y-65000000D01*
X88310000Y-65000000D02*
X87310000Y-64000000D01*
X87310000Y-64000000D02*
X85390000Y-64000000D01*
X83650000Y-65740000D02*
X83650000Y-70320000D01*
X85390000Y-64000000D02*
X83650000Y-65740000D01*
X75803098Y-76923900D02*
X72364600Y-80362398D01*
X76923900Y-76923900D02*
X75803098Y-76923900D01*
X72364600Y-86823698D02*
X66243200Y-92945098D01*
X72364600Y-80362398D02*
X72364600Y-86823698D01*
X66243200Y-92945098D02*
X66243200Y-94183200D01*
X66243200Y-94183200D02*
X65024000Y-95402400D01*
X65024000Y-95402400D02*
X65024000Y-106756200D01*
X80355600Y-81684400D02*
X82710000Y-79330000D01*
X81356200Y-97243900D02*
X80355600Y-96243300D01*
X81356200Y-101955600D02*
X81356200Y-97243900D01*
X80355600Y-96243300D02*
X80355600Y-81684400D01*
X55290480Y-90297000D02*
X60071000Y-85516480D01*
X63291998Y-71755000D02*
X79629000Y-71755000D01*
X60071000Y-85516480D02*
X60071000Y-74975998D01*
X60071000Y-74975998D02*
X63291998Y-71755000D01*
X84201000Y-73025000D02*
X84201000Y-80538999D01*
X84201000Y-80538999D02*
X83820000Y-80919999D01*
X88735000Y-80920000D02*
X88590000Y-80920000D01*
X96815000Y-89000000D02*
X88735000Y-80920000D01*
X91970000Y-94694315D02*
X88020000Y-90744315D01*
X91970000Y-95260000D02*
X91970000Y-94694315D01*
X88020000Y-84440000D02*
X88210000Y-84250000D01*
X88020000Y-90744315D02*
X88020000Y-84440000D01*
X85320000Y-88390000D02*
X82810000Y-85880000D01*
X85320000Y-98442000D02*
X85320000Y-88390000D01*
X84556600Y-99205400D02*
X84556600Y-101955600D01*
X85320000Y-98442000D02*
X84556600Y-99205400D01*
X83480000Y-90350000D02*
X82790000Y-89660000D01*
X83480000Y-98681800D02*
X83480000Y-90350000D01*
X82956400Y-99205400D02*
X82956400Y-101955600D01*
X83238650Y-98923150D02*
X82956400Y-99205400D01*
X83238650Y-98923150D02*
X83480000Y-98681800D01*
X81155700Y-93014300D02*
X82560000Y-91610000D01*
X82156300Y-101955600D02*
X82156300Y-97040700D01*
X81155700Y-96040100D02*
X81155700Y-93014300D01*
X82156300Y-97040700D02*
X81155700Y-96040100D01*
X84400000Y-98398210D02*
X84400000Y-93900000D01*
X83756500Y-99369090D02*
X83756500Y-101955600D01*
X84400000Y-98725590D02*
X83756500Y-99369090D01*
X84400000Y-98398210D02*
X84400000Y-98725590D01*
X100104315Y-95970000D02*
X99294315Y-95160000D01*
X100670000Y-95970000D02*
X100104315Y-95970000D01*
X91933002Y-96370000D02*
X86980000Y-96370000D01*
X98084315Y-96370000D02*
X91933002Y-96370000D01*
X99294315Y-95160000D02*
X98084315Y-96370000D01*
X85060000Y-105970000D02*
X83700000Y-105970000D01*
X91440000Y-112350000D02*
X85060000Y-105970000D01*
X68350098Y-111302800D02*
X71932800Y-111302800D01*
X64935100Y-111302800D02*
X68350098Y-111302800D01*
X63334799Y-109702499D02*
X64249300Y-110617000D01*
X63334799Y-108699199D02*
X63334799Y-109702499D01*
X62534800Y-107899200D02*
X63334799Y-108699199D01*
X64249300Y-110617000D02*
X64935100Y-111302800D01*
X87385001Y-113075001D02*
X83140000Y-108830000D01*
X87667190Y-113357190D02*
X87385001Y-113075001D01*
X91458115Y-113357190D02*
X87667190Y-113357190D01*
X64450000Y-115220000D02*
X56360000Y-107130000D01*
X70380000Y-105740000D02*
X71760000Y-105740000D01*
X71760000Y-105740000D02*
X74730000Y-108710000D01*
X66010000Y-115220000D02*
X64450000Y-115220000D01*
X66010000Y-115220000D02*
X68824990Y-115220000D01*
X68824990Y-115220000D02*
X69850000Y-116245010D01*
X108799830Y-107899200D02*
X106240630Y-105340000D01*
X109931200Y-107899200D02*
X108799830Y-107899200D01*
X106240630Y-105340000D02*
X96393000Y-105340000D01*
X96393000Y-105340000D02*
X88140000Y-105340000D01*
X117020000Y-98250000D02*
X117020000Y-100930000D01*
X116390000Y-97620000D02*
X117020000Y-98250000D01*
X90098700Y-97620000D02*
X90098700Y-101897000D01*
X89956800Y-97620000D02*
X90098700Y-97620000D01*
X90098700Y-101897000D02*
X90157300Y-101955600D01*
X89368800Y-101944000D02*
X89357200Y-101955600D01*
X89368800Y-98208000D02*
X89368800Y-101944000D01*
X89156700Y-98420100D02*
X89368800Y-98208000D01*
X89368800Y-98208000D02*
X89956800Y-97620000D01*
X88581400Y-101931300D02*
X88557100Y-101955600D01*
X88581400Y-98995400D02*
X88581400Y-101931300D01*
X88581400Y-98995400D02*
X89156700Y-98420100D01*
X90914400Y-101912600D02*
X90957400Y-101955600D01*
X90914400Y-97620000D02*
X90914400Y-101912600D01*
X90098700Y-97620000D02*
X90914400Y-97620000D01*
X90914400Y-97620000D02*
X116390000Y-97620000D01*
X75960000Y-114100000D02*
X113600000Y-114100000D01*
X63569440Y-99157300D02*
X64287400Y-99875260D01*
X63569440Y-98096640D02*
X63569440Y-99157300D01*
X64287400Y-99875260D02*
X64287400Y-108508800D01*
X66105400Y-110326800D02*
X72186800Y-110326800D01*
X64287400Y-108508800D02*
X66105400Y-110326800D01*
X72186800Y-110326800D02*
X75960000Y-114100000D01*
X74720000Y-79080000D02*
X74720000Y-85541300D01*
X74720000Y-85541300D02*
X69608700Y-90652600D01*
X81300000Y-75390000D02*
X77610000Y-79080000D01*
X81300000Y-64350000D02*
X81300000Y-75390000D01*
X82100010Y-63549990D02*
X81300000Y-64350000D01*
X87800000Y-62400000D02*
X83570000Y-62400000D01*
X98894900Y-73494900D02*
X87800000Y-62400000D01*
X82420010Y-63549990D02*
X82100010Y-63549990D01*
X83570000Y-62400000D02*
X82420010Y-63549990D01*
X98894900Y-78016100D02*
X98894900Y-73494900D01*
X77610000Y-79080000D02*
X74720000Y-79080000D01*
X107268800Y-86390000D02*
X98894900Y-78016100D01*
X117600000Y-114080000D02*
X117193579Y-113673579D01*
X118057510Y-103707208D02*
X118057510Y-97077510D01*
X118057510Y-97077510D02*
X107370000Y-86390000D01*
X117193579Y-113673579D02*
X117193579Y-104571139D01*
X117193579Y-104571139D02*
X118057510Y-103707208D01*
X107370000Y-86390000D02*
X107268800Y-86390000D01*
X68122800Y-92138500D02*
X69608700Y-90652600D01*
X68122800Y-92163900D02*
X68122800Y-92138500D01*
X79105500Y-101956000D02*
X78811500Y-102250000D01*
X79555500Y-101956000D02*
X79105500Y-101956000D01*
X78811500Y-102250000D02*
X76940000Y-102250000D01*
X76220000Y-102970000D02*
X76220000Y-103620000D01*
X76940000Y-102250000D02*
X76220000Y-102970000D01*
X79555500Y-103706000D02*
X79555500Y-101956000D01*
X80409500Y-104560000D02*
X79555500Y-103706000D01*
X84302200Y-104560000D02*
X80409500Y-104560000D01*
X76200000Y-103600000D02*
X76220000Y-103620000D01*
X69720000Y-103600000D02*
X76200000Y-103600000D01*
X75990000Y-58860000D02*
X75990000Y-65010000D01*
X113232500Y-100930000D02*
X109602500Y-104560000D01*
X114045000Y-100930000D02*
X113232500Y-100930000D01*
X109602500Y-104560000D02*
X108820000Y-104560000D01*
X115650000Y-112360000D02*
X115650000Y-114220000D01*
X116360000Y-114930000D02*
X119040000Y-114930000D01*
X115650000Y-114220000D02*
X116360000Y-114930000D01*
X88417400Y-76682600D02*
X87782400Y-76047600D01*
X87782400Y-76047600D02*
X87782400Y-69837300D01*
X87782400Y-69837300D02*
X87020400Y-69075300D01*
X75990000Y-57454885D02*
X75990000Y-58860000D01*
X75780900Y-57245785D02*
X75990000Y-57454885D01*
X75780900Y-56680100D02*
X75780900Y-57245785D01*
X116141500Y-111868500D02*
X115650000Y-112360000D01*
X116141500Y-103026500D02*
X116141500Y-111868500D01*
X114045000Y-100930000D02*
X116141500Y-103026500D01*
X86156800Y-104089200D02*
X85686000Y-104560000D01*
X86156800Y-101955600D02*
X86156800Y-104089200D01*
X85686000Y-104560000D02*
X84302200Y-104560000D01*
X108820000Y-104560000D02*
X85686000Y-104560000D01*
X79555900Y-101955600D02*
X79555500Y-101956000D01*
X80556100Y-101955600D02*
X79555900Y-101955600D01*
X97600000Y-60190000D02*
X99360000Y-60190000D01*
X103090000Y-56460000D02*
X110280000Y-56460000D01*
X99360000Y-60190000D02*
X103090000Y-56460000D01*
X61150500Y-79743300D02*
X61150500Y-90868500D01*
X62358840Y-92076840D02*
X63569440Y-92076840D01*
X61150500Y-90868500D02*
X62358840Y-92076840D01*
X64319439Y-93333441D02*
X63569440Y-94083440D01*
X69450001Y-88202879D02*
X64319439Y-93333441D01*
X69450001Y-87349999D02*
X69450001Y-88202879D01*
X69850000Y-86950000D02*
X69450001Y-87349999D01*
X110574315Y-115150000D02*
X110134315Y-114710000D01*
X57610000Y-107050000D02*
X57610000Y-102049480D01*
X57610000Y-102049480D02*
X63569440Y-96090040D01*
X65270000Y-114710000D02*
X57610000Y-107050000D01*
X110134315Y-114710000D02*
X65270000Y-114710000D01*
X111140000Y-115150000D02*
X110574315Y-115150000D01*
X107780000Y-88920000D02*
X107780000Y-96000000D01*
X100370000Y-81510000D02*
X107780000Y-88920000D01*
X65340000Y-57730000D02*
X64900000Y-57290000D01*
X65340000Y-59120000D02*
X65340000Y-57730000D01*
M02*
