G04 #@! TF.GenerationSoftware,KiCad,Pcbnew,5.1.9+dfsg1-1*
G04 #@! TF.CreationDate,2021-10-13T15:34:27+01:00*
G04 #@! TF.ProjectId,gbc_retrozero_screen_rev_b,6762635f-7265-4747-926f-7a65726f5f73,rev?*
G04 #@! TF.SameCoordinates,Original*
G04 #@! TF.FileFunction,Legend,Top*
G04 #@! TF.FilePolarity,Positive*
%FSLAX46Y46*%
G04 Gerber Fmt 4.6, Leading zero omitted, Abs format (unit mm)*
G04 Created by KiCad (PCBNEW 5.1.9+dfsg1-1) date 2021-10-13 15:34:27*
%MOMM*%
%LPD*%
G01*
G04 APERTURE LIST*
%ADD10C,0.300000*%
%ADD11C,0.150000*%
%ADD12C,0.200000*%
%ADD13C,0.120000*%
%ADD14C,0.125000*%
G04 APERTURE END LIST*
D10*
X66821857Y-99483428D02*
X66821857Y-99983428D01*
X67607571Y-99983428D02*
X66107571Y-99983428D01*
X66107571Y-99269142D01*
X67607571Y-98054857D02*
X66821857Y-98054857D01*
X66679000Y-98126285D01*
X66607571Y-98269142D01*
X66607571Y-98554857D01*
X66679000Y-98697714D01*
X67536142Y-98054857D02*
X67607571Y-98197714D01*
X67607571Y-98554857D01*
X67536142Y-98697714D01*
X67393285Y-98769142D01*
X67250428Y-98769142D01*
X67107571Y-98697714D01*
X67036142Y-98554857D01*
X67036142Y-98197714D01*
X66964714Y-98054857D01*
X67536142Y-96697714D02*
X67607571Y-96840571D01*
X67607571Y-97126285D01*
X67536142Y-97269142D01*
X67464714Y-97340571D01*
X67321857Y-97412000D01*
X66893285Y-97412000D01*
X66750428Y-97340571D01*
X66679000Y-97269142D01*
X66607571Y-97126285D01*
X66607571Y-96840571D01*
X66679000Y-96697714D01*
X67536142Y-95483428D02*
X67607571Y-95626285D01*
X67607571Y-95912000D01*
X67536142Y-96054857D01*
X67393285Y-96126285D01*
X66821857Y-96126285D01*
X66679000Y-96054857D01*
X66607571Y-95912000D01*
X66607571Y-95626285D01*
X66679000Y-95483428D01*
X66821857Y-95412000D01*
X66964714Y-95412000D01*
X67107571Y-96126285D01*
X67607571Y-94554857D02*
X67536142Y-94697714D01*
X67393285Y-94769142D01*
X66107571Y-94769142D01*
X67536142Y-93412000D02*
X67607571Y-93554857D01*
X67607571Y-93840571D01*
X67536142Y-93983428D01*
X67393285Y-94054857D01*
X66821857Y-94054857D01*
X66679000Y-93983428D01*
X66607571Y-93840571D01*
X66607571Y-93554857D01*
X66679000Y-93412000D01*
X66821857Y-93340571D01*
X66964714Y-93340571D01*
X67107571Y-94054857D01*
X67536142Y-92769142D02*
X67607571Y-92626285D01*
X67607571Y-92340571D01*
X67536142Y-92197714D01*
X67393285Y-92126285D01*
X67321857Y-92126285D01*
X67179000Y-92197714D01*
X67107571Y-92340571D01*
X67107571Y-92554857D01*
X67036142Y-92697714D01*
X66893285Y-92769142D01*
X66821857Y-92769142D01*
X66679000Y-92697714D01*
X66607571Y-92554857D01*
X66607571Y-92340571D01*
X66679000Y-92197714D01*
X67536142Y-91554857D02*
X67607571Y-91412000D01*
X67607571Y-91126285D01*
X67536142Y-90983428D01*
X67393285Y-90912000D01*
X67321857Y-90912000D01*
X67179000Y-90983428D01*
X67107571Y-91126285D01*
X67107571Y-91340571D01*
X67036142Y-91483428D01*
X66893285Y-91554857D01*
X66821857Y-91554857D01*
X66679000Y-91483428D01*
X66607571Y-91340571D01*
X66607571Y-91126285D01*
X66679000Y-90983428D01*
X66607571Y-90483428D02*
X66607571Y-89912000D01*
X66107571Y-90269142D02*
X67393285Y-90269142D01*
X67536142Y-90197714D01*
X67607571Y-90054857D01*
X67607571Y-89912000D01*
X67536142Y-88840571D02*
X67607571Y-88983428D01*
X67607571Y-89269142D01*
X67536142Y-89412000D01*
X67393285Y-89483428D01*
X66821857Y-89483428D01*
X66679000Y-89412000D01*
X66607571Y-89269142D01*
X66607571Y-88983428D01*
X66679000Y-88840571D01*
X66821857Y-88769142D01*
X66964714Y-88769142D01*
X67107571Y-89483428D01*
X67536142Y-87483428D02*
X67607571Y-87626285D01*
X67607571Y-87912000D01*
X67536142Y-88054857D01*
X67464714Y-88126285D01*
X67321857Y-88197714D01*
X66893285Y-88197714D01*
X66750428Y-88126285D01*
X66679000Y-88054857D01*
X66607571Y-87912000D01*
X66607571Y-87626285D01*
X66679000Y-87483428D01*
X67607571Y-86840571D02*
X66107571Y-86840571D01*
X67607571Y-86197714D02*
X66821857Y-86197714D01*
X66679000Y-86269142D01*
X66607571Y-86412000D01*
X66607571Y-86626285D01*
X66679000Y-86769142D01*
X66750428Y-86840571D01*
X66250428Y-84412000D02*
X66179000Y-84340571D01*
X66107571Y-84197714D01*
X66107571Y-83840571D01*
X66179000Y-83697714D01*
X66250428Y-83626285D01*
X66393285Y-83554857D01*
X66536142Y-83554857D01*
X66750428Y-83626285D01*
X67607571Y-84483428D01*
X67607571Y-83554857D01*
X66107571Y-82626285D02*
X66107571Y-82483428D01*
X66179000Y-82340571D01*
X66250428Y-82269142D01*
X66393285Y-82197714D01*
X66679000Y-82126285D01*
X67036142Y-82126285D01*
X67321857Y-82197714D01*
X67464714Y-82269142D01*
X67536142Y-82340571D01*
X67607571Y-82483428D01*
X67607571Y-82626285D01*
X67536142Y-82769142D01*
X67464714Y-82840571D01*
X67321857Y-82912000D01*
X67036142Y-82983428D01*
X66679000Y-82983428D01*
X66393285Y-82912000D01*
X66250428Y-82840571D01*
X66179000Y-82769142D01*
X66107571Y-82626285D01*
X66250428Y-81554857D02*
X66179000Y-81483428D01*
X66107571Y-81340571D01*
X66107571Y-80983428D01*
X66179000Y-80840571D01*
X66250428Y-80769142D01*
X66393285Y-80697714D01*
X66536142Y-80697714D01*
X66750428Y-80769142D01*
X67607571Y-81626285D01*
X67607571Y-80697714D01*
X67607571Y-79269142D02*
X67607571Y-80126285D01*
X67607571Y-79697714D02*
X66107571Y-79697714D01*
X66321857Y-79840571D01*
X66464714Y-79983428D01*
X66536142Y-80126285D01*
X71671571Y-101376428D02*
X70957285Y-101876428D01*
X71671571Y-102233571D02*
X70171571Y-102233571D01*
X70171571Y-101662142D01*
X70243000Y-101519285D01*
X70314428Y-101447857D01*
X70457285Y-101376428D01*
X70671571Y-101376428D01*
X70814428Y-101447857D01*
X70885857Y-101519285D01*
X70957285Y-101662142D01*
X70957285Y-102233571D01*
X71600142Y-100162142D02*
X71671571Y-100305000D01*
X71671571Y-100590714D01*
X71600142Y-100733571D01*
X71457285Y-100805000D01*
X70885857Y-100805000D01*
X70743000Y-100733571D01*
X70671571Y-100590714D01*
X70671571Y-100305000D01*
X70743000Y-100162142D01*
X70885857Y-100090714D01*
X71028714Y-100090714D01*
X71171571Y-100805000D01*
X70671571Y-99662142D02*
X70671571Y-99090714D01*
X70171571Y-99447857D02*
X71457285Y-99447857D01*
X71600142Y-99376428D01*
X71671571Y-99233571D01*
X71671571Y-99090714D01*
X71671571Y-98590714D02*
X70671571Y-98590714D01*
X70957285Y-98590714D02*
X70814428Y-98519285D01*
X70743000Y-98447857D01*
X70671571Y-98305000D01*
X70671571Y-98162142D01*
X71671571Y-97447857D02*
X71600142Y-97590714D01*
X71528714Y-97662142D01*
X71385857Y-97733571D01*
X70957285Y-97733571D01*
X70814428Y-97662142D01*
X70743000Y-97590714D01*
X70671571Y-97447857D01*
X70671571Y-97233571D01*
X70743000Y-97090714D01*
X70814428Y-97019285D01*
X70957285Y-96947857D01*
X71385857Y-96947857D01*
X71528714Y-97019285D01*
X71600142Y-97090714D01*
X71671571Y-97233571D01*
X71671571Y-97447857D01*
X70171571Y-96447857D02*
X70171571Y-95447857D01*
X71671571Y-96447857D01*
X71671571Y-95447857D01*
X71600142Y-94305000D02*
X71671571Y-94447857D01*
X71671571Y-94733571D01*
X71600142Y-94876428D01*
X71457285Y-94947857D01*
X70885857Y-94947857D01*
X70743000Y-94876428D01*
X70671571Y-94733571D01*
X70671571Y-94447857D01*
X70743000Y-94305000D01*
X70885857Y-94233571D01*
X71028714Y-94233571D01*
X71171571Y-94947857D01*
X71671571Y-93590714D02*
X70671571Y-93590714D01*
X70957285Y-93590714D02*
X70814428Y-93519285D01*
X70743000Y-93447857D01*
X70671571Y-93305000D01*
X70671571Y-93162142D01*
X71671571Y-92447857D02*
X71600142Y-92590714D01*
X71528714Y-92662142D01*
X71385857Y-92733571D01*
X70957285Y-92733571D01*
X70814428Y-92662142D01*
X70743000Y-92590714D01*
X70671571Y-92447857D01*
X70671571Y-92233571D01*
X70743000Y-92090714D01*
X70814428Y-92019285D01*
X70957285Y-91947857D01*
X71385857Y-91947857D01*
X71528714Y-92019285D01*
X71600142Y-92090714D01*
X71671571Y-92233571D01*
X71671571Y-92447857D01*
X71814428Y-91662142D02*
X71814428Y-90519285D01*
X70243000Y-89376428D02*
X70171571Y-89519285D01*
X70171571Y-89733571D01*
X70243000Y-89947857D01*
X70385857Y-90090714D01*
X70528714Y-90162142D01*
X70814428Y-90233571D01*
X71028714Y-90233571D01*
X71314428Y-90162142D01*
X71457285Y-90090714D01*
X71600142Y-89947857D01*
X71671571Y-89733571D01*
X71671571Y-89590714D01*
X71600142Y-89376428D01*
X71528714Y-89305000D01*
X71028714Y-89305000D01*
X71028714Y-89590714D01*
X70885857Y-88162142D02*
X70957285Y-87947857D01*
X71028714Y-87876428D01*
X71171571Y-87805000D01*
X71385857Y-87805000D01*
X71528714Y-87876428D01*
X71600142Y-87947857D01*
X71671571Y-88090714D01*
X71671571Y-88662142D01*
X70171571Y-88662142D01*
X70171571Y-88162142D01*
X70243000Y-88019285D01*
X70314428Y-87947857D01*
X70457285Y-87876428D01*
X70600142Y-87876428D01*
X70743000Y-87947857D01*
X70814428Y-88019285D01*
X70885857Y-88162142D01*
X70885857Y-88662142D01*
X71528714Y-86305000D02*
X71600142Y-86376428D01*
X71671571Y-86590714D01*
X71671571Y-86733571D01*
X71600142Y-86947857D01*
X71457285Y-87090714D01*
X71314428Y-87162142D01*
X71028714Y-87233571D01*
X70814428Y-87233571D01*
X70528714Y-87162142D01*
X70385857Y-87090714D01*
X70243000Y-86947857D01*
X70171571Y-86733571D01*
X70171571Y-86590714D01*
X70243000Y-86376428D01*
X70314428Y-86305000D01*
X71814428Y-86019285D02*
X71814428Y-84876428D01*
X71671571Y-84519285D02*
X70671571Y-84519285D01*
X70957285Y-84519285D02*
X70814428Y-84447857D01*
X70743000Y-84376428D01*
X70671571Y-84233571D01*
X70671571Y-84090714D01*
X71600142Y-83019285D02*
X71671571Y-83162142D01*
X71671571Y-83447857D01*
X71600142Y-83590714D01*
X71457285Y-83662142D01*
X70885857Y-83662142D01*
X70743000Y-83590714D01*
X70671571Y-83447857D01*
X70671571Y-83162142D01*
X70743000Y-83019285D01*
X70885857Y-82947857D01*
X71028714Y-82947857D01*
X71171571Y-83662142D01*
X70671571Y-82447857D02*
X71671571Y-82090714D01*
X70671571Y-81733571D01*
X71814428Y-81519285D02*
X71814428Y-80376428D01*
X70885857Y-80019285D02*
X70885857Y-79519285D01*
X71671571Y-79305000D02*
X71671571Y-80019285D01*
X70171571Y-80019285D01*
X70171571Y-79305000D01*
D11*
X46800360Y-119417400D02*
X124905360Y-119412320D01*
D10*
X50124994Y-83747680D02*
X50196422Y-83819108D01*
X50267851Y-84033394D01*
X50267851Y-84176251D01*
X50196422Y-84390537D01*
X50053565Y-84533394D01*
X49910708Y-84604822D01*
X49624994Y-84676251D01*
X49410708Y-84676251D01*
X49124994Y-84604822D01*
X48982137Y-84533394D01*
X48839280Y-84390537D01*
X48767851Y-84176251D01*
X48767851Y-84033394D01*
X48839280Y-83819108D01*
X48910708Y-83747680D01*
X48767851Y-82819108D02*
X48767851Y-82533394D01*
X48839280Y-82390537D01*
X48982137Y-82247680D01*
X49267851Y-82176251D01*
X49767851Y-82176251D01*
X50053565Y-82247680D01*
X50196422Y-82390537D01*
X50267851Y-82533394D01*
X50267851Y-82819108D01*
X50196422Y-82961965D01*
X50053565Y-83104822D01*
X49767851Y-83176251D01*
X49267851Y-83176251D01*
X48982137Y-83104822D01*
X48839280Y-82961965D01*
X48767851Y-82819108D01*
X50267851Y-81533394D02*
X48767851Y-81533394D01*
X49839280Y-81033394D01*
X48767851Y-80533394D01*
X50267851Y-80533394D01*
X49267851Y-78676251D02*
X50767851Y-78676251D01*
X49339280Y-78676251D02*
X49267851Y-78533394D01*
X49267851Y-78247680D01*
X49339280Y-78104822D01*
X49410708Y-78033394D01*
X49553565Y-77961965D01*
X49982137Y-77961965D01*
X50124994Y-78033394D01*
X50196422Y-78104822D01*
X50267851Y-78247680D01*
X50267851Y-78533394D01*
X50196422Y-78676251D01*
X50267851Y-77104822D02*
X50196422Y-77247680D01*
X50124994Y-77319108D01*
X49982137Y-77390537D01*
X49553565Y-77390537D01*
X49410708Y-77319108D01*
X49339280Y-77247680D01*
X49267851Y-77104822D01*
X49267851Y-76890537D01*
X49339280Y-76747680D01*
X49410708Y-76676251D01*
X49553565Y-76604822D01*
X49982137Y-76604822D01*
X50124994Y-76676251D01*
X50196422Y-76747680D01*
X50267851Y-76890537D01*
X50267851Y-77104822D01*
X50267851Y-75961965D02*
X49267851Y-75961965D01*
X49553565Y-75961965D02*
X49410708Y-75890537D01*
X49339280Y-75819108D01*
X49267851Y-75676251D01*
X49267851Y-75533394D01*
X49267851Y-75247680D02*
X49267851Y-74676251D01*
X48767851Y-75033394D02*
X50053565Y-75033394D01*
X50196422Y-74961965D01*
X50267851Y-74819108D01*
X50267851Y-74676251D01*
D11*
X124905360Y-46087600D02*
X124905360Y-119412320D01*
X46805440Y-46092680D02*
X46805440Y-119417400D01*
X51113280Y-46092680D02*
X46807980Y-46092680D01*
D12*
X125332080Y-88993280D02*
X124900280Y-88993280D01*
X125332080Y-75099480D02*
X125332080Y-88993280D01*
X124925680Y-75099480D02*
X125332080Y-75099480D01*
X121217280Y-46092680D02*
X124925680Y-46092680D01*
D10*
X80915280Y-45294894D02*
X80843851Y-45366322D01*
X80629565Y-45437751D01*
X80486708Y-45437751D01*
X80272422Y-45366322D01*
X80129565Y-45223465D01*
X80058137Y-45080608D01*
X79986708Y-44794894D01*
X79986708Y-44580608D01*
X80058137Y-44294894D01*
X80129565Y-44152037D01*
X80272422Y-44009180D01*
X80486708Y-43937751D01*
X80629565Y-43937751D01*
X80843851Y-44009180D01*
X80915280Y-44080608D01*
X82200994Y-45437751D02*
X82200994Y-44652037D01*
X82129565Y-44509180D01*
X81986708Y-44437751D01*
X81700994Y-44437751D01*
X81558137Y-44509180D01*
X82200994Y-45366322D02*
X82058137Y-45437751D01*
X81700994Y-45437751D01*
X81558137Y-45366322D01*
X81486708Y-45223465D01*
X81486708Y-45080608D01*
X81558137Y-44937751D01*
X81700994Y-44866322D01*
X82058137Y-44866322D01*
X82200994Y-44794894D01*
X82843851Y-45366322D02*
X82986708Y-45437751D01*
X83272422Y-45437751D01*
X83415280Y-45366322D01*
X83486708Y-45223465D01*
X83486708Y-45152037D01*
X83415280Y-45009180D01*
X83272422Y-44937751D01*
X83058137Y-44937751D01*
X82915280Y-44866322D01*
X82843851Y-44723465D01*
X82843851Y-44652037D01*
X82915280Y-44509180D01*
X83058137Y-44437751D01*
X83272422Y-44437751D01*
X83415280Y-44509180D01*
X84700994Y-45366322D02*
X84558137Y-45437751D01*
X84272422Y-45437751D01*
X84129565Y-45366322D01*
X84058137Y-45223465D01*
X84058137Y-44652037D01*
X84129565Y-44509180D01*
X84272422Y-44437751D01*
X84558137Y-44437751D01*
X84700994Y-44509180D01*
X84772422Y-44652037D01*
X84772422Y-44794894D01*
X84058137Y-44937751D01*
X87129565Y-45366322D02*
X86986708Y-45437751D01*
X86700994Y-45437751D01*
X86558137Y-45366322D01*
X86486708Y-45223465D01*
X86486708Y-44652037D01*
X86558137Y-44509180D01*
X86700994Y-44437751D01*
X86986708Y-44437751D01*
X87129565Y-44509180D01*
X87200994Y-44652037D01*
X87200994Y-44794894D01*
X86486708Y-44937751D01*
X88486708Y-45437751D02*
X88486708Y-43937751D01*
X88486708Y-45366322D02*
X88343851Y-45437751D01*
X88058137Y-45437751D01*
X87915280Y-45366322D01*
X87843851Y-45294894D01*
X87772422Y-45152037D01*
X87772422Y-44723465D01*
X87843851Y-44580608D01*
X87915280Y-44509180D01*
X88058137Y-44437751D01*
X88343851Y-44437751D01*
X88486708Y-44509180D01*
X89843851Y-44437751D02*
X89843851Y-45652037D01*
X89772422Y-45794894D01*
X89700994Y-45866322D01*
X89558137Y-45937751D01*
X89343851Y-45937751D01*
X89200994Y-45866322D01*
X89843851Y-45366322D02*
X89700994Y-45437751D01*
X89415280Y-45437751D01*
X89272422Y-45366322D01*
X89200994Y-45294894D01*
X89129565Y-45152037D01*
X89129565Y-44723465D01*
X89200994Y-44580608D01*
X89272422Y-44509180D01*
X89415280Y-44437751D01*
X89700994Y-44437751D01*
X89843851Y-44509180D01*
X91129565Y-45366322D02*
X90986708Y-45437751D01*
X90700994Y-45437751D01*
X90558137Y-45366322D01*
X90486708Y-45223465D01*
X90486708Y-44652037D01*
X90558137Y-44509180D01*
X90700994Y-44437751D01*
X90986708Y-44437751D01*
X91129565Y-44509180D01*
X91200994Y-44652037D01*
X91200994Y-44794894D01*
X90486708Y-44937751D01*
D11*
X51113280Y-46092680D02*
X51113280Y-57268680D01*
X121217280Y-46092680D02*
X51113280Y-46092680D01*
X121217280Y-54601680D02*
X121217280Y-46092680D01*
D12*
X120455280Y-82478180D02*
X121217280Y-82478180D01*
X51113280Y-93908180D02*
X51875280Y-93908180D01*
X51113280Y-79874680D02*
X51875280Y-79874680D01*
D10*
X48767851Y-99384394D02*
X50267851Y-98884394D01*
X48767851Y-98384394D01*
X50267851Y-97670108D02*
X50196422Y-97812965D01*
X50124994Y-97884394D01*
X49982137Y-97955822D01*
X49553565Y-97955822D01*
X49410708Y-97884394D01*
X49339280Y-97812965D01*
X49267851Y-97670108D01*
X49267851Y-97455822D01*
X49339280Y-97312965D01*
X49410708Y-97241537D01*
X49553565Y-97170108D01*
X49982137Y-97170108D01*
X50124994Y-97241537D01*
X50196422Y-97312965D01*
X50267851Y-97455822D01*
X50267851Y-97670108D01*
X50267851Y-96312965D02*
X50196422Y-96455822D01*
X50053565Y-96527251D01*
X48767851Y-96527251D01*
X49267851Y-94741537D02*
X50267851Y-94455822D01*
X49553565Y-94170108D01*
X50267851Y-93884394D01*
X49267851Y-93598680D01*
X50267851Y-93027251D02*
X48767851Y-93027251D01*
X50267851Y-92384394D02*
X49482137Y-92384394D01*
X49339280Y-92455822D01*
X49267851Y-92598680D01*
X49267851Y-92812965D01*
X49339280Y-92955822D01*
X49410708Y-93027251D01*
X50196422Y-91098680D02*
X50267851Y-91241537D01*
X50267851Y-91527251D01*
X50196422Y-91670108D01*
X50053565Y-91741537D01*
X49482137Y-91741537D01*
X49339280Y-91670108D01*
X49267851Y-91527251D01*
X49267851Y-91241537D01*
X49339280Y-91098680D01*
X49482137Y-91027251D01*
X49624994Y-91027251D01*
X49767851Y-91741537D01*
X50196422Y-89812965D02*
X50267851Y-89955822D01*
X50267851Y-90241537D01*
X50196422Y-90384394D01*
X50053565Y-90455822D01*
X49482137Y-90455822D01*
X49339280Y-90384394D01*
X49267851Y-90241537D01*
X49267851Y-89955822D01*
X49339280Y-89812965D01*
X49482137Y-89741537D01*
X49624994Y-89741537D01*
X49767851Y-90455822D01*
X50267851Y-88884394D02*
X50196422Y-89027251D01*
X50053565Y-89098680D01*
X48767851Y-89098680D01*
X123673851Y-89323394D02*
X122173851Y-89323394D01*
X122173851Y-88751965D01*
X122245280Y-88609108D01*
X122316708Y-88537680D01*
X122459565Y-88466251D01*
X122673851Y-88466251D01*
X122816708Y-88537680D01*
X122888137Y-88609108D01*
X122959565Y-88751965D01*
X122959565Y-89323394D01*
X123673851Y-87609108D02*
X123602422Y-87751965D01*
X123530994Y-87823394D01*
X123388137Y-87894822D01*
X122959565Y-87894822D01*
X122816708Y-87823394D01*
X122745280Y-87751965D01*
X122673851Y-87609108D01*
X122673851Y-87394822D01*
X122745280Y-87251965D01*
X122816708Y-87180537D01*
X122959565Y-87109108D01*
X123388137Y-87109108D01*
X123530994Y-87180537D01*
X123602422Y-87251965D01*
X123673851Y-87394822D01*
X123673851Y-87609108D01*
X122673851Y-86609108D02*
X123673851Y-86323394D01*
X122959565Y-86037680D01*
X123673851Y-85751965D01*
X122673851Y-85466251D01*
X123602422Y-84323394D02*
X123673851Y-84466251D01*
X123673851Y-84751965D01*
X123602422Y-84894822D01*
X123459565Y-84966251D01*
X122888137Y-84966251D01*
X122745280Y-84894822D01*
X122673851Y-84751965D01*
X122673851Y-84466251D01*
X122745280Y-84323394D01*
X122888137Y-84251965D01*
X123030994Y-84251965D01*
X123173851Y-84966251D01*
X123673851Y-83609108D02*
X122673851Y-83609108D01*
X122959565Y-83609108D02*
X122816708Y-83537680D01*
X122745280Y-83466251D01*
X122673851Y-83323394D01*
X122673851Y-83180537D01*
X123602422Y-81609108D02*
X123673851Y-81466251D01*
X123673851Y-81180537D01*
X123602422Y-81037680D01*
X123459565Y-80966251D01*
X123388137Y-80966251D01*
X123245280Y-81037680D01*
X123173851Y-81180537D01*
X123173851Y-81394822D01*
X123102422Y-81537680D01*
X122959565Y-81609108D01*
X122888137Y-81609108D01*
X122745280Y-81537680D01*
X122673851Y-81394822D01*
X122673851Y-81180537D01*
X122745280Y-81037680D01*
X122673851Y-80466251D02*
X123673851Y-80180537D01*
X122959565Y-79894822D01*
X123673851Y-79609108D01*
X122673851Y-79323394D01*
X123673851Y-78751965D02*
X122673851Y-78751965D01*
X122173851Y-78751965D02*
X122245280Y-78823394D01*
X122316708Y-78751965D01*
X122245280Y-78680537D01*
X122173851Y-78751965D01*
X122316708Y-78751965D01*
X122673851Y-78251965D02*
X122673851Y-77680537D01*
X122173851Y-78037680D02*
X123459565Y-78037680D01*
X123602422Y-77966251D01*
X123673851Y-77823394D01*
X123673851Y-77680537D01*
X123602422Y-76537680D02*
X123673851Y-76680537D01*
X123673851Y-76966251D01*
X123602422Y-77109108D01*
X123530994Y-77180537D01*
X123388137Y-77251965D01*
X122959565Y-77251965D01*
X122816708Y-77180537D01*
X122745280Y-77109108D01*
X122673851Y-76966251D01*
X122673851Y-76680537D01*
X122745280Y-76537680D01*
X123673851Y-75894822D02*
X122173851Y-75894822D01*
X123673851Y-75251965D02*
X122888137Y-75251965D01*
X122745280Y-75323394D01*
X122673851Y-75466251D01*
X122673851Y-75680537D01*
X122745280Y-75823394D01*
X122816708Y-75894822D01*
D12*
X120455280Y-75429680D02*
X121217280Y-75429680D01*
X120455280Y-89526680D02*
X121217280Y-89526680D01*
X120455280Y-75429680D02*
X120455280Y-89526680D01*
X51875280Y-89145680D02*
X51113280Y-89145680D01*
X51875280Y-98670680D02*
X51113280Y-98670680D01*
X51875280Y-89145680D02*
X51875280Y-98670680D01*
X51875280Y-85081680D02*
X51113280Y-85081680D01*
X51875280Y-74667680D02*
X51875280Y-85081680D01*
X51113280Y-74667680D02*
X51875280Y-74667680D01*
X109025280Y-59046680D02*
X64321280Y-59046680D01*
X109025280Y-99686680D02*
X109025280Y-59046680D01*
X64321280Y-99686680D02*
X64321280Y-59046680D01*
X64321280Y-99686680D02*
X109025280Y-99686680D01*
D11*
X61366400Y-49403000D02*
X111373920Y-49428400D01*
X61341000Y-119430800D02*
X111348520Y-119456200D01*
X111328200Y-119430800D02*
X111328200Y-49428400D01*
X61341000Y-119430800D02*
X61341000Y-49428400D01*
X90970100Y-104940100D02*
X90970100Y-103797100D01*
X88557100Y-104940100D02*
X90970100Y-104940100D01*
X88557100Y-103797100D02*
X88557100Y-104940100D01*
X90970100Y-99034600D02*
X88557100Y-99034600D01*
X90970100Y-100114100D02*
X90970100Y-99034600D01*
X86969600Y-99034600D02*
X86969600Y-100114100D01*
X87795100Y-100114100D02*
X87795100Y-99034600D01*
X87795100Y-99034600D02*
X86969600Y-99034600D01*
X88557100Y-100114100D02*
X88557100Y-99034600D01*
X86969600Y-104940100D02*
X86969600Y-103797100D01*
X87795100Y-104940100D02*
X86969600Y-104940100D01*
X87795100Y-103797100D02*
X87795100Y-104940100D01*
X55223017Y-105401680D02*
G75*
G03*
X55223017Y-105401680I-1696737J0D01*
G01*
X120615317Y-61203140D02*
G75*
G03*
X120615317Y-61203140I-1696737J0D01*
G01*
X55210317Y-62219140D02*
G75*
G03*
X55210317Y-62219140I-1696737J0D01*
G01*
X120615317Y-105399140D02*
G75*
G03*
X120615317Y-105399140I-1696737J0D01*
G01*
D13*
X114930436Y-101840000D02*
X116134564Y-101840000D01*
X114930436Y-100020000D02*
X116134564Y-100020000D01*
D11*
X86588695Y-105725980D02*
X86588695Y-106535504D01*
X86636314Y-106630742D01*
X86683933Y-106678361D01*
X86779171Y-106725980D01*
X86969647Y-106725980D01*
X87064885Y-106678361D01*
X87112504Y-106630742D01*
X87160123Y-106535504D01*
X87160123Y-105725980D01*
X88160123Y-106725980D02*
X87588695Y-106725980D01*
X87874409Y-106725980D02*
X87874409Y-105725980D01*
X87779171Y-105868838D01*
X87683933Y-105964076D01*
X87588695Y-106011695D01*
D14*
X79162257Y-103324790D02*
X78876542Y-103324790D01*
X79019400Y-103324790D02*
X79019400Y-102824790D01*
X78971780Y-102896219D01*
X78924161Y-102943838D01*
X78876542Y-102967647D01*
X95688161Y-103324790D02*
X95402447Y-103324790D01*
X95545304Y-103324790D02*
X95545304Y-102824790D01*
X95497685Y-102896219D01*
X95450066Y-102943838D01*
X95402447Y-102967647D01*
X95973876Y-103039076D02*
X95926257Y-103015266D01*
X95902447Y-102991457D01*
X95878638Y-102943838D01*
X95878638Y-102920028D01*
X95902447Y-102872409D01*
X95926257Y-102848600D01*
X95973876Y-102824790D01*
X96069114Y-102824790D01*
X96116733Y-102848600D01*
X96140542Y-102872409D01*
X96164352Y-102920028D01*
X96164352Y-102943838D01*
X96140542Y-102991457D01*
X96116733Y-103015266D01*
X96069114Y-103039076D01*
X95973876Y-103039076D01*
X95926257Y-103062885D01*
X95902447Y-103086695D01*
X95878638Y-103134314D01*
X95878638Y-103229552D01*
X95902447Y-103277171D01*
X95926257Y-103300980D01*
X95973876Y-103324790D01*
X96069114Y-103324790D01*
X96116733Y-103300980D01*
X96140542Y-103277171D01*
X96164352Y-103229552D01*
X96164352Y-103134314D01*
X96140542Y-103086695D01*
X96116733Y-103062885D01*
X96069114Y-103039076D01*
D11*
X87160123Y-99371171D02*
X87350600Y-99904504D01*
X87541076Y-99371171D01*
X89249314Y-100095004D02*
X88868361Y-100095004D01*
X88868361Y-99295004D01*
X89515980Y-99675957D02*
X89782647Y-99675957D01*
X89896933Y-100095004D02*
X89515980Y-100095004D01*
X89515980Y-99295004D01*
X89896933Y-99295004D01*
X90239790Y-100095004D02*
X90239790Y-99295004D01*
X90430266Y-99295004D01*
X90544552Y-99333100D01*
X90620742Y-99409290D01*
X90658838Y-99485480D01*
X90696933Y-99637861D01*
X90696933Y-99752147D01*
X90658838Y-99904528D01*
X90620742Y-99980719D01*
X90544552Y-100056909D01*
X90430266Y-100095004D01*
X90239790Y-100095004D01*
X89249314Y-104667004D02*
X88868361Y-104667004D01*
X88868361Y-103867004D01*
X89515980Y-104247957D02*
X89782647Y-104247957D01*
X89896933Y-104667004D02*
X89515980Y-104667004D01*
X89515980Y-103867004D01*
X89896933Y-103867004D01*
X90239790Y-104667004D02*
X90239790Y-103867004D01*
X90430266Y-103867004D01*
X90544552Y-103905100D01*
X90620742Y-103981290D01*
X90658838Y-104057480D01*
X90696933Y-104209861D01*
X90696933Y-104324147D01*
X90658838Y-104476528D01*
X90620742Y-104552719D01*
X90544552Y-104628909D01*
X90430266Y-104667004D01*
X90239790Y-104667004D01*
X87160123Y-104133671D02*
X87350600Y-104667004D01*
X87541076Y-104133671D01*
X86406004Y-99106100D02*
X86310766Y-99058480D01*
X86167909Y-99058480D01*
X86025052Y-99106100D01*
X85929814Y-99201338D01*
X85882195Y-99296576D01*
X85834576Y-99487052D01*
X85834576Y-99629909D01*
X85882195Y-99820385D01*
X85929814Y-99915623D01*
X86025052Y-100010861D01*
X86167909Y-100058480D01*
X86263147Y-100058480D01*
X86406004Y-100010861D01*
X86453623Y-99963242D01*
X86453623Y-99629909D01*
X86263147Y-99629909D01*
X86406004Y-103932100D02*
X86310766Y-103884480D01*
X86167909Y-103884480D01*
X86025052Y-103932100D01*
X85929814Y-104027338D01*
X85882195Y-104122576D01*
X85834576Y-104313052D01*
X85834576Y-104455909D01*
X85882195Y-104646385D01*
X85929814Y-104741623D01*
X86025052Y-104836861D01*
X86167909Y-104884480D01*
X86263147Y-104884480D01*
X86406004Y-104836861D01*
X86453623Y-104789242D01*
X86453623Y-104455909D01*
X86263147Y-104455909D01*
X80818004Y-99042600D02*
X80722766Y-98994980D01*
X80579909Y-98994980D01*
X80437052Y-99042600D01*
X80341814Y-99137838D01*
X80294195Y-99233076D01*
X80246576Y-99423552D01*
X80246576Y-99566409D01*
X80294195Y-99756885D01*
X80341814Y-99852123D01*
X80437052Y-99947361D01*
X80579909Y-99994980D01*
X80675147Y-99994980D01*
X80818004Y-99947361D01*
X80865623Y-99899742D01*
X80865623Y-99566409D01*
X80675147Y-99566409D01*
X80818004Y-103932100D02*
X80722766Y-103884480D01*
X80579909Y-103884480D01*
X80437052Y-103932100D01*
X80341814Y-104027338D01*
X80294195Y-104122576D01*
X80246576Y-104313052D01*
X80246576Y-104455909D01*
X80294195Y-104646385D01*
X80341814Y-104741623D01*
X80437052Y-104836861D01*
X80579909Y-104884480D01*
X80675147Y-104884480D01*
X80818004Y-104836861D01*
X80865623Y-104789242D01*
X80865623Y-104455909D01*
X80675147Y-104455909D01*
D13*
X115399166Y-99307604D02*
X115132500Y-98926652D01*
X114942023Y-99307604D02*
X114942023Y-98507604D01*
X115246785Y-98507604D01*
X115322976Y-98545700D01*
X115361071Y-98583795D01*
X115399166Y-98659985D01*
X115399166Y-98774271D01*
X115361071Y-98850461D01*
X115322976Y-98888557D01*
X115246785Y-98926652D01*
X114942023Y-98926652D01*
X116161071Y-99307604D02*
X115703928Y-99307604D01*
X115932500Y-99307604D02*
X115932500Y-98507604D01*
X115856309Y-98621890D01*
X115780119Y-98698080D01*
X115703928Y-98736176D01*
M02*
